<?xml version="1.0" encoding="utf-8"?>
<!-- Generator: Adobe Illustrator 23.0.1, SVG Export Plug-In . SVG Version: 6.00 Build 0)  -->
<svg version="1.1" id="Warstwa_1" xmlns="http://www.w3.org/2000/svg" xmlns:xlink="http://www.w3.org/1999/xlink" x="0px" y="0px"
	 viewBox="0 0 1920 1080" style="enable-background:new 0 0 1920 1080;" xml:space="preserve">
<style type="text/css">
	.st0{fill:none;}
	.st1{fill:none;stroke:#CD5D28;stroke-width:3;stroke-miterlimit:10;}
	.st2{fill:none;stroke:#CD5D28;stroke-miterlimit:10;}
	.st3{fill:#EFD6BF;}
	.st4{opacity:0.16;}
	.st5{fill:url(#SVGID_1_);}
	.st6{fill:url(#SVGID_2_);}
	.st7{fill:url(#SVGID_3_);}
	.st8{fill:url(#SVGID_4_);}
	.st9{fill:url(#SVGID_5_);}
	.st10{fill:url(#SVGID_6_);}
	.st11{fill:none;stroke:#CD5D28;stroke-miterlimit:10;stroke-dasharray:12;}
	.st12{fill:url(#SVGID_7_);}
	.st13{fill:none;stroke:#CD5D28;stroke-width:2;stroke-miterlimit:10;stroke-dasharray:12;}
	.st14{fill:url(#SVGID_8_);}
	.st15{fill:#F37442;}
	.st16{fill:#E5925B;}
	.st17{fill:url(#);}
	.st18{fill:#DF692D;}
	.st19{fill:#E4882B;}
	.st20{fill:#E4862B;}
	.st21{fill:#E2B232;}
	.st22{clip-path:url(#SVGID_10_);}
	.st23{fill:#EDD6C0;}
	.st24{opacity:0.71;fill:#EFD8AF;}
	.st25{opacity:0.65;fill:#E1C3A3;}
	.st26{opacity:0.75;}
	.st27{fill:#D9B98D;}
	.st28{opacity:0.67;fill:#E5A875;}
	.st29{opacity:0.33;}
	.st30{fill:#EEE4CB;}
	.st31{opacity:0.65;fill:#D1925A;}
	.st32{fill:#D1925A;}
	.st33{opacity:0.65;}
	.st34{opacity:0.52;fill:#D1925A;}
	.st35{fill:none;stroke:#D1925A;stroke-miterlimit:10;}
	.st36{fill:none;stroke:#D1925A;stroke-width:3;stroke-miterlimit:10;}
	.st37{opacity:0.77;}
	.st38{fill:none;stroke:#D1925A;stroke-width:0.25;stroke-miterlimit:10;}
	.st39{opacity:0.66;}
	.st40{fill:none;stroke:#D1925A;stroke-width:7;stroke-miterlimit:10;}
	.st41{opacity:0.69;fill:none;stroke:#D1925A;stroke-width:7;stroke-miterlimit:10;}
	.st42{fill:#CD5D28;}
	.st43{fill:none;stroke:#CD5D28;stroke-width:10;stroke-miterlimit:10;}
	.st44{clip-path:url(#SVGID_12_);}
	.st45{clip-path:url(#SVGID_14_);}
	.st46{clip-path:url(#SVGID_16_);}
	.st47{clip-path:url(#SVGID_18_);}
	.st48{clip-path:url(#SVGID_20_);}
	.st49{clip-path:url(#SVGID_22_);}
	.st50{fill:none;stroke:#CD5D28;stroke-linejoin:round;stroke-miterlimit:10;}
	.st51{fill:none;stroke:#622507;stroke-miterlimit:10;}
	.st52{fill:none;stroke:#CD5D28;stroke-width:0.5;stroke-miterlimit:10;}
	.st53{fill:none;stroke:#F7B143;stroke-width:0.5;stroke-miterlimit:10;}
	.st54{fill:none;stroke:#CD5D28;stroke-width:0.75;stroke-miterlimit:10;}
	.st55{fill:none;stroke:#D8A07A;stroke-width:2;stroke-miterlimit:10;}
	.st56{opacity:0.59;}
	.st57{fill:none;stroke:#CD5D28;stroke-miterlimit:10;stroke-dasharray:11.9677,11.9677;}
	.st58{fill:none;stroke:#CD5D28;stroke-miterlimit:10;stroke-dasharray:12.1212,12.1212;}
	.st59{fill:none;stroke:#CD5D28;stroke-miterlimit:10;stroke-dasharray:12.1091,12.1091;}
	.st60{fill:none;stroke:#CD5D28;stroke-width:2;stroke-miterlimit:10;}
	.st61{fill:#E4BB9D;stroke:#CD5D28;stroke-width:3;stroke-miterlimit:10;}
	.st62{fill:none;stroke:#CD5D28;stroke-width:0.1;stroke-miterlimit:10;}
	.st63{clip-path:url(#SVGID_30_);}
	.st64{clip-path:url(#SVGID_32_);}
	.st65{clip-path:url(#SVGID_34_);}
	.st66{clip-path:url(#SVGID_36_);}
	.st67{clip-path:url(#SVGID_38_);}
	.st68{clip-path:url(#SVGID_40_);}
	.st69{opacity:0.71;}
</style>
<pattern  width="131.06" height="131.18" patternUnits="userSpaceOnUse" id="Nowa_próbka_wzorka_4" viewBox="0 -131.18 131.06 131.18" style="overflow:visible;">
	<g>
		<rect y="-131.18" class="st0" width="131.06" height="131.18"/>
		<polyline class="st1" points="131.06,-1.5 1.5,-1.5 1.5,-131.06 		"/>
		<line class="st2" x1="66.28" y1="-131.18" x2="66.28" y2="-1.5"/>
		<line class="st2" x1="97.22" y1="-131.18" x2="97.22" y2="-1.5"/>
		<line class="st2" x1="33.07" y1="-131.18" x2="33.07" y2="-1.5"/>
		<line class="st2" x1="129.99" y1="-65.21" x2="0.31" y2="-65.21"/>
		<line class="st2" x1="129.99" y1="-34.27" x2="0.31" y2="-34.27"/>
		<line class="st2" x1="129.99" y1="-98.41" x2="0.31" y2="-98.41"/>
	</g>
</pattern>
<g>
	<rect x="-5" y="80" class="st3" width="1937" height="8560"/>
</g>
<g class="st4">
	
		<pattern  id="SVGID_1_" xlink:href="#Nowa_prĂłbka_wzorka_4" patternTransform="matrix(1 0 0 0.3268 0 -4514.5205)"  class="st4">
	</pattern>
	<rect x="-15" y="1073" class="st5" width="1937" height="1085"/>
</g>
<g>
	<rect y="-1" class="st23" width="1920" height="86"/>
</g>
<path class="st24" d="M735.05,736.68c-0.04,0.18-0.08,0.24-0.12,0C734.97,736.68,735.01,736.68,735.05,736.68z"/>
<polygon class="st25" points="557.69,992.7 557.69,781.9 515.12,781.9 515.12,717.38 459.58,717.38 459.58,692.96 439.89,692.96 
	439.89,656.99 376.43,656.99 376.43,706.58 335.34,706.58 308.46,706.58 308.46,863.54 211.54,863.54 211.54,736.32 171.72,736.32 
	171.72,799.05 4.51,799.05 4.51,994.32 "/>
<path class="st25" d="M876.83,708.07v-22.17h-7.58v-35.55h-2.21v-31.98h-5.37v-25.99h-6.63v-6.77h-4.74l-8.52-20.92v-53.95
	l-3.16-4.32v-8.92h-3.16v8.38l-3.79,4.32v54.49l-12,20.92l-10.73,6.5v25.14c0,0-6.31-1.89-6.31,0s0,28.3,0,28.3h-4.74v39.28h-5.05
	v21.9h-11.68V655.9h-13.57v-20h-28.73v7.63h-8.84v-32.99h-4.1v-11.61h-15.47V583h-74.5v53.18c0,0-11.36,0-11.05,0
	c0.32,0,0-17.8,0-17.8h-36.62v8.07h-8.76v63.94h-14.6v31.2h-7.26v246.63h327.66"/>
<path class="st25" d="M1659.23,654.93v-20.38h-15.63v-20.78h-111.76v-75.94h-18.76v-63.55h-76.2v9.19h-10.55v35.97h-50.02v15.19
	h-18.76v-35.57h-165.69c0,0-0.58,16.79,14.36,16.79v115.11h-123.2c0,0-1.65-11.49,8.41-11.49c10.06,0,16.51,0,16.51,0l-25.89-28.88
	h-59.98h-18.94V474.27h-128.4v691.52h859V657.65L1659.23,654.93z"/>
<polygon class="st25" points="1738.74,721.46 1803.71,721.46 1803.71,743.36 1816.32,743.36 1816.32,764.71 1854.6,764.71 
	1854.6,849.21 1854.6,1092.99 1733.74,1092.99 1733.74,723.96 "/>
<polyline class="st25" points="1885.8,984.54 1965.76,984.54 1965.76,1099.01 1854.6,1099.01 1854.6,984.54 1885.8,984.54 "/>
<g class="st26">
	<g>
		<rect x="1052.86" y="786.98" class="st27" width="16.76" height="14.74"/>
		<rect x="1074.29" y="786.98" class="st27" width="16.76" height="14.74"/>
		<rect x="1094.91" y="786.98" class="st27" width="16.76" height="14.74"/>
		<rect x="1052.86" y="808.66" class="st27" width="16.76" height="14.74"/>
		<rect x="1074.29" y="808.66" class="st27" width="16.76" height="14.74"/>
		<rect x="1094.91" y="808.66" class="st27" width="16.76" height="14.74"/>
		<rect x="1052.86" y="830.41" class="st27" width="16.76" height="14.74"/>
		<rect x="1074.29" y="830.41" class="st27" width="16.76" height="14.74"/>
		<rect x="1094.91" y="830.41" class="st27" width="16.76" height="14.74"/>
		<rect x="1052.86" y="852.08" class="st27" width="16.76" height="14.74"/>
		<rect x="1074.29" y="852.08" class="st27" width="16.76" height="14.74"/>
		<rect x="1094.91" y="852.08" class="st27" width="16.76" height="14.74"/>
		<rect x="1052.86" y="875.22" class="st27" width="16.76" height="14.74"/>
		<rect x="1074.29" y="875.22" class="st27" width="16.76" height="14.74"/>
		<rect x="1094.91" y="875.22" class="st27" width="16.76" height="14.74"/>
		<rect x="1052.86" y="896.9" class="st27" width="16.76" height="14.74"/>
		<rect x="1074.29" y="896.9" class="st27" width="16.76" height="14.74"/>
		<rect x="1094.91" y="896.9" class="st27" width="16.76" height="14.74"/>
		<rect x="1052.86" y="918.65" class="st27" width="16.76" height="14.74"/>
		<rect x="1074.29" y="918.65" class="st27" width="16.76" height="14.74"/>
		<rect x="1094.91" y="918.65" class="st27" width="16.76" height="14.74"/>
		<rect x="1052.86" y="940.32" class="st27" width="16.76" height="14.74"/>
		<rect x="1074.29" y="940.32" class="st27" width="16.76" height="14.74"/>
		<rect x="1094.91" y="940.32" class="st27" width="16.76" height="14.74"/>
	</g>
</g>
<g>
	<rect x="373.82" y="711.61" class="st28" width="108.29" height="276.68"/>
	<g class="st29">
		<g>
			<rect x="388.81" y="722.3" class="st30" width="21.75" height="17.21"/>
			<rect x="417.09" y="722.3" class="st30" width="21.75" height="17.21"/>
			<rect x="446.57" y="722.3" class="st30" width="21.75" height="17.21"/>
			<rect x="388.81" y="752.43" class="st30" width="21.75" height="17.21"/>
			<rect x="417.09" y="752.43" class="st30" width="21.75" height="17.21"/>
			<rect x="446.57" y="752.43" class="st30" width="21.75" height="17.21"/>
			<rect x="388.81" y="780.95" class="st30" width="21.75" height="17.21"/>
			<rect x="417.09" y="780.95" class="st30" width="21.75" height="17.21"/>
			<rect x="446.57" y="780.95" class="st30" width="21.75" height="17.21"/>
			<rect x="388.81" y="811.07" class="st30" width="21.75" height="17.21"/>
			<rect x="417.09" y="811.07" class="st30" width="21.75" height="17.21"/>
			<rect x="446.57" y="811.07" class="st30" width="21.75" height="17.21"/>
			<rect x="388.81" y="837.32" class="st30" width="21.75" height="17.21"/>
			<rect x="417.09" y="837.32" class="st30" width="21.75" height="17.21"/>
			<rect x="446.57" y="837.32" class="st30" width="21.75" height="17.21"/>
			<rect x="388.81" y="867.44" class="st30" width="21.75" height="17.21"/>
			<rect x="417.09" y="867.44" class="st30" width="21.75" height="17.21"/>
			<rect x="446.57" y="867.44" class="st30" width="21.75" height="17.21"/>
			<rect x="388.81" y="895.96" class="st30" width="21.75" height="17.21"/>
			<rect x="417.09" y="895.96" class="st30" width="21.75" height="17.21"/>
			<rect x="446.57" y="895.96" class="st30" width="21.75" height="17.21"/>
			<rect x="388.81" y="926.09" class="st30" width="21.75" height="17.21"/>
			<rect x="417.09" y="926.09" class="st30" width="21.75" height="17.21"/>
			<rect x="446.57" y="926.09" class="st30" width="21.75" height="17.21"/>
			<rect x="388.81" y="956.67" class="st30" width="21.75" height="17.21"/>
			<rect x="417.09" y="956.67" class="st30" width="21.75" height="17.21"/>
			<rect x="446.57" y="956.67" class="st30" width="21.75" height="17.21"/>
		</g>
	</g>
</g>
<rect x="58.35" y="731.09" class="st28" width="107" height="264.72"/>
<polygon class="st31" points="283.9,786.6 311.94,786.6 311.94,799.17 332.25,799.17 332.25,809.8 351.1,809.8 351.1,824.02 
	373.82,824.02 373.82,991.57 283.9,991.57 "/>
<g class="st29">
	<g>
		<rect x="72.08" y="743.14" class="st30" width="21.75" height="17.21"/>
		<rect x="100.36" y="743.14" class="st30" width="21.75" height="17.21"/>
		<rect x="129.85" y="743.14" class="st30" width="21.75" height="17.21"/>
		<rect x="72.08" y="773.27" class="st30" width="21.75" height="17.21"/>
		<rect x="100.36" y="773.27" class="st30" width="21.75" height="17.21"/>
		<rect x="129.85" y="773.27" class="st30" width="21.75" height="17.21"/>
		<rect x="72.08" y="801.79" class="st30" width="21.75" height="17.21"/>
		<rect x="100.36" y="801.79" class="st30" width="21.75" height="17.21"/>
		<rect x="129.85" y="801.79" class="st30" width="21.75" height="17.21"/>
		<rect x="72.08" y="831.91" class="st30" width="21.75" height="17.21"/>
		<rect x="100.36" y="831.91" class="st30" width="21.75" height="17.21"/>
		<rect x="129.85" y="831.91" class="st30" width="21.75" height="17.21"/>
		<rect x="72.08" y="858.16" class="st30" width="21.75" height="17.21"/>
		<rect x="100.36" y="858.16" class="st30" width="21.75" height="17.21"/>
		<rect x="129.85" y="858.16" class="st30" width="21.75" height="17.21"/>
		<rect x="72.08" y="888.29" class="st30" width="21.75" height="17.21"/>
		<rect x="100.36" y="888.29" class="st30" width="21.75" height="17.21"/>
		<rect x="129.85" y="888.29" class="st30" width="21.75" height="17.21"/>
		<rect x="72.08" y="916.8" class="st30" width="21.75" height="17.21"/>
		<rect x="100.36" y="916.8" class="st30" width="21.75" height="17.21"/>
		<rect x="129.85" y="916.8" class="st30" width="21.75" height="17.21"/>
		<rect x="72.08" y="946.93" class="st30" width="21.75" height="17.21"/>
		<rect x="100.36" y="946.93" class="st30" width="21.75" height="17.21"/>
		<rect x="129.85" y="946.93" class="st30" width="21.75" height="17.21"/>
		<rect x="72.08" y="977.51" class="st30" width="21.75" height="17.21"/>
		<rect x="100.36" y="977.51" class="st30" width="21.75" height="17.21"/>
		<rect x="129.85" y="977.51" class="st30" width="21.75" height="17.21"/>
	</g>
</g>
<g>
	<rect x="765.76" y="804.4" class="st32" width="0.97" height="187.93"/>
	<rect x="778.21" y="804.4" class="st32" width="0.97" height="187.93"/>
	<rect x="784.01" y="804.4" class="st32" width="0.97" height="187.93"/>
	<rect x="765.76" y="947.49" class="st32" width="13.41" height="0.97"/>
	<rect x="765.76" y="961.63" class="st32" width="13.41" height="0.97"/>
	<polygon class="st32" points="765.76,948.46 778.21,962.6 779.17,961.63 766.73,947.49 	"/>
	<polyline class="st32" points="765.76,961.63 765.85,961.73 766.73,962.6 772.14,948.46 770.96,948.46 	"/>
	<polygon class="st32" points="778.21,956.26 771.78,949.41 772.14,948.46 778.21,954.65 	"/>
	<rect x="765.76" y="932.87" class="st32" width="13.41" height="0.97"/>
	<rect x="765.76" y="947.01" class="st32" width="13.41" height="0.97"/>
	<rect x="765.76" y="962.12" class="st32" width="13.41" height="0.97"/>
	<rect x="765.76" y="976.26" class="st32" width="13.41" height="0.97"/>
	<polygon class="st32" points="765.76,963.08 778.21,977.22 779.17,976.26 766.73,962.12 	"/>
	<polyline class="st32" points="765.76,976.26 765.85,976.35 766.73,977.22 772.14,963.08 770.96,963.08 	"/>
	<polygon class="st32" points="778.21,970.88 771.78,964.04 772.14,963.08 778.21,969.27 	"/>
	<rect x="765.76" y="961.63" class="st32" width="13.41" height="0.97"/>
	<polygon class="st32" points="765.76,933.84 778.21,947.98 779.17,947.01 766.73,932.87 	"/>
	<polygon class="st32" points="778.21,941.63 771.78,934.79 772.14,933.84 778.21,940.02 	"/>
	<rect x="765.76" y="918.73" class="st32" width="13.41" height="0.97"/>
	<rect x="765.76" y="932.87" class="st32" width="13.41" height="0.97"/>
	<polygon class="st32" points="765.76,919.7 778.21,933.84 779.17,932.87 766.73,918.73 	"/>
	<polyline class="st32" points="765.76,932.87 765.85,932.96 766.73,933.84 772.14,919.7 770.96,919.7 	"/>
	<polygon class="st32" points="778.21,927.49 771.78,920.65 772.14,919.7 778.21,925.88 	"/>
	<rect x="765.76" y="904.11" class="st32" width="13.41" height="0.97"/>
	<rect x="765.76" y="918.25" class="st32" width="13.41" height="0.97"/>
	<polygon class="st32" points="765.76,905.07 778.21,919.21 779.17,918.25 766.73,904.11 	"/>
	<polygon class="st32" points="778.21,912.87 771.78,906.02 772.14,905.07 778.21,911.26 	"/>
	<rect x="765.76" y="889.48" class="st32" width="13.41" height="0.97"/>
	<rect x="765.76" y="903.62" class="st32" width="13.41" height="0.97"/>
	<polygon class="st32" points="765.76,890.45 778.21,904.59 779.17,903.62 766.73,889.48 	"/>
	<polygon class="st32" points="778.21,898.25 771.78,891.4 772.14,890.45 778.21,896.64 	"/>
	<rect x="765.76" y="874.86" class="st32" width="13.41" height="0.97"/>
	<rect x="765.76" y="889" class="st32" width="13.41" height="0.97"/>
	<polygon class="st32" points="765.76,875.83 778.21,889.97 779.17,889 766.73,874.86 	"/>
	<polygon class="st32" points="778.21,883.62 771.78,876.78 772.14,875.83 778.21,882.01 	"/>
	<rect x="765.76" y="860.72" class="st32" width="13.41" height="0.97"/>
	<rect x="765.76" y="874.86" class="st32" width="13.41" height="0.97"/>
	<polygon class="st32" points="765.76,861.69 778.21,875.83 779.17,874.86 766.73,860.72 	"/>
	<polygon class="st32" points="778.21,869.48 771.78,862.64 772.14,861.69 778.21,867.87 	"/>
	<rect x="765.76" y="846.1" class="st32" width="13.41" height="0.97"/>
	<rect x="765.76" y="860.24" class="st32" width="13.41" height="0.97"/>
	<polygon class="st32" points="765.76,847.06 778.21,861.2 779.17,860.24 766.73,846.1 	"/>
	<polygon class="st32" points="778.21,854.86 771.78,848.01 772.14,847.06 778.21,853.25 	"/>
	<rect x="765.76" y="846.1" class="st32" width="13.41" height="0.97"/>
	<rect x="765.76" y="831.96" class="st32" width="13.41" height="0.97"/>
	<rect x="765.76" y="846.1" class="st32" width="13.41" height="0.97"/>
	<polygon class="st32" points="765.76,832.92 778.21,847.06 779.17,846.1 766.73,831.96 	"/>
	<polygon class="st32" points="778.21,840.72 771.78,833.87 772.14,832.92 778.21,839.11 	"/>
	<rect x="765.76" y="817.33" class="st32" width="13.41" height="0.97"/>
	<rect x="765.76" y="831.47" class="st32" width="13.41" height="0.97"/>
	<polygon class="st32" points="765.76,818.3 778.21,832.44 779.17,831.47 766.73,817.33 	"/>
	<polygon class="st32" points="778.21,826.1 771.78,819.25 772.14,818.3 778.21,824.49 	"/>
	<rect x="765.76" y="804.4" class="st32" width="13.41" height="0.97"/>
	<polygon class="st32" points="765.76,805.37 778.21,819.51 779.17,818.54 766.73,804.4 	"/>
	<polygon class="st32" points="778.21,813.16 771.78,806.32 772.14,805.37 778.21,811.56 	"/>
	<polygon class="st32" points="784.01,809.66 779.17,808.33 778.69,806.82 784.01,808.24 	"/>
	<polygon class="st32" points="784.01,805.97 779.17,805.67 779.54,803.25 784.01,803.25 	"/>
	<polyline class="st32" points="790.9,803.92 778.21,806.82 768.42,806.33 766.24,804.89 757.54,801.56 776.09,798.72 790.9,803.92 
		778.69,804.89 784.49,805.37 790.9,803.92 779.17,803.92 778.69,804.89 784.01,804.89 790.9,803.92 779.17,803.92 779.17,803.92 
		778.21,804.89 	"/>
	<polygon class="st32" points="782.58,809.27 779.17,815.4 779.17,818.3 784.01,823.19 783.77,821.14 779.66,817.33 784.01,809.66 	
		"/>
	<polygon class="st32" points="782.58,822.2 779.17,828.33 779.17,831.23 784.01,836.13 783.77,834.07 779.66,830.26 784.01,822.59 
			"/>
	<polygon class="st32" points="782.58,834.57 779.17,840.7 779.17,843.6 784.01,848.5 783.77,846.44 779.66,842.64 784.01,834.96 	
		"/>
	<polygon class="st32" points="782.58,847.06 779.17,853.2 779.17,856.1 784.01,860.99 783.77,858.94 779.66,855.13 784.01,847.46 	
		"/>
	<polygon class="st32" points="782.58,859.15 779.17,865.28 779.17,868.18 784.01,873.08 783.77,871.02 779.66,867.22 
		784.01,859.54 	"/>
	<polygon class="st32" points="782.58,871.05 779.17,877.19 779.17,880.09 784.01,884.98 783.77,882.93 779.66,879.12 
		784.01,871.45 	"/>
	<polygon class="st32" points="782.58,883 779.17,889.14 779.17,892.04 784.01,896.93 783.77,894.88 779.66,891.07 784.01,883.4 	
		"/>
	<polygon class="st32" points="782.58,895.04 779.17,901.18 779.17,904.08 784.01,908.97 783.77,906.92 779.66,903.11 
		784.01,895.44 	"/>
	<polygon class="st32" points="782.58,906.89 779.17,913.02 779.17,915.92 784.01,920.81 783.77,918.76 779.66,914.95 
		784.01,907.28 	"/>
	<polygon class="st32" points="782.58,918.73 779.17,924.86 779.17,927.76 784.01,932.66 783.77,930.6 779.66,926.8 784.01,919.12 	
		"/>
	<polygon class="st32" points="782.58,930.77 779.17,936.9 779.17,939.8 784.01,944.7 783.77,942.64 779.66,938.84 784.01,931.16 	
		"/>
	<polygon class="st32" points="782.58,942.75 779.17,948.89 779.17,951.79 784.01,956.68 783.77,954.63 779.66,950.82 
		784.01,943.15 	"/>
	<polygon class="st32" points="782.58,954.67 779.17,960.8 779.17,963.7 784.01,968.6 783.77,966.54 779.66,962.74 784.01,955.06 	
		"/>
	<polygon class="st32" points="782.58,966.57 779.17,972.71 779.17,975.61 784.01,980.5 783.77,978.45 779.66,974.64 784.01,966.97 
			"/>
	<rect x="757.02" y="793.8" class="st32" width="0.97" height="7.94"/>
	<rect x="761.62" y="793.16" class="st32" width="0.97" height="7.94"/>
	<rect x="784.28" y="794.16" class="st32" width="0.97" height="7.94"/>
	<rect x="787.28" y="795.12" class="st32" width="0.97" height="7.94"/>
	<rect x="790.19" y="796.07" class="st32" width="0.97" height="7.94"/>
	<polygon class="st32" points="756.48,793.8 756.48,794.48 775.4,791.29 791.17,796.89 791.37,796.07 775.49,790.57 	"/>
	<polygon class="st32" points="756.48,797.39 756.48,798.07 775.4,794.89 791.17,800.48 791.37,799.67 775.49,794.16 	"/>
	<rect x="763.98" y="780.78" class="st32" width="1.05" height="19.79"/>
	<rect x="770.73" y="780.78" class="st32" width="1.05" height="19.79"/>
	<rect x="776.19" y="780.78" class="st32" width="1.05" height="19.79"/>
	<rect x="782.33" y="780.78" class="st32" width="1.05" height="19.79"/>
	<path class="st32" d="M764.51,792.43c0,0,3.8-6.64,3.98-6.46c0.18,0.18,2.77,5.64,2.77,5.64l2.19-5.65l3.05,5.33l2.68-7.23
		l3.68,6.92v-7.33l1.63,2.78l1.38-0.09v-6.51l2.73-0.55l10.06,5.37l3.05,0.14l2.27,3.96l20.57,9.74l9.28-2.18v-1.87l4.41-0.71v-0.98
		l-13.79-8.1l-0.14-2.82c0,0-3.73-1.96-3.78-1.82c-0.05,0.14-1.09,2.18-1.09,2.18l-2-1.55l-5.37,1.32l-1.82-2.68l-3.37,1.09
		l-12.83-7.64l-6.92-3.37l-0.05,1.96l-6.69,1.41l-0.58-11.74l-0.1-2l-7.83-5.96l-7.01,2.91l-0.39,7.37l1.8,1.59l-0.18,13.83
		l-1.62,0.23v2.14"/>
	<polyline class="st32" points="779.82,760.99 785.59,759.31 786.55,760.15 786.55,764.18 780.05,765.59 780.17,767.91 
		786.55,766.18 787.14,769.36 794.06,772.73 793.95,767 793.88,763.4 794.88,763.27 794.69,762.04 787.35,756.4 779.73,758.99 	"/>
	<polygon class="st32" points="793.95,767 810.16,777.1 817.31,775.46 838.55,787.84 838.55,788.52 817.13,776.42 810.57,777.96 
		793.97,768.05 	"/>
	<rect x="798.82" y="770.94" class="st32" width="1.05" height="5.25"/>
	<rect x="802.79" y="773.05" class="st32" width="0.73" height="5.69"/>
	<rect x="806.16" y="775.23" class="st32" width="0.73" height="5.69"/>
	<rect x="809.94" y="777.51" class="st32" width="0.73" height="5.69"/>
	<rect x="812.44" y="776.96" class="st32" width="0.73" height="5.69"/>
	<rect x="814.62" y="776.46" class="st32" width="0.73" height="5.69"/>
	<rect x="817.03" y="776.46" class="st32" width="0.73" height="5.69"/>
	<rect x="820.4" y="778.08" class="st32" width="0.73" height="5.69"/>
	<rect x="823.81" y="780.08" class="st32" width="0.73" height="5.69"/>
	<rect x="827.18" y="781.9" class="st32" width="0.73" height="5.69"/>
	<rect x="830.46" y="783.76" class="st32" width="0.73" height="5.69"/>
	<rect x="833.82" y="785.68" class="st32" width="0.73" height="5.69"/>
	<rect x="837.24" y="787.59" class="st32" width="0.73" height="5.69"/>
	<polyline class="st32" points="764.58,761.98 617.63,674.64 618.2,673.6 767.33,762.47 	"/>
	<polygon class="st32" points="764.87,756.4 625.45,673.03 619.74,674.52 618.2,673.6 625.93,671.74 765.67,755.62 	"/>
	<polyline class="st32" points="770.25,753.72 766.93,750.62 626.25,664.49 619.57,673.6 618.2,673.6 625.85,662.88 767.65,749.9 
		771.2,753.72 	"/>
	<polygon class="st32" points="766.48,755.28 765.23,748.75 764.04,748.18 759.89,752.82 760.89,753.49 764.51,749.14 
		765.33,755.95 	"/>
	<polygon class="st32" points="760.84,752.07 759.59,745.54 758.4,744.96 754.25,749.6 755.25,750.27 758.86,745.92 759.69,752.74 	
		"/>
	<polygon class="st32" points="755.56,749.28 754.31,742.75 753.12,742.17 748.97,746.81 749.97,747.48 753.59,743.13 
		754.41,749.95 	"/>
	<polygon class="st32" points="751.13,745.94 749.88,739.41 748.7,738.83 744.54,743.48 745.54,744.14 749.16,739.8 749.98,746.61 	
		"/>
	<polygon class="st32" points="745.49,742.73 744.24,736.2 743.05,735.62 738.9,740.26 739.9,740.93 743.52,736.58 744.34,743.39 	
		"/>
	<polygon class="st32" points="740.21,739.93 738.96,733.41 737.78,732.83 733.62,737.47 734.62,738.14 738.24,733.79 739.06,740.6 
			"/>
	<polygon class="st32" points="735.42,736.05 734.17,729.52 732.98,728.94 728.83,733.58 729.83,734.25 733.45,729.9 734.27,736.72 
			"/>
	<polygon class="st32" points="729.78,732.83 728.53,726.3 727.34,725.73 723.19,730.37 724.19,731.03 727.81,726.69 728.63,733.5 	
		"/>
	<polygon class="st32" points="724.5,730.04 723.25,723.51 722.07,722.94 717.91,727.58 718.91,728.24 722.53,723.9 723.35,730.71 	
		"/>
	<polygon class="st32" points="719.68,726.58 718.43,720.05 717.25,719.47 713.09,724.11 714.09,724.78 717.71,720.43 
		718.53,727.25 	"/>
	<polygon class="st32" points="714.04,723.36 712.79,716.83 711.6,716.26 707.45,720.9 708.45,721.57 712.07,717.22 712.89,724.03 	
		"/>
	<polygon class="st32" points="708.76,720.57 707.51,714.04 706.33,713.47 702.17,718.11 703.17,718.77 706.79,714.43 
		707.61,721.24 	"/>
	<polygon class="st32" points="703.9,717.36 702.65,710.83 701.46,710.26 697.31,714.9 698.31,715.56 701.92,711.22 702.75,718.03 	
		"/>
	<polygon class="st32" points="698.26,714.15 697,707.62 695.82,707.04 691.66,711.68 692.67,712.35 696.28,708 697.1,714.82 	"/>
	<polygon class="st32" points="692.98,711.36 691.73,704.83 690.54,704.25 686.39,708.89 687.39,709.56 691.01,705.21 
		691.83,712.03 	"/>
	<polygon class="st32" points="688.51,707.63 687.26,701.1 686.07,700.53 681.92,705.17 682.92,705.83 686.54,701.49 687.36,708.3 	
		"/>
	<polygon class="st32" points="682.87,704.42 681.61,697.89 680.43,697.31 676.28,701.95 677.28,702.62 680.89,698.27 
		681.71,705.08 	"/>
	<polygon class="st32" points="677.59,701.63 676.34,695.1 675.15,694.52 671,699.16 672,699.83 675.62,695.48 676.44,702.29 	"/>
	<polygon class="st32" points="672.88,698.2 671.63,691.67 670.44,691.1 666.29,695.74 667.29,696.41 670.91,692.06 671.73,698.87 	
		"/>
	<polygon class="st32" points="667.24,694.99 665.98,688.46 664.8,687.88 660.65,692.52 661.65,693.19 665.26,688.85 666.08,695.66 
			"/>
	<polygon class="st32" points="661.96,692.2 660.71,685.67 659.52,685.09 655.37,689.73 656.37,690.4 659.99,686.06 660.81,692.87 	
		"/>
	<polygon class="st32" points="657.49,688.76 656.24,682.23 655.06,681.65 650.9,686.3 651.91,686.96 655.52,682.62 656.34,689.43 	
		"/>
	<polygon class="st32" points="651.85,685.55 650.6,679.02 649.42,678.44 645.26,683.08 646.26,683.75 649.88,679.4 650.7,686.21 	
		"/>
	<polygon class="st32" points="646.58,682.75 645.32,676.22 644.14,675.65 639.98,680.29 640.99,680.96 644.6,676.61 645.42,683.42 
			"/>
	<polygon class="st32" points="641.59,679.82 640.34,673.29 639.16,672.71 635,677.35 636,678.02 639.62,673.68 640.44,680.49 	"/>
	<polygon class="st32" points="635.95,676.6 634.7,670.07 633.52,669.5 629.36,674.14 630.36,674.81 633.98,670.46 634.8,677.27 	
		"/>
	<polygon class="st32" points="630.67,673.81 629.42,667.28 628.24,666.71 624.08,671.35 625.08,672.02 628.7,667.67 629.52,674.48 
			"/>
	<polyline class="st32" points="625.45,673.03 623.69,677.66 623.51,678.14 	"/>
	<polygon class="st32" points="624.48,677.96 625.45,672.71 624.71,672.71 623.69,677.66 	"/>
	<polygon class="st32" points="624.52,677.51 630.9,676.29 630.65,675.59 624.6,676.65 	"/>
	<polyline class="st32" points="631.3,676.55 629.54,681.18 629.36,681.65 	"/>
	<polygon class="st32" points="630.33,681.47 631.3,676.23 630.56,676.23 629.54,681.18 	"/>
	<polygon class="st32" points="630.37,681.03 636.75,679.8 636.5,679.11 630.45,680.16 	"/>
	<polygon class="st32" points="635.58,684.78 636.55,679.54 635.81,679.54 634.8,684.48 	"/>
	<polygon class="st32" points="635.63,684.34 642,683.11 641.76,682.42 635.71,683.47 	"/>
	<polygon class="st32" points="641.43,688.3 642.4,683.05 641.66,683.05 640.64,688 	"/>
	<polygon class="st32" points="641.47,687.85 647.85,686.62 647.6,685.93 641.55,686.99 	"/>
	<polygon class="st32" points="647.5,691.46 648.47,686.21 647.74,686.21 646.72,691.16 	"/>
	<polygon class="st32" points="647.55,691.01 653.92,689.79 653.68,689.1 647.63,690.15 	"/>
	<polygon class="st32" points="653.35,694.97 654.32,689.73 653.58,689.73 652.56,694.68 	"/>
	<polygon class="st32" points="653.39,694.53 659.77,693.3 659.52,692.61 653.48,693.67 	"/>
	<polygon class="st32" points="659.06,698.51 660.03,693.27 659.29,693.27 658.27,698.21 	"/>
	<polygon class="st32" points="659.1,698.07 665.48,696.84 665.23,696.15 659.18,697.2 	"/>
	<polygon class="st32" points="664.91,702.03 665.87,696.78 665.14,696.78 664.12,701.73 	"/>
	<polygon class="st32" points="664.95,701.58 671.33,700.35 671.08,699.66 665.03,700.72 	"/>
	<polygon class="st32" points="670.6,705.12 671.57,699.87 670.83,699.87 669.81,704.82 	"/>
	<polygon class="st32" points="670.64,704.67 677.02,703.44 676.77,702.75 670.72,703.81 	"/>
	<polygon class="st32" points="676.45,708.63 677.41,703.39 676.68,703.39 675.66,708.33 	"/>
	<polygon class="st32" points="676.49,708.18 682.87,706.96 682.62,706.27 676.57,707.32 	"/>
	<polygon class="st32" points="681.38,711.79 682.35,706.55 681.62,706.55 680.6,711.5 	"/>
	<polygon class="st32" points="681.43,711.35 687.8,710.12 687.56,709.43 681.51,710.49 	"/>
	<polygon class="st32" points="687.23,715.31 688.2,710.06 687.46,710.06 686.44,715.01 	"/>
	<polygon class="st32" points="687.27,714.86 693.65,713.64 693.41,712.95 687.36,714 	"/>
	<polygon class="st32" points="692.51,718.71 693.48,713.47 692.75,713.47 691.73,718.42 	"/>
	<polygon class="st32" points="692.56,718.27 698.93,717.04 698.69,716.35 692.64,717.4 	"/>
	<polygon class="st32" points="698.36,722.23 699.33,716.98 698.6,716.98 697.58,721.93 	"/>
	<polygon class="st32" points="698.41,721.78 704.78,720.56 704.54,719.86 698.49,720.92 	"/>
	<polygon class="st32" points="704.3,725.39 705.27,720.14 704.53,720.14 703.51,725.09 	"/>
	<polygon class="st32" points="704.34,724.94 710.72,723.72 710.47,723.03 704.42,724.08 	"/>
	<polygon class="st32" points="710.15,728.91 711.11,723.66 710.38,723.66 709.36,728.61 	"/>
	<polygon class="st32" points="710.19,728.46 716.57,727.23 716.32,726.54 710.27,727.6 	"/>
	<polygon class="st32" points="715.46,732.31 716.43,727.06 715.7,727.06 714.68,732.01 	"/>
	<polygon class="st32" points="715.51,731.86 721.88,730.63 721.64,729.94 715.59,731 	"/>
	<polygon class="st32" points="721.31,735.82 722.28,730.58 721.55,730.58 720.53,735.52 	"/>
	<polygon class="st32" points="721.36,735.37 727.73,734.15 727.49,733.46 721.44,734.51 	"/>
	<polygon class="st32" points="726.98,739.21 727.94,733.96 727.21,733.96 726.19,738.91 	"/>
	<polygon class="st32" points="727.02,738.76 733.39,737.54 733.15,736.84 727.1,737.9 	"/>
	<polygon class="st32" points="732.82,742.72 733.79,737.48 733.06,737.48 732.04,742.42 	"/>
	<polygon class="st32" points="732.87,742.28 739.24,741.05 739,740.36 732.95,741.41 	"/>
	<polygon class="st32" points="738.28,745.83 739.25,740.58 738.51,740.58 737.49,745.53 	"/>
	<polygon class="st32" points="738.32,745.38 744.7,744.16 744.45,743.46 738.4,744.52 	"/>
	<polygon class="st32" points="744.13,749.34 745.09,744.1 744.36,744.1 743.34,749.04 	"/>
	<polygon class="st32" points="744.17,748.9 750.55,747.67 750.3,746.98 744.25,748.03 	"/>
	<polygon class="st32" points="749.82,752.65 750.79,747.41 750.05,747.41 749.03,752.35 	"/>
	<polygon class="st32" points="749.86,752.21 756.24,750.98 755.99,750.29 749.94,751.34 	"/>
	<polygon class="st32" points="755.67,756.17 756.63,750.92 755.9,750.92 754.88,755.87 	"/>
	<polygon class="st32" points="755.71,755.72 762.09,754.49 761.84,753.8 755.79,754.86 	"/>
	<polygon class="st32" points="752.26,751.48 744.17,746.98 737.73,747.94 737.73,749.95 743.34,753.72 751.84,753.54 	"/>
	<rect x="742.01" y="753.03" class="st32" width="0.64" height="29.26"/>
	<rect x="743.53" y="753.03" class="st32" width="0.64" height="29.26"/>
	<rect x="745.67" y="753.85" class="st32" width="0.64" height="29.26"/>
	<rect x="747.2" y="754.71" class="st32" width="0.64" height="29.26"/>
	<path class="st32" d="M744.92,790.25l2.28-3.73l0.32-2.68l-2.6-1.91c0,0-3.37-0.5-3.32,1.05c0.05,1.55,1.64,6.92,2.25,7.71
		c0.61,0.8,1.52,1.25,1.34,1.98s-1.68,0.5-1.87-0.77c0,0-0.18,2.09,0.84,2.27c1.02,0.18,2.35-1.05,1.82-2.41
		C745.47,790.38,744.92,790.25,744.92,790.25z"/>
	<polygon class="st32" points="767.33,754.93 776.19,706.55 777.24,706.81 767.93,755.95 	"/>
	<polygon class="st32" points="777.98,757.66 777.24,706.81 776.14,706.81 775.19,758.72 777.72,759.02 	"/>
	<polygon class="st32" points="781.07,758.53 776.58,707.17 777.24,707.17 782.2,759.02 781.35,758.66 	"/>
	<polygon class="st32" points="781.07,758.53 777.48,750.92 777.48,748.57 781.07,750.92 780.56,751.65 777.98,749.95 
		781.07,757.27 	"/>
	<polyline class="st32" points="777.48,747.39 779.84,744.48 777.63,742.47 777.73,740.74 780.84,744.81 777.84,747.9 	"/>
	<polygon class="st32" points="775.53,740.29 770.75,741.11 770.45,742.66 775.39,747.69 775.53,746.06 771.2,742.17 775.53,741.17 
			"/>
	<polygon class="st32" points="775.59,736.71 771.77,740.93 770.75,741.11 771,739.74 775.59,735.5 	"/>
	<polygon class="st32" points="775.19,748.57 769.13,749.66 768.93,750.7 775.35,749.63 775.37,748.57 	"/>
	<path class="st32" d="M775.33,750.7l-3.05,3.02c0,0-0.89-0.48-0.78-0.52c0.11-0.05,4.09-3.71,4.09-3.71L775.33,750.7z"/>
	<path class="st32" d="M777.24,735.07c0.18,0.03,7.25-1.98,7.25-1.98l-3.82-3.15l-14.19,3.61l3.78,3L777.24,735.07z"/>
	<polygon class="st32" points="771.41,718.45 782.58,716.09 779.39,712.29 767.33,714.6 	"/>
	<polygon class="st32" points="767.33,714.6 776.3,707.59 776.3,708.3 768.41,714.75 	"/>
	<path class="st32" d="M771.44,714.07c0.32-0.32,4.85-5.77,4.85-5.77l0.42,0.47l-4.64,5.67L771.44,714.07z"/>
	<path class="st32" d="M777.24,707.87c0,0,40.56,70.45,43.89,72.92c3.33,2.47-0.73,0.53-0.73,0.53l-43.37-71.27L777.24,707.87z"/>
	<polyline class="st32" points="779.24,716.79 810.66,783.97 811.72,783.2 779.39,714.86 	"/>
	<path class="st32" d="M774.95,709.4c0,0-46.95,0.94-97.94-14.41v-1.42c0,0,73.44,18.09,99.28,14.73"/>
</g>
<g class="st33">
	<polygon class="st32" points="488.71,981.98 481.14,981.98 481.14,817.14 488.71,817.14 488.71,925.34 	"/>
	<rect x="538.5" y="817.14" class="st32" width="7.57" height="126.01"/>
	<rect x="587.81" y="817.14" class="st32" width="7.57" height="164.85"/>
	<rect x="602.32" y="817.14" class="st32" width="7.57" height="164.85"/>
	<rect x="639.21" y="817.14" class="st32" width="7.57" height="164.85"/>
	<rect x="694.32" y="817.14" class="st32" width="7.57" height="164.85"/>
	<rect x="740.41" y="817.14" class="st32" width="7.57" height="164.85"/>
	<rect x="659.36" y="817.14" class="st32" width="5.48" height="164.85"/>
	<rect x="565.74" y="817.14" class="st32" width="5.48" height="164.85"/>
	<rect x="513.2" y="814.72" class="st32" width="4.35" height="131.65"/>
	<path class="st32" d="M488.71,950.88h13.21l9.51-5.32l9.35,5.32h14.02v-7.73h18.05v-5.96h4.19v5.8h2.9v6.12h4.35l10.64-5.8
		l4.51,3.38v-2.09h5.16v-5.16h14.34v5.64h9.13v4.51h3.6c0,0,0.16-4.83,4.35-4.51c4.19,0.32,14.18,0,14.18,0s2.42-0.48,2.26,3.55
		h74.45v-7.25h8.38v7.9h9.67v-7.41h4.03v7.09h11.44v33.03h-251.7V950.88z"/>
	<polygon class="st32" points="488.71,925.34 498.46,925.34 498.46,917.37 523.2,917.37 523.2,920.35 535.6,920.35 535.6,923.97 
		555.02,923.97 555.02,918.33 561.14,918.33 561.14,912.53 578.31,912.53 578.31,918.94 585.4,918.94 585.4,922.04 601.91,922.04 
		667.5,922.04 740.41,922.04 740.41,929.61 488.71,929.61 	"/>
	<path class="st32" d="M488.71,899.56h36.66c0,0,8.1-7.25,11-6.77c2.9,0.48,3.38,3.37,3.38,3.37h25.98v-5.91h12.33v-3.87h4.47v-3.63
		h27.35v12.21h29.33h101.2v9.67H609.89H488.71"/>
	<polygon class="st32" points="488.71,873.94 521.5,873.94 521.5,866.81 539.03,866.81 539.03,871.89 553.05,871.89 553.05,863.79 
		565.74,861.98 565.74,857.87 587.81,857.87 587.81,866.45 617.83,866.45 625.56,862.94 640.18,868.38 698.11,868.38 698.11,864.15 
		722.61,864.15 722.61,868.38 731.07,868.38 731.07,872.85 741.58,872.85 741.58,878.9 600.54,883.49 486.7,883.49 486.7,873.94 	
		"/>
	<polygon class="st32" points="488.71,856.18 565.74,857.87 595.39,858.95 705.45,854.72 743.03,853.76 743.03,847.96 
		715.23,846.27 715.23,838.89 711,838.89 711,846.02 691.67,846.02 691.67,840.34 676.8,838.89 666.65,839.86 666.65,843 
		636.44,841.19 636.44,836.6 631.97,836.6 631.97,840.83 609.89,840.1 595.39,840.1 587.81,840.1 587.81,835.39 580,835.99 
		580,841.07 539.51,844.69 539.51,832.49 524.16,832.49 524.16,841.19 518.97,841.19 518.97,847.59 485.73,848.56 485.73,856.05 	
		"/>
	<polygon class="st32" points="488.71,830.8 491.78,830.92 588.34,834.78 641.15,833.33 744.2,828.74 744.2,822.46 620.61,813.88 
		610.82,812.67 595.39,813.63 587.81,813.27 582.17,810.61 572.51,815.57 541.81,818.35 538.5,818.35 538.5,814.6 535.52,814.96 
		535.52,813.51 531.78,812.31 528.27,812.79 528.27,815.08 528.27,817.14 528.27,815.08 523.44,816.05 523.44,818.59 485.73,823.42 
		485.73,831.16 	"/>
	<path class="st32" d="M491.78,830.92l25.01,25.01c0,0,6.1-9.12,7.61-7.61s-22.72-19.1-22.72-19.1L491.78,830.92z"/>
	<rect x="495.76" y="856.33" class="st32" width="1.57" height="20.39"/>
	<rect x="506.64" y="855.93" class="st32" width="1.49" height="22.24"/>
	<rect x="501.2" y="892.67" class="st32" width="4.71" height="9.79"/>
	<rect x="506.64" y="891.46" class="st32" width="4.83" height="11"/>
	<rect x="716.2" y="941.5" class="st32" width="4.47" height="11.6"/>
	<rect x="674.14" y="915.51" class="st32" width="4.71" height="10.64"/>
	<rect x="611.54" y="888.56" class="st32" width="25.26" height="1.21"/>
	<rect x="635.89" y="888.56" class="st32" width="0.91" height="7.19"/>
	<rect x="611.54" y="889.77" class="st32" width="0.78" height="5.98"/>
	<rect x="612.75" y="883.09" class="st32" width="0.85" height="12.67"/>
	<rect x="614.87" y="829.22" class="st32" width="2.4" height="115.93"/>
	<rect x="629.52" y="889.77" class="st32" width="0.94" height="6.32"/>
	<rect x="689.49" y="880.14" class="st32" width="1.93" height="82.34"/>
	<rect x="679.66" y="880.14" class="st32" width="1.93" height="82.34"/>
	<rect x="669.19" y="880.14" class="st32" width="1.93" height="82.34"/>
	<rect x="711.25" y="880.14" class="st32" width="1.93" height="82.34"/>
	<rect x="721.72" y="880.14" class="st32" width="1.93" height="82.34"/>
	<rect x="731.71" y="880.14" class="st32" width="1.93" height="82.34"/>
	<rect x="652.43" y="904.64" class="st32" width="1.93" height="47.37"/>
	<rect x="633.25" y="904.64" class="st32" width="1.93" height="47.37"/>
	<rect x="623.2" y="904.64" class="st32" width="1.93" height="47.37"/>
	<rect x="513.2" y="790.87" class="st32" width="4.35" height="47.86"/>
	<rect x="538.5" y="787.65" class="st32" width="7.57" height="47.13"/>
	<rect x="565.74" y="784.27" class="st32" width="5.48" height="43.83"/>
	<rect x="587.81" y="800.7" class="st32" width="7.57" height="29.01"/>
	<rect x="602.32" y="753.01" class="st32" width="8.54" height="78.8"/>
	<rect x="614.87" y="791.52" class="st32" width="2.4" height="31.18"/>
	<rect x="639.21" y="771.21" class="st32" width="7.57" height="68.65"/>
	<rect x="659.36" y="773.95" class="st32" width="5" height="58.53"/>
	<rect x="624.39" y="807.11" class="st32" width="4.67" height="15.59"/>
	<rect x="631.8" y="807.11" class="st32" width="4.35" height="16.8"/>
	<rect x="629.07" y="809.4" class="st32" width="2.74" height="14.5"/>
	<rect x="694.32" y="795.06" class="st32" width="7.57" height="33.03"/>
	<rect x="740.41" y="801.67" class="st32" width="7.57" height="27.55"/>
	<rect x="668.87" y="814.08" class="st32" width="7.41" height="10.96"/>
	<rect x="674.99" y="810.61" class="st32" width="10.31" height="15.39"/>
	<rect x="547.85" y="832.49" class="st32" width="1.45" height="117.75"/>
	<rect x="481.14" y="803.6" class="st32" width="0.39" height="15.79"/>
	<rect x="482" y="803.6" class="st32" width="0.39" height="15.79"/>
	<rect x="482.8" y="803.6" class="st32" width="0.39" height="15.79"/>
	<rect x="483.66" y="803.6" class="st32" width="0.39" height="15.79"/>
	<rect x="484.53" y="803.6" class="st32" width="0.39" height="15.79"/>
	<rect x="485.73" y="803.6" class="st32" width="0.39" height="15.79"/>
	<rect x="486.63" y="803.6" class="st32" width="0.39" height="15.79"/>
	<rect x="487.42" y="803.6" class="st32" width="0.39" height="15.79"/>
	<rect x="538.95" y="771.21" class="st32" width="0.39" height="15.79"/>
	<rect x="539.82" y="771.21" class="st32" width="0.39" height="15.79"/>
	<rect x="540.61" y="771.21" class="st32" width="0.39" height="15.79"/>
	<rect x="541.48" y="771.21" class="st32" width="0.39" height="15.79"/>
	<rect x="542.35" y="771.21" class="st32" width="0.39" height="15.79"/>
	<rect x="543.55" y="771.21" class="st32" width="0.39" height="15.79"/>
	<rect x="544.44" y="771.21" class="st32" width="0.39" height="15.79"/>
	<rect x="545.24" y="771.21" class="st32" width="0.39" height="15.79"/>
	<rect x="588.71" y="787.01" class="st32" width="0.39" height="15.79"/>
	<rect x="589.57" y="787.01" class="st32" width="0.39" height="15.79"/>
	<rect x="590.37" y="787.01" class="st32" width="0.39" height="15.79"/>
	<rect x="591.24" y="787.01" class="st32" width="0.39" height="15.79"/>
	<rect x="592.1" y="787.01" class="st32" width="0.39" height="15.79"/>
	<rect x="593.3" y="787.01" class="st32" width="0.39" height="15.79"/>
	<rect x="594.2" y="787.01" class="st32" width="0.39" height="15.79"/>
	<rect x="594.99" y="787.01" class="st32" width="0.39" height="15.79"/>
	<rect x="640.11" y="755.95" class="st32" width="0.39" height="15.79"/>
	<rect x="640.98" y="755.95" class="st32" width="0.39" height="15.79"/>
	<rect x="641.77" y="755.95" class="st32" width="0.39" height="15.79"/>
	<rect x="642.64" y="755.95" class="st32" width="0.39" height="15.79"/>
	<rect x="643.51" y="755.95" class="st32" width="0.39" height="15.79"/>
	<rect x="644.7" y="755.95" class="st32" width="0.39" height="15.79"/>
	<rect x="645.6" y="755.95" class="st32" width="0.39" height="15.79"/>
	<rect x="646.4" y="755.95" class="st32" width="0.39" height="15.79"/>
	<rect x="694.6" y="769.6" class="st32" width="0.39" height="27.23"/>
	<rect x="695.47" y="769.6" class="st32" width="0.39" height="27.23"/>
	<rect x="696.26" y="769.6" class="st32" width="0.39" height="27.23"/>
	<rect x="697.13" y="769.6" class="st32" width="0.39" height="27.23"/>
	<rect x="698" y="769.6" class="st32" width="0.39" height="27.23"/>
	<rect x="699.2" y="769.6" class="st32" width="0.39" height="27.23"/>
	<rect x="700.09" y="769.6" class="st32" width="0.39" height="27.23"/>
	<rect x="700.89" y="769.6" class="st32" width="0.39" height="27.23"/>
	<rect x="603.25" y="727.06" class="st32" width="0.39" height="27.23"/>
	<rect x="604.11" y="727.06" class="st32" width="0.39" height="27.23"/>
	<rect x="604.91" y="727.06" class="st32" width="0.39" height="27.23"/>
	<rect x="605.77" y="727.06" class="st32" width="0.39" height="27.23"/>
	<rect x="606.64" y="727.06" class="st32" width="0.39" height="27.23"/>
	<rect x="607.84" y="727.06" class="st32" width="0.39" height="27.23"/>
	<rect x="608.74" y="727.06" class="st32" width="0.39" height="27.23"/>
	<rect x="609.53" y="727.06" class="st32" width="0.39" height="27.23"/>
	<rect x="566.07" y="769.6" class="st32" width="0.29" height="27.23"/>
	<rect x="566.72" y="769.6" class="st32" width="0.29" height="27.23"/>
	<rect x="567.31" y="769.6" class="st32" width="0.29" height="27.23"/>
	<rect x="567.96" y="769.6" class="st32" width="0.29" height="27.23"/>
	<rect x="568.6" y="769.6" class="st32" width="0.29" height="27.23"/>
	<rect x="569.5" y="769.6" class="st32" width="0.29" height="27.23"/>
	<rect x="570.17" y="769.6" class="st32" width="0.29" height="27.23"/>
	<rect x="570.76" y="769.6" class="st32" width="0.29" height="27.23"/>
	<rect x="659.61" y="757.6" class="st32" width="0.29" height="27.23"/>
	<rect x="660.25" y="757.6" class="st32" width="0.29" height="27.23"/>
	<rect x="660.85" y="757.6" class="st32" width="0.29" height="27.23"/>
	<rect x="661.49" y="757.6" class="st32" width="0.29" height="27.23"/>
	<rect x="662.14" y="757.6" class="st32" width="0.29" height="27.23"/>
	<rect x="663.03" y="757.6" class="st32" width="0.29" height="27.23"/>
	<rect x="663.7" y="757.6" class="st32" width="0.29" height="27.23"/>
	<rect x="664.3" y="757.6" class="st32" width="0.29" height="27.23"/>
	<rect x="741.7" y="785.76" class="st32" width="0.29" height="27.23"/>
	<rect x="742.35" y="785.76" class="st32" width="0.29" height="27.23"/>
	<rect x="742.94" y="785.76" class="st32" width="0.29" height="27.23"/>
	<rect x="743.59" y="785.76" class="st32" width="0.29" height="27.23"/>
	<rect x="744.24" y="785.76" class="st32" width="0.29" height="27.23"/>
	<rect x="745.13" y="785.76" class="st32" width="0.29" height="27.23"/>
	<rect x="745.8" y="785.76" class="st32" width="0.29" height="27.23"/>
	<rect x="746.4" y="785.76" class="st32" width="0.29" height="27.23"/>
	<rect x="512.89" y="777.26" class="st32" width="0.29" height="27.23"/>
	<rect x="513.53" y="777.26" class="st32" width="0.29" height="27.23"/>
	<rect x="514.13" y="777.26" class="st32" width="0.29" height="27.23"/>
	<rect x="514.77" y="777.26" class="st32" width="0.29" height="27.23"/>
	<rect x="515.42" y="777.26" class="st32" width="0.29" height="27.23"/>
	<rect x="516.32" y="777.26" class="st32" width="0.29" height="27.23"/>
	<rect x="516.99" y="777.26" class="st32" width="0.29" height="27.23"/>
	<rect x="517.58" y="777.26" class="st32" width="0.29" height="27.23"/>
</g>
<polygon class="st34" points="283.55,995.81 283.55,859.13 165.34,859.13 165.34,992.19 "/>
<g>
	<rect x="328.7" y="711.96" class="st32" width="3.55" height="255.24"/>
	<rect x="342.88" y="711.96" class="st32" width="3.55" height="255.24"/>
	
		<rect x="425.93" y="614.12" transform="matrix(6.123234e-17 -1 1 6.123234e-17 -261.0879 1116.4905)" class="st32" width="3.55" height="149.34"/>
	
		<rect x="425.93" y="628.3" transform="matrix(6.123234e-17 -1 1 6.123234e-17 -275.2682 1130.6708)" class="st32" width="3.55" height="149.34"/>
	<polygon class="st35" points="330.47,822.02 344.65,822.02 330.47,805.59 344.65,805.59 	"/>
	<polygon class="st35" points="330.47,805.59 344.65,805.59 330.47,789.15 344.65,789.15 	"/>
	<polygon class="st35" points="330.47,789.15 344.65,789.15 330.47,772.71 344.65,772.71 	"/>
	<polygon class="st35" points="330.47,772.71 344.65,772.71 330.47,756.28 344.65,756.28 	"/>
	<polygon class="st35" points="330.47,887.77 344.65,887.77 330.47,871.33 344.65,871.33 	"/>
	<polygon class="st35" points="330.47,871.33 344.65,871.33 330.47,854.89 344.65,854.89 	"/>
	<polygon class="st35" points="330.47,854.89 344.65,854.89 330.47,838.46 344.65,838.46 	"/>
	<polygon class="st35" points="330.47,838.46 344.65,838.46 330.47,822.02 344.65,822.02 	"/>
	<polygon class="st35" points="330.47,953.51 344.65,953.51 330.47,937.07 344.65,937.07 	"/>
	<polygon class="st35" points="330.47,937.07 344.65,937.07 330.47,920.64 344.65,920.64 	"/>
	<polygon class="st35" points="330.47,920.64 344.65,920.64 330.47,904.2 344.65,904.2 	"/>
	<polygon class="st35" points="330.47,904.2 344.65,904.2 330.47,887.77 344.65,887.77 	"/>
	<polygon class="st35" points="330.47,756.28 344.65,756.28 330.47,739.84 344.65,739.84 	"/>
	<polygon class="st35" points="330.47,739.84 344.65,739.84 330.47,723.4 344.65,723.4 	"/>
	<line class="st35" x1="330.47" y1="723.4" x2="342.88" y2="710.35"/>
	<line class="st35" x1="344.65" y1="723.4" x2="332.25" y2="710.35"/>
	<polygon class="st35" points="468.76,702.97 468.76,688.79 452.33,702.97 452.33,688.79 	"/>
	<polygon class="st35" points="452.33,702.97 452.33,688.79 435.89,702.97 435.89,688.79 	"/>
	<polygon class="st35" points="435.89,702.97 435.89,688.79 419.46,702.97 419.46,688.79 	"/>
	<polygon class="st35" points="419.46,702.97 419.46,688.79 403.02,702.97 403.02,688.79 	"/>
	<polygon class="st35" points="501.64,702.97 501.64,688.79 485.2,702.97 485.2,688.79 	"/>
	<polygon class="st35" points="485.2,702.97 485.2,688.79 468.76,702.97 468.76,688.79 	"/>
	<polygon class="st35" points="403.02,702.97 403.02,688.79 386.58,702.97 386.58,688.79 	"/>
	<polygon class="st35" points="386.58,702.97 386.58,688.79 370.15,702.97 370.15,688.79 	"/>
	<line class="st35" x1="370.15" y1="702.97" x2="357.1" y2="690.56"/>
	<line class="st35" x1="370.15" y1="688.79" x2="357.1" y2="701.2"/>
	<polyline class="st35" points="344.65,953.51 330.47,967.21 344.65,967.21 330.47,953.51 	"/>
	<rect x="326.04" y="968.13" class="st32" width="23.32" height="6.41"/>
	<rect x="320.72" y="974.54" class="st32" width="33.84" height="8.58"/>
	<rect x="316.01" y="983.12" class="st32" width="42.42" height="1.93"/>
	<rect x="326.28" y="710.35" class="st32" width="22.72" height="1.61"/>
	<rect x="324.11" y="682.19" class="st32" width="27.37" height="27.37"/>
	<path class="st32" d="M351.48,682.19c0,0,12.63,23.57,0,27.37c-12.63,3.81-3.93-20.12-3.93-20.12L351.48,682.19z"/>
	<polygon class="st36" points="501.64,688.79 520.01,702.97 501.64,702.97 	"/>
	<line class="st35" x1="501.64" y1="702.97" x2="511.33" y2="696.27"/>
	<rect x="293.17" y="687.02" class="st32" width="30.94" height="3.55"/>
	<rect x="293.17" y="701.2" class="st32" width="30.94" height="3.55"/>
	<rect x="278.43" y="684.49" class="st32" width="14.74" height="22.6"/>
	<rect x="294.98" y="704.74" class="st32" width="12.09" height="5.61"/>
	<polyline class="st35" points="307.55,690.56 307.43,701.2 293.17,701.2 307.55,690.56 324.11,702.97 324.11,688.79 307.07,702.97 
		293.17,688.79 	"/>
	<rect x="455.36" y="704.74" class="st32" width="24.49" height="7.22"/>
	<rect x="444.11" y="749.35" class="st32" width="47.02" height="3.87"/>
	<rect x="455.36" y="734.2" class="st32" width="24.49" height="5.64"/>
	<polygon class="st32" points="455.36,739.84 479.85,739.84 467.6,744.84 	"/>
	<path class="st35" d="M467.6,744.84l-23.49,4.51L467.6,744.84z"/>
	<line class="st35" x1="491.13" y1="749.63" x2="467.6" y2="744.84"/>
	<polyline class="st35" points="476.02,734.2 476.02,711.96 458.86,711.96 458.86,734.2 	"/>
</g>
<g class="st37">
	<rect x="742.59" y="896.14" class="st32" width="5.32" height="81.46"/>
	<rect x="791.65" y="896.14" class="st32" width="5.32" height="81.46"/>
	<rect x="813.87" y="896.14" class="st32" width="5.32" height="81.46"/>
	<rect x="839.25" y="896.14" class="st32" width="5.32" height="81.46"/>
	<rect x="862.69" y="896.14" class="st32" width="5.32" height="81.46"/>
	<rect x="889.28" y="896.14" class="st32" width="5.32" height="81.46"/>
	<rect x="767.12" y="896.14" class="st32" width="5.32" height="81.46"/>
	
		<rect x="817.15" y="832.08" transform="matrix(-1.836970e-16 1 -1 -1.836970e-16 1731.2966 91.6728)" class="st32" width="5.32" height="158.8"/>
	
		<rect x="817.15" y="865.68" transform="matrix(-1.836970e-16 1 -1 -1.836970e-16 1764.8942 125.2703)" class="st32" width="5.32" height="158.8"/>
	
		<rect x="817.15" y="895.53" transform="matrix(-1.836970e-16 1 -1 -1.836970e-16 1794.7452 155.1214)" class="st32" width="5.32" height="158.8"/>
	<line class="st38" x1="792.68" y1="896.14" x2="792.68" y2="891.3"/>
	<line class="st38" x1="796" y1="896.14" x2="796" y2="891.3"/>
	<line class="st38" x1="768.12" y1="896.14" x2="768.12" y2="891.3"/>
	<line class="st38" x1="771.44" y1="896.14" x2="771.44" y2="891.3"/>
	<line class="st38" x1="743.58" y1="896.14" x2="743.58" y2="891.3"/>
	<line class="st38" x1="746.91" y1="896.14" x2="746.91" y2="891.3"/>
	<line class="st38" x1="814.87" y1="896.14" x2="814.87" y2="891.3"/>
	<line class="st38" x1="818.19" y1="896.14" x2="818.19" y2="891.3"/>
	<line class="st38" x1="840.25" y1="896.14" x2="840.25" y2="891.3"/>
	<line class="st38" x1="843.57" y1="896.14" x2="843.57" y2="891.3"/>
	<line class="st38" x1="863.69" y1="896.14" x2="863.69" y2="891.3"/>
	<line class="st38" x1="867.01" y1="896.14" x2="867.01" y2="891.3"/>
	<line class="st38" x1="890.28" y1="896.14" x2="890.28" y2="891.3"/>
	<line class="st38" x1="893.6" y1="896.14" x2="893.6" y2="891.3"/>
</g>
<g class="st26">
	<g>
		<rect x="951.41" y="838.97" class="st27" width="23.81" height="14.74"/>
		<rect x="981.85" y="838.97" class="st27" width="23.81" height="14.74"/>
		<rect x="1011.15" y="838.97" class="st27" width="23.81" height="14.74"/>
		<rect x="951.41" y="860.64" class="st27" width="23.81" height="14.74"/>
		<rect x="981.85" y="860.64" class="st27" width="23.81" height="14.74"/>
		<rect x="1011.15" y="860.64" class="st27" width="23.81" height="14.74"/>
		<rect x="951.41" y="882.4" class="st27" width="23.81" height="14.74"/>
		<rect x="981.85" y="882.4" class="st27" width="23.81" height="14.74"/>
		<rect x="1011.15" y="882.4" class="st27" width="23.81" height="14.74"/>
		<rect x="951.41" y="904.07" class="st27" width="23.81" height="14.74"/>
		<rect x="981.85" y="904.07" class="st27" width="23.81" height="14.74"/>
		<rect x="1011.15" y="904.07" class="st27" width="23.81" height="14.74"/>
		<rect x="951.41" y="927.21" class="st27" width="23.81" height="14.74"/>
		<rect x="981.85" y="927.21" class="st27" width="23.81" height="14.74"/>
		<rect x="1011.15" y="927.21" class="st27" width="23.81" height="14.74"/>
		<rect x="951.41" y="948.88" class="st27" width="23.81" height="14.74"/>
		<rect x="981.85" y="948.88" class="st27" width="23.81" height="14.74"/>
		<rect x="1011.15" y="948.88" class="st27" width="23.81" height="14.74"/>
		<rect x="951.41" y="970.64" class="st27" width="23.81" height="14.74"/>
		<rect x="981.85" y="970.64" class="st27" width="23.81" height="14.74"/>
		<rect x="1011.15" y="970.64" class="st27" width="23.81" height="14.74"/>
		<rect x="951.41" y="992.31" class="st27" width="23.81" height="14.74"/>
		<rect x="981.85" y="992.31" class="st27" width="23.81" height="14.74"/>
		<rect x="1011.15" y="992.31" class="st27" width="23.81" height="14.74"/>
	</g>
</g>
<g class="st26">
	<g>
		<rect x="1242.41" y="838.97" class="st27" width="23.81" height="14.74"/>
		<rect x="1272.85" y="838.97" class="st27" width="23.81" height="14.74"/>
		<rect x="1302.15" y="838.97" class="st27" width="23.81" height="14.74"/>
		<rect x="1242.41" y="860.64" class="st27" width="23.81" height="14.74"/>
		<rect x="1272.85" y="860.64" class="st27" width="23.81" height="14.74"/>
		<rect x="1302.15" y="860.64" class="st27" width="23.81" height="14.74"/>
		<rect x="1242.41" y="882.4" class="st27" width="23.81" height="14.74"/>
		<rect x="1272.85" y="882.4" class="st27" width="23.81" height="14.74"/>
		<rect x="1302.15" y="882.4" class="st27" width="23.81" height="14.74"/>
		<rect x="1242.41" y="904.07" class="st27" width="23.81" height="14.74"/>
		<rect x="1272.85" y="904.07" class="st27" width="23.81" height="14.74"/>
		<rect x="1302.15" y="904.07" class="st27" width="23.81" height="14.74"/>
		<rect x="1242.41" y="927.21" class="st27" width="23.81" height="14.74"/>
		<rect x="1272.85" y="927.21" class="st27" width="23.81" height="14.74"/>
		<rect x="1302.15" y="927.21" class="st27" width="23.81" height="14.74"/>
		<rect x="1242.41" y="948.88" class="st27" width="23.81" height="14.74"/>
		<rect x="1272.85" y="948.88" class="st27" width="23.81" height="14.74"/>
		<rect x="1302.15" y="948.88" class="st27" width="23.81" height="14.74"/>
		<rect x="1242.41" y="970.64" class="st27" width="23.81" height="14.74"/>
		<rect x="1272.85" y="970.64" class="st27" width="23.81" height="14.74"/>
		<rect x="1302.15" y="970.64" class="st27" width="23.81" height="14.74"/>
		<rect x="1242.41" y="992.31" class="st27" width="23.81" height="14.74"/>
		<rect x="1272.85" y="992.31" class="st27" width="23.81" height="14.74"/>
		<rect x="1302.15" y="992.31" class="st27" width="23.81" height="14.74"/>
	</g>
</g>
<g>
	<rect x="1423.96" y="775.67" class="st34" width="101.52" height="212.71"/>
	<g>
		<rect x="1432.94" y="785.26" class="st27" width="23.81" height="14.74"/>
		<rect x="1463.39" y="785.26" class="st27" width="23.81" height="14.74"/>
		<rect x="1492.69" y="785.26" class="st27" width="23.81" height="14.74"/>
		<rect x="1432.94" y="806.93" class="st27" width="23.81" height="14.74"/>
		<rect x="1463.39" y="806.93" class="st27" width="23.81" height="14.74"/>
		<rect x="1492.69" y="806.93" class="st27" width="23.81" height="14.74"/>
		<rect x="1432.94" y="828.69" class="st27" width="23.81" height="14.74"/>
		<rect x="1463.39" y="828.69" class="st27" width="23.81" height="14.74"/>
		<rect x="1492.69" y="828.69" class="st27" width="23.81" height="14.74"/>
		<rect x="1432.94" y="850.36" class="st27" width="23.81" height="14.74"/>
		<rect x="1463.39" y="850.36" class="st27" width="23.81" height="14.74"/>
		<rect x="1492.69" y="850.36" class="st27" width="23.81" height="14.74"/>
		<rect x="1432.94" y="873.5" class="st27" width="23.81" height="14.74"/>
		<rect x="1463.39" y="873.5" class="st27" width="23.81" height="14.74"/>
		<rect x="1492.69" y="873.5" class="st27" width="23.81" height="14.74"/>
		<rect x="1432.94" y="895.17" class="st27" width="23.81" height="14.74"/>
		<rect x="1463.39" y="895.17" class="st27" width="23.81" height="14.74"/>
		<rect x="1492.69" y="895.17" class="st27" width="23.81" height="14.74"/>
		<rect x="1432.94" y="916.92" class="st27" width="23.81" height="14.74"/>
		<rect x="1463.39" y="916.92" class="st27" width="23.81" height="14.74"/>
		<rect x="1492.69" y="916.92" class="st27" width="23.81" height="14.74"/>
		<rect x="1432.94" y="938.6" class="st27" width="23.81" height="14.74"/>
		<rect x="1463.39" y="938.6" class="st27" width="23.81" height="14.74"/>
		<rect x="1492.69" y="938.6" class="st27" width="23.81" height="14.74"/>
		<rect x="1432.94" y="960.27" class="st27" width="23.81" height="14.74"/>
		<rect x="1463.39" y="960.27" class="st27" width="23.81" height="14.74"/>
		<rect x="1492.69" y="960.27" class="st27" width="23.81" height="14.74"/>
		<rect x="1432.94" y="981.94" class="st27" width="23.81" height="14.74"/>
		<rect x="1463.39" y="981.94" class="st27" width="23.81" height="14.74"/>
		<rect x="1492.69" y="981.94" class="st27" width="23.81" height="14.74"/>
	</g>
</g>
<g>
	<polygon class="st34" points="1743.15,1051.56 1743.15,861.67 1624.94,861.67 1624.94,1046.53 	"/>
	<g class="st26">
		<g>
			<rect x="1639.27" y="879.15" class="st27" width="13.54" height="15.7"/>
			<rect x="1657.88" y="879.15" class="st27" width="13.54" height="15.7"/>
			<rect x="1677.28" y="879.15" class="st27" width="13.54" height="15.7"/>
			<rect x="1695.89" y="879.15" class="st27" width="13.54" height="15.7"/>
			<rect x="1715.53" y="879.15" class="st27" width="13.54" height="15.7"/>
			<rect x="1639.27" y="906.24" class="st27" width="13.54" height="15.7"/>
			<rect x="1657.88" y="906.24" class="st27" width="13.54" height="15.7"/>
			<rect x="1677.28" y="906.24" class="st27" width="13.54" height="15.7"/>
			<rect x="1695.89" y="906.24" class="st27" width="13.54" height="15.7"/>
			<rect x="1715.53" y="906.24" class="st27" width="13.54" height="15.7"/>
			<rect x="1639.27" y="933.07" class="st27" width="13.54" height="15.7"/>
			<rect x="1657.88" y="933.07" class="st27" width="13.54" height="15.7"/>
			<rect x="1677.28" y="933.07" class="st27" width="13.54" height="15.7"/>
			<rect x="1695.89" y="933.07" class="st27" width="13.54" height="15.7"/>
			<rect x="1715.53" y="933.07" class="st27" width="13.54" height="15.7"/>
			<rect x="1639.27" y="960.16" class="st27" width="13.54" height="15.7"/>
			<rect x="1657.88" y="960.16" class="st27" width="13.54" height="15.7"/>
			<rect x="1677.28" y="960.16" class="st27" width="13.54" height="15.7"/>
			<rect x="1695.89" y="960.16" class="st27" width="13.54" height="15.7"/>
			<rect x="1715.53" y="960.16" class="st27" width="13.54" height="15.7"/>
			<rect x="1639.27" y="987.25" class="st27" width="13.54" height="15.7"/>
			<rect x="1657.88" y="987.25" class="st27" width="13.54" height="15.7"/>
			<rect x="1677.28" y="987.25" class="st27" width="13.54" height="15.7"/>
			<rect x="1695.89" y="987.25" class="st27" width="13.54" height="15.7"/>
			<rect x="1715.53" y="987.25" class="st27" width="13.54" height="15.7"/>
			<rect x="1639.27" y="1014.34" class="st27" width="13.54" height="15.7"/>
			<rect x="1657.88" y="1014.34" class="st27" width="13.54" height="15.7"/>
			<rect x="1677.28" y="1014.34" class="st27" width="13.54" height="15.7"/>
			<rect x="1695.89" y="1014.34" class="st27" width="13.54" height="15.7"/>
			<rect x="1715.53" y="1014.34" class="st27" width="13.54" height="15.7"/>
		</g>
	</g>
</g>
<rect x="941.2" y="829.07" class="st34" width="103.45" height="159.31"/>
<rect x="1233.2" y="829.07" class="st34" width="103.45" height="159.31"/>
<rect x="1045.66" y="775.67" class="st34" width="80.51" height="212.71"/>
<g>
	<rect x="1333.4" y="616.83" class="st28" width="90.56" height="375.48"/>
	<g class="st29">
		<g>
			<rect x="1338.92" y="635.69" class="st30" width="21.75" height="17.21"/>
			<rect x="1367.2" y="635.69" class="st30" width="21.75" height="17.21"/>
			<rect x="1396.68" y="635.69" class="st30" width="21.75" height="17.21"/>
			<rect x="1338.92" y="665.81" class="st30" width="21.75" height="17.21"/>
			<rect x="1367.2" y="665.81" class="st30" width="21.75" height="17.21"/>
			<rect x="1396.68" y="665.81" class="st30" width="21.75" height="17.21"/>
			<rect x="1338.92" y="694.33" class="st30" width="21.75" height="17.21"/>
			<rect x="1367.2" y="694.33" class="st30" width="21.75" height="17.21"/>
			<rect x="1396.68" y="694.33" class="st30" width="21.75" height="17.21"/>
			<rect x="1338.92" y="724.45" class="st30" width="21.75" height="17.21"/>
			<rect x="1367.2" y="724.45" class="st30" width="21.75" height="17.21"/>
			<rect x="1396.68" y="724.45" class="st30" width="21.75" height="17.21"/>
			<rect x="1338.92" y="750.7" class="st30" width="21.75" height="17.21"/>
			<rect x="1367.2" y="750.7" class="st30" width="21.75" height="17.21"/>
			<rect x="1396.68" y="750.7" class="st30" width="21.75" height="17.21"/>
			<rect x="1338.92" y="780.83" class="st30" width="21.75" height="17.21"/>
			<rect x="1367.2" y="780.83" class="st30" width="21.75" height="17.21"/>
			<rect x="1396.68" y="780.83" class="st30" width="21.75" height="17.21"/>
			<rect x="1338.92" y="809.34" class="st30" width="21.75" height="17.21"/>
			<rect x="1367.2" y="809.34" class="st30" width="21.75" height="17.21"/>
			<rect x="1396.68" y="809.34" class="st30" width="21.75" height="17.21"/>
			<rect x="1338.92" y="839.47" class="st30" width="21.75" height="17.21"/>
			<rect x="1367.2" y="839.47" class="st30" width="21.75" height="17.21"/>
			<rect x="1396.68" y="839.47" class="st30" width="21.75" height="17.21"/>
			<rect x="1338.92" y="870.05" class="st30" width="21.75" height="17.21"/>
			<rect x="1366.69" y="870.05" class="st30" width="21.75" height="17.21"/>
			<rect x="1396.18" y="870.05" class="st30" width="21.75" height="17.21"/>
			<rect x="1338.92" y="900.63" class="st30" width="21.75" height="17.21"/>
			<rect x="1367.2" y="900.63" class="st30" width="21.75" height="17.21"/>
			<rect x="1396.68" y="900.63" class="st30" width="21.75" height="17.21"/>
			<rect x="1338.92" y="929.95" class="st30" width="21.75" height="17.21"/>
			<rect x="1366.69" y="929.95" class="st30" width="21.75" height="17.21"/>
			<rect x="1396.18" y="929.95" class="st30" width="21.75" height="17.21"/>
			<rect x="1338.92" y="960.53" class="st30" width="21.75" height="17.21"/>
			<rect x="1367.2" y="960.53" class="st30" width="21.75" height="17.21"/>
			<rect x="1396.68" y="960.53" class="st30" width="21.75" height="17.21"/>
			<rect x="1338.92" y="991.12" class="st30" width="21.75" height="17.21"/>
			<rect x="1366.69" y="991.12" class="st30" width="21.75" height="17.21"/>
			<rect x="1396.18" y="991.12" class="st30" width="21.75" height="17.21"/>
		</g>
	</g>
</g>
<g>
	<rect x="1126.17" y="715.63" class="st28" width="108.29" height="276.68"/>
	<g class="st29">
		<g>
			<rect x="1141.16" y="726.33" class="st30" width="21.75" height="17.21"/>
			<rect x="1169.44" y="726.33" class="st30" width="21.75" height="17.21"/>
			<rect x="1198.93" y="726.33" class="st30" width="21.75" height="17.21"/>
			<rect x="1141.16" y="756.46" class="st30" width="21.75" height="17.21"/>
			<rect x="1169.44" y="756.46" class="st30" width="21.75" height="17.21"/>
			<rect x="1198.93" y="756.46" class="st30" width="21.75" height="17.21"/>
			<rect x="1141.16" y="784.97" class="st30" width="21.75" height="17.21"/>
			<rect x="1169.44" y="784.97" class="st30" width="21.75" height="17.21"/>
			<rect x="1198.93" y="784.97" class="st30" width="21.75" height="17.21"/>
			<rect x="1141.16" y="815.1" class="st30" width="21.75" height="17.21"/>
			<rect x="1169.44" y="815.1" class="st30" width="21.75" height="17.21"/>
			<rect x="1198.93" y="815.1" class="st30" width="21.75" height="17.21"/>
			<rect x="1141.16" y="841.34" class="st30" width="21.75" height="17.21"/>
			<rect x="1169.44" y="841.34" class="st30" width="21.75" height="17.21"/>
			<rect x="1198.93" y="841.34" class="st30" width="21.75" height="17.21"/>
			<rect x="1141.16" y="871.47" class="st30" width="21.75" height="17.21"/>
			<rect x="1169.44" y="871.47" class="st30" width="21.75" height="17.21"/>
			<rect x="1198.93" y="871.47" class="st30" width="21.75" height="17.21"/>
			<rect x="1141.16" y="899.98" class="st30" width="21.75" height="17.21"/>
			<rect x="1169.44" y="899.98" class="st30" width="21.75" height="17.21"/>
			<rect x="1198.93" y="899.98" class="st30" width="21.75" height="17.21"/>
			<rect x="1141.16" y="930.11" class="st30" width="21.75" height="17.21"/>
			<rect x="1169.44" y="930.11" class="st30" width="21.75" height="17.21"/>
			<rect x="1198.93" y="930.11" class="st30" width="21.75" height="17.21"/>
			<rect x="1141.16" y="960.69" class="st30" width="21.75" height="17.21"/>
			<rect x="1169.44" y="960.69" class="st30" width="21.75" height="17.21"/>
			<rect x="1198.93" y="960.69" class="st30" width="21.75" height="17.21"/>
		</g>
	</g>
</g>
<g>
	<rect x="1525.47" y="733.63" class="st28" width="107" height="264.72"/>
	<g class="st29">
		<g>
			<rect x="1539.21" y="745.68" class="st30" width="21.75" height="17.21"/>
			<rect x="1567.49" y="745.68" class="st30" width="21.75" height="17.21"/>
			<rect x="1596.98" y="745.68" class="st30" width="21.75" height="17.21"/>
			<rect x="1539.21" y="775.81" class="st30" width="21.75" height="17.21"/>
			<rect x="1567.49" y="775.81" class="st30" width="21.75" height="17.21"/>
			<rect x="1596.98" y="775.81" class="st30" width="21.75" height="17.21"/>
			<rect x="1539.21" y="804.33" class="st30" width="21.75" height="17.21"/>
			<rect x="1567.49" y="804.33" class="st30" width="21.75" height="17.21"/>
			<rect x="1596.98" y="804.33" class="st30" width="21.75" height="17.21"/>
			<rect x="1539.21" y="834.45" class="st30" width="21.75" height="17.21"/>
			<rect x="1567.49" y="834.45" class="st30" width="21.75" height="17.21"/>
			<rect x="1596.98" y="834.45" class="st30" width="21.75" height="17.21"/>
			<rect x="1539.21" y="860.7" class="st30" width="21.75" height="17.21"/>
			<rect x="1567.49" y="860.7" class="st30" width="21.75" height="17.21"/>
			<rect x="1596.98" y="860.7" class="st30" width="21.75" height="17.21"/>
			<rect x="1539.21" y="890.82" class="st30" width="21.75" height="17.21"/>
			<rect x="1567.49" y="890.82" class="st30" width="21.75" height="17.21"/>
			<rect x="1596.98" y="890.82" class="st30" width="21.75" height="17.21"/>
			<rect x="1539.21" y="919.34" class="st30" width="21.75" height="17.21"/>
			<rect x="1567.49" y="919.34" class="st30" width="21.75" height="17.21"/>
			<rect x="1596.98" y="919.34" class="st30" width="21.75" height="17.21"/>
			<rect x="1539.21" y="949.47" class="st30" width="21.75" height="17.21"/>
			<rect x="1567.49" y="949.47" class="st30" width="21.75" height="17.21"/>
			<rect x="1596.98" y="949.47" class="st30" width="21.75" height="17.21"/>
			<rect x="1539.21" y="980.05" class="st30" width="21.75" height="17.21"/>
			<rect x="1567.49" y="980.05" class="st30" width="21.75" height="17.21"/>
			<rect x="1596.98" y="980.05" class="st30" width="21.75" height="17.21"/>
		</g>
	</g>
</g>
<g>
	<rect x="1739.02" y="907.28" class="st28" width="107" height="264.72"/>
	<g class="st29">
		<g>
			<rect x="1752.76" y="919.34" class="st30" width="21.75" height="17.21"/>
			<rect x="1781.04" y="919.34" class="st30" width="21.75" height="17.21"/>
			<rect x="1810.53" y="919.34" class="st30" width="21.75" height="17.21"/>
			<rect x="1752.76" y="949.47" class="st30" width="21.75" height="17.21"/>
			<rect x="1781.04" y="949.47" class="st30" width="21.75" height="17.21"/>
			<rect x="1810.53" y="949.47" class="st30" width="21.75" height="17.21"/>
			<rect x="1752.76" y="977.98" class="st30" width="21.75" height="17.21"/>
			<rect x="1781.04" y="977.98" class="st30" width="21.75" height="17.21"/>
			<rect x="1810.53" y="977.98" class="st30" width="21.75" height="17.21"/>
			<rect x="1752.76" y="1008.11" class="st30" width="21.75" height="17.21"/>
			<rect x="1781.04" y="1008.11" class="st30" width="21.75" height="17.21"/>
			<rect x="1810.53" y="1008.11" class="st30" width="21.75" height="17.21"/>
			<rect x="1752.76" y="1034.35" class="st30" width="21.75" height="17.21"/>
			<rect x="1781.04" y="1034.35" class="st30" width="21.75" height="17.21"/>
			<rect x="1810.53" y="1034.35" class="st30" width="21.75" height="17.21"/>
			<rect x="1752.76" y="1064.48" class="st30" width="21.75" height="17.21"/>
			<rect x="1781.04" y="1064.48" class="st30" width="21.75" height="17.21"/>
			<rect x="1810.53" y="1064.48" class="st30" width="21.75" height="17.21"/>
		</g>
	</g>
</g>
<g class="st39">
	<rect x="186.19" y="870.45" class="st34" width="14.02" height="24.17"/>
	<rect x="217.75" y="870.45" class="st34" width="14.02" height="24.17"/>
	<rect x="248.69" y="870.45" class="st34" width="14.02" height="24.17"/>
	<rect x="186.19" y="916.37" class="st34" width="14.02" height="24.17"/>
	<rect x="217.75" y="916.37" class="st34" width="14.02" height="24.17"/>
	<rect x="186.19" y="962.3" class="st34" width="14.02" height="24.17"/>
	<rect x="217.75" y="962.3" class="st34" width="14.02" height="24.17"/>
	<rect x="248.69" y="962.3" class="st34" width="14.02" height="24.17"/>
	<rect x="248.69" y="916.37" class="st34" width="14.02" height="24.17"/>
	<rect x="217.75" y="1016.44" class="st34" width="14.02" height="24.17"/>
</g>
<g>
	<line class="st40" x1="288.09" y1="736.84" x2="288.09" y2="786.51"/>
	<g>
		<line class="st41" x1="322.9" y1="741.56" x2="322.9" y2="799.08"/>
		<polyline class="st41" points="349.49,744.15 349.49,810.95 372.21,810.95 		"/>
		<polyline class="st41" points="370.1,823.93 370.1,765.85 370.1,747.72 		"/>
		<line class="st41" x1="285.19" y1="765.85" x2="372.21" y2="765.85"/>
		<line class="st40" x1="310.33" y1="788.47" x2="372.21" y2="788.47"/>
		<line class="st41" x1="308.22" y1="788.47" x2="308.22" y2="739.65"/>
	</g>
</g>
<g>
	<path class="st42" d="M-77.2,1014.72c32.75-32.59,84.33-34.05,130.53-33.45c63.79,0.83,127.58,1.65,191.37,2.48
		c46.64,0.6,93.52,1.19,139.65-5.73c32.94-4.94,65.37-13.7,98.61-15.84c38.12-2.45,76.21,3.88,114.37,5.43
		c124.15,5.04,248.73-40.38,371.08-18.73c45.63,8.08,89.21,25.29,134.68,34.24c49.51,9.74,100.37,9.53,150.83,9.28
		c92.93-0.46,185.85-0.91,278.78-1.37c62.52-0.31,126.07-0.48,186.12,16.95c54.79,15.91,105.53,46.19,162.06,53.94
		c29,3.98,58.89,1.89,87.2,9.36c28.31,7.47,56.23,28.21,59.41,57.32c0.87,7.95-0.31,16.42-4.95,22.95
		c-9.02,12.69-27.06,13.94-42.63,13.98c-477.87,1.15-955.75,2.29-1433.62,3.44c-218.72,0.52-437.54,1.05-656.01-9.36
		c-31.46-1.5-68.54-6.64-83.13-34.55c-13.24-25.32,0.67-58,23.49-75.18c22.83-17.18,52.11-22.67,80.24-27.67"/>
</g>
<rect x="1854.6" y="861.67" class="st25" width="41.48" height="122.88"/>
<g>
	<path class="st42" d="M1056.05,844.06v21.65l-13.13-0.54l-55.53-2.3l-1.99,78.07l81.49-1.14l9.97,46.44c0,0,2.28,9.12-3.7,14.53
		c0,0-0.85,8.55-21.65,11.11c0,0-7.41,4.56-2.85,5.41s79.21,0.85,79.21,0.85v-29.63c0,0,4.56-66.67,2.85-87.19s7.69-1.42,7.69-1.42
		s10.26,5.98,14.82,0s7.98-10.54,3.99-15.1c-3.99-4.56-21.08-24.79-21.08-24.79s0.85-1.14,1.14-6.27
		c0.28-5.13,0.57-31.63,0.57-31.63s24.79-25.64,24.5-35.62c0,0-2.28-6.27-1.99-8.26s0-7.41,0-7.41s-9.12-23.08-7.69-29.06
		l-6.27-22.79c0,0-1.71-5.41-10.26-5.7c0,0-2.28-1.99-7.69-3.13s-16.81-3.13-22.22-13.11l-32.2,1.71c0,0,4.27,5.13,3.99,6.84
		c-0.28,1.71-1.42,6.27-1.42,7.41c0,1.14-13.11,9.69-20.52,13.68c-7.41,3.99-5.41,27.35-5.41,27.35l-3.7-3.99
		c0,0-5.7-0.85-10.83,4.56c0,0-4.27-1.42-3.99-3.13s-12.25,15.67-12.25,15.67s-2.28,1.14,4.27,8.83
		c6.55,7.69,23.36,27.07,23.36,27.07s-16.81,31.91-13.68,37.61c0,0-0.28,1.71-1.42,2.28c-1.14,0.57-3.99,3.13-5.13,7.41
		c-1.14,4.27-7.12,10.26-7.12,10.26s0,3.13,5.7,1.42l1.99,2.56l15.1,0.57c0,0,2.85-7.98,3.42-10.83c0.57-2.85,0.28-6.84,0.28-6.84
		s0.85-2.56,3.13-0.85c2.28,1.71,4.27-0.57,4.27-0.57S1054.91,843.21,1056.05,844.06z"/>
	<path class="st42" d="M1077.16,700.74l30.13-3.21c0,0-0.6-6.23,3.21-9.84c3.82-3.62,13.86-21.49,12.86-25.11
		c0,0,0.8-3.21,2.01-4.22c1.21-1,0-5.62-2.01-6.03l0.2-2.21l-0.8-0.6v-3.01l-2.61-2.01c0,0,1-2.81-2.61-2.41v-0.8l-2.01-1.41
		l-7.43-2.01h-8.24c0,0-4.62-1-7.43-0.6l-1.61-1.21h-1.61l-2.01,1.61h-3.21l-6.43,5.62c0,0-4.82,4.82-4.62,8.84
		c0,0,0.1,0.7,2.71,0.9l-6.03,9.84v5.22l-5.22,5.22c0,0-4.82,4.62,2.81,6.03v3.82c0,0,1.21-0.6,1.21,2.61s0,1.81,0,1.81
		s-0.2,0.4,1,0.4v4.22"/>
</g>
<path class="st42" d="M917.31,831.78c0,0,0,11.86-2.96,15.12v10.97c0,0-5.63,15.41-2.67,29.94c2.96,14.52-0.07,35.22-0.07,35.22
	s-2.01,4.49-0.23,10.72c1.78,6.22,12.74,66.1,24.3,70.54l12.74,0.3c0,0,12.45,9.48,0,11.26c-12.45,1.78-54.98,0.15-54.98,0.15v-6.22
	c0,0-2.96-7.41-2.67-15.12s-8.89-48.9-8.89-48.9s-3.85-5.34-4.45,5.93c-0.59,11.26-5.48,46.68-5.48,46.68s-1.48,3.56-4.45,4.15
	c-2.96,0.59,3.56,13.34,3.56,13.34H827.8c0,0,10.08-56.91,9.19-69.95c0,0,11.56-36.16,12.74-59.57c1.19-23.41,1.19-29.05,1.19-29.05
	s-3.56-2.96-2.67-8.6l-4.45-5.34c0,0-4.15-11.86-1.78-18.67l-8.74-28.01c0,0-16.3-69.06,3.56-96.33c0,0,8.6-2.96,13.04-3.26
	c4.45-0.3,0-0.59,0-0.59s2.96-7.41,5.93-8.89h-5.04c0,0-9.19-3.85-8.89-9.19s0.89-5.93,0.89-5.93s-6.22-16.6,2.96-25.49
	s15.12-13.93,21.04-13.93s16.3,6.52,16.3,6.52s5.78-0.15,9.04,1.63c3.26,1.78,3.26,8.89,3.26,8.89s-2.67,2.96-2.67,3.85
	c0,0.89,0,4.45,0,4.45s-1.78,1.78-0.3,3.85c1.48,2.07,2.37,4.74,2.37,4.74l0.3,14.23c0,0-10.08,4.45-10.37,8.89s0,6.52,0,6.52
	l5.34,0.59c0,0,15.71-7.11,25.19,3.26l19.27-0.59c0,0,0-16.6-12.45-21.93l-6.22-11.26l-20.45-16.6c0,0-0.3-8.3-3.26-8.6
	c0,0,0.59-0.59,2.96-0.89c2.37-0.3,3.56,0,3.56,0s-2.07-4.15,2.07-2.37c4.15,1.78,18.67,5.63,24.6,20.45c0,0,14.82,3.85,19.27,2.96
	l-5.63,3.26c0,0,24.01,28.45,24.01,37.05v1.48c0,0-11.56,12.74-26.97,17.19c-15.41,4.45-18.38,7.11-18.08,10.08
	c0,0,1.78,11.26-1.78,16.89c-3.56,5.63,4.45,20.15,4.45,20.15s1.48,2.96-0.59,4.74c-2.07,1.78,4.74,12.74,4.74,12.74
	s3.26,5.04-5.63,10.97"/>
</svg>
