<?xml version="1.0" encoding="utf-8"?>
<!-- Generator: Adobe Illustrator 23.0.1, SVG Export Plug-In . SVG Version: 6.00 Build 0)  -->
<svg version="1.1" id="Warstwa_1" xmlns="http://www.w3.org/2000/svg" xmlns:xlink="http://www.w3.org/1999/xlink" x="0px" y="0px"
	 viewBox="0 0 1920 1080" style="enable-background:new 0 0 1920 1080;" xml:space="preserve">
<style type="text/css">
	.st0{fill:none;}
	.st1{fill:none;stroke:#CD5D28;stroke-width:3;stroke-miterlimit:10;}
	.st2{fill:none;stroke:#CD5D28;stroke-miterlimit:10;}
	.st3{fill:#EFD6BF;}
	.st4{opacity:0.16;}
	.st5{fill:url(#SVGID_1_);}
	.st6{fill:url(#SVGID_2_);}
	.st7{fill:url(#SVGID_3_);}
	.st8{fill:url(#SVGID_4_);}
	.st9{fill:url(#SVGID_5_);}
	.st10{fill:url(#SVGID_6_);}
	.st11{fill:none;stroke:#CD5D28;stroke-miterlimit:10;stroke-dasharray:12;}
	.st12{fill:url(#SVGID_7_);}
	.st13{fill:none;stroke:#CD5D28;stroke-width:2;stroke-miterlimit:10;stroke-dasharray:12;}
	.st14{fill:url(#SVGID_8_);}
	.st15{fill:#F37442;}
	.st16{fill:#E5925B;}
	.st17{fill:url(#);}
	.st18{fill:#DF692D;}
	.st19{fill:#E4882B;}
	.st20{fill:#E4862B;}
	.st21{fill:#E2B232;}
	.st22{clip-path:url(#SVGID_10_);}
	.st23{fill:#CD5D28;}
	.st24{fill:#EDD6C0;}
	.st25{opacity:0.65;fill:#E1C3A3;}
	.st26{fill:#231F20;}
	.st27{fill:#F68E27;}
	.st28{fill:url(#SVGID_11_);}
	.st29{opacity:0.71;fill:#EFD8AF;}
	.st30{opacity:0.75;}
	.st31{fill:#D9B98D;}
	.st32{opacity:0.67;fill:#E5A875;}
	.st33{opacity:0.33;}
	.st34{fill:#EEE4CB;}
	.st35{opacity:0.65;fill:#D1925A;}
	.st36{fill:#D1925A;}
	.st37{opacity:0.65;}
	.st38{opacity:0.52;fill:#D1925A;}
	.st39{fill:none;stroke:#D1925A;stroke-miterlimit:10;}
	.st40{fill:none;stroke:#D1925A;stroke-width:3;stroke-miterlimit:10;}
	.st41{fill:none;stroke:#CD5D28;stroke-width:0.75;stroke-miterlimit:10;}
	.st42{opacity:0.77;}
	.st43{fill:none;stroke:#D1925A;stroke-width:0.25;stroke-miterlimit:10;}
	.st44{opacity:0.66;}
	.st45{fill:none;stroke:#D1925A;stroke-width:7;stroke-miterlimit:10;}
	.st46{opacity:0.69;fill:none;stroke:#D1925A;stroke-width:7;stroke-miterlimit:10;}
	.st47{fill:none;stroke:#CD5D28;stroke-width:10;stroke-miterlimit:10;}
	.st48{fill:none;stroke:#CD5D28;stroke-width:2;stroke-miterlimit:10;}
	.st49{clip-path:url(#SVGID_13_);}
	.st50{clip-path:url(#SVGID_15_);}
	.st51{clip-path:url(#SVGID_17_);}
	.st52{clip-path:url(#SVGID_19_);}
	.st53{clip-path:url(#SVGID_21_);}
	.st54{clip-path:url(#SVGID_23_);}
	.st55{fill:none;stroke:#CD5D28;stroke-linejoin:round;stroke-miterlimit:10;}
	.st56{fill:none;stroke:#622507;stroke-miterlimit:10;}
	.st57{fill:none;stroke:#CD5D28;stroke-width:0.5;stroke-miterlimit:10;}
	.st58{fill:none;stroke:#F7B143;stroke-width:0.5;stroke-miterlimit:10;}
	.st59{fill:#E9D8CC;stroke:#CD5D28;stroke-width:3;stroke-miterlimit:10;}
	.st60{fill:none;stroke:#D8A07A;stroke-width:2;stroke-miterlimit:10;}
	.st61{opacity:0.59;}
	.st62{fill:none;stroke:#CD5D28;stroke-miterlimit:10;stroke-dasharray:11.9677,11.9677;}
	.st63{fill:none;stroke:#CD5D28;stroke-miterlimit:10;stroke-dasharray:12.1212,12.1212;}
	.st64{fill:none;stroke:#CD5D28;stroke-miterlimit:10;stroke-dasharray:12.1091,12.1091;}
	.st65{fill:#E4BB9D;stroke:#CD5D28;stroke-width:3;stroke-miterlimit:10;}
	.st66{fill:none;stroke:#CD5D28;stroke-width:0.1;stroke-miterlimit:10;}
	.st67{clip-path:url(#SVGID_31_);}
	.st68{clip-path:url(#SVGID_33_);}
	.st69{clip-path:url(#SVGID_35_);}
	.st70{clip-path:url(#SVGID_37_);}
	.st71{clip-path:url(#SVGID_39_);}
	.st72{clip-path:url(#SVGID_41_);}
	.st73{opacity:0.71;}
	.st74{font-family:'UnicaOne-Regular';}
	.st75{font-size:53.5666px;}
</style>
<pattern  y="-4320" width="131.06" height="131.18" patternUnits="userSpaceOnUse" id="Nowa_próbka_wzorka_4" viewBox="0 -131.18 131.06 131.18" style="overflow:visible;">
	<g>
		<rect y="-131.18" class="st0" width="131.06" height="131.18"/>
		<polyline class="st1" points="131.06,-1.5 1.5,-1.5 1.5,-131.06 		"/>
		<line class="st2" x1="66.28" y1="-131.18" x2="66.28" y2="-1.5"/>
		<line class="st2" x1="97.22" y1="-131.18" x2="97.22" y2="-1.5"/>
		<line class="st2" x1="33.07" y1="-131.18" x2="33.07" y2="-1.5"/>
		<line class="st2" x1="129.99" y1="-65.21" x2="0.31" y2="-65.21"/>
		<line class="st2" x1="129.99" y1="-34.27" x2="0.31" y2="-34.27"/>
		<line class="st2" x1="129.99" y1="-98.41" x2="0.31" y2="-98.41"/>
	</g>
</pattern>
<g>
	<rect x="-5" y="-4240" class="st3" width="1937" height="8560"/>
</g>
<g class="st4">
	
		<pattern  id="SVGID_1_" xlink:href="#Nowa_prĂłbka_wzorka_4" patternTransform="matrix(1 0 0 0.3268 6.5 -1581.8702)"  class="st4">
	</pattern>
	<rect x="-8.5" y="-1079" class="st5" width="1937" height="1085"/>
</g>
<g class="st4">
	
		<pattern  id="SVGID_2_" xlink:href="#Nowa_prĂłbka_wzorka_4" patternTransform="matrix(1 0 0 0.3268 6.5 -1574.6415)"  class="st4">
	</pattern>
	<rect x="-8.5" class="st6" width="1937" height="1085"/>
</g>
<g>
	<g>
		<line class="st60" x1="-24.5" y1="2.5" x2="8.5" y2="-61.5"/>
		<line class="st60" x1="39.5" y1="-61.5" x2="8.5" y2="2.5"/>
		<line class="st60" x1="9" y1="2.49" x2="-57" y2="2.49"/>
	</g>
	<g>
		<line class="st60" x1="9.34" y1="1.83" x2="41.5" y2="-61.5"/>
		<line class="st60" x1="41.5" y1="2.5" x2="74.5" y2="-61.5"/>
		<line class="st60" x1="105.5" y1="-61.5" x2="74.5" y2="2.5"/>
		<line class="st60" x1="75" y1="2.49" x2="9" y2="2.49"/>
	</g>
	<g>
		<line class="st60" x1="75.34" y1="1.83" x2="107.5" y2="-61.5"/>
		<line class="st60" x1="107.5" y1="2.5" x2="140.5" y2="-61.5"/>
		<line class="st60" x1="171.5" y1="-61.5" x2="140.5" y2="2.5"/>
		<line class="st60" x1="141" y1="2.49" x2="75" y2="2.49"/>
	</g>
	<g>
		<line class="st60" x1="141.34" y1="1.83" x2="173.5" y2="-61.5"/>
		<line class="st60" x1="173.5" y1="2.5" x2="206.5" y2="-61.5"/>
		<line class="st60" x1="237.5" y1="-61.5" x2="206.5" y2="2.5"/>
		<line class="st60" x1="207" y1="2.49" x2="141" y2="2.49"/>
	</g>
	<g>
		<line class="st60" x1="207.34" y1="1.83" x2="239.5" y2="-61.5"/>
		<line class="st60" x1="239.5" y1="2.5" x2="272.5" y2="-61.5"/>
		<line class="st60" x1="303.5" y1="-61.5" x2="272.5" y2="2.5"/>
		<line class="st60" x1="273" y1="2.49" x2="207" y2="2.49"/>
	</g>
	<g>
		<line class="st60" x1="273.34" y1="1.83" x2="305.5" y2="-61.5"/>
		<line class="st60" x1="305.5" y1="2.5" x2="338.5" y2="-61.5"/>
		<line class="st60" x1="369.5" y1="-61.5" x2="338.5" y2="2.5"/>
		<line class="st60" x1="339" y1="2.49" x2="273" y2="2.49"/>
	</g>
	<g>
		<line class="st60" x1="339.34" y1="1.83" x2="371.5" y2="-61.5"/>
		<line class="st60" x1="371.5" y1="2.5" x2="404.5" y2="-61.5"/>
		<line class="st60" x1="435.5" y1="-61.5" x2="404.5" y2="2.5"/>
		<line class="st60" x1="405" y1="2.49" x2="339" y2="2.49"/>
	</g>
	<g>
		<line class="st60" x1="405.34" y1="1.83" x2="437.5" y2="-61.5"/>
		<line class="st60" x1="437.5" y1="2.5" x2="470.5" y2="-61.5"/>
		<line class="st60" x1="501.5" y1="-61.5" x2="470.5" y2="2.5"/>
		<line class="st60" x1="471" y1="2.49" x2="405" y2="2.49"/>
	</g>
	<g>
		<line class="st60" x1="471.34" y1="1.83" x2="503.5" y2="-61.5"/>
		<line class="st60" x1="503.5" y1="2.5" x2="536.5" y2="-61.5"/>
		<line class="st60" x1="567.5" y1="-61.5" x2="536.5" y2="2.5"/>
		<line class="st60" x1="537" y1="2.49" x2="471" y2="2.49"/>
	</g>
	<g>
		<line class="st60" x1="537.34" y1="1.83" x2="569.5" y2="-61.5"/>
		<line class="st60" x1="569.5" y1="2.5" x2="602.5" y2="-61.5"/>
		<line class="st60" x1="633.5" y1="-61.5" x2="602.5" y2="2.5"/>
		<line class="st60" x1="603" y1="2.49" x2="537" y2="2.49"/>
	</g>
	<g>
		<line class="st60" x1="603.34" y1="1.83" x2="635.5" y2="-61.5"/>
		<line class="st60" x1="635.5" y1="2.5" x2="668.5" y2="-61.5"/>
		<line class="st60" x1="699.5" y1="-61.5" x2="668.5" y2="2.5"/>
		<line class="st60" x1="669" y1="2.49" x2="603" y2="2.49"/>
	</g>
	<g>
		<line class="st60" x1="669.34" y1="1.83" x2="701.5" y2="-61.5"/>
		<line class="st60" x1="701.5" y1="2.5" x2="734.5" y2="-61.5"/>
		<line class="st60" x1="765.5" y1="-61.5" x2="734.5" y2="2.5"/>
		<line class="st60" x1="735" y1="2.49" x2="669" y2="2.49"/>
	</g>
	<g>
		<line class="st60" x1="735.34" y1="1.83" x2="767.5" y2="-61.5"/>
		<line class="st60" x1="767.5" y1="2.5" x2="800.5" y2="-61.5"/>
		<line class="st60" x1="831.5" y1="-61.5" x2="800.5" y2="2.5"/>
		<line class="st60" x1="801" y1="2.49" x2="735" y2="2.49"/>
	</g>
	<g>
		<line class="st60" x1="801.34" y1="1.83" x2="833.5" y2="-61.5"/>
		<line class="st60" x1="833.5" y1="2.5" x2="866.5" y2="-61.5"/>
		<line class="st60" x1="897.5" y1="-61.5" x2="866.5" y2="2.5"/>
		<line class="st60" x1="867" y1="2.49" x2="801" y2="2.49"/>
	</g>
	<g>
		<line class="st60" x1="867.34" y1="1.83" x2="899.5" y2="-61.5"/>
		<line class="st60" x1="899.5" y1="2.5" x2="932.5" y2="-61.5"/>
		<line class="st60" x1="963.5" y1="-61.5" x2="932.5" y2="2.5"/>
		<line class="st60" x1="933" y1="2.49" x2="867" y2="2.49"/>
	</g>
	<g>
		<line class="st60" x1="932.34" y1="1.83" x2="964.5" y2="-61.5"/>
		<line class="st60" x1="964.5" y1="2.5" x2="997.5" y2="-61.5"/>
		<line class="st60" x1="1028.5" y1="-61.5" x2="997.5" y2="2.5"/>
		<line class="st60" x1="998" y1="2.49" x2="932" y2="2.49"/>
	</g>
	<g>
		<line class="st60" x1="998.34" y1="1.83" x2="1030.5" y2="-61.5"/>
		<line class="st60" x1="1030.5" y1="2.5" x2="1063.5" y2="-61.5"/>
		<line class="st60" x1="1094.5" y1="-61.5" x2="1063.5" y2="2.5"/>
		<line class="st60" x1="1064" y1="2.49" x2="998" y2="2.49"/>
	</g>
	<g>
		<line class="st60" x1="1064.34" y1="1.83" x2="1096.5" y2="-61.5"/>
		<line class="st60" x1="1096.5" y1="2.5" x2="1129.5" y2="-61.5"/>
		<line class="st60" x1="1160.5" y1="-61.5" x2="1129.5" y2="2.5"/>
		<line class="st60" x1="1130" y1="2.49" x2="1064" y2="2.49"/>
	</g>
	<g>
		<line class="st60" x1="1130.34" y1="1.83" x2="1162.5" y2="-61.5"/>
		<line class="st60" x1="1162.5" y1="2.5" x2="1195.5" y2="-61.5"/>
		<line class="st60" x1="1226.5" y1="-61.5" x2="1195.5" y2="2.5"/>
		<line class="st60" x1="1196" y1="2.49" x2="1130" y2="2.49"/>
	</g>
	<g>
		<line class="st60" x1="1196.34" y1="1.83" x2="1228.5" y2="-61.5"/>
		<line class="st60" x1="1228.5" y1="2.5" x2="1261.5" y2="-61.5"/>
		<line class="st60" x1="1292.5" y1="-61.5" x2="1261.5" y2="2.5"/>
		<line class="st60" x1="1262" y1="2.49" x2="1196" y2="2.49"/>
	</g>
	<g>
		<line class="st60" x1="1262.34" y1="1.83" x2="1294.5" y2="-61.5"/>
		<line class="st60" x1="1294.5" y1="2.5" x2="1327.5" y2="-61.5"/>
		<line class="st60" x1="1358.5" y1="-61.5" x2="1327.5" y2="2.5"/>
		<line class="st60" x1="1328" y1="2.49" x2="1262" y2="2.49"/>
	</g>
	<g>
		<line class="st60" x1="1328.34" y1="1.83" x2="1360.5" y2="-61.5"/>
		<line class="st60" x1="1360.5" y1="2.5" x2="1393.5" y2="-61.5"/>
		<line class="st60" x1="1424.5" y1="-61.5" x2="1393.5" y2="2.5"/>
		<line class="st60" x1="1394" y1="2.49" x2="1328" y2="2.49"/>
	</g>
	<g>
		<line class="st60" x1="1394.34" y1="1.83" x2="1426.5" y2="-61.5"/>
		<line class="st60" x1="1426.5" y1="2.5" x2="1459.5" y2="-61.5"/>
		<line class="st60" x1="1490.5" y1="-61.5" x2="1459.5" y2="2.5"/>
		<line class="st60" x1="1460" y1="2.49" x2="1394" y2="2.49"/>
	</g>
	<g>
		<line class="st60" x1="1460.34" y1="1.83" x2="1492.5" y2="-61.5"/>
		<line class="st60" x1="1492.5" y1="2.5" x2="1525.5" y2="-61.5"/>
		<line class="st60" x1="1556.5" y1="-61.5" x2="1525.5" y2="2.5"/>
		<line class="st60" x1="1526" y1="2.49" x2="1460" y2="2.49"/>
	</g>
	<g>
		<line class="st60" x1="1526.34" y1="1.83" x2="1558.5" y2="-61.5"/>
		<line class="st60" x1="1558.5" y1="2.5" x2="1591.5" y2="-61.5"/>
		<line class="st60" x1="1622.5" y1="-61.5" x2="1591.5" y2="2.5"/>
		<line class="st60" x1="1592" y1="2.49" x2="1526" y2="2.49"/>
	</g>
	<g>
		<line class="st60" x1="1592.34" y1="1.83" x2="1624.5" y2="-61.5"/>
		<line class="st60" x1="1624.5" y1="2.5" x2="1657.5" y2="-61.5"/>
		<line class="st60" x1="1688.5" y1="-61.5" x2="1657.5" y2="2.5"/>
		<line class="st60" x1="1658" y1="2.49" x2="1592" y2="2.49"/>
	</g>
	<g>
		<line class="st60" x1="1658.34" y1="1.83" x2="1690.5" y2="-61.5"/>
		<line class="st60" x1="1690.5" y1="2.5" x2="1723.5" y2="-61.5"/>
		<line class="st60" x1="1754.5" y1="-61.5" x2="1723.5" y2="2.5"/>
		<line class="st60" x1="1724" y1="2.49" x2="1658" y2="2.49"/>
	</g>
	<g>
		<line class="st60" x1="1724.34" y1="1.83" x2="1756.5" y2="-61.5"/>
		<line class="st60" x1="1756.5" y1="2.5" x2="1789.5" y2="-61.5"/>
		<line class="st60" x1="1820.5" y1="-61.5" x2="1789.5" y2="2.5"/>
		<line class="st60" x1="1790" y1="2.49" x2="1724" y2="2.49"/>
	</g>
	<g>
		<line class="st60" x1="1790.34" y1="1.83" x2="1822.5" y2="-61.5"/>
		<line class="st60" x1="1822.5" y1="2.5" x2="1855.5" y2="-61.5"/>
		<line class="st60" x1="1886.5" y1="-61.5" x2="1855.5" y2="2.5"/>
		<line class="st60" x1="1856" y1="2.49" x2="1790" y2="2.49"/>
	</g>
	<g>
		<line class="st60" x1="1856.34" y1="1.83" x2="1888.5" y2="-61.5"/>
		<line class="st60" x1="1888.5" y1="2.5" x2="1921.5" y2="-61.5"/>
		<line class="st60" x1="1922" y1="2.49" x2="1856" y2="2.49"/>
	</g>
</g>
<g>
	<g>
		<line class="st60" x1="-30.5" y1="1078.5" x2="2.5" y2="1014.5"/>
		<line class="st60" x1="33.5" y1="1014.5" x2="2.5" y2="1078.5"/>
		<line class="st60" x1="3" y1="1078.49" x2="-63" y2="1078.49"/>
		<line class="st60" x1="33" y1="1014.24" x2="-31" y2="1014.24"/>
	</g>
	<g>
		<line class="st60" x1="3.34" y1="1077.83" x2="35.5" y2="1014.5"/>
		<line class="st60" x1="35.5" y1="1078.5" x2="68.5" y2="1014.5"/>
		<line class="st60" x1="99.5" y1="1014.5" x2="68.5" y2="1078.5"/>
		<line class="st60" x1="69" y1="1078.49" x2="3" y2="1078.49"/>
		<line class="st60" x1="99" y1="1014.24" x2="35" y2="1014.24"/>
	</g>
	<g>
		<line class="st60" x1="69.34" y1="1077.83" x2="101.5" y2="1014.5"/>
		<line class="st60" x1="101.5" y1="1078.5" x2="134.5" y2="1014.5"/>
		<line class="st60" x1="165.5" y1="1014.5" x2="134.5" y2="1078.5"/>
		<line class="st60" x1="135" y1="1078.49" x2="69" y2="1078.49"/>
		<line class="st60" x1="165" y1="1014.24" x2="101" y2="1014.24"/>
	</g>
	<g>
		<line class="st60" x1="135.34" y1="1077.83" x2="167.5" y2="1014.5"/>
		<line class="st60" x1="167.5" y1="1078.5" x2="200.5" y2="1014.5"/>
		<line class="st60" x1="231.5" y1="1014.5" x2="200.5" y2="1078.5"/>
		<line class="st60" x1="201" y1="1078.49" x2="135" y2="1078.49"/>
		<line class="st60" x1="231" y1="1014.24" x2="167" y2="1014.24"/>
	</g>
	<g>
		<line class="st60" x1="201.34" y1="1077.83" x2="233.5" y2="1014.5"/>
		<line class="st60" x1="233.5" y1="1078.5" x2="266.5" y2="1014.5"/>
		<line class="st60" x1="297.5" y1="1014.5" x2="266.5" y2="1078.5"/>
		<line class="st60" x1="267" y1="1078.49" x2="201" y2="1078.49"/>
		<line class="st60" x1="297" y1="1014.24" x2="233" y2="1014.24"/>
	</g>
	<g>
		<line class="st60" x1="267.34" y1="1077.83" x2="299.5" y2="1014.5"/>
		<line class="st60" x1="299.5" y1="1078.5" x2="332.5" y2="1014.5"/>
		<line class="st60" x1="363.5" y1="1014.5" x2="332.5" y2="1078.5"/>
		<line class="st60" x1="333" y1="1078.49" x2="267" y2="1078.49"/>
		<line class="st60" x1="363" y1="1014.24" x2="299" y2="1014.24"/>
	</g>
	<g>
		<line class="st60" x1="333.34" y1="1077.83" x2="365.5" y2="1014.5"/>
		<line class="st60" x1="365.5" y1="1078.5" x2="398.5" y2="1014.5"/>
		<line class="st60" x1="429.5" y1="1014.5" x2="398.5" y2="1078.5"/>
		<line class="st60" x1="399" y1="1078.49" x2="333" y2="1078.49"/>
		<line class="st60" x1="429" y1="1014.24" x2="365" y2="1014.24"/>
	</g>
	<g>
		<line class="st60" x1="399.34" y1="1077.83" x2="431.5" y2="1014.5"/>
		<line class="st60" x1="431.5" y1="1078.5" x2="464.5" y2="1014.5"/>
		<line class="st60" x1="495.5" y1="1014.5" x2="464.5" y2="1078.5"/>
		<line class="st60" x1="465" y1="1078.49" x2="399" y2="1078.49"/>
		<line class="st60" x1="495" y1="1014.24" x2="431" y2="1014.24"/>
	</g>
	<g>
		<line class="st60" x1="465.34" y1="1077.83" x2="497.5" y2="1014.5"/>
		<line class="st60" x1="497.5" y1="1078.5" x2="530.5" y2="1014.5"/>
		<line class="st60" x1="561.5" y1="1014.5" x2="530.5" y2="1078.5"/>
		<line class="st60" x1="531" y1="1078.49" x2="465" y2="1078.49"/>
		<line class="st60" x1="561" y1="1014.24" x2="497" y2="1014.24"/>
	</g>
	<g>
		<line class="st60" x1="531.34" y1="1077.83" x2="563.5" y2="1014.5"/>
		<line class="st60" x1="563.5" y1="1078.5" x2="596.5" y2="1014.5"/>
		<line class="st60" x1="627.5" y1="1014.5" x2="596.5" y2="1078.5"/>
		<line class="st60" x1="597" y1="1078.49" x2="531" y2="1078.49"/>
		<line class="st60" x1="627" y1="1014.24" x2="563" y2="1014.24"/>
	</g>
	<g>
		<line class="st60" x1="597.34" y1="1077.83" x2="629.5" y2="1014.5"/>
		<line class="st60" x1="629.5" y1="1078.5" x2="662.5" y2="1014.5"/>
		<line class="st60" x1="693.5" y1="1014.5" x2="662.5" y2="1078.5"/>
		<line class="st60" x1="663" y1="1078.49" x2="597" y2="1078.49"/>
		<line class="st60" x1="693" y1="1014.24" x2="629" y2="1014.24"/>
	</g>
	<g>
		<line class="st60" x1="663.34" y1="1077.83" x2="695.5" y2="1014.5"/>
		<line class="st60" x1="695.5" y1="1078.5" x2="728.5" y2="1014.5"/>
		<line class="st60" x1="759.5" y1="1014.5" x2="728.5" y2="1078.5"/>
		<line class="st60" x1="729" y1="1078.49" x2="663" y2="1078.49"/>
		<line class="st60" x1="759" y1="1014.24" x2="695" y2="1014.24"/>
	</g>
	<g>
		<line class="st60" x1="729.34" y1="1077.83" x2="761.5" y2="1014.5"/>
		<line class="st60" x1="761.5" y1="1078.5" x2="794.5" y2="1014.5"/>
		<line class="st60" x1="825.5" y1="1014.5" x2="794.5" y2="1078.5"/>
		<line class="st60" x1="795" y1="1078.49" x2="729" y2="1078.49"/>
		<line class="st60" x1="825" y1="1014.24" x2="761" y2="1014.24"/>
	</g>
	<g>
		<line class="st60" x1="795.34" y1="1077.83" x2="827.5" y2="1014.5"/>
		<line class="st60" x1="827.5" y1="1078.5" x2="860.5" y2="1014.5"/>
		<line class="st60" x1="891.5" y1="1014.5" x2="860.5" y2="1078.5"/>
		<line class="st60" x1="861" y1="1078.49" x2="795" y2="1078.49"/>
		<line class="st60" x1="891" y1="1014.24" x2="827" y2="1014.24"/>
	</g>
	<g>
		<line class="st60" x1="861.34" y1="1077.83" x2="893.5" y2="1014.5"/>
		<line class="st60" x1="893.5" y1="1078.5" x2="926.5" y2="1014.5"/>
		<line class="st60" x1="957.5" y1="1014.5" x2="926.5" y2="1078.5"/>
		<line class="st60" x1="927" y1="1078.49" x2="861" y2="1078.49"/>
		<line class="st60" x1="957" y1="1014.24" x2="893" y2="1014.24"/>
	</g>
	<g>
		<line class="st60" x1="926.34" y1="1077.83" x2="958.5" y2="1014.5"/>
		<line class="st60" x1="958.5" y1="1078.5" x2="991.5" y2="1014.5"/>
		<line class="st60" x1="1022.5" y1="1014.5" x2="991.5" y2="1078.5"/>
		<line class="st60" x1="992" y1="1078.49" x2="926" y2="1078.49"/>
		<line class="st60" x1="1022" y1="1014.24" x2="958" y2="1014.24"/>
	</g>
	<g>
		<line class="st60" x1="992.34" y1="1077.83" x2="1024.5" y2="1014.5"/>
		<line class="st60" x1="1024.5" y1="1078.5" x2="1057.5" y2="1014.5"/>
		<line class="st60" x1="1088.5" y1="1014.5" x2="1057.5" y2="1078.5"/>
		<line class="st60" x1="1058" y1="1078.49" x2="992" y2="1078.49"/>
		<line class="st60" x1="1088" y1="1014.24" x2="1024" y2="1014.24"/>
	</g>
	<g>
		<line class="st60" x1="1058.34" y1="1077.83" x2="1090.5" y2="1014.5"/>
		<line class="st60" x1="1090.5" y1="1078.5" x2="1123.5" y2="1014.5"/>
		<line class="st60" x1="1154.5" y1="1014.5" x2="1123.5" y2="1078.5"/>
		<line class="st60" x1="1124" y1="1078.49" x2="1058" y2="1078.49"/>
		<line class="st60" x1="1154" y1="1014.24" x2="1090" y2="1014.24"/>
	</g>
	<g>
		<line class="st60" x1="1124.34" y1="1077.83" x2="1156.5" y2="1014.5"/>
		<line class="st60" x1="1156.5" y1="1078.5" x2="1189.5" y2="1014.5"/>
		<line class="st60" x1="1220.5" y1="1014.5" x2="1189.5" y2="1078.5"/>
		<line class="st60" x1="1190" y1="1078.49" x2="1124" y2="1078.49"/>
		<line class="st60" x1="1220" y1="1014.24" x2="1156" y2="1014.24"/>
	</g>
	<g>
		<line class="st60" x1="1190.34" y1="1077.83" x2="1222.5" y2="1014.5"/>
		<line class="st60" x1="1222.5" y1="1078.5" x2="1255.5" y2="1014.5"/>
		<line class="st60" x1="1286.5" y1="1014.5" x2="1255.5" y2="1078.5"/>
		<line class="st60" x1="1256" y1="1078.49" x2="1190" y2="1078.49"/>
		<line class="st60" x1="1286" y1="1014.24" x2="1222" y2="1014.24"/>
	</g>
	<g>
		<line class="st60" x1="1256.34" y1="1077.83" x2="1288.5" y2="1014.5"/>
		<line class="st60" x1="1288.5" y1="1078.5" x2="1321.5" y2="1014.5"/>
		<line class="st60" x1="1352.5" y1="1014.5" x2="1321.5" y2="1078.5"/>
		<line class="st60" x1="1322" y1="1078.49" x2="1256" y2="1078.49"/>
		<line class="st60" x1="1352" y1="1014.24" x2="1288" y2="1014.24"/>
	</g>
	<g>
		<line class="st60" x1="1322.34" y1="1077.83" x2="1354.5" y2="1014.5"/>
		<line class="st60" x1="1354.5" y1="1078.5" x2="1387.5" y2="1014.5"/>
		<line class="st60" x1="1418.5" y1="1014.5" x2="1387.5" y2="1078.5"/>
		<line class="st60" x1="1388" y1="1078.49" x2="1322" y2="1078.49"/>
		<line class="st60" x1="1418" y1="1014.24" x2="1354" y2="1014.24"/>
	</g>
	<g>
		<line class="st60" x1="1388.34" y1="1077.83" x2="1420.5" y2="1014.5"/>
		<line class="st60" x1="1420.5" y1="1078.5" x2="1453.5" y2="1014.5"/>
		<line class="st60" x1="1484.5" y1="1014.5" x2="1453.5" y2="1078.5"/>
		<line class="st60" x1="1454" y1="1078.49" x2="1388" y2="1078.49"/>
		<line class="st60" x1="1484" y1="1014.24" x2="1420" y2="1014.24"/>
	</g>
	<g>
		<line class="st60" x1="1454.34" y1="1077.83" x2="1486.5" y2="1014.5"/>
		<line class="st60" x1="1486.5" y1="1078.5" x2="1519.5" y2="1014.5"/>
		<line class="st60" x1="1550.5" y1="1014.5" x2="1519.5" y2="1078.5"/>
		<line class="st60" x1="1520" y1="1078.49" x2="1454" y2="1078.49"/>
		<line class="st60" x1="1550" y1="1014.24" x2="1486" y2="1014.24"/>
	</g>
	<g>
		<line class="st60" x1="1520.34" y1="1077.83" x2="1552.5" y2="1014.5"/>
		<line class="st60" x1="1552.5" y1="1078.5" x2="1585.5" y2="1014.5"/>
		<line class="st60" x1="1616.5" y1="1014.5" x2="1585.5" y2="1078.5"/>
		<line class="st60" x1="1586" y1="1078.49" x2="1520" y2="1078.49"/>
		<line class="st60" x1="1616" y1="1014.24" x2="1552" y2="1014.24"/>
	</g>
	<g>
		<line class="st60" x1="1586.34" y1="1077.83" x2="1618.5" y2="1014.5"/>
		<line class="st60" x1="1618.5" y1="1078.5" x2="1651.5" y2="1014.5"/>
		<line class="st60" x1="1682.5" y1="1014.5" x2="1651.5" y2="1078.5"/>
		<line class="st60" x1="1652" y1="1078.49" x2="1586" y2="1078.49"/>
		<line class="st60" x1="1682" y1="1014.24" x2="1618" y2="1014.24"/>
	</g>
	<g>
		<line class="st60" x1="1652.34" y1="1077.83" x2="1684.5" y2="1014.5"/>
		<line class="st60" x1="1684.5" y1="1078.5" x2="1717.5" y2="1014.5"/>
		<line class="st60" x1="1748.5" y1="1014.5" x2="1717.5" y2="1078.5"/>
		<line class="st60" x1="1718" y1="1078.49" x2="1652" y2="1078.49"/>
		<line class="st60" x1="1748" y1="1014.24" x2="1684" y2="1014.24"/>
	</g>
	<g>
		<line class="st60" x1="1718.34" y1="1077.83" x2="1750.5" y2="1014.5"/>
		<line class="st60" x1="1750.5" y1="1078.5" x2="1783.5" y2="1014.5"/>
		<line class="st60" x1="1814.5" y1="1014.5" x2="1783.5" y2="1078.5"/>
		<line class="st60" x1="1784" y1="1078.49" x2="1718" y2="1078.49"/>
		<line class="st60" x1="1814" y1="1014.24" x2="1750" y2="1014.24"/>
	</g>
	<g>
		<line class="st60" x1="1784.34" y1="1077.83" x2="1816.5" y2="1014.5"/>
		<line class="st60" x1="1816.5" y1="1078.5" x2="1849.5" y2="1014.5"/>
		<line class="st60" x1="1880.5" y1="1014.5" x2="1849.5" y2="1078.5"/>
		<line class="st60" x1="1850" y1="1078.49" x2="1784" y2="1078.49"/>
		<line class="st60" x1="1880" y1="1014.24" x2="1816" y2="1014.24"/>
	</g>
	<g>
		<line class="st60" x1="1850.34" y1="1077.83" x2="1882.5" y2="1014.5"/>
		<line class="st60" x1="1882.5" y1="1078.5" x2="1915.5" y2="1014.5"/>
		<line class="st60" x1="1946.5" y1="1014.5" x2="1915.5" y2="1078.5"/>
		<line class="st60" x1="1916" y1="1078.49" x2="1850" y2="1078.49"/>
		<line class="st60" x1="1946" y1="1014.24" x2="1882" y2="1014.24"/>
	</g>
	<g>
		<line class="st60" x1="1916.34" y1="1077.83" x2="1948.5" y2="1014.5"/>
		<line class="st60" x1="1982" y1="1078.49" x2="1916" y2="1078.49"/>
	</g>
</g>
<g>
	<g>
		
			<rect x="82.46" y="100.27" transform="matrix(6.123234e-17 -1 1 6.123234e-17 -17.8077 273.7349)" class="st60" width="91" height="91"/>
		
			<rect x="76.96" y="95.27" transform="matrix(6.123234e-17 -1 1 6.123234e-17 -17.8077 273.7349)" class="st60" width="102" height="101"/>
		<g>
			
				<rect x="69.46" y="184.77" transform="matrix(6.123234e-17 -1 1 6.123234e-17 -119.8077 261.7349)" class="st60" width="3" height="12"/>
			
				<rect x="69.46" y="174.77" transform="matrix(6.123234e-17 -1 1 6.123234e-17 -109.8077 251.7349)" class="st60" width="3" height="12"/>
			
				<rect x="69.46" y="164.77" transform="matrix(6.123234e-17 -1 1 6.123234e-17 -99.8077 241.7349)" class="st60" width="3" height="12"/>
			
				<rect x="69.46" y="154.77" transform="matrix(6.123234e-17 -1 1 6.123234e-17 -89.8077 231.7349)" class="st60" width="3" height="12"/>
			
				<rect x="69.46" y="144.77" transform="matrix(6.123234e-17 -1 1 6.123234e-17 -79.8077 221.7349)" class="st60" width="3" height="12"/>
			
				<rect x="69.46" y="134.77" transform="matrix(6.123234e-17 -1 1 6.123234e-17 -69.8077 211.7349)" class="st60" width="3" height="12"/>
			
				<rect x="69.46" y="124.77" transform="matrix(6.123234e-17 -1 1 6.123234e-17 -59.8077 201.7349)" class="st60" width="3" height="12"/>
			
				<rect x="69.46" y="114.77" transform="matrix(6.123234e-17 -1 1 6.123234e-17 -49.8077 191.7349)" class="st60" width="3" height="12"/>
			
				<rect x="69.46" y="104.77" transform="matrix(6.123234e-17 -1 1 6.123234e-17 -39.8077 181.7349)" class="st60" width="3" height="12"/>
			
				<rect x="69.46" y="94.77" transform="matrix(6.123234e-17 -1 1 6.123234e-17 -29.8077 171.7349)" class="st60" width="3" height="12"/>
		</g>
		<g>
			
				<rect x="183.46" y="184.27" transform="matrix(6.123234e-17 -1 1 6.123234e-17 -5.3077 375.2349)" class="st60" width="3" height="12"/>
			
				<rect x="183.46" y="174.27" transform="matrix(6.123234e-17 -1 1 6.123234e-17 4.6923 365.2349)" class="st60" width="3" height="12"/>
			
				<rect x="183.46" y="164.27" transform="matrix(6.123234e-17 -1 1 6.123234e-17 14.6923 355.2349)" class="st60" width="3" height="12"/>
			
				<rect x="183.46" y="154.27" transform="matrix(6.123234e-17 -1 1 6.123234e-17 24.6923 345.2349)" class="st60" width="3" height="12"/>
			
				<rect x="183.46" y="144.27" transform="matrix(6.123234e-17 -1 1 6.123234e-17 34.6923 335.2349)" class="st60" width="3" height="12"/>
			
				<rect x="183.46" y="134.27" transform="matrix(6.123234e-17 -1 1 6.123234e-17 44.6923 325.2349)" class="st60" width="3" height="12"/>
			
				<rect x="183.46" y="124.27" transform="matrix(6.123234e-17 -1 1 6.123234e-17 54.6923 315.2349)" class="st60" width="3" height="12"/>
			
				<rect x="183.46" y="114.27" transform="matrix(6.123234e-17 -1 1 6.123234e-17 64.6923 305.2349)" class="st60" width="3" height="12"/>
			
				<rect x="183.46" y="104.27" transform="matrix(6.123234e-17 -1 1 6.123234e-17 74.6923 295.2349)" class="st60" width="3" height="12"/>
			
				<rect x="183.46" y="94.27" transform="matrix(6.123234e-17 -1 1 6.123234e-17 84.6923 285.2349)" class="st60" width="3" height="12"/>
		</g>
		<g>
			<rect x="81.96" y="82.77" class="st60" width="3" height="12"/>
			<rect x="91.96" y="82.77" class="st60" width="3" height="12"/>
			<rect x="101.96" y="82.77" class="st60" width="3" height="12"/>
			<rect x="111.96" y="82.77" class="st60" width="3" height="12"/>
			<rect x="121.96" y="82.77" class="st60" width="3" height="12"/>
			<rect x="131.96" y="82.77" class="st60" width="3" height="12"/>
			<rect x="141.96" y="82.77" class="st60" width="3" height="12"/>
			<rect x="151.96" y="82.77" class="st60" width="3" height="12"/>
			<rect x="161.96" y="82.77" class="st60" width="3" height="12"/>
			<rect x="171.96" y="82.77" class="st60" width="3" height="12"/>
		</g>
		<g>
			<rect x="81.96" y="196.77" class="st60" width="3" height="12"/>
			<rect x="91.96" y="196.77" class="st60" width="3" height="12"/>
			<rect x="101.96" y="196.77" class="st60" width="3" height="12"/>
			<rect x="111.96" y="196.77" class="st60" width="3" height="12"/>
			<rect x="121.96" y="196.77" class="st60" width="3" height="12"/>
			<rect x="131.96" y="196.77" class="st60" width="3" height="12"/>
			<rect x="141.96" y="196.77" class="st60" width="3" height="12"/>
			<rect x="151.96" y="196.77" class="st60" width="3" height="12"/>
			<rect x="161.96" y="196.77" class="st60" width="3" height="12"/>
			<rect x="171.96" y="196.77" class="st60" width="3" height="12"/>
		</g>
		<polyline class="st60" points="64.96,180.77 42.96,180.77 38.96,185.77 -10.04,184.77 		"/>
		<polyline class="st60" points="64.96,191.27 39.96,190.77 28.96,203.77 -2.04,202.77 		"/>
		<polyline class="st60" points="64.96,170.77 53.96,170.77 42.96,160.77 5.96,160.77 		"/>
		<polyline class="st60" points="64.96,160.77 59.96,160.77 51.96,152.77 -2.04,152.77 		"/>
		<polyline class="st60" points="64.96,150.77 53.96,140.77 20.96,140.77 		"/>
		<polyline class="st60" points="64.96,140.77 59.96,134.77 -0.04,134.77 		"/>
		<polyline class="st60" points="64.96,130.77 42.96,130.77 30.96,118.77 -5.04,118.77 		"/>
		<polyline class="st60" points="64.96,120.77 47.96,120.77 36.46,109.27 24.96,109.27 		"/>
		<polyline class="st60" points="64.96,110.77 58.96,110.77 37.46,89.27 12.96,89.27 		"/>
		<polyline class="st60" points="64.96,100.77 29.46,65.27 29.46,35.77 		"/>
		<polyline class="st60" points="83.46,82.77 83.46,60.77 65.71,43.02 44.96,43.02 36.84,34.9 36.84,6.77 		"/>
		<polyline class="st60" points="93.46,82.77 93.46,57.77 65.21,29.52 65.21,0.77 		"/>
		<polyline class="st60" points="103.46,82.77 103.46,53.77 91.21,41.52 91.21,2.77 		"/>
		<polyline class="st60" points="113.46,82.77 113.46,48.77 130.71,31.52 130.71,-10.23 		"/>
		<polyline class="st60" points="123.46,82.77 123.46,69.77 143.71,49.52 143.71,6.77 		"/>
		<polyline class="st60" points="133.46,82.77 133.46,69.77 148.71,54.52 148.71,-7.23 		"/>
		<polyline class="st60" points="143.71,82.77 143.71,68.77 155.84,56.65 155.84,-1.23 		"/>
		<polyline class="st60" points="153.46,82.77 153.46,65.77 162.21,57.02 162.21,29.77 		"/>
		<polyline class="st60" points="162.96,81.77 188.46,56.27 188.46,31.77 209.71,10.52 262.96,10.52 		"/>
		<polyline class="st60" points="173.46,82.77 203.21,53.02 301.96,53.02 		"/>
		<polyline class="st60" points="190.96,100.27 231.96,100.27 261.21,71.02 346.96,71.02 		"/>
		<polyline class="st60" points="190.96,110.27 256.96,110.27 286.71,80.52 374.96,80.52 406.34,49.15 486.96,49.15 		"/>
		<polyline class="st60" points="190.96,120.27 276.96,120.27 306.71,90.52 401.96,90.52 		"/>
		<polyline class="st60" points="190.96,130.27 300.96,130.27 323.21,108.02 488.96,108.02 558.59,38.4 598.75,-1.76 		"/>
		<polyline class="st60" points="190.96,140.27 312.96,140.27 334.71,118.52 		"/>
		<polyline class="st60" points="190.96,150.27 322.96,150.27 341.71,131.52 504.96,131.52 561.34,75.15 695,75.15 767.57,2.57 		
			"/>
		<polyline class="st60" points="190.96,160.27 246.96,160.27 261.21,174.52 338.96,174.52 376.34,137.15 473.96,137.15 
			502.78,165.96 631.96,165.96 693,165.96 803.98,54.98 937,54.98 993.74,-1.76 		"/>
		<polyline class="st60" points="190.96,170.27 229.96,170.27 254.21,194.52 339.96,194.52 357.84,176.65 423.96,176.65 		"/>
		<polygon class="st60" points="444.96,171.77 444.96,175.77 444.96,179.77 423.96,179.77 423.96,171.77 		"/>
		<polygon class="st60" points="501.96,80.77 501.96,84.77 501.96,88.77 480.96,88.77 480.96,80.77 		"/>
		<path class="st60" d="M494.96,175.77h-50H494.96z"/>
		<polyline class="st60" points="494.96,175.77 514.46,195.27 653.96,195.27 745,195.27 		"/>
		<polyline class="st60" points="190.96,180.27 218.96,180.27 242.71,204.02 415.96,204.02 605.34,393.4 751,393.4 816.72,459.12 		
			"/>
		<polyline class="st60" points="190.96,190.77 213.96,190.77 236.46,213.27 277.96,213.27 327.71,263.02 387.96,263.02 		"/>
		<polyline class="st60" points="173.46,208.77 173.46,218.77 186.71,232.02 186.71,270.77 336.34,420.4 336.34,504.77 		"/>
		
			<rect x="327.46" y="509.27" transform="matrix(6.123234e-17 -1 1 6.123234e-17 -177.3077 851.2349)" class="st60" width="19" height="10"/>
		<polyline class="st60" points="163.46,208.77 163.46,218.77 172.21,227.52 172.21,367.77 240.09,435.65 		"/>
		<line class="st60" x1="153.46" y1="208.77" x2="153.46" y2="240.77"/>
		<polyline class="st60" points="143.46,208.77 143.46,264.77 157.71,279.02 157.71,475.77 		"/>
		
			<rect x="152.96" y="476.77" transform="matrix(6.123234e-17 -1 1 6.123234e-17 -323.8077 639.7349)" class="st60" width="10" height="10"/>
		<polyline class="st60" points="133.46,208.77 133.46,264.77 147.21,278.52 147.21,307.77 		"/>
		
			<rect x="141.96" y="308.77" transform="matrix(6.123234e-17 -1 1 6.123234e-17 -166.8077 461.7349)" class="st60" width="11" height="11"/>
		<polyline class="st60" points="123.46,208.77 123.46,272.77 131.71,281.02 131.71,370.77 		"/>
		
			<rect x="127.46" y="374.27" transform="matrix(6.123234e-17 -1 1 6.123234e-17 -243.3077 509.2349)" class="st60" width="11" height="4"/>
		<polyline class="st60" points="113.46,208.77 113.46,278.77 119.21,284.52 119.21,326.77 96.09,349.9 96.09,366.77 		"/>
		
			<rect x="93.96" y="363.77" transform="matrix(6.123234e-17 -1 1 6.123234e-17 -272.8077 464.7349)" class="st60" width="4" height="10"/>
		<polyline class="st60" points="93.46,208.77 93.46,282.77 36.21,340.02 36.21,414.77 		"/>
		<polyline class="st60" points="101.96,208.77 101.96,294.77 76.96,319.77 76.96,363.77 83.46,370.27 83.46,390.77 		"/>
		<polyline class="st60" points="83.46,208.77 83.46,266.77 49.71,300.52 16.96,300.52 		"/>
		<circle class="st60" cx="40.96" cy="287.77" r="5"/>
		<circle class="st60" cx="35.96" cy="419.77" r="5"/>
		<circle class="st60" cx="83.96" cy="396.77" r="5"/>
		<circle class="st60" cx="165.96" cy="442.77" r="5"/>
		<circle class="st60" cx="152.96" cy="245.77" r="5"/>
		
			<rect x="181.96" y="208.77" transform="matrix(6.123234e-17 -1 1 6.123234e-17 -26.8077 400.7349)" class="st60" width="10" height="10"/>
		
			<rect x="198.96" y="208.77" transform="matrix(6.123234e-17 -1 1 6.123234e-17 -9.8077 417.7349)" class="st60" width="10" height="10"/>
		
			<rect x="271.46" y="175.27" transform="matrix(6.123234e-17 -1 1 6.123234e-17 90.6923 462.2349)" class="st60" width="10" height="21"/>
		
			<rect x="302.46" y="175.27" transform="matrix(6.123234e-17 -1 1 6.123234e-17 121.6923 493.2349)" class="st60" width="10" height="21"/>
		
			<rect x="298.96" y="283.77" transform="matrix(6.123234e-17 -1 1 6.123234e-17 12.1923 589.7349)" class="st60" width="4" height="10"/>
		
			<rect x="298.96" y="271.77" transform="matrix(6.123234e-17 -1 1 6.123234e-17 24.1923 577.7349)" class="st60" width="4" height="10"/>
		
			<rect x="298.96" y="260.77" transform="matrix(6.123234e-17 -1 1 6.123234e-17 35.1923 566.7349)" class="st60" width="4" height="10"/>
		
			<rect x="298.96" y="247.77" transform="matrix(6.123234e-17 -1 1 6.123234e-17 48.1923 553.7349)" class="st60" width="4" height="10"/>
		
			<rect x="46.96" y="56.77" transform="matrix(6.123234e-17 -1 1 6.123234e-17 -9.8077 121.7349)" class="st60" width="18" height="18"/>
		
			<rect x="125.96" y="41.77" transform="matrix(6.123234e-17 -1 1 6.123234e-17 84.1923 178.7349)" class="st60" width="11" height="11"/>
		
			<rect x="38.96" y="249.77" transform="matrix(6.123234e-17 -1 1 6.123234e-17 -206.8077 296.7349)" class="st60" width="12" height="4"/>
		
			<rect x="438.46" y="71.27" transform="matrix(6.123234e-17 -1 1 6.123234e-17 358.6923 533.2349)" class="st60" width="15" height="32"/>
		
			<rect x="403.96" y="153.77" transform="matrix(6.123234e-17 -1 1 6.123234e-17 251.1923 562.7349)" class="st60" width="6" height="4"/>
		
			<rect x="403.46" y="152.27" transform="matrix(6.123234e-17 -1 1 6.123234e-17 256.6923 567.2349)" class="st60" width="17" height="6"/>
		
			<rect x="416.46" y="148.27" transform="matrix(6.123234e-17 -1 1 6.123234e-17 266.6923 577.2349)" class="st60" width="11" height="14"/>
		
			<rect x="423.46" y="152.27" transform="matrix(6.123234e-17 -1 1 6.123234e-17 276.6923 587.2349)" class="st60" width="17" height="6"/>
		
			<rect x="434.96" y="152.77" transform="matrix(6.123234e-17 -1 1 6.123234e-17 282.1923 593.7349)" class="st60" width="6" height="6"/>
		
			<rect x="403.46" y="188.27" transform="matrix(6.123234e-17 -1 1 6.123234e-17 220.6923 603.2349)" class="st60" width="17" height="6"/>
		
			<rect x="416.46" y="184.27" transform="matrix(6.123234e-17 -1 1 6.123234e-17 230.6923 613.2349)" class="st60" width="11" height="14"/>
		
			<rect x="423.46" y="188.27" transform="matrix(6.123234e-17 -1 1 6.123234e-17 240.6923 623.2349)" class="st60" width="17" height="6"/>
		<circle class="st60" cx="406.96" cy="90.77" r="5"/>
		
			<rect x="408.96" y="62.77" transform="matrix(6.123234e-17 -1 1 6.123234e-17 342.1923 478.7349)" class="st60" width="3" height="11"/>
		
			<rect x="366.96" y="67.77" transform="matrix(6.123234e-17 -1 1 6.123234e-17 295.1923 441.7349)" class="st60" width="3" height="11"/>
		
			<rect x="366.96" y="62.77" transform="matrix(6.123234e-17 -1 1 6.123234e-17 300.1923 436.7349)" class="st60" width="3" height="11"/>
	</g>
	<g>
		
			<rect x="-42.54" y="816.27" transform="matrix(-1.836970e-16 1 -1 -1.836970e-16 864.7349 858.8077)" class="st60" width="91" height="91"/>
		
			<rect x="-48.04" y="811.27" transform="matrix(-1.836970e-16 1 -1 -1.836970e-16 864.7349 858.8077)" class="st60" width="102" height="101"/>
		<g>
			
				<rect x="58.46" y="811.27" transform="matrix(-1.836970e-16 1 -1 -1.836970e-16 877.2349 757.3077)" class="st60" width="3" height="12"/>
			
				<rect x="58.46" y="821.27" transform="matrix(-1.836970e-16 1 -1 -1.836970e-16 887.2349 767.3077)" class="st60" width="3" height="12"/>
			
				<rect x="58.46" y="831.27" transform="matrix(-1.836970e-16 1 -1 -1.836970e-16 897.2349 777.3077)" class="st60" width="3" height="12"/>
			
				<rect x="58.46" y="841.27" transform="matrix(-1.836970e-16 1 -1 -1.836970e-16 907.2349 787.3077)" class="st60" width="3" height="12"/>
			
				<rect x="58.46" y="851.27" transform="matrix(-1.836970e-16 1 -1 -1.836970e-16 917.2349 797.3077)" class="st60" width="3" height="12"/>
			
				<rect x="58.46" y="861.27" transform="matrix(-1.836970e-16 1 -1 -1.836970e-16 927.2349 807.3077)" class="st60" width="3" height="12"/>
			
				<rect x="58.46" y="871.27" transform="matrix(-1.836970e-16 1 -1 -1.836970e-16 937.2349 817.3077)" class="st60" width="3" height="12"/>
			
				<rect x="58.46" y="881.27" transform="matrix(-1.836970e-16 1 -1 -1.836970e-16 947.2349 827.3077)" class="st60" width="3" height="12"/>
			
				<rect x="58.46" y="891.27" transform="matrix(-1.836970e-16 1 -1 -1.836970e-16 957.2349 837.3077)" class="st60" width="3" height="12"/>
			
				<rect x="58.46" y="901.27" transform="matrix(-1.836970e-16 1 -1 -1.836970e-16 967.2349 847.3077)" class="st60" width="3" height="12"/>
		</g>
		<g>
			<rect x="-3.04" y="912.77" class="st60" width="3" height="12"/>
			<rect x="6.96" y="912.77" class="st60" width="3" height="12"/>
			<rect x="16.96" y="912.77" class="st60" width="3" height="12"/>
			<rect x="26.96" y="912.77" class="st60" width="3" height="12"/>
			<rect x="36.96" y="912.77" class="st60" width="3" height="12"/>
			<rect x="46.96" y="912.77" class="st60" width="3" height="12"/>
		</g>
		<g>
			<rect x="-3.04" y="798.77" class="st60" width="3" height="12"/>
			<rect x="6.96" y="798.77" class="st60" width="3" height="12"/>
			<rect x="16.96" y="798.77" class="st60" width="3" height="12"/>
			<rect x="26.96" y="798.77" class="st60" width="3" height="12"/>
			<rect x="36.96" y="798.77" class="st60" width="3" height="12"/>
			<rect x="46.96" y="798.77" class="st60" width="3" height="12"/>
		</g>
		<polyline class="st60" points="-11.54,924.77 -11.54,958.77 5.71,976.02 5.71,1017.77 		"/>
		<polyline class="st60" points="-1.54,924.77 -1.54,937.77 18.71,958.02 18.71,1000.77 		"/>
		<polyline class="st60" points="8.46,924.77 8.46,937.77 23.71,953.02 23.71,1014.77 		"/>
		<polyline class="st60" points="18.71,924.77 18.71,938.77 30.84,950.9 30.84,1008.77 		"/>
		<polyline class="st60" points="28.46,924.77 28.46,941.77 37.21,950.52 37.21,977.77 		"/>
		<polyline class="st60" points="37.96,925.77 63.46,951.27 63.46,975.77 84.71,997.02 137.96,997.02 		"/>
		<polyline class="st60" points="48.46,924.77 78.21,954.52 176.96,954.52 		"/>
		<polyline class="st60" points="65.96,907.27 106.96,907.27 136.21,936.52 221.96,936.52 		"/>
		<polyline class="st60" points="65.96,897.27 131.96,897.27 161.71,927.02 249.96,927.02 281.34,958.4 361.96,958.4 		"/>
		<polyline class="st60" points="65.96,887.27 151.96,887.27 181.71,917.02 276.96,917.02 		"/>
		<polyline class="st60" points="65.96,877.27 175.96,877.27 198.21,899.52 363.96,899.52 433.59,969.15 473.75,1009.3 		"/>
		<polyline class="st60" points="65.96,867.27 187.96,867.27 209.71,889.02 		"/>
		<polyline class="st60" points="65.96,857.27 197.96,857.27 216.71,876.02 379.96,876.02 436.34,932.4 570,932.4 642.57,1004.97 		
			"/>
		<polyline class="st60" points="65.96,847.27 121.96,847.27 136.21,833.02 213.96,833.02 251.34,870.4 348.96,870.4 377.78,841.58 
			506.96,841.58 568,841.58 678.98,952.56 812,952.56 868.74,1009.31 		"/>
		<polyline class="st60" points="65.96,837.27 104.96,837.27 129.21,813.02 214.96,813.02 232.84,830.9 298.96,830.9 		"/>
		<polygon class="st60" points="319.96,835.77 319.96,831.77 319.96,827.77 298.96,827.77 298.96,835.77 		"/>
		<polygon class="st60" points="376.96,926.77 376.96,922.77 376.96,918.77 355.96,918.77 355.96,926.77 		"/>
		<path class="st60" d="M369.96,831.77h-50H369.96z"/>
		<polyline class="st60" points="369.96,831.77 389.46,812.27 528.96,812.27 620,812.27 		"/>
		<polyline class="st60" points="65.96,827.27 93.96,827.27 117.71,803.52 290.96,803.52 480.34,614.15 626,614.15 691.72,548.42 		
			"/>
		<polyline class="st60" points="65.96,816.77 88.96,816.77 111.46,794.27 152.96,794.27 202.71,744.52 262.96,744.52 		"/>
		<polyline class="st60" points="48.46,798.77 48.46,788.77 61.71,775.52 61.71,736.77 211.34,587.15 211.34,502.77 		"/>
		
			<rect x="202.46" y="488.27" transform="matrix(-1.836970e-16 1 -1 -1.836970e-16 705.2349 281.3077)" class="st60" width="19" height="10"/>
		<polyline class="st60" points="38.46,798.77 38.46,788.77 47.21,780.02 47.21,639.77 115.09,571.9 		"/>
		<line class="st60" x1="28.46" y1="798.77" x2="28.46" y2="766.77"/>
		<polyline class="st60" points="18.46,798.77 18.46,742.77 32.71,728.52 32.71,531.77 		"/>
		
			<rect x="27.96" y="520.77" transform="matrix(-1.836970e-16 1 -1 -1.836970e-16 558.7349 492.8077)" class="st60" width="10" height="10"/>
		<polyline class="st60" points="8.46,798.77 8.46,742.77 22.21,729.02 22.21,699.77 		"/>
		
			<rect x="16.96" y="687.77" transform="matrix(-1.836970e-16 1 -1 -1.836970e-16 715.7349 670.8077)" class="st60" width="11" height="11"/>
		<polyline class="st60" points="-1.54,798.77 -1.54,734.77 6.71,726.52 6.71,636.77 		"/>
		
			<rect x="2.46" y="629.27" transform="matrix(-1.836970e-16 1 -1 -1.836970e-16 639.2349 623.3077)" class="st60" width="11" height="4"/>
		<circle class="st60" cx="40.96" cy="564.77" r="5"/>
		<circle class="st60" cx="27.96" cy="761.77" r="5"/>
		
			<rect x="56.96" y="788.77" transform="matrix(-1.836970e-16 1 -1 -1.836970e-16 855.7349 731.8077)" class="st60" width="10" height="10"/>
		
			<rect x="73.96" y="788.77" transform="matrix(-1.836970e-16 1 -1 -1.836970e-16 872.7349 714.8077)" class="st60" width="10" height="10"/>
		
			<rect x="146.46" y="811.27" transform="matrix(-1.836970e-16 1 -1 -1.836970e-16 973.2349 670.3077)" class="st60" width="10" height="21"/>
		
			<rect x="177.46" y="811.27" transform="matrix(-1.836970e-16 1 -1 -1.836970e-16 1004.2349 639.3077)" class="st60" width="10" height="21"/>
		
			<rect x="173.96" y="713.77" transform="matrix(-1.836970e-16 1 -1 -1.836970e-16 894.7349 542.8077)" class="st60" width="4" height="10"/>
		
			<rect x="173.96" y="725.77" transform="matrix(-1.836970e-16 1 -1 -1.836970e-16 906.7349 554.8077)" class="st60" width="4" height="10"/>
		
			<rect x="173.96" y="736.77" transform="matrix(-1.836970e-16 1 -1 -1.836970e-16 917.7349 565.8077)" class="st60" width="4" height="10"/>
		
			<rect x="173.96" y="749.77" transform="matrix(-1.836970e-16 1 -1 -1.836970e-16 930.7349 578.8077)" class="st60" width="4" height="10"/>
		
			<rect x="0.96" y="954.77" transform="matrix(-1.836970e-16 1 -1 -1.836970e-16 966.7349 953.8077)" class="st60" width="11" height="11"/>
		
			<rect x="313.46" y="904.27" transform="matrix(-1.836970e-16 1 -1 -1.836970e-16 1241.2349 599.3077)" class="st60" width="15" height="32"/>
		
			<rect x="278.96" y="849.77" transform="matrix(-1.836970e-16 1 -1 -1.836970e-16 1133.7349 569.8077)" class="st60" width="6" height="4"/>
		
			<rect x="278.46" y="849.27" transform="matrix(-1.836970e-16 1 -1 -1.836970e-16 1139.2349 565.3077)" class="st60" width="17" height="6"/>
		
			<rect x="291.46" y="845.27" transform="matrix(-1.836970e-16 1 -1 -1.836970e-16 1149.2349 555.3077)" class="st60" width="11" height="14"/>
		
			<rect x="298.46" y="849.27" transform="matrix(-1.836970e-16 1 -1 -1.836970e-16 1159.2349 545.3077)" class="st60" width="17" height="6"/>
		
			<rect x="309.96" y="848.77" transform="matrix(-1.836970e-16 1 -1 -1.836970e-16 1164.7349 538.8077)" class="st60" width="6" height="6"/>
		
			<rect x="278.46" y="813.27" transform="matrix(-1.836970e-16 1 -1 -1.836970e-16 1103.2349 529.3077)" class="st60" width="17" height="6"/>
		
			<rect x="291.46" y="809.27" transform="matrix(-1.836970e-16 1 -1 -1.836970e-16 1113.2349 519.3077)" class="st60" width="11" height="14"/>
		
			<rect x="298.46" y="813.27" transform="matrix(-1.836970e-16 1 -1 -1.836970e-16 1123.2349 509.3077)" class="st60" width="17" height="6"/>
		<circle class="st60" cx="281.96" cy="916.77" r="5"/>
		
			<rect x="283.96" y="933.77" transform="matrix(-1.836970e-16 1 -1 -1.836970e-16 1224.7349 653.8077)" class="st60" width="3" height="11"/>
		
			<rect x="241.96" y="928.77" transform="matrix(-1.836970e-16 1 -1 -1.836970e-16 1177.7349 690.8077)" class="st60" width="3" height="11"/>
		
			<rect x="241.96" y="933.77" transform="matrix(-1.836970e-16 1 -1 -1.836970e-16 1182.7349 695.8077)" class="st60" width="3" height="11"/>
	</g>
</g>
<g>
	<g>
		
			<rect x="1743.24" y="100.27" transform="matrix(4.495521e-11 -1 1 4.495521e-11 1642.9711 1934.5137)" class="st60" width="91" height="91"/>
		
			<rect x="1737.74" y="95.27" transform="matrix(4.490459e-11 -1 1 4.490459e-11 1642.9711 1934.5137)" class="st60" width="102" height="101"/>
		<g>
			
				<rect x="1844.24" y="184.77" transform="matrix(4.365581e-11 -1 1 4.365581e-11 1654.9711 2036.5137)" class="st60" width="3" height="12"/>
			
				<rect x="1844.24" y="174.77" transform="matrix(4.668805e-11 -1 1 4.668805e-11 1664.9711 2026.5137)" class="st60" width="3" height="12"/>
			
				<rect x="1844.24" y="164.77" transform="matrix(4.608142e-11 -1 1 4.608142e-11 1674.9711 2016.5137)" class="st60" width="3" height="12"/>
			
				<rect x="1844.24" y="154.77" transform="matrix(4.668805e-11 -1 1 4.668805e-11 1684.9711 2006.5137)" class="st60" width="3" height="12"/>
			
				<rect x="1844.24" y="144.77" transform="matrix(4.668805e-11 -1 1 4.668805e-11 1694.9711 1996.5137)" class="st60" width="3" height="12"/>
			
				<rect x="1844.24" y="134.77" transform="matrix(4.668805e-11 -1 1 4.668805e-11 1704.9711 1986.5137)" class="st60" width="3" height="12"/>
			
				<rect x="1844.24" y="124.77" transform="matrix(4.305007e-11 -1 1 4.305007e-11 1714.9711 1976.5137)" class="st60" width="3" height="12"/>
			
				<rect x="1844.24" y="114.77" transform="matrix(4.365581e-11 -1 1 4.365581e-11 1724.9711 1966.5137)" class="st60" width="3" height="12"/>
			
				<rect x="1844.24" y="104.77" transform="matrix(4.305007e-11 -1 1 4.305007e-11 1734.9711 1956.5137)" class="st60" width="3" height="12"/>
			
				<rect x="1844.24" y="94.77" transform="matrix(4.365581e-11 -1 1 4.365581e-11 1744.9711 1946.5137)" class="st60" width="3" height="12"/>
		</g>
		<g>
			
				<rect x="1730.24" y="184.27" transform="matrix(4.365581e-11 -1 1 4.365581e-11 1541.4711 1922.0137)" class="st60" width="3" height="12"/>
			
				<rect x="1730.24" y="174.27" transform="matrix(4.305007e-11 -1 1 4.305007e-11 1551.4711 1912.0137)" class="st60" width="3" height="12"/>
			
				<rect x="1730.24" y="164.27" transform="matrix(4.305007e-11 -1 1 4.305007e-11 1561.4711 1902.0137)" class="st60" width="3" height="12"/>
			
				<rect x="1730.24" y="154.27" transform="matrix(4.668805e-11 -1 1 4.668805e-11 1571.4711 1892.0137)" class="st60" width="3" height="12"/>
			
				<rect x="1730.24" y="144.27" transform="matrix(4.305007e-11 -1 1 4.305007e-11 1581.4711 1882.0137)" class="st60" width="3" height="12"/>
			
				<rect x="1730.24" y="134.27" transform="matrix(4.668805e-11 -1 1 4.668805e-11 1591.4711 1872.0137)" class="st60" width="3" height="12"/>
			
				<rect x="1730.24" y="124.27" transform="matrix(4.668805e-11 -1 1 4.668805e-11 1601.4711 1862.0137)" class="st60" width="3" height="12"/>
			
				<rect x="1730.24" y="114.27" transform="matrix(4.668805e-11 -1 1 4.668805e-11 1611.4711 1852.0137)" class="st60" width="3" height="12"/>
			
				<rect x="1730.24" y="104.27" transform="matrix(4.305007e-11 -1 1 4.305007e-11 1621.4711 1842.0137)" class="st60" width="3" height="12"/>
			
				<rect x="1730.24" y="94.27" transform="matrix(4.365581e-11 -1 1 4.365581e-11 1631.4711 1832.0137)" class="st60" width="3" height="12"/>
		</g>
		<g>
			
				<rect x="1831.74" y="82.77" transform="matrix(-1 -4.608104e-11 4.608104e-11 -1 3666.4846 177.5426)" class="st60" width="3" height="12"/>
			
				<rect x="1821.74" y="82.77" transform="matrix(-1 -4.729385e-11 4.729385e-11 -1 3646.4846 177.5426)" class="st60" width="3" height="12"/>
			
				<rect x="1811.74" y="82.77" transform="matrix(-1 -4.668766e-11 4.668766e-11 -1 3626.4846 177.5426)" class="st60" width="3" height="12"/>
			
				<rect x="1801.74" y="82.77" transform="matrix(-1 -4.608104e-11 4.608104e-11 -1 3606.4846 177.5426)" class="st60" width="3" height="12"/>
			
				<rect x="1791.74" y="82.77" transform="matrix(-1 -4.304969e-11 4.304969e-11 -1 3586.4846 177.5426)" class="st60" width="3" height="12"/>
			
				<rect x="1781.74" y="82.77" transform="matrix(-1 -4.365587e-11 4.365587e-11 -1 3566.4846 177.5426)" class="st60" width="3" height="12"/>
			
				<rect x="1771.74" y="82.77" transform="matrix(-1 -4.304969e-11 4.304969e-11 -1 3546.4846 177.5426)" class="st60" width="3" height="12"/>
			
				<rect x="1761.74" y="82.77" transform="matrix(-1 -4.304969e-11 4.304969e-11 -1 3526.4846 177.5426)" class="st60" width="3" height="12"/>
			
				<rect x="1751.74" y="82.77" transform="matrix(-1 -4.365587e-11 4.365587e-11 -1 3506.4846 177.5426)" class="st60" width="3" height="12"/>
			
				<rect x="1741.74" y="82.77" transform="matrix(-1 -4.729385e-11 4.729385e-11 -1 3486.4846 177.5426)" class="st60" width="3" height="12"/>
		</g>
		<g>
			
				<rect x="1831.74" y="196.77" transform="matrix(-1 -4.608104e-11 4.608104e-11 -1 3666.4846 405.5426)" class="st60" width="3" height="12"/>
			
				<rect x="1821.74" y="196.77" transform="matrix(-1 -4.729385e-11 4.729385e-11 -1 3646.4846 405.5426)" class="st60" width="3" height="12"/>
			
				<rect x="1811.74" y="196.77" transform="matrix(-1 -4.668766e-11 4.668766e-11 -1 3626.4846 405.5426)" class="st60" width="3" height="12"/>
			
				<rect x="1801.74" y="196.77" transform="matrix(-1 -4.608104e-11 4.608104e-11 -1 3606.4846 405.5426)" class="st60" width="3" height="12"/>
			
				<rect x="1791.74" y="196.77" transform="matrix(-1 -4.304969e-11 4.304969e-11 -1 3586.4846 405.5426)" class="st60" width="3" height="12"/>
			
				<rect x="1781.74" y="196.77" transform="matrix(-1 -4.365587e-11 4.365587e-11 -1 3566.4846 405.5426)" class="st60" width="3" height="12"/>
			
				<rect x="1771.74" y="196.77" transform="matrix(-1 -4.304969e-11 4.304969e-11 -1 3546.4846 405.5426)" class="st60" width="3" height="12"/>
			
				<rect x="1761.74" y="196.77" transform="matrix(-1 -4.304969e-11 4.304969e-11 -1 3526.4846 405.5426)" class="st60" width="3" height="12"/>
			
				<rect x="1751.74" y="196.77" transform="matrix(-1 -4.365587e-11 4.365587e-11 -1 3506.4846 405.5426)" class="st60" width="3" height="12"/>
			
				<rect x="1741.74" y="196.77" transform="matrix(-1 -4.729385e-11 4.729385e-11 -1 3486.4846 405.5426)" class="st60" width="3" height="12"/>
		</g>
		<polyline class="st60" points="1851.74,180.77 1873.74,180.77 1877.74,185.77 1926.74,184.77 		"/>
		<polyline class="st60" points="1851.74,191.27 1876.74,190.77 1887.74,203.77 1918.74,202.77 		"/>
		<polyline class="st60" points="1851.74,170.77 1862.74,170.77 1873.74,160.77 1910.74,160.77 		"/>
		<polyline class="st60" points="1851.74,160.77 1856.74,160.77 1864.74,152.77 1918.74,152.77 		"/>
		<polyline class="st60" points="1851.74,150.77 1862.74,140.77 1895.74,140.77 		"/>
		<polyline class="st60" points="1851.74,140.77 1856.74,134.77 1916.74,134.77 		"/>
		<polyline class="st60" points="1851.74,130.77 1873.74,130.77 1885.74,118.77 1921.74,118.77 		"/>
		<polyline class="st60" points="1851.74,120.77 1868.74,120.77 1880.24,109.27 1891.74,109.27 		"/>
		<polyline class="st60" points="1851.74,110.77 1857.74,110.77 1879.24,89.27 1903.74,89.27 		"/>
		<polyline class="st60" points="1851.74,100.77 1887.24,65.27 1887.24,35.77 		"/>
		<polyline class="st60" points="1833.24,82.77 1833.24,60.77 1850.99,43.02 1871.74,43.02 1879.87,34.9 1879.87,6.77 		"/>
		<polyline class="st60" points="1823.24,82.77 1823.24,57.77 1851.49,29.52 1851.49,0.77 		"/>
		<polyline class="st60" points="1813.24,82.77 1813.24,53.77 1825.49,41.52 1825.49,2.77 		"/>
		<polyline class="st60" points="1803.24,82.77 1803.24,48.77 1785.99,31.52 1785.99,-10.23 		"/>
		<polyline class="st60" points="1793.24,82.77 1793.24,69.77 1772.99,49.52 1772.99,6.77 		"/>
		<polyline class="st60" points="1783.24,82.77 1783.24,69.77 1767.99,54.52 1767.99,-7.23 		"/>
		<polyline class="st60" points="1772.99,82.77 1772.99,68.77 1760.87,56.65 1760.87,-1.23 		"/>
		<polyline class="st60" points="1763.24,82.77 1763.24,65.77 1754.49,57.02 1754.49,29.77 		"/>
		<polyline class="st60" points="1753.74,81.77 1728.24,56.27 1728.24,31.77 1706.99,10.52 1653.74,10.52 		"/>
		<polyline class="st60" points="1743.24,82.77 1713.49,53.02 1614.74,53.02 		"/>
		<polyline class="st60" points="1725.74,100.27 1684.74,100.27 1655.49,71.02 1569.74,71.02 		"/>
		<polyline class="st60" points="1725.74,110.27 1659.74,110.27 1629.99,80.52 1541.74,80.52 1510.37,49.15 1429.74,49.15 		"/>
		<polyline class="st60" points="1725.74,120.27 1639.74,120.27 1609.99,90.52 1514.74,90.52 		"/>
		<polyline class="st60" points="1725.74,130.27 1615.74,130.27 1593.49,108.02 1427.74,108.02 1358.12,38.4 1317.96,-1.76 		"/>
		<polyline class="st60" points="1725.74,140.27 1603.74,140.27 1581.99,118.52 		"/>
		<polyline class="st60" points="1725.74,150.27 1593.74,150.27 1574.99,131.52 1411.74,131.52 1355.37,75.15 1221.71,75.15 
			1149.13,2.57 		"/>
		<polyline class="st60" points="1725.74,160.27 1669.74,160.27 1655.49,174.52 1577.74,174.52 1540.37,137.15 1442.74,137.15 
			1413.93,165.96 1284.74,165.96 1223.71,165.96 1112.73,54.98 979.71,54.98 922.96,-1.76 		"/>
		<polyline class="st60" points="1725.74,170.27 1686.74,170.27 1662.49,194.52 1576.74,194.52 1558.87,176.65 1492.74,176.65 		"/>
		<polygon class="st60" points="1471.74,171.77 1471.74,175.77 1471.74,179.77 1492.74,179.77 1492.74,171.77 		"/>
		<polygon class="st60" points="1414.74,80.77 1414.74,84.77 1414.74,88.77 1435.74,88.77 1435.74,80.77 		"/>
		<path class="st60" d="M1421.74,175.77h50H1421.74z"/>
		<polyline class="st60" points="1421.74,175.77 1402.24,195.27 1262.74,195.27 1171.71,195.27 		"/>
		<polyline class="st60" points="1725.74,180.27 1697.74,180.27 1673.99,204.02 1500.74,204.02 1311.37,393.4 1165.71,393.4 
			1099.98,459.12 		"/>
		<polyline class="st60" points="1725.74,190.77 1702.74,190.77 1680.24,213.27 1638.74,213.27 1588.99,263.02 1528.74,263.02 		"/>
		<polyline class="st60" points="1743.24,208.77 1743.24,218.77 1729.99,232.02 1729.99,270.77 1580.37,420.4 1580.37,504.77 		"/>
		
			<rect x="1570.24" y="509.27" transform="matrix(4.528317e-11 -1 1 4.528317e-11 1065.4711 2094.0137)" class="st60" width="19" height="10"/>
		<polyline class="st60" points="1753.24,208.77 1753.24,218.77 1744.49,227.52 1744.49,367.77 1676.62,435.65 		"/>
		<line class="st60" x1="1763.24" y1="208.77" x2="1763.24" y2="240.77"/>
		<polyline class="st60" points="1773.24,208.77 1773.24,264.77 1758.99,279.02 1758.99,475.77 		"/>
		
			<rect x="1753.74" y="476.77" transform="matrix(4.492901e-11 -1 1 4.492901e-11 1276.9711 2240.5137)" class="st60" width="10" height="10"/>
		<polyline class="st60" points="1783.24,208.77 1783.24,264.77 1769.49,278.52 1769.49,307.77 		"/>
		
			<rect x="1763.74" y="308.77" transform="matrix(4.464790e-11 -1 1 4.464790e-11 1454.9711 2083.5137)" class="st60" width="11" height="11"/>
		<polyline class="st60" points="1793.24,208.77 1793.24,272.77 1784.99,281.02 1784.99,370.77 		"/>
		
			<rect x="1778.24" y="374.27" transform="matrix(4.448248e-11 -1 1 4.448248e-11 1407.4711 2160.0137)" class="st60" width="11" height="4"/>
		<polyline class="st60" points="1803.24,208.77 1803.24,278.77 1797.49,284.52 1797.49,326.77 1820.62,349.9 1820.62,366.77 		"/>
		
			<rect x="1818.74" y="363.77" transform="matrix(4.502005e-11 -1 1 4.502005e-11 1451.9711 2189.5137)" class="st60" width="4" height="10"/>
		<polyline class="st60" points="1823.24,208.77 1823.24,282.77 1880.49,340.02 1880.49,414.77 		"/>
		<polyline class="st60" points="1814.74,208.77 1814.74,294.77 1839.74,319.77 1839.74,363.77 1833.24,370.27 1833.24,390.77 		"/>
		<polyline class="st60" points="1833.24,208.77 1833.24,266.77 1866.99,300.52 1899.74,300.52 		"/>
		<circle class="st60" cx="1875.74" cy="287.77" r="5"/>
		<circle class="st60" cx="1880.74" cy="419.77" r="5"/>
		<circle class="st60" cx="1832.74" cy="396.77" r="5"/>
		<circle class="st60" cx="1750.74" cy="442.77" r="5"/>
		<circle class="st60" cx="1763.74" cy="245.77" r="5"/>
		
			<rect x="1724.74" y="208.77" transform="matrix(4.492946e-11 -1 1 4.492946e-11 1515.9711 1943.5137)" class="st60" width="10" height="10"/>
		
			<rect x="1707.74" y="208.77" transform="matrix(4.492946e-11 -1 1 4.492946e-11 1498.9711 1926.5137)" class="st60" width="10" height="10"/>
		
			<rect x="1635.24" y="175.27" transform="matrix(4.492946e-11 -1 1 4.492946e-11 1454.4711 1826.0137)" class="st60" width="10" height="21"/>
		
			<rect x="1604.24" y="175.27" transform="matrix(4.383788e-11 -1 1 4.383788e-11 1423.4711 1795.0137)" class="st60" width="10" height="21"/>
		
			<rect x="1613.74" y="283.77" transform="matrix(4.502005e-11 -1 1 4.502005e-11 1326.9711 1904.5137)" class="st60" width="4" height="10"/>
		
			<rect x="1613.74" y="271.77" transform="matrix(4.502005e-11 -1 1 4.502005e-11 1338.9711 1892.5137)" class="st60" width="4" height="10"/>
		
			<rect x="1613.74" y="260.77" transform="matrix(4.547480e-11 -1 1 4.547480e-11 1349.9711 1881.5137)" class="st60" width="4" height="10"/>
		
			<rect x="1613.74" y="247.77" transform="matrix(4.502005e-11 -1 1 4.502005e-11 1362.9711 1868.5137)" class="st60" width="4" height="10"/>
		
			<rect x="1851.74" y="56.77" transform="matrix(4.507068e-11 -1 1 4.507068e-11 1794.9711 1926.5137)" class="st60" width="18" height="18"/>
		
			<rect x="1779.74" y="41.77" transform="matrix(4.448270e-11 -1 1 4.448270e-11 1737.9711 1832.5137)" class="st60" width="11" height="11"/>
		
			<rect x="1865.74" y="249.77" transform="matrix(4.502005e-11 -1 1 4.502005e-11 1619.9711 2123.5137)" class="st60" width="12" height="4"/>
		
			<rect x="1463.24" y="71.27" transform="matrix(4.523232e-11 -1 1 4.523232e-11 1383.4711 1558.0137)" class="st60" width="15" height="32"/>
		
			<rect x="1506.74" y="153.77" transform="matrix(4.486906e-11 -1 1 4.486906e-11 1353.9711 1665.5137)" class="st60" width="6" height="4"/>
		
			<rect x="1496.24" y="152.27" transform="matrix(4.472606e-11 -1 1 4.472606e-11 1349.4711 1660.0137)" class="st60" width="17" height="6"/>
		
			<rect x="1489.24" y="148.27" transform="matrix(4.547480e-11 -1 1 4.547480e-11 1339.4711 1650.0137)" class="st60" width="11" height="14"/>
		
			<rect x="1476.24" y="152.27" transform="matrix(4.472606e-11 -1 1 4.472606e-11 1329.4711 1640.0137)" class="st60" width="17" height="6"/>
		
			<rect x="1475.74" y="152.77" transform="matrix(4.486906e-11 -1 1 4.486906e-11 1322.9711 1634.5137)" class="st60" width="6" height="6"/>
		
			<rect x="1496.24" y="188.27" transform="matrix(4.472606e-11 -1 1 4.472606e-11 1313.4711 1696.0137)" class="st60" width="17" height="6"/>
		
			<rect x="1489.24" y="184.27" transform="matrix(4.464790e-11 -1 1 4.464790e-11 1303.4711 1686.0137)" class="st60" width="11" height="14"/>
		
			<rect x="1476.24" y="188.27" transform="matrix(4.472606e-11 -1 1 4.472606e-11 1293.4711 1676.0137)" class="st60" width="17" height="6"/>
		<circle class="st60" cx="1509.74" cy="90.77" r="5"/>
		
			<rect x="1504.74" y="62.77" transform="matrix(4.305007e-11 -1 1 4.305007e-11 1437.9711 1574.5137)" class="st60" width="3" height="11"/>
		
			<rect x="1546.74" y="67.77" transform="matrix(4.668805e-11 -1 1 4.668805e-11 1474.9711 1621.5137)" class="st60" width="3" height="11"/>
		
			<rect x="1546.74" y="62.77" transform="matrix(4.305007e-11 -1 1 4.305007e-11 1479.9711 1616.5137)" class="st60" width="3" height="11"/>
	</g>
	<g>
		
			<rect x="1868.24" y="816.27" transform="matrix(-4.493491e-11 1 -1 -4.493491e-11 2775.5137 -1051.9711)" class="st60" width="91" height="91"/>
		
			<rect x="1862.74" y="811.27" transform="matrix(-4.490471e-11 1 -1 -4.490471e-11 2775.5137 -1051.9711)" class="st60" width="102" height="101"/>
		<g>
			
				<rect x="1855.24" y="811.27" transform="matrix(-4.304930e-11 1 -1 -4.304930e-11 2674.0137 -1039.4711)" class="st60" width="3" height="12"/>
			
				<rect x="1855.24" y="821.27" transform="matrix(-4.365593e-11 1 -1 -4.365593e-11 2684.0137 -1029.4711)" class="st60" width="3" height="12"/>
			
				<rect x="1855.24" y="831.27" transform="matrix(-4.304930e-11 1 -1 -4.304930e-11 2694.0137 -1019.4711)" class="st60" width="3" height="12"/>
			
				<rect x="1855.24" y="841.27" transform="matrix(-4.668728e-11 1 -1 -4.668728e-11 2704.0137 -1009.4711)" class="st60" width="3" height="12"/>
			
				<rect x="1855.24" y="851.27" transform="matrix(-4.668728e-11 1 -1 -4.668728e-11 2714.0137 -999.4711)" class="st60" width="3" height="12"/>
			
				<rect x="1855.24" y="861.27" transform="matrix(-4.668728e-11 1 -1 -4.668728e-11 2724.0137 -989.4711)" class="st60" width="3" height="12"/>
			
				<rect x="1855.24" y="871.27" transform="matrix(-4.304930e-11 1 -1 -4.304930e-11 2734.0137 -979.4711)" class="st60" width="3" height="12"/>
			
				<rect x="1855.24" y="881.27" transform="matrix(-4.668728e-11 1 -1 -4.668728e-11 2744.0137 -969.4711)" class="st60" width="3" height="12"/>
			
				<rect x="1855.24" y="891.27" transform="matrix(-4.304930e-11 1 -1 -4.304930e-11 2754.0137 -959.4711)" class="st60" width="3" height="12"/>
			
				<rect x="1855.24" y="901.27" transform="matrix(-4.365593e-11 1 -1 -4.365593e-11 2764.0137 -949.4711)" class="st60" width="3" height="12"/>
		</g>
		<g>
			
				<rect x="1916.74" y="912.77" transform="matrix(-1 -4.304969e-11 4.304969e-11 -1 3836.4846 1837.5426)" class="st60" width="3" height="12"/>
			
				<rect x="1906.74" y="912.77" transform="matrix(-1 -4.365587e-11 4.365587e-11 -1 3816.4846 1837.5426)" class="st60" width="3" height="12"/>
			
				<rect x="1896.74" y="912.77" transform="matrix(-1 -4.304969e-11 4.304969e-11 -1 3796.4846 1837.5426)" class="st60" width="3" height="12"/>
			
				<rect x="1886.74" y="912.77" transform="matrix(-1 -4.608104e-11 4.608104e-11 -1 3776.4846 1837.5426)" class="st60" width="3" height="12"/>
			
				<rect x="1876.74" y="912.77" transform="matrix(-1 -4.668766e-11 4.668766e-11 -1 3756.4846 1837.5426)" class="st60" width="3" height="12"/>
			
				<rect x="1866.74" y="912.77" transform="matrix(-1 -4.668766e-11 4.668766e-11 -1 3736.4846 1837.5426)" class="st60" width="3" height="12"/>
		</g>
		<g>
			
				<rect x="1916.74" y="798.77" transform="matrix(-1 -4.304969e-11 4.304969e-11 -1 3836.4846 1609.5426)" class="st60" width="3" height="12"/>
			
				<rect x="1906.74" y="798.77" transform="matrix(-1 -4.365587e-11 4.365587e-11 -1 3816.4846 1609.5426)" class="st60" width="3" height="12"/>
			
				<rect x="1896.74" y="798.77" transform="matrix(-1 -4.304969e-11 4.304969e-11 -1 3796.4846 1609.5426)" class="st60" width="3" height="12"/>
			
				<rect x="1886.74" y="798.77" transform="matrix(-1 -4.608104e-11 4.608104e-11 -1 3776.4846 1609.5426)" class="st60" width="3" height="12"/>
			
				<rect x="1876.74" y="798.77" transform="matrix(-1 -4.668766e-11 4.668766e-11 -1 3756.4846 1609.5426)" class="st60" width="3" height="12"/>
			
				<rect x="1866.74" y="798.77" transform="matrix(-1 -4.668766e-11 4.668766e-11 -1 3736.4846 1609.5426)" class="st60" width="3" height="12"/>
		</g>
		<polyline class="st60" points="1928.24,924.77 1928.24,958.77 1910.99,976.02 1910.99,1017.77 		"/>
		<polyline class="st60" points="1918.24,924.77 1918.24,937.77 1897.99,958.02 1897.99,1000.77 		"/>
		<polyline class="st60" points="1908.24,924.77 1908.24,937.77 1892.99,953.02 1892.99,1014.77 		"/>
		<polyline class="st60" points="1897.99,924.77 1897.99,938.77 1885.87,950.9 1885.87,1008.77 		"/>
		<polyline class="st60" points="1888.24,924.77 1888.24,941.77 1879.49,950.52 1879.49,977.77 		"/>
		<polyline class="st60" points="1878.74,925.77 1853.24,951.27 1853.24,975.77 1831.99,997.02 1778.74,997.02 		"/>
		<polyline class="st60" points="1868.24,924.77 1838.49,954.52 1739.74,954.52 		"/>
		<polyline class="st60" points="1850.74,907.27 1809.74,907.27 1780.49,936.52 1694.74,936.52 		"/>
		<polyline class="st60" points="1850.74,897.27 1784.74,897.27 1754.99,927.02 1666.74,927.02 1635.37,958.4 1554.74,958.4 		"/>
		<polyline class="st60" points="1850.74,887.27 1764.74,887.27 1734.99,917.02 1639.74,917.02 		"/>
		<polyline class="st60" points="1850.74,877.27 1740.74,877.27 1718.49,899.52 1552.74,899.52 1483.12,969.15 1442.96,1009.3 		"/>
		<polyline class="st60" points="1850.74,867.27 1728.74,867.27 1706.99,889.02 		"/>
		<polyline class="st60" points="1850.74,857.27 1718.74,857.27 1699.99,876.02 1536.74,876.02 1480.37,932.4 1346.71,932.4 
			1274.13,1004.97 		"/>
		<polyline class="st60" points="1850.74,847.27 1794.74,847.27 1780.49,833.02 1702.74,833.02 1665.37,870.4 1567.74,870.4 
			1538.93,841.58 1409.74,841.58 1348.71,841.58 1237.73,952.56 1104.71,952.56 1047.96,1009.31 		"/>
		<polyline class="st60" points="1850.74,837.27 1811.74,837.27 1787.49,813.02 1701.74,813.02 1683.87,830.9 1617.74,830.9 		"/>
		<polygon class="st60" points="1596.74,835.77 1596.74,831.77 1596.74,827.77 1617.74,827.77 1617.74,835.77 		"/>
		<polygon class="st60" points="1539.74,926.77 1539.74,922.77 1539.74,918.77 1560.74,918.77 1560.74,926.77 		"/>
		<path class="st60" d="M1546.74,831.77h50H1546.74z"/>
		<polyline class="st60" points="1546.74,831.77 1527.24,812.27 1387.74,812.27 1296.71,812.27 		"/>
		<polyline class="st60" points="1850.74,827.27 1822.74,827.27 1798.99,803.52 1625.74,803.52 1436.37,614.15 1290.71,614.15 
			1224.98,548.42 		"/>
		<polyline class="st60" points="1850.74,816.77 1827.74,816.77 1805.24,794.27 1763.74,794.27 1713.99,744.52 1653.74,744.52 		"/>
		<polyline class="st60" points="1868.24,798.77 1868.24,788.77 1854.99,775.52 1854.99,736.77 1705.37,587.15 1705.37,502.77 		"/>
		
			<rect x="1695.24" y="488.27" transform="matrix(-4.470931e-11 1 -1 -4.470931e-11 2198.0137 -1211.4711)" class="st60" width="19" height="10"/>
		<polyline class="st60" points="1878.24,798.77 1878.24,788.77 1869.49,780.02 1869.49,639.77 1801.62,571.9 		"/>
		<line class="st60" x1="1888.24" y1="798.77" x2="1888.24" y2="766.77"/>
		<polyline class="st60" points="1898.24,798.77 1898.24,742.77 1883.99,728.52 1883.99,531.77 		"/>
		
			<rect x="1878.74" y="520.77" transform="matrix(-4.402008e-11 1 -1 -4.402008e-11 2409.5137 -1357.9711)" class="st60" width="10" height="10"/>
		<polyline class="st60" points="1908.24,798.77 1908.24,742.77 1894.49,729.02 1894.49,699.77 		"/>
		
			<rect x="1888.74" y="687.77" transform="matrix(-4.547492e-11 1 -1 -4.547492e-11 2587.5137 -1200.9711)" class="st60" width="11" height="11"/>
		<polyline class="st60" points="1918.24,798.77 1918.24,734.77 1909.99,726.52 1909.99,636.77 		"/>
		
			<rect x="1903.24" y="629.27" transform="matrix(-4.448282e-11 1 -1 -4.448282e-11 2540.0137 -1277.4711)" class="st60" width="11" height="4"/>
		<circle class="st60" cx="1875.74" cy="564.77" r="5"/>
		<circle class="st60" cx="1888.74" cy="761.77" r="5"/>
		
			<rect x="1849.74" y="788.77" transform="matrix(-4.511077e-11 1 -1 -4.511077e-11 2648.5137 -1060.9711)" class="st60" width="10" height="10"/>
		
			<rect x="1832.74" y="788.77" transform="matrix(-4.511077e-11 1 -1 -4.511077e-11 2631.5137 -1043.9711)" class="st60" width="10" height="10"/>
		
			<rect x="1760.24" y="811.27" transform="matrix(-4.492958e-11 1 -1 -4.492958e-11 2587.0137 -943.4711)" class="st60" width="10" height="21"/>
		
			<rect x="1729.24" y="811.27" transform="matrix(-4.492958e-11 1 -1 -4.492958e-11 2556.0137 -912.4711)" class="st60" width="10" height="21"/>
		
			<rect x="1738.74" y="713.77" transform="matrix(-4.502017e-11 1 -1 -4.502017e-11 2459.5137 -1021.9711)" class="st60" width="4" height="10"/>
		
			<rect x="1738.74" y="725.77" transform="matrix(-4.456542e-11 1 -1 -4.456542e-11 2471.5137 -1009.9711)" class="st60" width="4" height="10"/>
		
			<rect x="1738.74" y="736.77" transform="matrix(-4.274643e-11 1 -1 -4.274643e-11 2482.5137 -998.9711)" class="st60" width="4" height="10"/>
		
			<rect x="1738.74" y="749.77" transform="matrix(-4.502017e-11 1 -1 -4.502017e-11 2495.5137 -985.9711)" class="st60" width="4" height="10"/>
		
			<rect x="1904.74" y="954.77" transform="matrix(-4.448282e-11 1 -1 -4.448282e-11 2870.5137 -949.9711)" class="st60" width="11" height="11"/>
		
			<rect x="1588.24" y="904.27" transform="matrix(-4.474750e-11 1 -1 -4.474750e-11 2516.0137 -675.4711)" class="st60" width="15" height="32"/>
		
			<rect x="1631.74" y="849.77" transform="matrix(-4.486829e-11 1 -1 -4.486829e-11 2486.5137 -782.9711)" class="st60" width="6" height="4"/>
		
			<rect x="1621.24" y="849.27" transform="matrix(-4.536834e-11 1 -1 -4.536834e-11 2482.0137 -777.4711)" class="st60" width="17" height="6"/>
		
			<rect x="1614.24" y="845.27" transform="matrix(-4.448282e-11 1 -1 -4.448282e-11 2472.0137 -767.4711)" class="st60" width="11" height="14"/>
		
			<rect x="1601.24" y="849.27" transform="matrix(-4.536834e-11 1 -1 -4.536834e-11 2462.0137 -757.4711)" class="st60" width="17" height="6"/>
		
			<rect x="1600.74" y="848.77" transform="matrix(-4.668728e-11 1 -1 -4.668728e-11 2455.5137 -751.9711)" class="st60" width="6" height="6"/>
		
			<rect x="1621.24" y="813.27" transform="matrix(-4.472618e-11 1 -1 -4.472618e-11 2446.0137 -813.4711)" class="st60" width="17" height="6"/>
		
			<rect x="1614.24" y="809.27" transform="matrix(-4.547492e-11 1 -1 -4.547492e-11 2436.0137 -803.4711)" class="st60" width="11" height="14"/>
		
			<rect x="1601.24" y="813.27" transform="matrix(-4.472618e-11 1 -1 -4.472618e-11 2426.0137 -793.4711)" class="st60" width="17" height="6"/>
		<circle class="st60" cx="1634.74" cy="916.77" r="5"/>
		
			<rect x="1629.74" y="933.77" transform="matrix(-4.668728e-11 1 -1 -4.668728e-11 2570.5137 -691.9711)" class="st60" width="3" height="11"/>
		
			<rect x="1671.74" y="928.77" transform="matrix(-4.365593e-11 1 -1 -4.365593e-11 2607.5137 -738.9711)" class="st60" width="3" height="11"/>
		
			<rect x="1671.74" y="933.77" transform="matrix(-4.668728e-11 1 -1 -4.668728e-11 2612.5137 -733.9711)" class="st60" width="3" height="11"/>
	</g>
</g>
<g>
	<rect x="915" y="185.54" class="st60" width="91" height="91"/>
	<rect x="909.5" y="180.54" class="st60" width="102" height="101"/>
	<g>
		<rect x="914" y="168.04" class="st60" width="3" height="12"/>
		<rect x="924" y="168.04" class="st60" width="3" height="12"/>
		<rect x="934" y="168.04" class="st60" width="3" height="12"/>
		<rect x="944" y="168.04" class="st60" width="3" height="12"/>
		<rect x="954" y="168.04" class="st60" width="3" height="12"/>
		<rect x="964" y="168.04" class="st60" width="3" height="12"/>
		<rect x="974" y="168.04" class="st60" width="3" height="12"/>
		<rect x="984" y="168.04" class="st60" width="3" height="12"/>
		<rect x="994" y="168.04" class="st60" width="3" height="12"/>
		<rect x="1004" y="168.04" class="st60" width="3" height="12"/>
	</g>
	<g>
		<rect x="914.5" y="282.04" class="st60" width="3" height="12"/>
		<rect x="924.5" y="282.04" class="st60" width="3" height="12"/>
		<rect x="934.5" y="282.04" class="st60" width="3" height="12"/>
		<rect x="944.5" y="282.04" class="st60" width="3" height="12"/>
		<rect x="954.5" y="282.04" class="st60" width="3" height="12"/>
		<rect x="964.5" y="282.04" class="st60" width="3" height="12"/>
		<rect x="974.5" y="282.04" class="st60" width="3" height="12"/>
		<rect x="984.5" y="282.04" class="st60" width="3" height="12"/>
		<rect x="994.5" y="282.04" class="st60" width="3" height="12"/>
		<rect x="1004.5" y="282.04" class="st60" width="3" height="12"/>
	</g>
	<g>
		
			<rect x="1016" y="180.54" transform="matrix(-1.836970e-16 1 -1 -1.836970e-16 1204.0386 -830.9614)" class="st60" width="3" height="12"/>
		
			<rect x="1016" y="190.54" transform="matrix(-1.836970e-16 1 -1 -1.836970e-16 1214.0386 -820.9614)" class="st60" width="3" height="12"/>
		
			<rect x="1016" y="200.54" transform="matrix(-1.836970e-16 1 -1 -1.836970e-16 1224.0386 -810.9614)" class="st60" width="3" height="12"/>
		
			<rect x="1016" y="210.54" transform="matrix(-1.836970e-16 1 -1 -1.836970e-16 1234.0386 -800.9614)" class="st60" width="3" height="12"/>
		
			<rect x="1016" y="220.54" transform="matrix(-1.836970e-16 1 -1 -1.836970e-16 1244.0386 -790.9614)" class="st60" width="3" height="12"/>
		
			<rect x="1016" y="230.54" transform="matrix(-1.836970e-16 1 -1 -1.836970e-16 1254.0386 -780.9614)" class="st60" width="3" height="12"/>
		
			<rect x="1016" y="240.54" transform="matrix(-1.836970e-16 1 -1 -1.836970e-16 1264.0386 -770.9614)" class="st60" width="3" height="12"/>
		
			<rect x="1016" y="250.54" transform="matrix(-1.836970e-16 1 -1 -1.836970e-16 1274.0386 -760.9614)" class="st60" width="3" height="12"/>
		
			<rect x="1016" y="260.54" transform="matrix(-1.836970e-16 1 -1 -1.836970e-16 1284.0386 -750.9614)" class="st60" width="3" height="12"/>
		
			<rect x="1016" y="270.54" transform="matrix(-1.836970e-16 1 -1 -1.836970e-16 1294.0386 -740.9614)" class="st60" width="3" height="12"/>
	</g>
	<g>
		
			<rect x="902" y="180.54" transform="matrix(-1.836970e-16 1 -1 -1.836970e-16 1090.0386 -716.9614)" class="st60" width="3" height="12"/>
		
			<rect x="902" y="190.54" transform="matrix(-1.836970e-16 1 -1 -1.836970e-16 1100.0386 -706.9614)" class="st60" width="3" height="12"/>
		
			<rect x="902" y="200.54" transform="matrix(-1.836970e-16 1 -1 -1.836970e-16 1110.0386 -696.9614)" class="st60" width="3" height="12"/>
		
			<rect x="902" y="210.54" transform="matrix(-1.836970e-16 1 -1 -1.836970e-16 1120.0386 -686.9614)" class="st60" width="3" height="12"/>
		
			<rect x="902" y="220.54" transform="matrix(-1.836970e-16 1 -1 -1.836970e-16 1130.0386 -676.9614)" class="st60" width="3" height="12"/>
		
			<rect x="902" y="230.54" transform="matrix(-1.836970e-16 1 -1 -1.836970e-16 1140.0386 -666.9614)" class="st60" width="3" height="12"/>
		
			<rect x="902" y="240.54" transform="matrix(-1.836970e-16 1 -1 -1.836970e-16 1150.0386 -656.9614)" class="st60" width="3" height="12"/>
		
			<rect x="902" y="250.54" transform="matrix(-1.836970e-16 1 -1 -1.836970e-16 1160.0386 -646.9614)" class="st60" width="3" height="12"/>
		
			<rect x="902" y="260.54" transform="matrix(-1.836970e-16 1 -1 -1.836970e-16 1170.0386 -636.9614)" class="st60" width="3" height="12"/>
		
			<rect x="902" y="270.54" transform="matrix(-1.836970e-16 1 -1 -1.836970e-16 1180.0386 -626.9614)" class="st60" width="3" height="12"/>
	</g>
	<polyline class="st60" points="925.5,168.04 925.5,146.04 920.5,142.04 921.5,93.04 	"/>
	<polyline class="st60" points="915,168.04 915.5,143.04 902.5,132.04 903.5,101.04 	"/>
	<polyline class="st60" points="935.5,168.04 935.5,157.04 945.5,146.04 945.5,109.04 	"/>
	<polyline class="st60" points="945.5,168.04 945.5,163.04 953.5,155.04 953.5,101.04 	"/>
	<polyline class="st60" points="955.5,168.04 965.5,157.04 965.5,124.04 	"/>
	<polyline class="st60" points="965.5,168.04 971.5,163.04 971.5,103.04 	"/>
	<polyline class="st60" points="975.5,168.04 975.5,146.04 987.5,134.04 987.5,98.04 	"/>
	<polyline class="st60" points="985.5,168.04 985.5,151.04 997,139.54 997,128.04 	"/>
	<polyline class="st60" points="995.5,168.04 995.5,162.04 1017,140.54 1017,116.04 	"/>
	<polyline class="st60" points="1005.5,168.04 1041,132.54 1070.5,132.54 	"/>
	<polyline class="st60" points="1023.5,186.54 1045.5,186.54 1063.25,168.79 1063.25,148.04 1071.38,139.91 1099.5,139.91 	"/>
	<polyline class="st60" points="1023.5,196.54 1048.5,196.54 1076.75,168.29 1105.5,168.29 	"/>
	<polyline class="st60" points="1023.5,206.54 1052.5,206.54 1064.75,194.29 1103.5,194.29 	"/>
	<polyline class="st60" points="1023.5,216.54 1057.5,216.54 1074.75,233.79 1116.5,233.79 	"/>
	<polyline class="st60" points="1023.5,226.54 1036.5,226.54 1056.75,246.79 1099.5,246.79 	"/>
	<polyline class="st60" points="1023.5,236.54 1036.5,236.54 1051.75,251.79 1113.5,251.79 	"/>
	<polyline class="st60" points="1023.5,246.79 1037.5,246.79 1049.63,258.91 1107.5,258.91 	"/>
	<polyline class="st60" points="1023.5,256.54 1040.5,256.54 1049.25,265.29 1076.5,265.29 	"/>
	<polyline class="st60" points="1024.5,266.04 1050,291.54 1074.5,291.54 1095.75,312.79 1095.75,366.04 	"/>
	<polyline class="st60" points="1023.5,276.54 1053.25,306.29 1053.25,405.04 	"/>
	<polyline class="st60" points="1006,294.04 1006,335.04 1035.25,364.29 1035.25,450.04 	"/>
	<polyline class="st60" points="996,294.04 996,360.04 1025.75,389.79 1025.75,478.04 1057.13,509.41 1057.13,590.04 	"/>
	<polyline class="st60" points="986,294.04 986,380.04 1015.75,409.79 1015.75,505.04 	"/>
	<polyline class="st60" points="976,294.04 976,404.04 998.25,426.29 998.25,592.04 1067.88,661.66 1108.03,701.82 	"/>
	<polyline class="st60" points="966,294.04 966,416.04 987.75,437.79 	"/>
	<polyline class="st60" points="956,294.04 956,426.04 974.75,444.79 974.75,608.04 1031.13,664.41 1031.13,798.07 1103.7,870.65 	
		"/>
	<polyline class="st60" points="946,294.04 946,350.04 931.75,364.29 931.75,442.04 969.13,479.41 969.13,577.04 940.31,605.85 
		940.31,735.04 940.31,796.07 1051.29,907.05 	"/>
	<polyline class="st60" points="936,294.04 936,333.04 911.75,357.29 911.75,443.04 929.63,460.91 929.63,527.04 	"/>
	<polygon class="st60" points="934.5,548.04 930.5,548.04 926.5,548.04 926.5,527.04 934.5,527.04 	"/>
	<polygon class="st60" points="1025.5,605.04 1021.5,605.04 1017.5,605.04 1017.5,584.04 1025.5,584.04 	"/>
	<path class="st60" d="M930.5,598.04v-50V598.04z"/>
	<polyline class="st60" points="930.5,598.04 911,617.54 911,757.04 911,848.07 	"/>
	<polyline class="st60" points="926,294.04 926,322.04 902.25,345.79 902.25,519.04 712.88,708.41 712.88,854.07 647.15,919.8 	"/>
	<polyline class="st60" points="915.5,294.04 915.5,317.04 893,339.54 893,381.04 843.25,430.79 843.25,491.04 	"/>
	<polyline class="st60" points="897.5,276.54 887.5,276.54 874.25,289.79 835.5,289.79 685.88,439.41 601.5,439.41 	"/>
	<rect x="582.5" y="435.04" class="st60" width="19" height="10"/>
	<polyline class="st60" points="897.5,266.54 887.5,266.54 878.75,275.29 738.5,275.29 670.63,343.16 	"/>
	<line class="st60" x1="897.5" y1="256.54" x2="865.5" y2="256.54"/>
	<polyline class="st60" points="897.5,246.54 841.5,246.54 827.25,260.79 630.5,260.79 	"/>
	<rect x="619.5" y="256.04" class="st60" width="10" height="10"/>
	<polyline class="st60" points="897.5,236.54 841.5,236.54 827.75,250.29 798.5,250.29 	"/>
	<rect x="786.5" y="245.04" class="st60" width="11" height="11"/>
	<polyline class="st60" points="897.5,226.54 833.5,226.54 825.25,234.79 735.5,234.79 	"/>
	<rect x="724.5" y="234.04" class="st60" width="11" height="4"/>
	<polyline class="st60" points="897.5,216.54 827.5,216.54 821.75,222.29 779.5,222.29 756.38,199.16 739.5,199.16 	"/>
	<rect x="735.5" y="194.04" class="st60" width="4" height="10"/>
	<polyline class="st60" points="897.5,196.54 823.5,196.54 766.25,139.29 691.5,139.29 	"/>
	<polyline class="st60" points="897.5,205.04 811.5,205.04 786.5,180.04 742.5,180.04 736,186.54 715.5,186.54 	"/>
	<polyline class="st60" points="897.5,186.54 839.5,186.54 805.75,152.79 805.75,120.04 	"/>
	<circle class="st60" cx="818.5" cy="144.04" r="5"/>
	<circle class="st60" cx="686.5" cy="139.04" r="5"/>
	<circle class="st60" cx="709.5" cy="187.04" r="5"/>
	<circle class="st60" cx="663.5" cy="269.04" r="5"/>
	<circle class="st60" cx="860.5" cy="256.04" r="5"/>
	<rect x="887.5" y="285.04" class="st60" width="10" height="10"/>
	<rect x="887.5" y="302.04" class="st60" width="10" height="10"/>
	<rect x="915.5" y="369.04" class="st60" width="10" height="21"/>
	<rect x="915.5" y="400.04" class="st60" width="10" height="21"/>
	<rect x="815.5" y="399.04" class="st60" width="4" height="10"/>
	<rect x="827.5" y="399.04" class="st60" width="4" height="10"/>
	<rect x="838.5" y="399.04" class="st60" width="4" height="10"/>
	<rect x="851.5" y="399.04" class="st60" width="4" height="10"/>
	<rect x="1031.5" y="150.04" class="st60" width="18" height="18"/>
	<rect x="1053.5" y="229.04" class="st60" width="11" height="11"/>
	<rect x="848.5" y="146.04" class="st60" width="12" height="4"/>
	<rect x="1011.5" y="533.04" class="st60" width="15" height="32"/>
	<rect x="947.5" y="508.04" class="st60" width="6" height="4"/>
	<rect x="942.5" y="512.04" class="st60" width="17" height="6"/>
	<rect x="945.5" y="518.04" class="st60" width="11" height="14"/>
	<rect x="942.5" y="532.04" class="st60" width="17" height="6"/>
	<rect x="947.5" y="538.04" class="st60" width="6" height="6"/>
	<rect x="906.5" y="512.04" class="st60" width="17" height="6"/>
	<rect x="909.5" y="518.04" class="st60" width="11" height="14"/>
	<rect x="906.5" y="532.04" class="st60" width="17" height="6"/>
	<circle class="st60" cx="1015.5" cy="510.04" r="5"/>
	<rect x="1036.5" y="508.04" class="st60" width="3" height="11"/>
	<rect x="1031.5" y="466.04" class="st60" width="3" height="11"/>
	<rect x="1036.5" y="466.04" class="st60" width="3" height="11"/>
</g>
<path class="st59" d="M1174.74,306.87H745.26V186.74c0-35.38,28.68-64.06,64.06-64.06h301.34c35.38,0,64.06,28.68,64.06,64.06
	V306.87z"/>
<rect x="840.02" y="194.95" class="st0" width="239.95" height="40.81"/>
<text transform="matrix(1 0 0 1 840.0244 229.7684)" class="st23 st74 st75">sponsorzy</text>
<path class="st59" d="M836.51,645.33h249.77c37.56,0,68-30.45,68-68v-52.89c0-37.56-30.45-68-68-68H836.51c-37.56,0-68,30.45-68,68
	v52.89C768.5,614.88,798.95,645.33,836.51,645.33z"/>
<path class="st59" d="M232.92,639.91h249.77c37.56,0,68-30.45,68-68v-52.89c0-37.56-30.45-68-68-68H232.92c-37.56,0-68,30.45-68,68
	v52.89C164.92,609.46,195.37,639.91,232.92,639.91z"/>
<path class="st59" d="M1437.19,639.91h249.77c37.56,0,68-30.45,68-68v-52.89c0-37.56-30.45-68-68-68h-249.77
	c-37.56,0-68,30.45-68,68v52.89C1369.19,609.46,1399.64,639.91,1437.19,639.91z"/>
<path class="st59" d="M836.62,957.33h249.77c37.56,0,68-30.45,68-68v-52.89c0-37.56-30.45-68-68-68H836.62c-37.56,0-68,30.45-68,68
	v52.89C768.62,926.88,799.07,957.33,836.62,957.33z"/>
<path class="st59" d="M233.04,951.91h249.77c37.56,0,68-30.45,68-68v-52.89c0-37.56-30.45-68-68-68H233.04c-37.56,0-68,30.45-68,68
	v52.89C165.04,921.46,195.48,951.91,233.04,951.91z"/>
<path class="st59" d="M1437.31,951.91h249.77c37.56,0,68-30.45,68-68v-52.89c0-37.56-30.45-68-68-68h-249.77
	c-37.56,0-68,30.45-68,68v52.89C1369.31,921.46,1399.75,951.91,1437.31,951.91z"/>
<polyline class="st60" points="480.96,49.15 506.55,23.55 531,23.55 553.28,1.28 "/>
<circle class="st60" cx="308" cy="53" r="6"/>
<circle class="st60" cx="269" cy="11" r="6"/>
</svg>
