<?xml version="1.0" encoding="UTF-8" standalone="no"?>
<!-- Generator: Adobe Illustrator 23.0.1, SVG Export Plug-In . SVG Version: 6.00 Build 0)  -->

<svg
   version="1.1"
   id="Warstwa_1"
   x="0px"
   y="0px"
   viewBox="0 0 1920 1080"
   style="enable-background:new 0 0 1920 1080;"
   xml:space="preserve"
   sodipodi:docname="6.svg"
   inkscape:version="1.2.2 (732a01da63, 2022-12-09)"
   xmlns:inkscape="http://www.inkscape.org/namespaces/inkscape"
   xmlns:sodipodi="http://sodipodi.sourceforge.net/DTD/sodipodi-0.dtd"
   xmlns="http://www.w3.org/2000/svg"
   xmlns:svg="http://www.w3.org/2000/svg"><defs
   id="defs27022" /><sodipodi:namedview
   id="namedview27020"
   pagecolor="#505050"
   bordercolor="#eeeeee"
   borderopacity="1"
   inkscape:showpageshadow="0"
   inkscape:pageopacity="0"
   inkscape:pagecheckerboard="0"
   inkscape:deskcolor="#505050"
   showgrid="false"
   inkscape:zoom="0.68229167"
   inkscape:cx="960"
   inkscape:cy="541.55725"
   inkscape:window-width="1920"
   inkscape:window-height="991"
   inkscape:window-x="-9"
   inkscape:window-y="-9"
   inkscape:window-maximized="1"
   inkscape:current-layer="g26983" />
<style
   type="text/css"
   id="style26579">
	.st0{fill:none;stroke:#CD5D28;stroke-miterlimit:10;}
	.st1{fill:none;stroke:#CD5D28;stroke-miterlimit:10;stroke-dasharray:12;}
	.st2{fill:none;stroke:#CD5D28;stroke-width:2;stroke-miterlimit:10;stroke-dasharray:12;}
	.st3{fill:url(#SVGID_1_);}
	.st4{fill:#F37442;}
	.st5{fill:#E5925B;}
	.st6{fill:url(#);}
	.st7{fill:#DF692D;}
	.st8{fill:#E4882B;}
	.st9{fill:#E4862B;}
	.st10{fill:#E2B232;}
	.st11{clip-path:url(#SVGID_2_);}
	.st12{clip-path:url(#SVGID_4_);}
	.st13{fill:#CD5D28;}
	.st14{fill:#EDD6C0;}
	.st15{opacity:0.65;fill:#E1C3A3;}
	.st16{fill:#231F20;}
	.st17{fill:#F68E27;}
	.st18{fill:url(#SVGID_7_);}
	.st19{opacity:0.71;fill:#EFD8AF;}
	.st20{opacity:0.75;}
	.st21{fill:#D9B98D;}
	.st22{opacity:0.67;fill:#E5A875;}
	.st23{opacity:0.33;}
	.st24{fill:#EEE4CB;}
	.st25{opacity:0.65;fill:#D1925A;}
	.st26{fill:#D1925A;}
	.st27{opacity:0.65;}
	.st28{opacity:0.52;fill:#D1925A;}
	.st29{fill:none;stroke:#D1925A;stroke-miterlimit:10;}
	.st30{fill:none;stroke:#D1925A;stroke-width:3;stroke-miterlimit:10;}
	.st31{fill:none;stroke:#CD5D28;stroke-width:0.75;stroke-miterlimit:10;}
	.st32{opacity:0.77;}
	.st33{fill:none;stroke:#D1925A;stroke-width:0.25;stroke-miterlimit:10;}
	.st34{opacity:0.66;}
	.st35{fill:none;stroke:#D1925A;stroke-width:7;stroke-miterlimit:10;}
	.st36{opacity:0.69;fill:none;stroke:#D1925A;stroke-width:7;stroke-miterlimit:10;}
	.st37{fill:none;stroke:#CD5D28;stroke-width:10;stroke-miterlimit:10;}
	.st38{fill:none;stroke:#CD5D28;stroke-width:2;stroke-miterlimit:10;}
	.st39{clip-path:url(#SVGID_10_);}
	.st40{clip-path:url(#SVGID_12_);}
	.st41{clip-path:url(#SVGID_14_);}
	.st42{clip-path:url(#SVGID_16_);}
	.st43{clip-path:url(#SVGID_18_);}
	.st44{clip-path:url(#SVGID_20_);}
	.st45{fill:none;stroke:#CD5D28;stroke-width:3;stroke-miterlimit:10;}
	.st46{fill:none;stroke:#CD5D28;stroke-linejoin:round;stroke-miterlimit:10;}
	.st47{fill:none;stroke:#622507;stroke-miterlimit:10;}
	.st48{fill:none;stroke:#CD5D28;stroke-width:0.5;stroke-miterlimit:10;}
	.st49{fill:none;stroke:#F7B143;stroke-width:0.5;stroke-miterlimit:10;}
	.st50{fill:#E9D8CC;stroke:#CD5D28;stroke-width:3;stroke-miterlimit:10;}
	.st51{fill:none;stroke:#D8A07A;stroke-width:2;stroke-miterlimit:10;}
	.st52{opacity:0.59;}
	.st53{fill:none;stroke:#CD5D28;stroke-miterlimit:10;stroke-dasharray:11.9677,11.9677;}
	.st54{fill:none;stroke:#CD5D28;stroke-miterlimit:10;stroke-dasharray:12.1212,12.1212;}
	.st55{fill:none;stroke:#CD5D28;stroke-miterlimit:10;stroke-dasharray:12.1091,12.1091;}
	.st56{fill:#E4BB9D;stroke:#CD5D28;stroke-width:3;stroke-miterlimit:10;}
	.st57{fill:none;}
	.st58{font-family:'UnicaOne-Regular';}
	.st59{font-size:53.5666px;}
	.st60{fill:none;stroke:#CD5D28;stroke-width:0.1;stroke-miterlimit:10;}
	.st61{clip-path:url(#SVGID_28_);}
	.st62{clip-path:url(#SVGID_30_);}
	.st63{clip-path:url(#SVGID_32_);}
	.st64{clip-path:url(#SVGID_34_);}
	.st65{clip-path:url(#SVGID_36_);}
	.st66{clip-path:url(#SVGID_38_);}
	.st67{opacity:0.71;}
	.st68{fill:#E8D7CB;stroke:#CC5D27;stroke-width:3;stroke-miterlimit:10;}
	.st69{opacity:0.09;fill:#FFFFFF;}
	.st70{fill:#BCD043;}
	.st71{fill:#1D1D1B;}
	.st72{fill:#56B47F;}
	.st73{fill:#48BBC7;}
	.st74{fill:#DB296A;}
	.st75{fill:#A54793;}
	.st76{fill:#ED751D;}
	.st77{fill:#F18E2A;}
	.st78{fill:#DB151B;}
	.st79{fill:#1D1E1C;}
	.st80{fill:#0871B6;}
	.st81{fill:#F5A222;}
	.st82{fill:#77B52E;}
	.st83{fill:#E00C19;}
	.st84{fill:#BCD043;stroke:#000000;stroke-miterlimit:10;}
	.st85{fill:none;stroke:#000000;stroke-linecap:round;stroke-linejoin:round;stroke-miterlimit:10;}
	.st86{fill:#ED751D;stroke:#010101;stroke-miterlimit:10;}
	.st87{fill:none;stroke:#000000;stroke-width:2;stroke-miterlimit:10;}
	.st88{fill:#DB296A;stroke:#000000;stroke-miterlimit:10;}
	.st89{fill:#48BBC7;stroke:#040202;stroke-miterlimit:10;}
	.st90{fill:#56B47F;stroke:#000000;stroke-miterlimit:10;}
	.st91{fill:#A54793;stroke:#010101;stroke-miterlimit:10;}
	.st92{fill:#F18E2A;stroke:#040202;stroke-miterlimit:10;}
	.st93{fill:#41A1D8;stroke:#010202;stroke-miterlimit:10;}
	.st94{fill:none;stroke:#000000;stroke-miterlimit:10;}
	.st95{fill:#68737A;}
	.st96{fill:#910028;}
	.st97{fill:#E7531D;}
	.st98{fill:#23A6DF;}
	.st99{fill:#010101;}
	.st100{fill:#020202;}
	.st101{fill:#020303;}
	.st102{fill:#273D83;}
	.st103{fill:#523E90;}
	.st104{fill:#592C85;}
	.st105{fill:#FCFCFD;}
	.st106{fill:#010000;}
	.st107{fill:#FFFFFF;}
	.st108{fill:#2C2E71;}
	.st109{fill:#009AAE;}
	.st110{clip-path:url(#SVGID_40_);}
</style>
<g
   id="g26603">
	<path
   class="st0"
   d="M850.57,1018.71h-26.99c-0.89,0-1.61-0.72-1.61-1.61v-76.32c0-0.89,0.72-1.61,1.61-1.61h26.99   c0.89,0,1.61,0.72,1.61,1.61v76.32C852.19,1017.99,851.46,1018.71,850.57,1018.71z"
   id="path26581" />
	<path
   class="st0"
   d="M1096.42,1018.71h-26.99c-0.89,0-1.61-0.72-1.61-1.61v-76.32c0-0.89,0.72-1.61,1.61-1.61h26.99   c0.89,0,1.61,0.72,1.61,1.61v76.32C1098.03,1017.99,1097.31,1018.71,1096.42,1018.71z"
   id="path26583" />
	<g
   id="g26589">
		<path
   class="st0"
   d="M922.45,1018.71H853.8c-0.89,0-1.61-0.72-1.61-1.61v-15.18c0-0.89,0.72-1.61,1.61-1.61h68.65    c0.89,0,1.61,0.72,1.61,1.61v15.18C924.06,1017.99,923.34,1018.71,922.45,1018.71z"
   id="path26585" />
		<path
   class="st0"
   d="M922.45,948.69H853.8c-0.89,0-1.61,0.72-1.61,1.61v48.38c0,0.89,0.72,1.61,1.61,1.61h68.65    c0.89,0,1.61-0.72,1.61-1.61v-48.38C924.06,949.41,923.34,948.69,922.45,948.69z"
   id="path26587" />
	</g>
	<g
   id="g26595">
		<path
   class="st0"
   d="M994.32,1018.71h-68.65c-0.89,0-1.61-0.72-1.61-1.61v-15.18c0-0.89,0.72-1.61,1.61-1.61h68.65    c0.89,0,1.61,0.72,1.61,1.61v15.18C995.94,1017.99,995.22,1018.71,994.32,1018.71z"
   id="path26591" />
		<path
   class="st0"
   d="M994.32,948.69h-68.65c-0.89,0-1.61,0.72-1.61,1.61v48.38c0,0.89,0.72,1.61,1.61,1.61h68.65    c0.89,0,1.61-0.72,1.61-1.61v-48.38C995.94,949.41,995.22,948.69,994.32,948.69z"
   id="path26593" />
	</g>
	<g
   id="g26601">
		<path
   class="st0"
   d="M1066.2,1018.71h-68.65c-0.89,0-1.61-0.72-1.61-1.61v-15.18c0-0.89,0.72-1.61,1.61-1.61h68.65    c0.89,0,1.61,0.72,1.61,1.61v15.18C1067.81,1017.99,1067.09,1018.71,1066.2,1018.71z"
   id="path26597" />
		<path
   class="st0"
   d="M1066.2,948.69h-68.65c-0.89,0-1.61,0.72-1.61,1.61v48.38c0,0.89,0.72,1.61,1.61,1.61h68.65    c0.89,0,1.61-0.72,1.61-1.61v-48.38C1067.81,949.41,1067.09,948.69,1066.2,948.69z"
   id="path26599" />
	</g>
</g>
<g
   id="g26635">
	<ellipse
   class="st0"
   cx="960"
   cy="540"
   rx="84.66"
   ry="60.79"
   id="ellipse26605" />
	<g
   id="g26619">
		<g
   id="g26611">
			<path
   class="st0"
   d="M871.06,630.41l-36.97-26.54l35.31-25.35c0.92-0.66,2.41-0.66,3.33,0l33.64,24.16     c0.92,0.66,0.92,1.73,0,2.39L871.06,630.41z"
   id="path26607" />
			<line
   class="st0"
   x1="845.42"
   y1="595.73"
   x2="882.39"
   y2="622.27"
   id="line26609" />
		</g>
		<g
   id="g26617">
			<path
   class="st0"
   d="M1048.94,449.59l36.97,26.54l-35.3,25.35c-0.92,0.66-2.41,0.66-3.33,0l-33.64-24.16     c-0.92-0.66-0.92-1.73,0-2.39L1048.94,449.59z"
   id="path26613" />
			<line
   class="st0"
   x1="1074.58"
   y1="484.27"
   x2="1037.61"
   y2="457.73"
   id="line26615" />
		</g>
	</g>
	<g
   id="g26633">
		<g
   id="g26625">
			<path
   class="st0"
   d="M834.09,476.14l36.97-26.54l35.31,25.35c0.92,0.66,0.92,1.73,0,2.39l-33.64,24.16     c-0.92,0.66-2.41,0.66-3.33,0L834.09,476.14z"
   id="path26621" />
			<line
   class="st0"
   x1="882.39"
   y1="457.73"
   x2="845.42"
   y2="484.27"
   id="line26623" />
		</g>
		<g
   id="g26631">
			<path
   class="st0"
   d="M1085.91,603.86l-36.97,26.54l-35.3-25.35c-0.92-0.66-0.92-1.73,0-2.39l33.64-24.16     c0.92-0.66,2.41-0.66,3.33,0L1085.91,603.86z"
   id="path26627" />
			<line
   class="st0"
   x1="1037.61"
   y1="622.27"
   x2="1074.58"
   y2="595.73"
   id="line26629" />
		</g>
	</g>
</g>
<rect
   x="1157.97"
   y="510.5"
   class="st0"
   width="578.53"
   height="64.66"
   id="rect26637" />
<rect
   x="177.97"
   y="510.5"
   class="st0"
   width="578.53"
   height="64.66"
   id="rect26639" />
<g
   id="g26671">
	<g
   id="g26649">
		<path
   class="st0"
   d="M904.55,141.1h-68.11c-0.72,0-1.3-0.58-1.3-1.3V43.93c0-0.72,0.58-1.3,1.3-1.3h68.11c0.72,0,1.3,0.58,1.3,1.3    v95.87C905.85,140.52,905.27,141.1,904.55,141.1z"
   id="path26641" />
		<path
   class="st0"
   d="M848.54,141.1h-12.34c-0.58,0-1.05-0.47-1.05-1.05V61.19c0-0.58,0.47-1.05,1.05-1.05h12.34    c0.58,0,1.05,0.47,1.05,1.05v78.86C849.58,140.63,849.12,141.1,848.54,141.1z"
   id="path26643" />
		<path
   class="st0"
   d="M904.81,141.1h-12.34c-0.58,0-1.05-0.47-1.05-1.05V61.19c0-0.58,0.47-1.05,1.05-1.05h12.34    c0.58,0,1.05,0.47,1.05,1.05v78.86C905.85,140.63,905.38,141.1,904.81,141.1z"
   id="path26645" />
		<line
   class="st0"
   x1="849.58"
   y1="73.35"
   x2="891.42"
   y2="73.35"
   id="line26647" />
	</g>
	<g
   id="g26659">
		<path
   class="st0"
   d="M994.05,141.1h-68.11c-0.72,0-1.3-0.58-1.3-1.3V43.93c0-0.72,0.58-1.3,1.3-1.3h68.11c0.72,0,1.3,0.58,1.3,1.3    v95.87C995.35,140.52,994.77,141.1,994.05,141.1z"
   id="path26651" />
		<path
   class="st0"
   d="M938.04,141.1h-12.34c-0.58,0-1.05-0.47-1.05-1.05V61.19c0-0.58,0.47-1.05,1.05-1.05h12.34    c0.58,0,1.05,0.47,1.05,1.05v78.86C939.08,140.63,938.62,141.1,938.04,141.1z"
   id="path26653" />
		<path
   class="st0"
   d="M994.31,141.1h-12.34c-0.58,0-1.05-0.47-1.05-1.05V61.19c0-0.58,0.47-1.05,1.05-1.05h12.34    c0.58,0,1.05,0.47,1.05,1.05v78.86C995.35,140.63,994.88,141.1,994.31,141.1z"
   id="path26655" />
		<line
   class="st0"
   x1="939.08"
   y1="73.35"
   x2="980.92"
   y2="73.35"
   id="line26657" />
	</g>
	<g
   id="g26669">
		<path
   class="st0"
   d="M1083.55,141.1h-68.11c-0.72,0-1.3-0.58-1.3-1.3V43.93c0-0.72,0.58-1.3,1.3-1.3h68.11    c0.72,0,1.3,0.58,1.3,1.3v95.87C1084.85,140.52,1084.27,141.1,1083.55,141.1z"
   id="path26661" />
		<path
   class="st0"
   d="M1027.54,141.1h-12.34c-0.58,0-1.05-0.47-1.05-1.05V61.19c0-0.58,0.47-1.05,1.05-1.05h12.34    c0.58,0,1.05,0.47,1.05,1.05v78.86C1028.58,140.63,1028.12,141.1,1027.54,141.1z"
   id="path26663" />
		<path
   class="st0"
   d="M1083.81,141.1h-12.34c-0.58,0-1.05-0.47-1.05-1.05V61.19c0-0.58,0.47-1.05,1.05-1.05h12.34    c0.58,0,1.05,0.47,1.05,1.05v78.86C1084.85,140.63,1084.38,141.1,1083.81,141.1z"
   id="path26665" />
		<line
   class="st0"
   x1="1028.58"
   y1="73.35"
   x2="1070.42"
   y2="73.35"
   id="line26667" />
	</g>
</g>
<g
   id="g26757">
	<g
   id="g26691">
		<rect
   x="47.12"
   y="546.81"
   class="st0"
   width="51.82"
   height="124.28"
   id="rect26673" />
		<g
   id="g26679">
			<line
   class="st0"
   x1="98.94"
   y1="546.81"
   x2="47.12"
   y2="671.1"
   id="line26675" />
			<line
   class="st0"
   x1="47.12"
   y1="546.81"
   x2="98.94"
   y2="671.1"
   id="line26677" />
		</g>
		<g
   id="g26689">
			<rect
   x="47.12"
   y="414.72"
   class="st0"
   width="51.82"
   height="124.28"
   id="rect26681" />
			<g
   id="g26687">
				<line
   class="st0"
   x1="98.94"
   y1="414.72"
   x2="47.12"
   y2="539"
   id="line26683" />
				<line
   class="st0"
   x1="47.12"
   y1="414.72"
   x2="98.94"
   y2="539"
   id="line26685" />
			</g>
		</g>
	</g>
	<g
   id="g26721">
		
			<rect
   x="32.27"
   y="34.02"
   transform="matrix(-1 -1.224647e-16 1.224647e-16 -1 148.0286 287.3493)"
   class="st0"
   width="83.5"
   height="219.3"
   id="rect26693" />
		
			<rect
   x="115.76"
   y="33.63"
   transform="matrix(-1 -1.224647e-16 1.224647e-16 -1 321.9814 128.6577)"
   class="st0"
   width="90.46"
   height="61.4"
   id="rect26695" />
		<line
   class="st0"
   x1="206.22"
   y1="79.78"
   x2="115.76"
   y2="79.78"
   id="line26697" />
		<line
   class="st0"
   x1="115.76"
   y1="95.03"
   x2="32.27"
   y2="95.03"
   id="line26699" />
		<g
   id="g26717">
			
				<rect
   x="47.1"
   y="201.66"
   transform="matrix(-1 -1.224647e-16 1.224647e-16 -1 152.4232 445.1226)"
   class="st0"
   width="58.23"
   height="41.81"
   id="rect26701" />
			<g
   id="g26715">
				<g
   id="g26707">
					<ellipse
   class="st0"
   cx="89.94"
   cy="232.03"
   rx="11.26"
   ry="8.09"
   id="ellipse26703" />
					<ellipse
   class="st0"
   cx="62.48"
   cy="232.03"
   rx="11.26"
   ry="8.09"
   id="ellipse26705" />
				</g>
				<g
   id="g26713">
					<ellipse
   class="st0"
   cx="89.94"
   cy="213.09"
   rx="11.26"
   ry="8.09"
   id="ellipse26709" />
					<ellipse
   class="st0"
   cx="62.48"
   cy="213.09"
   rx="11.26"
   ry="8.09"
   id="ellipse26711" />
				</g>
			</g>
		</g>
		
			<rect
   x="47.1"
   y="101.86"
   transform="matrix(-1 -1.224647e-16 1.224647e-16 -1 152.4232 268.0221)"
   class="st0"
   width="58.23"
   height="64.29"
   id="rect26719" />
	</g>
	<g
   id="g26751">
		
			<rect
   x="32.27"
   y="826.63"
   transform="matrix(-1 -1.224647e-16 1.224647e-16 -1 148.0286 1872.5647)"
   class="st0"
   width="83.5"
   height="219.3"
   id="rect26723" />
		
			<rect
   x="115.76"
   y="984.93"
   transform="matrix(-1 -1.224647e-16 1.224647e-16 -1 321.9814 2031.2563)"
   class="st0"
   width="90.46"
   height="61.4"
   id="rect26725" />
		<line
   class="st0"
   x1="206.22"
   y1="1000.18"
   x2="115.76"
   y2="1000.18"
   id="line26727" />
		<line
   class="st0"
   x1="115.76"
   y1="984.93"
   x2="32.27"
   y2="984.93"
   id="line26729" />
		<g
   id="g26747">
			
				<rect
   x="47.1"
   y="836.49"
   transform="matrix(-1 -1.224647e-16 1.224647e-16 -1 152.4232 1714.7914)"
   class="st0"
   width="58.23"
   height="41.81"
   id="rect26731" />
			<g
   id="g26745">
				<g
   id="g26737">
					<ellipse
   class="st0"
   cx="89.94"
   cy="847.92"
   rx="11.26"
   ry="8.09"
   id="ellipse26733" />
					<ellipse
   class="st0"
   cx="62.48"
   cy="847.92"
   rx="11.26"
   ry="8.09"
   id="ellipse26735" />
				</g>
				<g
   id="g26743">
					<ellipse
   class="st0"
   cx="89.94"
   cy="866.87"
   rx="11.26"
   ry="8.09"
   id="ellipse26739" />
					<ellipse
   class="st0"
   cx="62.48"
   cy="866.87"
   rx="11.26"
   ry="8.09"
   id="ellipse26741" />
				</g>
			</g>
		</g>
		
			<rect
   x="47.1"
   y="913.8"
   transform="matrix(-1 -1.224647e-16 1.224647e-16 -1 152.4232 1891.892)"
   class="st0"
   width="58.23"
   height="64.29"
   id="rect26749" />
	</g>
	<rect
   x="347.76"
   y="914.3"
   class="st0"
   width="331.21"
   height="132.02"
   id="rect26753" />
	<rect
   x="347.72"
   y="30.65"
   class="st0"
   width="331.21"
   height="132.02"
   id="rect26755" />
</g>
<g
   id="g26843">
	<g
   id="g26777">
		
			<rect
   x="1836.3"
   y="405.88"
   transform="matrix(-1 -1.224647e-16 1.224647e-16 -1 3724.415 936.0485)"
   class="st0"
   width="51.82"
   height="124.28"
   id="rect26759" />
		<g
   id="g26765">
			<line
   class="st0"
   x1="1836.3"
   y1="530.17"
   x2="1888.12"
   y2="405.88"
   id="line26761" />
			<line
   class="st0"
   x1="1888.12"
   y1="530.17"
   x2="1836.3"
   y2="405.88"
   id="line26763" />
		</g>
		<g
   id="g26775">
			
				<rect
   x="1836.3"
   y="537.98"
   transform="matrix(-1 -1.224647e-16 1.224647e-16 -1 3724.415 1200.2444)"
   class="st0"
   width="51.82"
   height="124.28"
   id="rect26767" />
			<g
   id="g26773">
				<line
   class="st0"
   x1="1836.3"
   y1="662.26"
   x2="1888.12"
   y2="537.98"
   id="line26769" />
				<line
   class="st0"
   x1="1888.12"
   y1="662.26"
   x2="1836.3"
   y2="537.98"
   id="line26771" />
			</g>
		</g>
	</g>
	<g
   id="g26807">
		<rect
   x="1819.48"
   y="823.65"
   class="st0"
   width="83.5"
   height="219.3"
   id="rect26779" />
		<rect
   x="1729.02"
   y="981.95"
   class="st0"
   width="90.46"
   height="61.4"
   id="rect26781" />
		<line
   class="st0"
   x1="1729.02"
   y1="997.2"
   x2="1819.48"
   y2="997.2"
   id="line26783" />
		<line
   class="st0"
   x1="1819.48"
   y1="981.95"
   x2="1902.98"
   y2="981.95"
   id="line26785" />
		<g
   id="g26803">
			<rect
   x="1829.92"
   y="833.51"
   class="st0"
   width="58.23"
   height="41.81"
   id="rect26787" />
			<g
   id="g26801">
				<g
   id="g26793">
					<ellipse
   class="st0"
   cx="1845.3"
   cy="844.95"
   rx="11.26"
   ry="8.09"
   id="ellipse26789" />
					<ellipse
   class="st0"
   cx="1872.76"
   cy="844.95"
   rx="11.26"
   ry="8.09"
   id="ellipse26791" />
				</g>
				<g
   id="g26799">
					<ellipse
   class="st0"
   cx="1845.3"
   cy="863.89"
   rx="11.26"
   ry="8.09"
   id="ellipse26795" />
					<ellipse
   class="st0"
   cx="1872.76"
   cy="863.89"
   rx="11.26"
   ry="8.09"
   id="ellipse26797" />
				</g>
			</g>
		</g>
		<rect
   x="1829.92"
   y="910.82"
   class="st0"
   width="58.23"
   height="64.29"
   id="rect26805" />
	</g>
	<g
   id="g26837">
		<rect
   x="1819.48"
   y="31.04"
   class="st0"
   width="83.5"
   height="219.3"
   id="rect26809" />
		<rect
   x="1729.02"
   y="30.65"
   class="st0"
   width="90.46"
   height="61.4"
   id="rect26811" />
		<line
   class="st0"
   x1="1729.02"
   y1="76.8"
   x2="1819.48"
   y2="76.8"
   id="line26813" />
		<line
   class="st0"
   x1="1819.48"
   y1="92.05"
   x2="1902.98"
   y2="92.05"
   id="line26815" />
		<g
   id="g26833">
			<rect
   x="1829.92"
   y="198.68"
   class="st0"
   width="58.23"
   height="41.81"
   id="rect26817" />
			<g
   id="g26831">
				<g
   id="g26823">
					<ellipse
   class="st0"
   cx="1845.3"
   cy="229.06"
   rx="11.26"
   ry="8.09"
   id="ellipse26819" />
					<ellipse
   class="st0"
   cx="1872.76"
   cy="229.06"
   rx="11.26"
   ry="8.09"
   id="ellipse26821" />
				</g>
				<g
   id="g26829">
					<ellipse
   class="st0"
   cx="1845.3"
   cy="210.11"
   rx="11.26"
   ry="8.09"
   id="ellipse26825" />
					<ellipse
   class="st0"
   cx="1872.76"
   cy="210.11"
   rx="11.26"
   ry="8.09"
   id="ellipse26827" />
				</g>
			</g>
		</g>
		<rect
   x="1829.92"
   y="98.89"
   class="st0"
   width="58.23"
   height="64.29"
   id="rect26835" />
	</g>
	
		<rect
   x="1256.27"
   y="30.65"
   transform="matrix(-1 -1.224647e-16 1.224647e-16 -1 2843.7444 193.3286)"
   class="st0"
   width="331.21"
   height="132.02"
   id="rect26839" />
	
		<rect
   x="1256.31"
   y="914.3"
   transform="matrix(-1 -1.224647e-16 1.224647e-16 -1 2843.8235 1960.6301)"
   class="st0"
   width="331.21"
   height="132.02"
   id="rect26841" />
</g>
<rect
   x="823.6"
   y="166.5"
   class="st1"
   width="272.79"
   height="244.96"
   id="rect26845" />
<rect
   x="822.88"
   y="667.62"
   class="st1"
   width="272.79"
   height="244.96"
   id="rect26847" />
<g
   id="g26971">
	<g
   id="g26851">
		<line
   class="st51"
   x1="34"
   y1="1080.24"
   x2="-30"
   y2="1080.24"
   id="line26849" />
	</g>
	<g
   id="g26855">
		<line
   class="st51"
   x1="100"
   y1="1080.24"
   x2="36"
   y2="1080.24"
   id="line26853" />
	</g>
	<g
   id="g26859">
		<line
   class="st51"
   x1="166"
   y1="1080.24"
   x2="102"
   y2="1080.24"
   id="line26857" />
	</g>
	<g
   id="g26863">
		<line
   class="st51"
   x1="232"
   y1="1080.24"
   x2="168"
   y2="1080.24"
   id="line26861" />
	</g>
	<g
   id="g26867">
		<line
   class="st51"
   x1="298"
   y1="1080.24"
   x2="234"
   y2="1080.24"
   id="line26865" />
	</g>
	<g
   id="g26871">
		<line
   class="st51"
   x1="364"
   y1="1080.24"
   x2="300"
   y2="1080.24"
   id="line26869" />
	</g>
	<g
   id="g26875">
		<line
   class="st51"
   x1="430"
   y1="1080.24"
   x2="366"
   y2="1080.24"
   id="line26873" />
	</g>
	<g
   id="g26879">
		<line
   class="st51"
   x1="496"
   y1="1080.24"
   x2="432"
   y2="1080.24"
   id="line26877" />
	</g>
	<g
   id="g26883">
		<line
   class="st51"
   x1="562"
   y1="1080.24"
   x2="498"
   y2="1080.24"
   id="line26881" />
	</g>
	<g
   id="g26887">
		<line
   class="st51"
   x1="628"
   y1="1080.24"
   x2="564"
   y2="1080.24"
   id="line26885" />
	</g>
	<g
   id="g26891">
		<line
   class="st51"
   x1="694"
   y1="1080.24"
   x2="630"
   y2="1080.24"
   id="line26889" />
	</g>
	<g
   id="g26895">
		<line
   class="st51"
   x1="760"
   y1="1080.24"
   x2="696"
   y2="1080.24"
   id="line26893" />
	</g>
	<g
   id="g26899">
		<line
   class="st51"
   x1="826"
   y1="1080.24"
   x2="762"
   y2="1080.24"
   id="line26897" />
	</g>
	<g
   id="g26903">
		<line
   class="st51"
   x1="892"
   y1="1080.24"
   x2="828"
   y2="1080.24"
   id="line26901" />
	</g>
	<g
   id="g26907">
		<line
   class="st51"
   x1="958"
   y1="1080.24"
   x2="894"
   y2="1080.24"
   id="line26905" />
	</g>
	<g
   id="g26911">
		<line
   class="st51"
   x1="1023"
   y1="1080.24"
   x2="959"
   y2="1080.24"
   id="line26909" />
	</g>
	<g
   id="g26915">
		<line
   class="st51"
   x1="1089"
   y1="1080.24"
   x2="1025"
   y2="1080.24"
   id="line26913" />
	</g>
	<g
   id="g26919">
		<line
   class="st51"
   x1="1155"
   y1="1080.24"
   x2="1091"
   y2="1080.24"
   id="line26917" />
	</g>
	<g
   id="g26923">
		<line
   class="st51"
   x1="1221"
   y1="1080.24"
   x2="1157"
   y2="1080.24"
   id="line26921" />
	</g>
	<g
   id="g26927">
		<line
   class="st51"
   x1="1287"
   y1="1080.24"
   x2="1223"
   y2="1080.24"
   id="line26925" />
	</g>
	<g
   id="g26931">
		<line
   class="st51"
   x1="1353"
   y1="1080.24"
   x2="1289"
   y2="1080.24"
   id="line26929" />
	</g>
	<g
   id="g26935">
		<line
   class="st51"
   x1="1419"
   y1="1080.24"
   x2="1355"
   y2="1080.24"
   id="line26933" />
	</g>
	<g
   id="g26939">
		<line
   class="st51"
   x1="1485"
   y1="1080.24"
   x2="1421"
   y2="1080.24"
   id="line26937" />
	</g>
	<g
   id="g26943">
		<line
   class="st51"
   x1="1551"
   y1="1080.24"
   x2="1487"
   y2="1080.24"
   id="line26941" />
	</g>
	<g
   id="g26947">
		<line
   class="st51"
   x1="1617"
   y1="1080.24"
   x2="1553"
   y2="1080.24"
   id="line26945" />
	</g>
	<g
   id="g26951">
		<line
   class="st51"
   x1="1683"
   y1="1080.24"
   x2="1619"
   y2="1080.24"
   id="line26949" />
	</g>
	<g
   id="g26955">
		<line
   class="st51"
   x1="1749"
   y1="1080.24"
   x2="1685"
   y2="1080.24"
   id="line26953" />
	</g>
	<g
   id="g26959">
		<line
   class="st51"
   x1="1815"
   y1="1080.24"
   x2="1751"
   y2="1080.24"
   id="line26957" />
	</g>
	<g
   id="g26963">
		<line
   class="st51"
   x1="1881"
   y1="1080.24"
   x2="1817"
   y2="1080.24"
   id="line26961" />
	</g>
	<g
   id="g26967">
		<line
   class="st51"
   x1="1947"
   y1="1080.24"
   x2="1883"
   y2="1080.24"
   id="line26965" />
	</g>
	<g
   id="g26969">
	</g>
</g>
<g
   id="g26987">
	<g
   id="g26983">
		<path
   class="st50"
   d="M1176.24,465.44H746.77V292.44c0-35.38,28.68-64.06,64.06-64.06h301.34c35.38,0,64.06,28.68,64.06,64.06    V465.44z"
   id="path26973" />
		<rect
   x="802.52"
   y="282.46"
   class="st57"
   width="317.98"
   height="138.28"
   id="rect26975" />
		
	</g>
	<path
   class="st50"
   d="M836.62,804.62h249.77c37.56,0,68-30.45,68-68v-52.89c0-37.56-30.45-68-68-68H836.62c-37.56,0-68,30.45-68,68   v52.89C768.62,774.17,799.07,804.62,836.62,804.62z"
   id="path26985" />
</g>
<path
   class="st50"
   d="M1776.93,465.44h-429.47V292.44c0-35.38,28.68-64.06,64.06-64.06h301.34c35.38,0,64.06,28.68,64.06,64.06  V465.44z"
   id="path26989" />
<rect
   x="1403.21"
   y="294.95"
   class="st57"
   width="317.98"
   height="105.54"
   id="rect26991" />

<path
   class="st50"
   d="M1437.31,804.62h249.77c37.56,0,68-30.45,68-68v-52.89c0-37.56-30.45-68-68-68h-249.77  c-37.56,0-68,30.45-68,68v52.89C1369.31,774.17,1399.75,804.62,1437.31,804.62z"
   id="path26999" />
<g
   id="g27017">
	<g
   id="g27013">
		<path
   class="st50"
   d="M572.66,467.44H143.19V294.44c0-35.38,28.68-64.06,64.06-64.06H508.6c35.38,0,64.06,28.68,64.06,64.06    V467.44z"
   id="path27001" />
		<rect
   x="252.94"
   y="264.81"
   class="st57"
   width="209.98"
   height="167.28"
   id="rect27003" />
		
	</g>
	<path
   class="st50"
   d="M233.04,802.62h249.77c37.56,0,68-30.45,68-68v-52.89c0-37.56-30.45-68-68-68H233.04c-37.56,0-68,30.45-68,68   v52.89C165.04,772.17,195.48,802.62,233.04,802.62z"
   id="path27015" />
</g>
</svg>
