<?xml version="1.0" encoding="utf-8"?>
<!-- Generator: Adobe Illustrator 23.0.1, SVG Export Plug-In . SVG Version: 6.00 Build 0)  -->
<svg version="1.1" id="Warstwa_1" xmlns="http://www.w3.org/2000/svg" xmlns:xlink="http://www.w3.org/1999/xlink" x="0px" y="0px"
	 viewBox="0 0 1920 1080" style="enable-background:new 0 0 1920 1080;" xml:space="preserve">
<style type="text/css">
	.st0{fill:none;}
	.st1{fill:none;stroke:#CD5D28;stroke-width:3;stroke-miterlimit:10;}
	.st2{fill:none;stroke:#CD5D28;stroke-miterlimit:10;}
	.st3{fill:#EFD6BF;}
	.st4{opacity:0.16;}
	.st5{fill:url(#SVGID_1_);}
	.st6{fill:url(#SVGID_2_);}
	.st7{fill:url(#SVGID_3_);}
	.st8{fill:url(#SVGID_4_);}
	.st9{fill:url(#SVGID_5_);}
	.st10{fill:url(#SVGID_6_);}
	.st11{fill:none;stroke:#CD5D28;stroke-miterlimit:10;stroke-dasharray:12;}
	.st12{fill:url(#SVGID_7_);}
	.st13{fill:none;stroke:#CD5D28;stroke-width:2;stroke-miterlimit:10;stroke-dasharray:12;}
	.st14{fill:url(#SVGID_8_);}
	.st15{fill:#F37442;}
	.st16{fill:#E5925B;}
	.st17{fill:url(#);}
	.st18{fill:#DF692D;}
	.st19{fill:#E4882B;}
	.st20{fill:#E4862B;}
	.st21{fill:#E2B232;}
	.st22{clip-path:url(#SVGID_10_);}
	.st23{clip-path:url(#SVGID_12_);}
	.st24{fill:#CD5D28;}
	.st25{fill:#EDD6C0;}
	.st26{opacity:0.65;fill:#E1C3A3;}
	.st27{fill:#231F20;}
	.st28{fill:#F68E27;}
	.st29{fill:url(#SVGID_15_);}
	.st30{opacity:0.71;fill:#EFD8AF;}
	.st31{opacity:0.75;}
	.st32{fill:#D9B98D;}
	.st33{opacity:0.67;fill:#E5A875;}
	.st34{opacity:0.33;}
	.st35{fill:#EEE4CB;}
	.st36{opacity:0.65;fill:#D1925A;}
	.st37{fill:#D1925A;}
	.st38{opacity:0.65;}
	.st39{opacity:0.52;fill:#D1925A;}
	.st40{fill:none;stroke:#D1925A;stroke-miterlimit:10;}
	.st41{fill:none;stroke:#D1925A;stroke-width:3;stroke-miterlimit:10;}
	.st42{fill:none;stroke:#CD5D28;stroke-width:0.75;stroke-miterlimit:10;}
	.st43{opacity:0.77;}
	.st44{fill:none;stroke:#D1925A;stroke-width:0.25;stroke-miterlimit:10;}
	.st45{opacity:0.66;}
	.st46{fill:none;stroke:#D1925A;stroke-width:7;stroke-miterlimit:10;}
	.st47{opacity:0.69;fill:none;stroke:#D1925A;stroke-width:7;stroke-miterlimit:10;}
	.st48{fill:none;stroke:#CD5D28;stroke-width:10;stroke-miterlimit:10;}
	.st49{fill:none;stroke:#CD5D28;stroke-width:2;stroke-miterlimit:10;}
	.st50{clip-path:url(#SVGID_17_);}
	.st51{clip-path:url(#SVGID_19_);}
	.st52{clip-path:url(#SVGID_21_);}
	.st53{clip-path:url(#SVGID_23_);}
	.st54{clip-path:url(#SVGID_25_);}
	.st55{clip-path:url(#SVGID_27_);}
	.st56{fill:none;stroke:#CD5D28;stroke-linejoin:round;stroke-miterlimit:10;}
	.st57{fill:none;stroke:#622507;stroke-miterlimit:10;}
	.st58{fill:none;stroke:#CD5D28;stroke-width:0.5;stroke-miterlimit:10;}
	.st59{fill:none;stroke:#F7B143;stroke-width:0.5;stroke-miterlimit:10;}
	.st60{fill:#E9D8CC;stroke:#CD5D28;stroke-width:3;stroke-miterlimit:10;}
	.st61{fill:none;stroke:#D8A07A;stroke-width:2;stroke-miterlimit:10;}
	.st62{opacity:0.59;}
	.st63{fill:none;stroke:#CD5D28;stroke-miterlimit:10;stroke-dasharray:11.9677,11.9677;}
	.st64{fill:none;stroke:#CD5D28;stroke-miterlimit:10;stroke-dasharray:12.1212,12.1212;}
	.st65{fill:none;stroke:#CD5D28;stroke-miterlimit:10;stroke-dasharray:12.1091,12.1091;}
	.st66{fill:#E4BB9D;stroke:#CD5D28;stroke-width:3;stroke-miterlimit:10;}
	.st67{font-family:'UnicaOne-Regular';}
	.st68{font-size:53.5666px;}
	.st69{fill:none;stroke:#CD5D28;stroke-width:0.1;stroke-miterlimit:10;}
	.st70{clip-path:url(#SVGID_35_);}
	.st71{clip-path:url(#SVGID_37_);}
	.st72{clip-path:url(#SVGID_39_);}
	.st73{clip-path:url(#SVGID_41_);}
	.st74{clip-path:url(#SVGID_43_);}
	.st75{clip-path:url(#SVGID_45_);}
	.st76{opacity:0.71;}
	.st77{fill:#E8D7CB;stroke:#CC5D27;stroke-width:3;stroke-miterlimit:10;}
	.st78{opacity:0.09;fill:#FFFFFF;}
	.st79{fill:#BCD043;}
	.st80{fill:#1D1D1B;}
	.st81{fill:#56B47F;}
	.st82{fill:#48BBC7;}
	.st83{fill:#DB296A;}
	.st84{fill:#A54793;}
	.st85{fill:#ED751D;}
	.st86{fill:#F18E2A;}
	.st87{fill:#DB151B;}
	.st88{fill:#1D1E1C;}
	.st89{fill:#0871B6;}
	.st90{fill:#F5A222;}
	.st91{fill:#77B52E;}
	.st92{fill:#E00C19;}
	.st93{fill:#BCD043;stroke:#000000;stroke-miterlimit:10;}
	.st94{fill:none;stroke:#000000;stroke-linecap:round;stroke-linejoin:round;stroke-miterlimit:10;}
	.st95{fill:#ED751D;stroke:#010101;stroke-miterlimit:10;}
	.st96{fill:none;stroke:#000000;stroke-width:2;stroke-miterlimit:10;}
	.st97{fill:#DB296A;stroke:#000000;stroke-miterlimit:10;}
	.st98{fill:#48BBC7;stroke:#040202;stroke-miterlimit:10;}
	.st99{fill:#56B47F;stroke:#000000;stroke-miterlimit:10;}
	.st100{fill:#A54793;stroke:#010101;stroke-miterlimit:10;}
	.st101{fill:#F18E2A;stroke:#040202;stroke-miterlimit:10;}
	.st102{fill:#41A1D8;stroke:#010202;stroke-miterlimit:10;}
	.st103{fill:none;stroke:#000000;stroke-miterlimit:10;}
	.st104{fill:#68737A;}
	.st105{fill:#910028;}
	.st106{fill:#E7531D;}
	.st107{fill:#23A6DF;}
	.st108{fill:#010101;}
	.st109{fill:#020202;}
	.st110{fill:#020303;}
	.st111{fill:#273D83;}
	.st112{fill:#523E90;}
	.st113{fill:#592C85;}
	.st114{fill:#FCFCFD;}
	.st115{fill:#010000;}
	.st116{fill:#FFFFFF;}
	.st117{fill:#2C2E71;}
	.st118{fill:#009AAE;}
</style>
<pattern  y="-5400" width="131.06" height="131.18" patternUnits="userSpaceOnUse" id="Nowa_próbka_wzorka_4" viewBox="0 -131.18 131.06 131.18" style="overflow:visible;">
	<g>
		<rect y="-131.18" class="st0" width="131.06" height="131.18"/>
		<polyline class="st1" points="131.06,-1.5 1.5,-1.5 1.5,-131.06 		"/>
		<line class="st2" x1="66.28" y1="-131.18" x2="66.28" y2="-1.5"/>
		<line class="st2" x1="97.22" y1="-131.18" x2="97.22" y2="-1.5"/>
		<line class="st2" x1="33.07" y1="-131.18" x2="33.07" y2="-1.5"/>
		<line class="st2" x1="129.99" y1="-65.21" x2="0.31" y2="-65.21"/>
		<line class="st2" x1="129.99" y1="-34.27" x2="0.31" y2="-34.27"/>
		<line class="st2" x1="129.99" y1="-98.41" x2="0.31" y2="-98.41"/>
	</g>
</pattern>
<g>
	<rect x="-5" y="-5320" class="st3" width="1937" height="8560"/>
</g>
<g class="st4">
	
		<pattern  id="SVGID_1_" xlink:href="#Nowa_prĂłbka_wzorka_4" patternTransform="matrix(1 0 0 0.3268 6.5 -847.5933)"  class="st4">
	</pattern>
	<rect x="-8.5" y="-1080" class="st5" width="1937" height="1085"/>
</g>
<g class="st4">
	
		<pattern  id="SVGID_2_" xlink:href="#Nowa_prĂłbka_wzorka_4" patternTransform="matrix(1 0 0 0.3268 6.5 -839.3646)"  class="st4">
	</pattern>
	<rect x="-8.5" class="st6" width="1937" height="1085"/>
</g>
<g>
	<path class="st2" d="M850.57,1018.71h-26.99c-0.89,0-1.61-0.72-1.61-1.61v-76.32c0-0.89,0.72-1.61,1.61-1.61h26.99
		c0.89,0,1.61,0.72,1.61,1.61v76.32C852.19,1017.99,851.46,1018.71,850.57,1018.71z"/>
	<path class="st2" d="M1096.42,1018.71h-26.99c-0.89,0-1.61-0.72-1.61-1.61v-76.32c0-0.89,0.72-1.61,1.61-1.61h26.99
		c0.89,0,1.61,0.72,1.61,1.61v76.32C1098.03,1017.99,1097.31,1018.71,1096.42,1018.71z"/>
	<g>
		<path class="st2" d="M922.45,1018.71H853.8c-0.89,0-1.61-0.72-1.61-1.61v-15.18c0-0.89,0.72-1.61,1.61-1.61h68.65
			c0.89,0,1.61,0.72,1.61,1.61v15.18C924.06,1017.99,923.34,1018.71,922.45,1018.71z"/>
		<path class="st2" d="M922.45,948.69H853.8c-0.89,0-1.61,0.72-1.61,1.61v48.38c0,0.89,0.72,1.61,1.61,1.61h68.65
			c0.89,0,1.61-0.72,1.61-1.61v-48.38C924.06,949.41,923.34,948.69,922.45,948.69z"/>
	</g>
	<g>
		<path class="st2" d="M994.32,1018.71h-68.65c-0.89,0-1.61-0.72-1.61-1.61v-15.18c0-0.89,0.72-1.61,1.61-1.61h68.65
			c0.89,0,1.61,0.72,1.61,1.61v15.18C995.94,1017.99,995.22,1018.71,994.32,1018.71z"/>
		<path class="st2" d="M994.32,948.69h-68.65c-0.89,0-1.61,0.72-1.61,1.61v48.38c0,0.89,0.72,1.61,1.61,1.61h68.65
			c0.89,0,1.61-0.72,1.61-1.61v-48.38C995.94,949.41,995.22,948.69,994.32,948.69z"/>
	</g>
	<g>
		<path class="st2" d="M1066.2,1018.71h-68.65c-0.89,0-1.61-0.72-1.61-1.61v-15.18c0-0.89,0.72-1.61,1.61-1.61h68.65
			c0.89,0,1.61,0.72,1.61,1.61v15.18C1067.81,1017.99,1067.09,1018.71,1066.2,1018.71z"/>
		<path class="st2" d="M1066.2,948.69h-68.65c-0.89,0-1.61,0.72-1.61,1.61v48.38c0,0.89,0.72,1.61,1.61,1.61h68.65
			c0.89,0,1.61-0.72,1.61-1.61v-48.38C1067.81,949.41,1067.09,948.69,1066.2,948.69z"/>
	</g>
</g>
<g>
	<ellipse class="st2" cx="960" cy="540" rx="84.66" ry="60.79"/>
	<g>
		<g>
			<path class="st2" d="M871.06,630.41l-36.97-26.54l35.31-25.35c0.92-0.66,2.41-0.66,3.33,0l33.64,24.16
				c0.92,0.66,0.92,1.73,0,2.39L871.06,630.41z"/>
			<line class="st2" x1="845.42" y1="595.73" x2="882.39" y2="622.27"/>
		</g>
		<g>
			<path class="st2" d="M1048.94,449.59l36.97,26.54l-35.3,25.35c-0.92,0.66-2.41,0.66-3.33,0l-33.64-24.16
				c-0.92-0.66-0.92-1.73,0-2.39L1048.94,449.59z"/>
			<line class="st2" x1="1074.58" y1="484.27" x2="1037.61" y2="457.73"/>
		</g>
	</g>
	<g>
		<g>
			<path class="st2" d="M834.09,476.14l36.97-26.54l35.31,25.35c0.92,0.66,0.92,1.73,0,2.39l-33.64,24.16
				c-0.92,0.66-2.41,0.66-3.33,0L834.09,476.14z"/>
			<line class="st2" x1="882.39" y1="457.73" x2="845.42" y2="484.27"/>
		</g>
		<g>
			<path class="st2" d="M1085.91,603.86l-36.97,26.54l-35.3-25.35c-0.92-0.66-0.92-1.73,0-2.39l33.64-24.16
				c0.92-0.66,2.41-0.66,3.33,0L1085.91,603.86z"/>
			<line class="st2" x1="1037.61" y1="622.27" x2="1074.58" y2="595.73"/>
		</g>
	</g>
</g>
<rect x="1157.97" y="510.5" class="st2" width="578.53" height="64.66"/>
<rect x="177.97" y="510.5" class="st2" width="578.53" height="64.66"/>
<g>
	<g>
		<path class="st2" d="M904.55,141.1h-68.11c-0.72,0-1.3-0.58-1.3-1.3V43.93c0-0.72,0.58-1.3,1.3-1.3h68.11c0.72,0,1.3,0.58,1.3,1.3
			v95.87C905.85,140.52,905.27,141.1,904.55,141.1z"/>
		<path class="st2" d="M848.54,141.1h-12.34c-0.58,0-1.05-0.47-1.05-1.05V61.19c0-0.58,0.47-1.05,1.05-1.05h12.34
			c0.58,0,1.05,0.47,1.05,1.05v78.86C849.58,140.63,849.12,141.1,848.54,141.1z"/>
		<path class="st2" d="M904.81,141.1h-12.34c-0.58,0-1.05-0.47-1.05-1.05V61.19c0-0.58,0.47-1.05,1.05-1.05h12.34
			c0.58,0,1.05,0.47,1.05,1.05v78.86C905.85,140.63,905.38,141.1,904.81,141.1z"/>
		<line class="st2" x1="849.58" y1="73.35" x2="891.42" y2="73.35"/>
	</g>
	<g>
		<path class="st2" d="M994.05,141.1h-68.11c-0.72,0-1.3-0.58-1.3-1.3V43.93c0-0.72,0.58-1.3,1.3-1.3h68.11c0.72,0,1.3,0.58,1.3,1.3
			v95.87C995.35,140.52,994.77,141.1,994.05,141.1z"/>
		<path class="st2" d="M938.04,141.1h-12.34c-0.58,0-1.05-0.47-1.05-1.05V61.19c0-0.58,0.47-1.05,1.05-1.05h12.34
			c0.58,0,1.05,0.47,1.05,1.05v78.86C939.08,140.63,938.62,141.1,938.04,141.1z"/>
		<path class="st2" d="M994.31,141.1h-12.34c-0.58,0-1.05-0.47-1.05-1.05V61.19c0-0.58,0.47-1.05,1.05-1.05h12.34
			c0.58,0,1.05,0.47,1.05,1.05v78.86C995.35,140.63,994.88,141.1,994.31,141.1z"/>
		<line class="st2" x1="939.08" y1="73.35" x2="980.92" y2="73.35"/>
	</g>
	<g>
		<path class="st2" d="M1083.55,141.1h-68.11c-0.72,0-1.3-0.58-1.3-1.3V43.93c0-0.72,0.58-1.3,1.3-1.3h68.11
			c0.72,0,1.3,0.58,1.3,1.3v95.87C1084.85,140.52,1084.27,141.1,1083.55,141.1z"/>
		<path class="st2" d="M1027.54,141.1h-12.34c-0.58,0-1.05-0.47-1.05-1.05V61.19c0-0.58,0.47-1.05,1.05-1.05h12.34
			c0.58,0,1.05,0.47,1.05,1.05v78.86C1028.58,140.63,1028.12,141.1,1027.54,141.1z"/>
		<path class="st2" d="M1083.81,141.1h-12.34c-0.58,0-1.05-0.47-1.05-1.05V61.19c0-0.58,0.47-1.05,1.05-1.05h12.34
			c0.58,0,1.05,0.47,1.05,1.05v78.86C1084.85,140.63,1084.38,141.1,1083.81,141.1z"/>
		<line class="st2" x1="1028.58" y1="73.35" x2="1070.42" y2="73.35"/>
	</g>
</g>
<g>
	<g>
		<rect x="47.12" y="546.81" class="st2" width="51.82" height="124.28"/>
		<g>
			<line class="st2" x1="98.94" y1="546.81" x2="47.12" y2="671.1"/>
			<line class="st2" x1="47.12" y1="546.81" x2="98.94" y2="671.1"/>
		</g>
		<g>
			<rect x="47.12" y="414.72" class="st2" width="51.82" height="124.28"/>
			<g>
				<line class="st2" x1="98.94" y1="414.72" x2="47.12" y2="539"/>
				<line class="st2" x1="47.12" y1="414.72" x2="98.94" y2="539"/>
			</g>
		</g>
	</g>
	<g>
		
			<rect x="32.27" y="34.02" transform="matrix(-1 -1.224647e-16 1.224647e-16 -1 148.0286 287.3493)" class="st2" width="83.5" height="219.3"/>
		
			<rect x="115.76" y="33.63" transform="matrix(-1 -1.224647e-16 1.224647e-16 -1 321.9814 128.6577)" class="st2" width="90.46" height="61.4"/>
		<line class="st2" x1="206.22" y1="79.78" x2="115.76" y2="79.78"/>
		<line class="st2" x1="115.76" y1="95.03" x2="32.27" y2="95.03"/>
		<g>
			
				<rect x="47.1" y="201.66" transform="matrix(-1 -1.224647e-16 1.224647e-16 -1 152.4232 445.1226)" class="st2" width="58.23" height="41.81"/>
			<g>
				<g>
					<ellipse class="st2" cx="89.94" cy="232.03" rx="11.26" ry="8.09"/>
					<ellipse class="st2" cx="62.48" cy="232.03" rx="11.26" ry="8.09"/>
				</g>
				<g>
					<ellipse class="st2" cx="89.94" cy="213.09" rx="11.26" ry="8.09"/>
					<ellipse class="st2" cx="62.48" cy="213.09" rx="11.26" ry="8.09"/>
				</g>
			</g>
		</g>
		
			<rect x="47.1" y="101.86" transform="matrix(-1 -1.224647e-16 1.224647e-16 -1 152.4232 268.0221)" class="st2" width="58.23" height="64.29"/>
	</g>
	<g>
		
			<rect x="32.27" y="826.63" transform="matrix(-1 -1.224647e-16 1.224647e-16 -1 148.0286 1872.5647)" class="st2" width="83.5" height="219.3"/>
		
			<rect x="115.76" y="984.93" transform="matrix(-1 -1.224647e-16 1.224647e-16 -1 321.9814 2031.2563)" class="st2" width="90.46" height="61.4"/>
		<line class="st2" x1="206.22" y1="1000.18" x2="115.76" y2="1000.18"/>
		<line class="st2" x1="115.76" y1="984.93" x2="32.27" y2="984.93"/>
		<g>
			
				<rect x="47.1" y="836.49" transform="matrix(-1 -1.224647e-16 1.224647e-16 -1 152.4232 1714.7914)" class="st2" width="58.23" height="41.81"/>
			<g>
				<g>
					<ellipse class="st2" cx="89.94" cy="847.92" rx="11.26" ry="8.09"/>
					<ellipse class="st2" cx="62.48" cy="847.92" rx="11.26" ry="8.09"/>
				</g>
				<g>
					<ellipse class="st2" cx="89.94" cy="866.87" rx="11.26" ry="8.09"/>
					<ellipse class="st2" cx="62.48" cy="866.87" rx="11.26" ry="8.09"/>
				</g>
			</g>
		</g>
		
			<rect x="47.1" y="913.8" transform="matrix(-1 -1.224647e-16 1.224647e-16 -1 152.4232 1891.892)" class="st2" width="58.23" height="64.29"/>
	</g>
	<rect x="347.76" y="914.3" class="st2" width="331.21" height="132.02"/>
	<rect x="347.72" y="30.65" class="st2" width="331.21" height="132.02"/>
</g>
<g>
	<g>
		
			<rect x="1836.3" y="405.88" transform="matrix(-1 -1.224647e-16 1.224647e-16 -1 3724.415 936.0485)" class="st2" width="51.82" height="124.28"/>
		<g>
			<line class="st2" x1="1836.3" y1="530.17" x2="1888.12" y2="405.88"/>
			<line class="st2" x1="1888.12" y1="530.17" x2="1836.3" y2="405.88"/>
		</g>
		<g>
			
				<rect x="1836.3" y="537.98" transform="matrix(-1 -1.224647e-16 1.224647e-16 -1 3724.415 1200.2444)" class="st2" width="51.82" height="124.28"/>
			<g>
				<line class="st2" x1="1836.3" y1="662.26" x2="1888.12" y2="537.98"/>
				<line class="st2" x1="1888.12" y1="662.26" x2="1836.3" y2="537.98"/>
			</g>
		</g>
	</g>
	<g>
		<rect x="1819.48" y="823.65" class="st2" width="83.5" height="219.3"/>
		<rect x="1729.02" y="981.95" class="st2" width="90.46" height="61.4"/>
		<line class="st2" x1="1729.02" y1="997.2" x2="1819.48" y2="997.2"/>
		<line class="st2" x1="1819.48" y1="981.95" x2="1902.98" y2="981.95"/>
		<g>
			<rect x="1829.92" y="833.51" class="st2" width="58.23" height="41.81"/>
			<g>
				<g>
					<ellipse class="st2" cx="1845.3" cy="844.95" rx="11.26" ry="8.09"/>
					<ellipse class="st2" cx="1872.76" cy="844.95" rx="11.26" ry="8.09"/>
				</g>
				<g>
					<ellipse class="st2" cx="1845.3" cy="863.89" rx="11.26" ry="8.09"/>
					<ellipse class="st2" cx="1872.76" cy="863.89" rx="11.26" ry="8.09"/>
				</g>
			</g>
		</g>
		<rect x="1829.92" y="910.82" class="st2" width="58.23" height="64.29"/>
	</g>
	<g>
		<rect x="1819.48" y="31.04" class="st2" width="83.5" height="219.3"/>
		<rect x="1729.02" y="30.65" class="st2" width="90.46" height="61.4"/>
		<line class="st2" x1="1729.02" y1="76.8" x2="1819.48" y2="76.8"/>
		<line class="st2" x1="1819.48" y1="92.05" x2="1902.98" y2="92.05"/>
		<g>
			<rect x="1829.92" y="198.68" class="st2" width="58.23" height="41.81"/>
			<g>
				<g>
					<ellipse class="st2" cx="1845.3" cy="229.06" rx="11.26" ry="8.09"/>
					<ellipse class="st2" cx="1872.76" cy="229.06" rx="11.26" ry="8.09"/>
				</g>
				<g>
					<ellipse class="st2" cx="1845.3" cy="210.11" rx="11.26" ry="8.09"/>
					<ellipse class="st2" cx="1872.76" cy="210.11" rx="11.26" ry="8.09"/>
				</g>
			</g>
		</g>
		<rect x="1829.92" y="98.89" class="st2" width="58.23" height="64.29"/>
	</g>
	
		<rect x="1256.27" y="30.65" transform="matrix(-1 -1.224647e-16 1.224647e-16 -1 2843.7444 193.3286)" class="st2" width="331.21" height="132.02"/>
	
		<rect x="1256.31" y="914.3" transform="matrix(-1 -1.224647e-16 1.224647e-16 -1 2843.8235 1960.6301)" class="st2" width="331.21" height="132.02"/>
</g>
<rect x="823.6" y="166.5" class="st11" width="272.79" height="244.96"/>
<rect x="822.88" y="667.62" class="st11" width="272.79" height="244.96"/>
<g>
	<g>
		<line class="st61" x1="34" y1="1080.24" x2="-30" y2="1080.24"/>
	</g>
	<g>
		<line class="st61" x1="100" y1="1080.24" x2="36" y2="1080.24"/>
	</g>
	<g>
		<line class="st61" x1="166" y1="1080.24" x2="102" y2="1080.24"/>
	</g>
	<g>
		<line class="st61" x1="232" y1="1080.24" x2="168" y2="1080.24"/>
	</g>
	<g>
		<line class="st61" x1="298" y1="1080.24" x2="234" y2="1080.24"/>
	</g>
	<g>
		<line class="st61" x1="364" y1="1080.24" x2="300" y2="1080.24"/>
	</g>
	<g>
		<line class="st61" x1="430" y1="1080.24" x2="366" y2="1080.24"/>
	</g>
	<g>
		<line class="st61" x1="496" y1="1080.24" x2="432" y2="1080.24"/>
	</g>
	<g>
		<line class="st61" x1="562" y1="1080.24" x2="498" y2="1080.24"/>
	</g>
	<g>
		<line class="st61" x1="628" y1="1080.24" x2="564" y2="1080.24"/>
	</g>
	<g>
		<line class="st61" x1="694" y1="1080.24" x2="630" y2="1080.24"/>
	</g>
	<g>
		<line class="st61" x1="760" y1="1080.24" x2="696" y2="1080.24"/>
	</g>
	<g>
		<line class="st61" x1="826" y1="1080.24" x2="762" y2="1080.24"/>
	</g>
	<g>
		<line class="st61" x1="892" y1="1080.24" x2="828" y2="1080.24"/>
	</g>
	<g>
		<line class="st61" x1="958" y1="1080.24" x2="894" y2="1080.24"/>
	</g>
	<g>
		<line class="st61" x1="1023" y1="1080.24" x2="959" y2="1080.24"/>
	</g>
	<g>
		<line class="st61" x1="1089" y1="1080.24" x2="1025" y2="1080.24"/>
	</g>
	<g>
		<line class="st61" x1="1155" y1="1080.24" x2="1091" y2="1080.24"/>
	</g>
	<g>
		<line class="st61" x1="1221" y1="1080.24" x2="1157" y2="1080.24"/>
	</g>
	<g>
		<line class="st61" x1="1287" y1="1080.24" x2="1223" y2="1080.24"/>
	</g>
	<g>
		<line class="st61" x1="1353" y1="1080.24" x2="1289" y2="1080.24"/>
	</g>
	<g>
		<line class="st61" x1="1419" y1="1080.24" x2="1355" y2="1080.24"/>
	</g>
	<g>
		<line class="st61" x1="1485" y1="1080.24" x2="1421" y2="1080.24"/>
	</g>
	<g>
		<line class="st61" x1="1551" y1="1080.24" x2="1487" y2="1080.24"/>
	</g>
	<g>
		<line class="st61" x1="1617" y1="1080.24" x2="1553" y2="1080.24"/>
	</g>
	<g>
		<line class="st61" x1="1683" y1="1080.24" x2="1619" y2="1080.24"/>
	</g>
	<g>
		<line class="st61" x1="1749" y1="1080.24" x2="1685" y2="1080.24"/>
	</g>
	<g>
		<line class="st61" x1="1815" y1="1080.24" x2="1751" y2="1080.24"/>
	</g>
	<g>
		<line class="st61" x1="1881" y1="1080.24" x2="1817" y2="1080.24"/>
	</g>
	<g>
		<line class="st61" x1="1947" y1="1080.24" x2="1883" y2="1080.24"/>
	</g>
	<g>
	</g>
</g>
<g>
	<g>
		<path class="st60" d="M1176.24,465.44H746.77V292.44c0-35.38,28.68-64.06,64.06-64.06h301.34c35.38,0,64.06,28.68,64.06,64.06
			V465.44z"/>
		<rect x="802.52" y="282.46" class="st0" width="317.98" height="138.28"/>
		<text transform="matrix(1 0 0 1 876.8708 317.2756)"><tspan x="0" y="0" class="st24 st67 st68">Partner</tspan><tspan x="-70.63" y="64.28" class="st24 st67 st68">merytoryczny</tspan></text>
	</g>
	<path class="st60" d="M836.62,804.62h249.77c37.56,0,68-30.45,68-68v-52.89c0-37.56-30.45-68-68-68H836.62c-37.56,0-68,30.45-68,68
		v52.89C768.62,774.17,799.07,804.62,836.62,804.62z"/>
</g>
<path class="st60" d="M1776.93,465.44h-429.47V292.44c0-35.38,28.68-64.06,64.06-64.06h301.34c35.38,0,64.06,28.68,64.06,64.06
	V465.44z"/>
<rect x="1403.21" y="294.95" class="st0" width="317.98" height="105.54"/>
<text transform="matrix(1 0 0 1 1477.5594 329.7673)"><tspan x="0" y="0" class="st24 st67 st68">Partner</tspan><tspan x="-38.94" y="64.28" class="st24 st67 st68">Techniczny</tspan></text>
<path class="st60" d="M1437.31,804.62h249.77c37.56,0,68-30.45,68-68v-52.89c0-37.56-30.45-68-68-68h-249.77
	c-37.56,0-68,30.45-68,68v52.89C1369.31,774.17,1399.75,804.62,1437.31,804.62z"/>
<g>
	<g>
		<path class="st60" d="M572.66,467.44H143.19V294.44c0-35.38,28.68-64.06,64.06-64.06H508.6c35.38,0,64.06,28.68,64.06,64.06
			V467.44z"/>
		<rect x="252.94" y="264.81" class="st0" width="209.98" height="167.28"/>
		<text transform="matrix(1 0 0 1 273.289 299.6272)"><tspan x="0" y="0" class="st24 st67 st68">Partner </tspan><tspan x="13.45" y="64.28" class="st24 st67 st68">strefy </tspan><tspan x="-17.22" y="128.56" class="st24 st67 st68">studenta</tspan></text>
	</g>
	<path class="st60" d="M233.04,802.62h249.77c37.56,0,68-30.45,68-68v-52.89c0-37.56-30.45-68-68-68H233.04c-37.56,0-68,30.45-68,68
		v52.89C165.04,772.17,195.48,802.62,233.04,802.62z"/>
</g>
</svg>
