<?xml version="1.0" encoding="utf-8"?>
<!-- Generator: Adobe Illustrator 23.0.1, SVG Export Plug-In . SVG Version: 6.00 Build 0)  -->
<svg version="1.1" id="Warstwa_1" xmlns="http://www.w3.org/2000/svg" xmlns:xlink="http://www.w3.org/1999/xlink" x="0px" y="0px"
	 viewBox="0 0 569.19 637.28" style="enable-background:new 0 0 569.19 637.28;" xml:space="preserve">
<style type="text/css">
	.st0{fill:#E9262A;}
	.st1{opacity:0.65;fill:#E1C3A3;}
	.st2{fill:none;stroke:#CE5E28;stroke-width:2;stroke-miterlimit:10;}
	.st3{fill:#231F20;}
	.st4{fill:#F78F28;}
	.st5{fill:url(#SVGID_1_);}
	.st6{fill:none;stroke:#CE5E28;stroke-width:0.75;stroke-miterlimit:10;}
</style>
<g>
	
		<rect x="404.32" y="110.05" transform="matrix(-1 -4.433532e-11 4.433532e-11 -1 814.9602 675.0151)" class="st6" width="6.32" height="454.92"/>
	
		<rect x="379.05" y="110.05" transform="matrix(-1 -4.433532e-11 4.433532e-11 -1 764.4138 675.0151)" class="st6" width="6.32" height="454.92"/>
	
		<rect x="231.03" y="-64.33" transform="matrix(4.404749e-11 -1 1 4.404749e-11 165.4471 302.9398)" class="st6" width="6.32" height="266.16"/>
	
		<rect x="231.03" y="-39.06" transform="matrix(4.577500e-11 -1 1 4.577500e-11 140.1739 328.213)" class="st6" width="6.32" height="266.16"/>
	<polygon class="st6" points="407.48,306.2 382.21,306.2 407.48,276.91 382.21,276.91 	"/>
	<polygon class="st6" points="407.48,276.91 382.21,276.91 407.48,247.62 382.21,247.62 	"/>
	<polygon class="st6" points="407.48,247.62 382.21,247.62 407.48,218.32 382.21,218.32 	"/>
	<polygon class="st6" points="407.48,218.32 382.21,218.32 407.48,189.03 382.21,189.03 	"/>
	<polygon class="st6" points="407.48,423.38 382.21,423.38 407.48,394.09 382.21,394.09 	"/>
	<polygon class="st6" points="407.48,394.09 382.21,394.09 407.48,364.79 382.21,364.79 	"/>
	<polygon class="st6" points="407.48,364.79 382.21,364.79 407.48,335.5 382.21,335.5 	"/>
	<polygon class="st6" points="407.48,335.5 382.21,335.5 407.48,306.2 382.21,306.2 	"/>
	<polygon class="st6" points="407.48,540.55 382.21,540.55 407.48,511.26 382.21,511.26 	"/>
	<polygon class="st6" points="407.48,511.26 382.21,511.26 407.48,481.97 382.21,481.97 	"/>
	<polygon class="st6" points="407.48,481.97 382.21,481.97 407.48,452.67 382.21,452.67 	"/>
	<polygon class="st6" points="407.48,452.67 382.21,452.67 407.48,423.38 382.21,423.38 	"/>
	<polygon class="st6" points="407.48,189.03 382.21,189.03 407.48,159.73 382.21,159.73 	"/>
	<polygon class="st6" points="407.48,159.73 382.21,159.73 407.48,130.44 382.21,130.44 	"/>
	<line class="st6" x1="407.48" y1="130.44" x2="385.37" y2="107.18"/>
	<line class="st6" x1="382.21" y1="130.44" x2="404.32" y2="107.18"/>
	<polygon class="st6" points="161.01,94.02 161.01,68.75 190.3,94.02 190.3,68.75 	"/>
	<polygon class="st6" points="190.3,94.02 190.3,68.75 219.59,94.02 219.59,68.75 	"/>
	<polygon class="st6" points="219.59,94.02 219.59,68.75 248.89,94.02 248.89,68.75 	"/>
	<polygon class="st6" points="248.89,94.02 248.89,68.75 278.18,94.02 278.18,68.75 	"/>
	<polygon class="st6" points="102.42,94.02 102.42,68.75 131.71,94.02 131.71,68.75 	"/>
	<polygon class="st6" points="131.71,94.02 131.71,68.75 161.01,94.02 161.01,68.75 	"/>
	<polygon class="st6" points="278.18,94.02 278.18,68.75 307.48,94.02 307.48,68.75 	"/>
	<polygon class="st6" points="307.48,94.02 307.48,68.75 336.77,94.02 336.77,68.75 	"/>
	<line class="st6" x1="336.77" y1="94.02" x2="360.03" y2="71.91"/>
	<line class="st6" x1="336.77" y1="68.75" x2="360.03" y2="90.86"/>
	<polyline class="st6" points="382.21,540.55 407.48,564.97 382.21,564.97 407.48,540.55 	"/>
	
		<rect x="373.81" y="566.62" transform="matrix(-1 -4.498103e-11 4.498103e-11 -1 789.1844 1144.6516)" class="st6" width="41.57" height="11.42"/>
	
		<rect x="364.54" y="578.03" transform="matrix(-1 -4.478785e-11 4.478785e-11 -1 789.3998 1171.3608)" class="st6" width="60.31" height="15.29"/>
	
		<rect x="357.65" y="593.33" transform="matrix(-1 -4.484647e-11 4.484647e-11 -1 790.9076 1190.1003)" class="st6" width="75.6" height="3.45"/>
	
		<rect x="374.45" y="107.18" transform="matrix(-1 -4.496415e-11 4.496415e-11 -1 789.3998 217.2254)" class="st6" width="40.49" height="2.87"/>
	
		<rect x="370.04" y="56.99" transform="matrix(-1 -4.488999e-11 4.488999e-11 -1 788.8613 162.7659)" class="st6" width="48.79" height="48.79"/>
	<path class="st6" d="M370.04,56.99c0,0-22.51,42,0,48.79c22.51,6.78,7-35.86,7-35.86L370.04,56.99z"/>
	<polygon class="st6" points="102.42,68.75 69.67,94.02 102.42,94.02 	"/>
	<line class="st6" x1="102.42" y1="94.02" x2="85.14" y2="82.08"/>
	
		<rect x="418.82" y="65.59" transform="matrix(-1 -4.496193e-11 4.496193e-11 -1 892.7902 137.4927)" class="st6" width="55.14" height="6.32"/>
	
		<rect x="418.82" y="90.86" transform="matrix(-1 -4.479718e-11 4.479718e-11 -1 892.7902 188.0391)" class="st6" width="55.14" height="6.32"/>
	
		<rect x="473.97" y="61.08" transform="matrix(-1 -4.492374e-11 4.492374e-11 -1 974.2101 162.4428)" class="st6" width="26.28" height="40.28"/>
	
		<rect x="449.2" y="97.18" transform="matrix(-1 -4.501123e-11 4.501123e-11 -1 919.9302 204.3554)" class="st6" width="21.54" height="10"/>
	<polyline class="st6" points="448.33,71.91 448.55,90.86 473.97,90.86 448.33,71.91 418.82,94.02 418.82,68.75 449.2,94.02 
		473.97,68.75 	"/>
	
		<rect x="141.25" y="97.18" transform="matrix(-1 -4.491886e-11 4.491886e-11 -1 326.1533 207.2274)" class="st6" width="43.65" height="12.87"/>
	
		<rect x="121.15" y="176.68" transform="matrix(-1 -4.486645e-11 4.486645e-11 -1 326.0935 360.2487)" class="st6" width="83.8" height="6.89"/>
	
		<rect x="141.25" y="149.68" transform="matrix(-1 -4.491886e-11 4.491886e-11 -1 326.1533 309.4151)" class="st6" width="43.65" height="10.05"/>
	<polygon class="st6" points="184.9,159.73 141.25,159.73 163.08,168.64 	"/>
	<path class="st6" d="M163.08,168.64l41.87,8.04L163.08,168.64z"/>
	<line class="st6" x1="121.15" y1="177.18" x2="163.08" y2="168.64"/>
	<polyline class="st6" points="148.07,149.68 148.07,110.05 178.66,110.05 178.66,149.68 	"/>
</g>
</svg>
