<?xml version="1.0" encoding="utf-8"?>
<!-- Generator: Adobe Illustrator 23.0.1, SVG Export Plug-In . SVG Version: 6.00 Build 0)  -->
<svg version="1.1" id="Warstwa_1" xmlns="http://www.w3.org/2000/svg" xmlns:xlink="http://www.w3.org/1999/xlink" x="0px" y="0px"
	 viewBox="0 0 146.64 139.15" style="enable-background:new 0 0 146.64 139.15;" xml:space="preserve">
<style type="text/css">
	.st0{fill:#E2CFC3;stroke:#CB6333;stroke-width:3;stroke-miterlimit:10;}
	.st1{fill:#F59037;}
	.st2{fill:#231F20;}
	.st3{fill:#F37B2C;}
</style>
<path class="st0" d="M112.38,136.04h-77.2c-17.11,0-30.97-13.86-30.97-30.97V34.6c0-17.11,13.86-30.97,30.97-30.97h77.19
	c17.11,0,30.97,13.86,30.97,30.97v70.48C143.34,122.18,129.48,136.04,112.38,136.04z"/>
<path class="st1" d="M12.78,18.28h1.08v3.43h1.89v0.8h-2.97V18.28z"/>
<path class="st1" d="M17.58,19.28h-0.01l-0.87,0.37l-0.18-0.72l1.21-0.5h0.89v4.08h-1.04C17.58,22.51,17.58,19.28,17.58,19.28z"/>
<path class="st2" d="M23.31,20.54v0.64h-1.85v-0.64H23.31z"/>
<path class="st2" d="M25.41,18.34c0.35-0.05,0.86-0.09,1.43-0.09c0.7,0,1.2,0.09,1.54,0.33c0.28,0.2,0.44,0.5,0.44,0.89
	c0,0.54-0.43,0.91-0.84,1.04v0.02c0.33,0.12,0.51,0.4,0.63,0.79c0.15,0.48,0.3,1.03,0.39,1.19h-1.1c-0.08-0.13-0.19-0.46-0.33-0.98
	c-0.13-0.53-0.33-0.67-0.77-0.68h-0.32v1.66h-1.07V18.34z M26.48,20.16h0.42c0.54,0,0.85-0.24,0.85-0.61c0-0.39-0.3-0.58-0.79-0.59
	c-0.26,0-0.41,0.02-0.49,0.03v1.17H26.48z"/>
<path class="st2" d="M32.96,20.94c0,1.12-0.9,1.64-1.82,1.64c-1.01,0-1.78-0.59-1.78-1.58s0.73-1.63,1.84-1.63
	C32.26,19.37,32.96,20.02,32.96,20.94z M30.46,20.97c0,0.53,0.25,0.92,0.7,0.92c0.42,0,0.68-0.37,0.68-0.92
	c0-0.46-0.2-0.92-0.68-0.92C30.65,20.05,30.46,20.52,30.46,20.97z"/>
<path class="st2" d="M36.23,22.43c-0.19,0.08-0.55,0.14-0.96,0.14c-1.11,0-1.83-0.61-1.83-1.57c0-0.9,0.69-1.63,1.97-1.63
	c0.28,0,0.59,0.04,0.82,0.12l-0.17,0.71c-0.13-0.05-0.32-0.09-0.6-0.09c-0.56,0-0.93,0.36-0.92,0.86c0,0.56,0.42,0.86,0.94,0.86
	c0.25,0,0.45-0.04,0.61-0.1L36.23,22.43z"/>
<path class="st2" d="M37.89,20.73L37.89,20.73c0.09-0.13,0.17-0.25,0.26-0.37l0.7-0.92h1.29l-1.23,1.24l1.41,1.83H39l-0.83-1.26
	l-0.28,0.3v0.96h-1.07v-4.45h1.07V20.73z"/>
<path class="st2" d="M41.4,19.44l0.28,1.25c0.07,0.31,0.14,0.66,0.2,1.01h0.01c0.07-0.35,0.17-0.7,0.25-1l0.37-1.26h0.85l0.35,1.22
	c0.09,0.35,0.18,0.69,0.25,1.04h0.01c0.05-0.35,0.12-0.7,0.2-1.05l0.3-1.22h1.05l-1.06,3.07h-1.01l-0.32-1.08
	c-0.08-0.3-0.15-0.57-0.22-0.95H42.9c-0.06,0.38-0.13,0.67-0.23,0.95l-0.35,1.08h-1.01l-1-3.07L41.4,19.44L41.4,19.44z"/>
<path class="st2" d="M46.73,21.28c0.03,0.4,0.47,0.58,0.97,0.58c0.37,0,0.66-0.04,0.95-0.13l0.14,0.65
	c-0.35,0.13-0.78,0.19-1.25,0.19c-1.17,0-1.84-0.61-1.84-1.57c0-0.78,0.54-1.64,1.74-1.64c1.11,0,1.54,0.77,1.54,1.53
	c0,0.16-0.02,0.31-0.03,0.38L46.73,21.28L46.73,21.28z M47.99,20.63c0-0.23-0.11-0.62-0.61-0.62c-0.45,0-0.63,0.36-0.66,0.62H47.99z
	"/>
<path class="st2" d="M49.62,18.05h1.07v4.45h-1.07V18.05z"/>
<path class="st2" d="M51.56,18.05h1.07v4.45h-1.07V18.05z"/>
<path class="st2" d="M56.06,21.42l-0.34,1.09h-1.11l1.45-4.23h1.41l1.47,4.23h-1.16l-0.37-1.09H56.06z M57.27,20.71l-0.3-0.9
	c-0.08-0.25-0.17-0.56-0.24-0.82h-0.01c-0.07,0.25-0.14,0.57-0.22,0.82l-0.28,0.9H57.27z"/>
<path class="st2" d="M62.69,21.52c0,0.4,0.01,0.73,0.03,0.98h-0.93l-0.05-0.43h-0.02c-0.13,0.19-0.46,0.5-1.08,0.5
	c-0.7,0-1.21-0.39-1.21-1.34v-1.8h1.08v1.65c0,0.45,0.16,0.72,0.54,0.72c0.3,0,0.47-0.18,0.54-0.33c0.03-0.06,0.03-0.13,0.03-0.21
	v-1.83h1.08v2.09H62.69z"/>
<path class="st2" d="M64.75,18.61v0.83h0.77v0.7h-0.77v1.11c0,0.37,0.1,0.54,0.42,0.54c0.15,0,0.21-0.01,0.32-0.02l0.01,0.72
	c-0.14,0.05-0.39,0.09-0.7,0.09c-0.35,0-0.63-0.11-0.8-0.27c-0.2-0.18-0.3-0.48-0.3-0.91v-1.26h-0.46v-0.7h0.46v-0.58L64.75,18.61z"
	/>
<path class="st2" d="M69.5,20.94c0,1.12-0.9,1.64-1.82,1.64c-1.01,0-1.78-0.59-1.78-1.58s0.73-1.63,1.84-1.63
	C68.8,19.37,69.5,20.02,69.5,20.94z M67.01,20.97c0,0.53,0.25,0.92,0.7,0.92c0.42,0,0.68-0.37,0.68-0.92c0-0.46-0.2-0.92-0.68-0.92
	C67.2,20.05,67.01,20.52,67.01,20.97z"/>
<path class="st2" d="M70.16,20.42c0-0.38-0.01-0.71-0.03-0.98h0.9l0.05,0.41h0.02c0.15-0.19,0.45-0.48,1.04-0.48
	c0.44,0,0.8,0.2,0.95,0.52h0.01c0.13-0.16,0.28-0.28,0.44-0.37c0.19-0.1,0.4-0.15,0.66-0.15c0.66,0,1.16,0.41,1.16,1.33v1.81h-1.04
	v-1.67c0-0.45-0.16-0.7-0.51-0.7c-0.25,0-0.42,0.15-0.49,0.33c-0.03,0.07-0.04,0.17-0.04,0.24v1.79h-1.04v-1.72
	c0-0.39-0.15-0.65-0.49-0.65c-0.28,0-0.44,0.19-0.5,0.34c-0.03,0.08-0.04,0.16-0.04,0.24v1.79h-1.04v-2.08H70.16z"/>
<path class="st2" d="M79.1,21.76c0,0.29,0.01,0.58,0.05,0.75h-0.97l-0.06-0.31H78.1c-0.23,0.24-0.58,0.38-0.99,0.38
	c-0.7,0-1.11-0.45-1.11-0.94c0-0.8,0.8-1.18,2.02-1.17v-0.04c0-0.16-0.1-0.4-0.63-0.4c-0.35,0-0.73,0.11-0.95,0.23l-0.2-0.61
	c0.24-0.12,0.71-0.27,1.34-0.27c1.15,0,1.52,0.6,1.52,1.32V21.76z M78.06,21.06c-0.56-0.01-1,0.11-1,0.48
	c0,0.24,0.18,0.36,0.42,0.36c0.27,0,0.49-0.16,0.56-0.35c0.01-0.05,0.02-0.11,0.02-0.16C78.06,21.39,78.06,21.06,78.06,21.06z"/>
<path class="st2" d="M81.09,18.61v0.83h0.77v0.7h-0.77v1.11c0,0.37,0.1,0.54,0.42,0.54c0.15,0,0.21-0.01,0.32-0.02l0.01,0.72
	c-0.14,0.05-0.39,0.09-0.7,0.09c-0.35,0-0.63-0.11-0.8-0.27c-0.2-0.18-0.3-0.48-0.3-0.91v-1.26h-0.46v-0.7h0.46v-0.58L81.09,18.61z"
	/>
<path class="st2" d="M83.58,18.59c0,0.26-0.23,0.48-0.58,0.48c-0.34,0-0.57-0.21-0.56-0.48c-0.01-0.28,0.22-0.48,0.56-0.48
	C83.36,18.1,83.58,18.31,83.58,18.59z M82.48,22.51v-3.07h1.07v3.07H82.48z"/>
<path class="st2" d="M87.81,20.94c0,1.12-0.9,1.64-1.82,1.64c-1.01,0-1.78-0.59-1.78-1.58s0.73-1.63,1.84-1.63
	C87.11,19.37,87.81,20.02,87.81,20.94z M85.32,20.97c0,0.53,0.25,0.92,0.7,0.92c0.42,0,0.68-0.37,0.68-0.92
	c0-0.46-0.2-0.92-0.68-0.92C85.51,20.05,85.32,20.52,85.32,20.97z"/>
<path class="st2" d="M88.47,20.42c0-0.38-0.01-0.71-0.03-0.98h0.93l0.05,0.42h0.02c0.14-0.19,0.49-0.49,1.07-0.49
	c0.7,0,1.23,0.41,1.23,1.32v1.82h-1.07v-1.7c0-0.39-0.15-0.66-0.54-0.66c-0.3,0-0.47,0.18-0.54,0.36c-0.03,0.06-0.04,0.15-0.04,0.24
	v1.77h-1.07v-2.1H88.47z"/>
<path class="st1" d="M12.78,25.8h1.08v3.43h1.89v0.8h-2.97V25.8z"/>
<path class="st1" d="M16.22,30.03v-0.58l0.59-0.48c1-0.8,1.49-1.25,1.5-1.73c0-0.33-0.23-0.6-0.75-0.6c-0.4,0-0.74,0.18-0.98,0.34
	l-0.3-0.68c0.35-0.23,0.88-0.42,1.5-0.42c1.04,0,1.61,0.54,1.61,1.28c0,0.68-0.56,1.23-1.22,1.76l-0.42,0.31v0.01h1.73v0.78
	L16.22,30.03L16.22,30.03z"/>
<path class="st2" d="M23.31,28.06v0.64h-1.85v-0.64H23.31z"/>
<g>
	<path class="st2" d="M25.41,25.86c0.28-0.05,0.85-0.09,1.39-0.09c0.66,0,1.06,0.06,1.4,0.24c0.33,0.16,0.57,0.45,0.57,0.83
		s-0.25,0.73-0.78,0.9v0.01c0.54,0.13,0.94,0.5,0.94,1.04c0,0.38-0.2,0.68-0.49,0.9c-0.35,0.24-0.92,0.38-1.87,0.38
		c-0.53,0-0.92-0.03-1.16-0.06C25.41,30.01,25.41,25.86,25.41,25.86z M26.48,27.48h0.35c0.56,0,0.87-0.21,0.87-0.52
		c0-0.32-0.27-0.49-0.76-0.49c-0.23,0-0.37,0.01-0.46,0.03C26.48,26.5,26.48,27.48,26.48,27.48z M26.48,29.35
		c0.1,0.01,0.23,0.01,0.42,0.01c0.49,0,0.92-0.17,0.92-0.61c0-0.43-0.43-0.6-0.97-0.6h-0.37V29.35z"/>
	<path class="st2" d="M33.08,28.46c0,1.12-0.9,1.64-1.82,1.64c-1.01,0-1.78-0.59-1.78-1.58s0.73-1.63,1.84-1.63
		C32.37,26.9,33.08,27.54,33.08,28.46z M30.58,28.5c0,0.53,0.25,0.92,0.7,0.92c0.42,0,0.68-0.37,0.68-0.92
		c0-0.46-0.2-0.92-0.68-0.92C30.77,27.57,30.58,28.04,30.58,28.5z"/>
	<path class="st2" d="M33.74,27.97c0-0.45-0.01-0.75-0.03-1.01h0.92l0.03,0.56h0.03c0.18-0.45,0.6-0.63,0.93-0.63
		c0.1,0,0.15,0,0.23,0.01v0.9c-0.08-0.02-0.17-0.03-0.29-0.03c-0.39,0-0.66,0.19-0.73,0.48c-0.01,0.06-0.02,0.14-0.02,0.21v1.56
		h-1.07C33.74,30.02,33.74,27.97,33.74,27.97z"/>
	<path class="st2" d="M39.63,29.59c0,0.59-0.13,1.07-0.52,1.38c-0.38,0.29-0.9,0.38-1.4,0.38c-0.45,0-0.93-0.08-1.24-0.24l0.21-0.72
		c0.22,0.11,0.6,0.23,1,0.23c0.51,0,0.9-0.24,0.9-0.81v-0.2h-0.01c-0.2,0.26-0.54,0.4-0.93,0.4c-0.85,0-1.46-0.61-1.46-1.5
		c0-0.98,0.72-1.61,1.57-1.61c0.47,0,0.77,0.18,0.94,0.43h0.01l0.04-0.36h0.93c-0.01,0.19-0.03,0.45-0.03,0.91L39.63,29.59
		L39.63,29.59z M38.55,28.21c0-0.06-0.01-0.13-0.02-0.18c-0.08-0.25-0.28-0.42-0.58-0.42c-0.39,0-0.7,0.31-0.7,0.87
		c0,0.46,0.25,0.82,0.7,0.82c0.27,0,0.49-0.16,0.56-0.39c0.03-0.07,0.03-0.17,0.03-0.25v-0.45H38.55z"/>
	<path class="st2" d="M41.22,26.96l0.28,1.25c0.07,0.31,0.14,0.66,0.2,1.01h0.01c0.07-0.35,0.17-0.7,0.25-1l0.37-1.26h0.85
		l0.35,1.22c0.09,0.35,0.18,0.69,0.25,1.04h0.01c0.05-0.35,0.12-0.7,0.2-1.05l0.3-1.22h1.05l-1.06,3.07h-1.01l-0.32-1.08
		c-0.08-0.3-0.15-0.57-0.22-0.95h-0.01c-0.06,0.38-0.13,0.67-0.23,0.95l-0.35,1.08h-1.01l-1-3.07h1.09V26.96z"/>
	<path class="st2" d="M48.66,29.29c0,0.29,0.01,0.58,0.05,0.75h-0.97l-0.06-0.31h-0.02c-0.23,0.24-0.58,0.38-0.99,0.38
		c-0.7,0-1.11-0.45-1.11-0.94c0-0.8,0.8-1.18,2.02-1.17v-0.04c0-0.16-0.1-0.4-0.63-0.4c-0.35,0-0.73,0.11-0.95,0.23l-0.2-0.61
		c0.24-0.12,0.71-0.27,1.34-0.27c1.15,0,1.52,0.6,1.52,1.32C48.66,28.23,48.66,29.29,48.66,29.29z M47.62,28.58
		c-0.56-0.01-1,0.11-1,0.48c0,0.24,0.18,0.36,0.42,0.36c0.27,0,0.49-0.16,0.56-0.35c0.01-0.05,0.02-0.11,0.02-0.16V28.58z"/>
	<path class="st2" d="M49.5,27.97c0-0.45-0.01-0.75-0.03-1.01h0.92l0.03,0.56h0.03c0.18-0.45,0.6-0.63,0.93-0.63
		c0.1,0,0.15,0,0.23,0.01v0.9c-0.08-0.02-0.17-0.03-0.29-0.03c-0.4,0-0.66,0.19-0.73,0.48c-0.01,0.06-0.02,0.14-0.02,0.21v1.56H49.5
		V27.97z"/>
	<path class="st2" d="M52.18,27.94c0-0.38-0.01-0.71-0.03-0.98h0.93l0.05,0.42h0.02c0.14-0.19,0.49-0.49,1.07-0.49
		c0.7,0,1.23,0.41,1.23,1.32v1.82h-1.07v-1.7c0-0.39-0.15-0.66-0.54-0.66c-0.3,0-0.47,0.18-0.54,0.36
		c-0.03,0.06-0.04,0.15-0.04,0.24v1.77h-1.07L52.18,27.94L52.18,27.94z"/>
	<path class="st2" d="M57.13,28.8c0.03,0.4,0.47,0.58,0.97,0.58c0.37,0,0.66-0.04,0.95-0.13l0.14,0.65
		c-0.35,0.13-0.78,0.19-1.25,0.19c-1.17,0-1.84-0.61-1.84-1.57c0-0.78,0.54-1.64,1.74-1.64c1.11,0,1.54,0.77,1.54,1.53
		c0,0.16-0.02,0.31-0.03,0.38L57.13,28.8L57.13,28.8z M58.4,28.15c0-0.23-0.11-0.62-0.61-0.62c-0.45,0-0.63,0.36-0.66,0.62H58.4z"/>
	<path class="st2" d="M60.03,27.97c0-0.45-0.01-0.75-0.03-1.01h0.92l0.03,0.56h0.03c0.18-0.45,0.6-0.63,0.93-0.63
		c0.1,0,0.15,0,0.23,0.01v0.9c-0.08-0.02-0.17-0.03-0.29-0.03c-0.4,0-0.66,0.19-0.73,0.48c-0.01,0.06-0.02,0.14-0.02,0.21v1.56
		h-1.07C60.03,30.02,60.03,27.97,60.03,27.97z"/>
	<path class="st2" d="M68.19,28.41c-0.02-0.51-0.04-1.12-0.04-1.74h-0.02c-0.15,0.54-0.35,1.14-0.53,1.64l-0.58,1.65h-0.84
		l-0.51-1.63c-0.15-0.5-0.32-1.1-0.43-1.66h-0.01c-0.03,0.57-0.05,1.22-0.08,1.75l-0.08,1.61h-0.99l0.3-4.23h1.43l0.47,1.41
		c0.15,0.48,0.3,1.02,0.4,1.51h0.02c0.13-0.49,0.3-1.05,0.45-1.52l0.51-1.41h1.4l0.26,4.23h-1.05L68.19,28.41z"/>
	<path class="st2" d="M73.52,28.46c0,1.12-0.9,1.64-1.82,1.64c-1.01,0-1.78-0.59-1.78-1.58s0.73-1.63,1.84-1.63
		C72.81,26.9,73.52,27.54,73.52,28.46z M71.02,28.5c0,0.53,0.25,0.92,0.7,0.92c0.42,0,0.68-0.37,0.68-0.92
		c0-0.46-0.2-0.92-0.68-0.92C71.21,27.57,71.02,28.04,71.02,28.5z"/>
	<path class="st2" d="M74.18,25.58h1.07v1.75h0.01c0.2-0.26,0.56-0.43,1.04-0.43c0.82,0,1.43,0.61,1.42,1.55
		c0,1.1-0.79,1.66-1.58,1.66c-0.4,0-0.79-0.13-1.04-0.5l0,0l-0.04,0.43h-0.91c0.01-0.2,0.03-0.57,0.03-0.92
		C74.18,29.12,74.18,25.58,74.18,25.58z M75.25,28.73c0,0.06,0.01,0.12,0.02,0.17c0.07,0.26,0.32,0.45,0.63,0.45
		c0.46,0,0.74-0.31,0.74-0.87c0-0.48-0.24-0.85-0.74-0.85c-0.29,0-0.56,0.19-0.63,0.47c-0.01,0.06-0.02,0.11-0.02,0.18V28.73z"/>
	<path class="st2" d="M79.5,26.11c0,0.26-0.23,0.48-0.58,0.48c-0.34,0-0.57-0.21-0.56-0.48c-0.01-0.28,0.22-0.48,0.56-0.48
		C79.27,25.63,79.49,25.84,79.5,26.11z M78.39,30.03v-3.07h1.07v3.07H78.39z"/>
	<path class="st2" d="M80.32,25.58h1.07v4.45h-1.07V25.58z"/>
	<path class="st2" d="M83.37,26.11c0,0.26-0.23,0.48-0.58,0.48c-0.34,0-0.56-0.21-0.56-0.48c-0.01-0.28,0.22-0.48,0.56-0.48
		C83.14,25.63,83.36,25.84,83.37,26.11z M82.26,30.03v-3.07h1.07v3.07H82.26z"/>
	<path class="st2" d="M85.39,26.13v0.83h0.77v0.7h-0.77v1.11c0,0.37,0.1,0.54,0.42,0.54c0.15,0,0.21-0.01,0.32-0.02l0.01,0.72
		c-0.14,0.05-0.39,0.09-0.7,0.09c-0.35,0-0.63-0.11-0.8-0.27c-0.2-0.18-0.3-0.48-0.3-0.91v-1.26h-0.46v-0.7h0.46v-0.58L85.39,26.13z
		"/>
	<path class="st2" d="M87.62,26.96l0.52,1.51c0.06,0.18,0.13,0.41,0.17,0.57h0.02c0.05-0.16,0.11-0.4,0.16-0.57l0.42-1.51h1.15
		l-0.8,2.02c-0.49,1.22-0.82,1.71-1.21,2.01c-0.37,0.29-0.77,0.39-1.04,0.42l-0.23-0.81c0.13-0.02,0.3-0.08,0.47-0.16
		c0.16-0.08,0.34-0.23,0.44-0.38c0.03-0.04,0.06-0.09,0.06-0.14c0-0.03-0.01-0.08-0.05-0.16l-1.26-2.8
		C86.44,26.96,87.62,26.96,87.62,26.96z"/>
</g>
<path class="st1" d="M12.78,33.33h1.08v3.43h1.89v0.8h-2.97V33.33z"/>
<path class="st1" d="M16.41,36.62c0.19,0.09,0.63,0.25,1.07,0.25c0.56,0,0.84-0.24,0.84-0.55c0-0.4-0.45-0.58-0.92-0.58h-0.44v-0.68
	h0.42c0.36-0.01,0.82-0.13,0.82-0.47c0-0.24-0.23-0.43-0.68-0.43c-0.37,0-0.77,0.14-0.96,0.24l-0.22-0.69
	c0.27-0.16,0.82-0.31,1.42-0.31c0.98,0,1.52,0.46,1.52,1.02c0,0.43-0.28,0.77-0.84,0.95v0.01c0.55,0.09,0.99,0.46,0.99,0.99
	c0,0.72-0.71,1.25-1.88,1.25c-0.59,0-1.09-0.14-1.36-0.29L16.41,36.62z"/>
<path class="st2" d="M23.31,35.59v0.64h-1.85v-0.64H23.31z"/>
<path class="st1" d="M12.78,40.85h1.08v3.43h1.89v0.8h-2.97V40.85z"/>
<path class="st1" d="M18.11,45.08v-0.97h-2.03v-0.62L17.82,41h1.31v2.39h0.55v0.71h-0.55v0.97h-1.02V45.08z M18.11,43.39v-0.9
	c0-0.24,0.01-0.5,0.04-0.76h-0.03c-0.15,0.26-0.27,0.5-0.42,0.76l-0.61,0.89v0.01C17.09,43.39,18.11,43.39,18.11,43.39z"/>
<path class="st2" d="M23.31,43.11v0.64h-1.85v-0.64H23.31z"/>
<path class="st2" d="M26.48,40.85v2.43c0,0.73,0.31,1.1,0.86,1.1c0.56,0,0.87-0.35,0.87-1.1v-2.43h1.07v2.37
	c0,1.3-0.74,1.93-1.98,1.93c-1.2,0-1.9-0.59-1.9-1.94v-2.36H26.48z"/>
<path class="st2" d="M30.18,42.99c0-0.38-0.01-0.71-0.03-0.98h0.93l0.05,0.42h0.02c0.14-0.19,0.49-0.49,1.07-0.49
	c0.7,0,1.23,0.41,1.23,1.32v1.82h-1.07v-1.7c0-0.39-0.15-0.66-0.54-0.66c-0.3,0-0.47,0.18-0.54,0.36c-0.03,0.06-0.04,0.15-0.04,0.24
	v1.77h-1.07L30.18,42.99L30.18,42.99z"/>
<path class="st2" d="M35.42,41.16c0,0.26-0.23,0.48-0.58,0.48c-0.34,0-0.56-0.21-0.56-0.48c-0.01-0.28,0.22-0.48,0.56-0.48
	S35.41,40.88,35.42,41.16z M34.31,45.08v-3.07h1.07v3.07H34.31z"/>
<path class="st2" d="M37.44,41.18v0.83h0.77v0.7h-0.77v1.11c0,0.37,0.1,0.54,0.42,0.54c0.15,0,0.21-0.01,0.32-0.02l0.01,0.72
	c-0.14,0.05-0.39,0.09-0.7,0.09c-0.35,0-0.63-0.11-0.8-0.27c-0.2-0.18-0.3-0.48-0.3-0.91v-1.26h-0.46v-0.7h0.46v-0.58L37.44,41.18z"
	/>
<path class="st2" d="M29.85,50.4c-0.44-0.2-0.66-0.53-0.66-0.89c0-0.69,0.7-1.15,1.62-1.15c1.07,0,1.52,0.55,1.52,1.05
	c0,0.35-0.21,0.7-0.66,0.9v0.02c0.44,0.15,0.84,0.49,0.84,1.02c0,0.74-0.7,1.24-1.76,1.24c-1.16,0-1.7-0.58-1.7-1.14
	c0-0.49,0.32-0.83,0.82-1.02V50.4H29.85z M31.41,51.41c0-0.36-0.3-0.57-0.72-0.67c-0.35,0.09-0.56,0.31-0.56,0.61
	c-0.01,0.29,0.25,0.57,0.65,0.57C31.17,51.92,31.41,51.7,31.41,51.41z M30.21,49.48c0,0.28,0.28,0.45,0.65,0.55
	c0.25-0.06,0.47-0.26,0.47-0.52c0-0.25-0.16-0.5-0.56-0.5C30.4,49.01,30.21,49.22,30.21,49.48z"/>
<path class="st2" d="M39.91,43.04c-0.44-0.2-0.66-0.53-0.66-0.89c0-0.69,0.7-1.15,1.62-1.15c1.07,0,1.52,0.55,1.52,1.05
	c0,0.35-0.21,0.7-0.66,0.9v0.02c0.44,0.15,0.84,0.49,0.84,1.02c0,0.74-0.7,1.24-1.76,1.24c-1.16,0-1.7-0.58-1.7-1.14
	c0-0.49,0.32-0.83,0.82-1.02v-0.03H39.91z M41.46,44.05c0-0.36-0.3-0.57-0.72-0.67c-0.35,0.09-0.56,0.31-0.56,0.61
	c-0.01,0.29,0.25,0.57,0.65,0.57C41.22,44.56,41.46,44.34,41.46,44.05z M40.26,42.12c0,0.28,0.28,0.45,0.65,0.55
	c0.25-0.06,0.47-0.26,0.47-0.52c0-0.25-0.16-0.5-0.56-0.5C40.45,41.65,40.26,41.86,40.26,42.12z"/>
<path class="st1" d="M12.78,48.37h1.08v3.43h1.89v0.8h-2.97V48.37z"/>
<path class="st1" d="M19.28,49.31H17.5l-0.1,0.63c0.1-0.01,0.18-0.01,0.3-0.01c0.44,0,0.88,0.09,1.21,0.29
	c0.35,0.21,0.56,0.55,0.56,1.02c0,0.76-0.73,1.43-1.97,1.43c-0.56,0-1.02-0.11-1.28-0.23l0.19-0.72c0.2,0.09,0.62,0.2,1.04,0.2
	c0.44,0,0.92-0.19,0.92-0.62c0-0.42-0.37-0.68-1.29-0.68c-0.25,0-0.43,0.01-0.62,0.04l0.3-2.14h2.53v0.79H19.28z"/>
<path class="st2" d="M23.31,50.63v0.64h-1.85v-0.64H23.31z"/>
<path class="st2" d="M28.24,50.81h-1.75v1h1.95v0.78h-3.03v-4.23h2.93v0.78h-1.85v0.88h1.75V50.81z"/>
<path class="st2" d="M41.66,52.41c-0.33,0.1-0.96,0.24-1.59,0.24c-0.87,0-1.49-0.19-1.93-0.57c-0.44-0.36-0.68-0.92-0.67-1.54
	c0.01-1.4,1.16-2.21,2.71-2.21c0.61,0,1.09,0.11,1.32,0.21l-0.23,0.77c-0.26-0.1-0.59-0.18-1.11-0.18c-0.9,0-1.57,0.45-1.57,1.37
	c0,0.87,0.61,1.39,1.49,1.39c0.25,0,0.44-0.03,0.53-0.06v-0.88h-0.73V50.2h1.77L41.66,52.41L41.66,52.41z"/>
<path class="st2" d="M42.48,50.54c0-0.45-0.01-0.75-0.03-1.01h0.92l0.03,0.56h0.03c0.18-0.45,0.6-0.63,0.93-0.63
	c0.1,0,0.15,0,0.23,0.01v0.9c-0.08-0.02-0.17-0.03-0.29-0.03c-0.39,0-0.66,0.19-0.73,0.48c-0.01,0.06-0.02,0.14-0.02,0.21v1.56
	h-1.07C42.48,52.59,42.48,50.54,42.48,50.54z"/>
<path class="st2" d="M48.51,51.03c0,1.12-0.9,1.64-1.82,1.64c-1.01,0-1.78-0.59-1.78-1.58s0.73-1.63,1.84-1.63
	C47.8,49.47,48.51,50.11,48.51,51.03z M46.01,51.07c0,0.53,0.25,0.92,0.7,0.92c0.42,0,0.68-0.37,0.68-0.92
	c0-0.46-0.2-0.92-0.68-0.92C46.2,50.14,46.01,50.61,46.01,51.07z"/>
<path class="st2" d="M52.42,51.62c0,0.4,0.01,0.73,0.03,0.98h-0.93l-0.05-0.43h-0.02c-0.13,0.19-0.46,0.5-1.08,0.5
	c-0.7,0-1.21-0.39-1.21-1.34v-1.8h1.08v1.65c0,0.45,0.16,0.72,0.54,0.72c0.3,0,0.47-0.18,0.54-0.33c0.03-0.06,0.03-0.13,0.03-0.21
	v-1.83h1.08v2.09H52.42z"/>
<path class="st2" d="M53.27,50.56c0-0.4-0.01-0.75-0.03-1.03h0.93l0.05,0.43h0.01c0.25-0.33,0.65-0.5,1.15-0.5
	c0.75,0,1.43,0.58,1.43,1.56c0,1.12-0.8,1.64-1.57,1.64c-0.42,0-0.74-0.15-0.9-0.35h-0.01v1.52h-1.07L53.27,50.56L53.27,50.56z
	 M54.35,51.28c0,0.08,0.01,0.14,0.02,0.2c0.07,0.26,0.32,0.45,0.63,0.45c0.47,0,0.74-0.35,0.74-0.87c0-0.49-0.25-0.86-0.73-0.86
	c-0.3,0-0.57,0.2-0.64,0.48c-0.01,0.05-0.02,0.11-0.02,0.17C54.35,50.85,54.35,51.28,54.35,51.28z"/>
<path class="st1" d="M12.78,55.9h1.08v3.43h1.89v0.8h-2.97V55.9z"/>
<path class="st1" d="M19.14,56.72c-0.12,0-0.25,0-0.42,0.01c-0.95,0.07-1.37,0.5-1.49,0.98h0.02c0.23-0.21,0.54-0.33,0.97-0.33
	c0.77,0,1.42,0.48,1.42,1.33c0,0.81-0.7,1.47-1.69,1.47c-1.22,0-1.82-0.81-1.82-1.78c0-0.77,0.32-1.4,0.81-1.81
	c0.46-0.37,1.05-0.57,1.77-0.6c0.2-0.01,0.32-0.01,0.43-0.01V56.72z M17.94,59.49c0.37,0,0.61-0.31,0.61-0.72
	c0-0.38-0.23-0.7-0.68-0.7c-0.29,0-0.53,0.16-0.63,0.36c-0.03,0.05-0.04,0.13-0.04,0.24C17.22,59.1,17.45,59.49,17.94,59.49
	L17.94,59.49z"/>
<path class="st2" d="M23.31,58.15v0.64h-1.85v-0.64H23.31z"/>
<path class="st2" d="M25.41,55.95c0.4-0.06,0.91-0.09,1.45-0.09c0.9,0,1.49,0.14,1.95,0.45c0.49,0.33,0.8,0.85,0.8,1.59
	c0,0.81-0.33,1.37-0.79,1.71c-0.5,0.37-1.26,0.55-2.19,0.55c-0.56,0-0.95-0.03-1.22-0.06V55.95z M26.49,59.4
	c0.09,0.02,0.24,0.02,0.37,0.02c0.97,0.01,1.61-0.47,1.61-1.48c0.01-0.88-0.57-1.34-1.49-1.34c-0.24,0-0.4,0.02-0.49,0.04
	C26.49,56.64,26.49,59.4,26.49,59.4z"/>
<path class="st2" d="M33.16,59.38c0,0.29,0.01,0.58,0.05,0.75h-0.97l-0.06-0.31h-0.02c-0.23,0.24-0.58,0.38-0.99,0.38
	c-0.7,0-1.11-0.45-1.11-0.94c0-0.8,0.8-1.18,2.02-1.17v-0.04c0-0.16-0.1-0.4-0.63-0.4c-0.35,0-0.73,0.11-0.95,0.23l-0.2-0.61
	c0.24-0.12,0.71-0.27,1.34-0.27c1.15,0,1.52,0.6,1.52,1.32C33.16,58.32,33.16,59.38,33.16,59.38z M32.11,58.68
	c-0.56-0.01-1,0.11-1,0.48c0,0.24,0.18,0.36,0.42,0.36c0.27,0,0.49-0.16,0.56-0.35c0.01-0.05,0.02-0.11,0.02-0.16V58.68z"/>
<path class="st2" d="M33.99,59.29c0.2,0.11,0.61,0.23,0.92,0.23c0.32,0,0.46-0.1,0.46-0.26s-0.11-0.23-0.51-0.35
	c-0.71-0.21-0.99-0.56-0.98-0.92c0-0.58,0.55-1.01,1.4-1.01c0.4,0,0.76,0.08,0.97,0.18l-0.19,0.66c-0.15-0.08-0.45-0.18-0.75-0.18
	c-0.26,0-0.41,0.09-0.41,0.25c0,0.14,0.13,0.22,0.56,0.35c0.66,0.2,0.93,0.5,0.94,0.95c0,0.57-0.51,1-1.49,1
	c-0.45,0-0.85-0.09-1.11-0.22L33.99,59.29z"/>
<path class="st2" d="M37.05,59.29c0.2,0.11,0.61,0.23,0.92,0.23c0.32,0,0.46-0.1,0.46-0.26s-0.11-0.23-0.51-0.35
	c-0.71-0.21-0.99-0.56-0.98-0.92c0-0.58,0.55-1.01,1.4-1.01c0.4,0,0.76,0.08,0.97,0.18l-0.19,0.66c-0.15-0.08-0.45-0.18-0.75-0.18
	c-0.26,0-0.41,0.09-0.41,0.25c0,0.14,0.13,0.22,0.56,0.35c0.66,0.2,0.93,0.5,0.94,0.95c0,0.57-0.51,1-1.49,1
	c-0.45,0-0.85-0.09-1.11-0.22L37.05,59.29z"/>
<path class="st2" d="M42.99,59.38c0,0.29,0.01,0.58,0.05,0.75h-0.97l-0.06-0.31h-0.02c-0.23,0.24-0.58,0.38-0.99,0.38
	c-0.7,0-1.11-0.45-1.11-0.94c0-0.8,0.8-1.18,2.02-1.17v-0.04c0-0.16-0.1-0.4-0.63-0.4c-0.35,0-0.73,0.11-0.95,0.23l-0.2-0.61
	c0.24-0.12,0.71-0.27,1.34-0.27c1.15,0,1.52,0.6,1.52,1.32C42.99,58.32,42.99,59.38,42.99,59.38z M41.95,58.68
	c-0.56-0.01-1,0.11-1,0.48c0,0.24,0.18,0.36,0.42,0.36c0.27,0,0.49-0.16,0.56-0.35c0.01-0.05,0.02-0.11,0.02-0.16V58.68z"/>
<path class="st2" d="M47.09,59.14c0,0.4,0.01,0.73,0.03,0.98h-0.93l-0.05-0.43h-0.02c-0.13,0.19-0.46,0.5-1.08,0.5
	c-0.7,0-1.21-0.39-1.21-1.34v-1.8h1.08v1.65c0,0.45,0.16,0.72,0.54,0.72c0.3,0,0.47-0.18,0.54-0.33c0.03-0.06,0.03-0.13,0.03-0.21
	v-1.83h1.08v2.09H47.09z"/>
<path class="st2" d="M47.95,55.67h1.07v4.45h-1.07V55.67z"/>
<path class="st2" d="M51.08,56.22v0.83h0.77v0.7h-0.77v1.11c0,0.37,0.1,0.54,0.42,0.54c0.15,0,0.21-0.01,0.32-0.02l0.01,0.72
	c-0.14,0.05-0.39,0.09-0.7,0.09c-0.35,0-0.63-0.11-0.8-0.27c-0.2-0.18-0.3-0.48-0.3-0.91v-1.26h-0.46v-0.7h0.46v-0.58L51.08,56.22z"
	/>
<path class="st2" d="M53.96,59.14c0.29,0.13,0.73,0.26,1.19,0.26c0.49,0,0.75-0.18,0.75-0.46c0-0.26-0.23-0.41-0.8-0.6
	c-0.79-0.24-1.3-0.63-1.3-1.25c0-0.72,0.68-1.27,1.8-1.27c0.54,0,0.93,0.1,1.21,0.21l-0.24,0.77c-0.19-0.08-0.53-0.2-0.99-0.2
	s-0.69,0.19-0.69,0.41c0,0.27,0.27,0.39,0.88,0.6c0.84,0.28,1.23,0.66,1.23,1.26c0,0.71-0.61,1.32-1.92,1.32
	c-0.54,0-1.08-0.13-1.35-0.26L53.96,59.14z"/>
<path class="st2" d="M58.4,57.06l0.52,1.51c0.06,0.18,0.13,0.41,0.17,0.57h0.02c0.05-0.16,0.11-0.4,0.16-0.57l0.42-1.51h1.15
	l-0.8,2.02c-0.49,1.22-0.82,1.71-1.21,2.01c-0.37,0.29-0.77,0.39-1.04,0.42l-0.23-0.81c0.13-0.02,0.3-0.08,0.47-0.16
	c0.16-0.08,0.34-0.23,0.44-0.38c0.03-0.04,0.06-0.09,0.06-0.14c0-0.03-0.01-0.08-0.05-0.16l-1.26-2.8
	C57.22,57.06,58.4,57.06,58.4,57.06z"/>
<path class="st2" d="M61.16,59.29c0.2,0.11,0.61,0.23,0.92,0.23c0.32,0,0.46-0.1,0.46-0.26s-0.11-0.23-0.51-0.35
	c-0.71-0.21-0.99-0.56-0.98-0.92c0-0.58,0.55-1.01,1.4-1.01c0.4,0,0.76,0.08,0.97,0.18l-0.19,0.66c-0.15-0.08-0.45-0.18-0.75-0.18
	c-0.26,0-0.41,0.09-0.41,0.25c0,0.14,0.13,0.22,0.56,0.35c0.66,0.2,0.93,0.5,0.94,0.95c0,0.57-0.51,1-1.49,1
	c-0.45,0-0.85-0.09-1.11-0.22L61.16,59.29z"/>
<path class="st2" d="M65.42,56.22v0.83h0.77v0.7h-0.77v1.11c0,0.37,0.1,0.54,0.42,0.54c0.15,0,0.21-0.01,0.32-0.02l0.01,0.72
	c-0.14,0.05-0.39,0.09-0.7,0.09c-0.35,0-0.63-0.11-0.8-0.27c-0.2-0.18-0.3-0.48-0.3-0.91v-1.26h-0.46v-0.7h0.46v-0.58L65.42,56.22z"
	/>
<path class="st2" d="M67.6,58.89c0.03,0.4,0.47,0.58,0.97,0.58c0.37,0,0.66-0.04,0.95-0.13L69.67,60c-0.35,0.13-0.78,0.19-1.25,0.19
	c-1.17,0-1.84-0.61-1.84-1.57c0-0.78,0.54-1.64,1.74-1.64c1.11,0,1.54,0.77,1.54,1.53c0,0.16-0.02,0.31-0.03,0.38H67.6z
	 M68.86,58.24c0-0.23-0.11-0.62-0.61-0.62c-0.45,0-0.63,0.36-0.66,0.62H68.86z"/>
<path class="st2" d="M70.5,58.04c0-0.38-0.01-0.71-0.03-0.98h0.9l0.05,0.41h0.02c0.15-0.19,0.45-0.48,1.04-0.48
	c0.44,0,0.8,0.2,0.95,0.52h0.01c0.13-0.16,0.28-0.28,0.44-0.37c0.19-0.1,0.4-0.15,0.66-0.15c0.66,0,1.16,0.41,1.16,1.33v1.81h-1.04
	v-1.67c0-0.45-0.16-0.7-0.51-0.7c-0.25,0-0.42,0.15-0.49,0.33c-0.03,0.07-0.04,0.17-0.04,0.24v1.79h-1.04V58.4
	c0-0.39-0.15-0.65-0.49-0.65c-0.28,0-0.44,0.19-0.5,0.34c-0.03,0.08-0.04,0.16-0.04,0.24v1.79H70.5V58.04z"/>
<path class="st2" d="M76.55,59.29c0.2,0.11,0.61,0.23,0.92,0.23c0.32,0,0.46-0.1,0.46-0.26s-0.11-0.23-0.51-0.35
	c-0.71-0.21-0.99-0.56-0.98-0.92c0-0.58,0.55-1.01,1.4-1.01c0.4,0,0.76,0.08,0.97,0.18l-0.19,0.66c-0.15-0.08-0.45-0.18-0.75-0.18
	c-0.26,0-0.41,0.09-0.41,0.25c0,0.14,0.13,0.22,0.56,0.35c0.66,0.2,0.93,0.5,0.94,0.95c0,0.57-0.51,1-1.49,1
	c-0.45,0-0.85-0.09-1.11-0.22L76.55,59.29z"/>
<path class="st1" d="M12.78,63.42h1.08v3.43h1.89v0.8h-2.97V63.42z"/>
<path class="st1" d="M19.5,63.57v0.6l-1.89,3.47h-1.14l1.89-3.28v-0.01h-2.1v-0.78H19.5z"/>
<path class="st2" d="M23.31,65.68v0.64h-1.85v-0.64H23.31z"/>
<path class="st2" d="M26.52,66.56l-0.34,1.09h-1.11l1.45-4.23h1.41l1.47,4.23h-1.16l-0.37-1.09H26.52z M27.72,65.85l-0.3-0.9
	c-0.08-0.25-0.17-0.56-0.24-0.82h-0.01c-0.07,0.25-0.14,0.57-0.22,0.82l-0.28,0.9H27.72z"/>
<path class="st2" d="M30.03,67.65v-4.23h1.26l0.99,1.55c0.28,0.45,0.56,0.97,0.78,1.45h0.02c-0.07-0.56-0.09-1.13-0.09-1.77v-1.23
	h0.99v4.23h-1.13l-1.02-1.63c-0.28-0.45-0.59-1-0.82-1.49l-0.02,0.01c0.03,0.56,0.04,1.15,0.04,1.84v1.27H30.03z"/>
<path class="st2" d="M35.81,64.22h-1.28v-0.8h3.65v0.8h-1.3v3.43H35.8L35.81,64.22L35.81,64.22z"/>
<path class="st3" d="M12.78,70.94h1.08v3.43h1.89v0.8h-2.97V70.94z"/>
<path class="st3" d="M16.96,73.06c-0.44-0.2-0.66-0.53-0.66-0.89c0-0.69,0.7-1.15,1.62-1.15c1.07,0,1.52,0.55,1.52,1.05
	c0,0.35-0.21,0.7-0.66,0.9v0.02c0.44,0.15,0.84,0.49,0.84,1.02c0,0.74-0.7,1.24-1.76,1.24c-1.16,0-1.7-0.58-1.7-1.14
	c0-0.49,0.32-0.83,0.82-1.02v-0.03H16.96z M18.52,74.07c0-0.36-0.3-0.57-0.72-0.67c-0.35,0.09-0.56,0.31-0.56,0.61
	c-0.01,0.29,0.25,0.57,0.65,0.57C18.27,74.58,18.52,74.36,18.52,74.07z M17.31,72.14c0,0.28,0.28,0.45,0.65,0.55
	c0.25-0.06,0.47-0.26,0.47-0.52c0-0.25-0.16-0.5-0.56-0.5C17.5,71.67,17.31,71.88,17.31,72.14z"/>
<path class="st2" d="M23.31,73.2v0.64h-1.85V73.2H23.31z"/>
<path class="st2" d="M28.24,73.38h-1.75v1h1.95v0.78h-3.03v-4.23h2.93v0.78h-1.85v0.88h1.75V73.38z"/>
<path class="st2" d="M29.21,74.19c0.29,0.13,0.73,0.26,1.19,0.26c0.49,0,0.75-0.18,0.75-0.46c0-0.26-0.23-0.41-0.8-0.6
	c-0.79-0.24-1.3-0.63-1.3-1.25c0-0.72,0.68-1.27,1.8-1.27c0.54,0,0.93,0.1,1.21,0.21l-0.24,0.77c-0.19-0.08-0.53-0.2-0.99-0.2
	s-0.69,0.19-0.69,0.41c0,0.27,0.27,0.39,0.88,0.6c0.84,0.28,1.23,0.66,1.23,1.26c0,0.71-0.61,1.32-1.92,1.32
	c-0.54,0-1.08-0.13-1.35-0.26L29.21,74.19z"/>
<path class="st2" d="M35.81,73.38h-1.75v1h1.95v0.78h-3.03v-4.23h2.93v0.78h-1.85v0.88h1.75C35.81,72.59,35.81,73.38,35.81,73.38z"
	/>
<path class="st2" d="M37.69,71.75h-1.28v-0.8h3.65v0.8h-1.3v3.43h-1.08L37.69,71.75L37.69,71.75z"/>
<path class="st3" d="M12.78,78.47h1.08v3.43h1.89v0.8h-2.97V78.47z"/>
<path class="st3" d="M16.55,82c0.13,0.01,0.25,0.01,0.47,0c0.32-0.02,0.66-0.1,0.9-0.25c0.3-0.18,0.49-0.45,0.58-0.75l-0.02-0.01
	c-0.2,0.19-0.5,0.3-0.92,0.3c-0.78,0-1.43-0.48-1.43-1.27c0-0.8,0.72-1.47,1.73-1.47c1.18,0,1.74,0.8,1.74,1.76
	c0,0.85-0.3,1.47-0.8,1.88c-0.44,0.35-1.04,0.55-1.75,0.57c-0.18,0.01-0.37,0.01-0.49,0L16.55,82L16.55,82z M17.82,79.24
	c-0.36,0-0.63,0.29-0.62,0.72c0,0.35,0.21,0.65,0.65,0.65c0.29,0,0.49-0.13,0.59-0.27c0.04-0.06,0.06-0.12,0.06-0.24
	C18.5,79.67,18.32,79.24,17.82,79.24L17.82,79.24z"/>
<path class="st2" d="M23.31,80.72v0.64h-1.85v-0.64H23.31z"/>
<path class="st2" d="M25.41,78.52c0.4-0.06,0.91-0.09,1.45-0.09c0.9,0,1.49,0.14,1.95,0.45c0.49,0.33,0.8,0.85,0.8,1.59
	c0,0.81-0.33,1.37-0.79,1.71c-0.5,0.37-1.26,0.55-2.19,0.55c-0.56,0-0.95-0.03-1.22-0.06V78.52z M26.49,81.97
	c0.09,0.02,0.24,0.02,0.37,0.02c0.97,0.01,1.61-0.47,1.61-1.48c0.01-0.88-0.57-1.34-1.49-1.34c-0.24,0-0.4,0.02-0.49,0.04
	C26.49,79.21,26.49,81.97,26.49,81.97z"/>
<path class="st2" d="M33.16,81.95c0,0.29,0.01,0.58,0.05,0.75h-0.97l-0.06-0.31h-0.02c-0.23,0.24-0.58,0.38-0.99,0.38
	c-0.7,0-1.11-0.45-1.11-0.94c0-0.8,0.8-1.18,2.02-1.17v-0.04c0-0.16-0.1-0.4-0.63-0.4c-0.35,0-0.73,0.11-0.95,0.23l-0.2-0.61
	c0.24-0.12,0.71-0.27,1.34-0.27c1.15,0,1.52,0.6,1.52,1.32C33.16,80.89,33.16,81.95,33.16,81.95z M32.11,81.25
	c-0.56-0.01-1,0.11-1,0.48c0,0.24,0.18,0.36,0.42,0.36c0.27,0,0.49-0.16,0.56-0.35c0.01-0.05,0.02-0.11,0.02-0.16V81.25z"/>
<path class="st2" d="M34,80.61c0-0.38-0.01-0.71-0.03-0.98h0.93l0.05,0.42h0.02c0.14-0.19,0.49-0.49,1.07-0.49
	c0.7,0,1.23,0.41,1.23,1.32v1.82H36.2V81c0-0.39-0.15-0.66-0.54-0.66c-0.3,0-0.47,0.18-0.54,0.36c-0.03,0.06-0.04,0.15-0.04,0.24
	v1.77H34V80.61z"/>
<path class="st2" d="M43.08,82.58c-0.2,0.09-0.64,0.19-1.22,0.19c-1.64,0-2.49-0.92-2.49-2.12c0-1.44,1.16-2.25,2.6-2.25
	c0.56,0,0.98,0.1,1.17,0.19l-0.22,0.76c-0.22-0.08-0.52-0.16-0.9-0.16c-0.85,0-1.52,0.46-1.52,1.4c0,0.85,0.56,1.38,1.52,1.38
	c0.32,0,0.68-0.06,0.9-0.14L43.08,82.58z"/>
<path class="st2" d="M46.55,81.95c0,0.29,0.01,0.58,0.05,0.75h-0.97l-0.06-0.31h-0.02c-0.23,0.24-0.58,0.38-0.99,0.38
	c-0.7,0-1.11-0.45-1.11-0.94c0-0.8,0.8-1.18,2.02-1.17v-0.04c0-0.16-0.1-0.4-0.63-0.4c-0.35,0-0.73,0.11-0.95,0.23l-0.2-0.61
	c0.24-0.12,0.71-0.27,1.34-0.27c1.15,0,1.52,0.6,1.52,1.32C46.55,80.89,46.55,81.95,46.55,81.95z M45.51,81.25
	c-0.56-0.01-1,0.11-1,0.48c0,0.24,0.18,0.36,0.42,0.36c0.27,0,0.49-0.16,0.56-0.35c0.01-0.05,0.02-0.11,0.02-0.16V81.25z"/>
<path class="st2" d="M48.47,80.92L48.47,80.92c0.09-0.13,0.17-0.25,0.26-0.37l0.7-0.92h1.29l-1.23,1.24l1.41,1.83h-1.32l-0.83-1.26
	l-0.28,0.3v0.96H47.4v-4.45h1.07V80.92z"/>
<path class="st2" d="M51.94,81.46c0.03,0.4,0.47,0.58,0.97,0.58c0.37,0,0.66-0.04,0.95-0.13L54,82.56
	c-0.35,0.13-0.78,0.19-1.25,0.19c-1.17,0-1.84-0.61-1.84-1.57c0-0.78,0.54-1.64,1.74-1.64c1.11,0,1.54,0.77,1.54,1.53
	c0,0.16-0.02,0.31-0.03,0.38L51.94,81.46L51.94,81.46z M53.2,80.81c0-0.23-0.11-0.62-0.61-0.62c-0.45,0-0.63,0.36-0.66,0.62H53.2z"
	/>
<path class="st3" d="M12.78,85.99h1.08v3.43h1.89v0.8h-2.97V85.99z"/>
<path class="st3" d="M17.58,86.99h-0.01l-0.87,0.37l-0.18-0.72l1.21-0.5h0.89v4.08h-1.04C17.58,90.22,17.58,86.99,17.58,86.99z"/>
<path class="st3" d="M23.51,88.16c0,1.26-0.57,2.13-1.74,2.13c-1.18,0-1.71-0.95-1.71-2.1c0-1.18,0.56-2.11,1.75-2.11
	C23.03,86.07,23.51,87.04,23.51,88.16z M21.14,88.19c-0.01,0.93,0.25,1.38,0.66,1.38c0.42,0,0.64-0.46,0.64-1.39
	c0-0.9-0.22-1.38-0.65-1.38C21.4,86.79,21.13,87.24,21.14,88.19z"/>
<path class="st2" d="M27.22,88.25v0.64h-1.85v-0.64H27.22z"/>
<path class="st2" d="M32.81,90.1c-0.2,0.09-0.64,0.19-1.22,0.19c-1.64,0-2.49-0.92-2.49-2.12c0-1.44,1.16-2.25,2.6-2.25
	c0.56,0,0.98,0.1,1.17,0.19l-0.22,0.76c-0.22-0.08-0.52-0.16-0.9-0.16c-0.85,0-1.52,0.46-1.52,1.4c0,0.85,0.56,1.38,1.52,1.38
	c0.32,0,0.68-0.06,0.9-0.14L32.81,90.1z"/>
<path class="st2" d="M36.75,88.65c0,1.12-0.9,1.64-1.82,1.64c-1.01,0-1.78-0.59-1.78-1.58c0-0.99,0.73-1.63,1.84-1.63
	C36.05,87.08,36.75,87.73,36.75,88.65z M34.25,88.68c0,0.53,0.25,0.92,0.7,0.92c0.42,0,0.68-0.37,0.68-0.92
	c0-0.46-0.2-0.92-0.68-0.92C34.45,87.76,34.25,88.23,34.25,88.68z"/>
<path class="st2" d="M37.41,88.13c0-0.38-0.01-0.71-0.03-0.98h0.9l0.05,0.41h0.02c0.15-0.19,0.45-0.48,1.04-0.48
	c0.44,0,0.8,0.2,0.95,0.52h0.01c0.13-0.16,0.28-0.28,0.44-0.37c0.19-0.1,0.4-0.15,0.66-0.15c0.66,0,1.16,0.41,1.16,1.33v1.81h-1.04
	v-1.67c0-0.45-0.16-0.7-0.51-0.7c-0.25,0-0.42,0.15-0.49,0.33c-0.03,0.07-0.04,0.17-0.04,0.24v1.79h-1.04V88.5
	c0-0.39-0.15-0.65-0.49-0.65c-0.28,0-0.44,0.19-0.5,0.34c-0.03,0.08-0.04,0.16-0.04,0.24v1.79h-1.04L37.41,88.13L37.41,88.13z"/>
<path class="st2" d="M46.35,89.47c0,0.29,0.01,0.58,0.05,0.75h-0.97l-0.06-0.31h-0.02c-0.23,0.24-0.58,0.38-0.99,0.38
	c-0.7,0-1.11-0.45-1.11-0.94c0-0.8,0.8-1.18,2.02-1.17v-0.04c0-0.16-0.1-0.4-0.63-0.4c-0.35,0-0.73,0.11-0.95,0.23l-0.2-0.61
	c0.24-0.12,0.71-0.27,1.34-0.27c1.15,0,1.52,0.6,1.52,1.32C46.35,88.41,46.35,89.47,46.35,89.47z M45.3,88.77
	c-0.56-0.01-1,0.11-1,0.48c0,0.24,0.18,0.36,0.42,0.36c0.27,0,0.49-0.16,0.56-0.35c0.01-0.05,0.02-0.11,0.02-0.16V88.77z"/>
<path class="st2" d="M47.19,88.16c0-0.45-0.01-0.75-0.03-1.01h0.92l0.03,0.56h0.03c0.18-0.45,0.6-0.63,0.93-0.63
	c0.1,0,0.15,0,0.23,0.01V88c-0.08-0.02-0.17-0.03-0.29-0.03c-0.4,0-0.66,0.19-0.73,0.48c-0.01,0.06-0.02,0.14-0.02,0.21v1.56h-1.07
	C47.19,90.22,47.19,88.16,47.19,88.16z"/>
<path class="st2" d="M52.4,90.14c-0.19,0.08-0.55,0.14-0.96,0.14c-1.11,0-1.83-0.61-1.83-1.57c0-0.9,0.69-1.63,1.97-1.63
	c0.28,0,0.59,0.04,0.82,0.12l-0.17,0.71c-0.13-0.05-0.32-0.09-0.6-0.09c-0.56,0-0.93,0.36-0.92,0.86c0,0.56,0.42,0.86,0.94,0.86
	c0.25,0,0.45-0.04,0.61-0.1L52.4,90.14z"/>
<path class="st2" d="M52.99,85.76h1.07v1.75h0.01c0.11-0.13,0.25-0.24,0.42-0.31c0.16-0.08,0.36-0.12,0.56-0.12
	c0.68,0,1.21,0.42,1.21,1.34v1.79h-1.07v-1.69c0-0.4-0.15-0.68-0.56-0.68c-0.28,0-0.46,0.16-0.54,0.33
	c-0.03,0.06-0.04,0.14-0.04,0.21v1.82h-1.07v-4.44H52.99z"/>
<path class="st3" d="M12.78,93.51h1.08v3.43h1.89v0.8h-2.97V93.51z"/>
<path class="st3" d="M17.58,94.51h-0.01l-0.87,0.37l-0.18-0.72l1.21-0.5h0.89v4.08h-1.04C17.58,97.74,17.58,94.51,17.58,94.51z"/>
<path class="st3" d="M21.49,94.51h-0.01l-0.87,0.37l-0.18-0.72l1.21-0.5h0.89v4.08h-1.04C21.49,97.74,21.49,94.51,21.49,94.51z"/>
<path class="st2" d="M27.22,95.77v0.64h-1.85v-0.64H27.22z"/>
<path class="st2" d="M29.32,97.74v-4.23h1.26l0.99,1.55c0.28,0.45,0.56,0.97,0.78,1.45h0.02c-0.07-0.56-0.09-1.13-0.09-1.77v-1.23
	h0.99v4.23h-1.13l-1.02-1.63c-0.28-0.45-0.59-1-0.82-1.49l-0.02,0.01c0.03,0.56,0.04,1.15,0.04,1.84v1.27H29.32z"/>
<path class="st2" d="M37.53,96.17c0,1.12-0.9,1.64-1.82,1.64c-1.01,0-1.78-0.59-1.78-1.58c0-0.99,0.73-1.63,1.84-1.63
	C36.83,94.6,37.53,95.25,37.53,96.17z M35.04,96.2c0,0.53,0.25,0.92,0.7,0.92c0.42,0,0.68-0.37,0.68-0.92c0-0.46-0.2-0.92-0.68-0.92
	C35.23,95.28,35.04,95.75,35.04,96.2z"/>
<path class="st2" d="M38.19,95.68c0-0.45-0.01-0.75-0.03-1.01h0.92l0.03,0.56h0.03c0.18-0.45,0.6-0.63,0.93-0.63
	c0.1,0,0.15,0,0.23,0.01v0.9c-0.08-0.02-0.17-0.03-0.29-0.03c-0.39,0-0.66,0.19-0.73,0.48c-0.01,0.06-0.02,0.14-0.02,0.21v1.56
	h-1.07C38.19,97.73,38.19,95.68,38.19,95.68z"/>
<path class="st2" d="M44.16,93.29v3.54c0,0.34,0.01,0.71,0.03,0.92h-0.95l-0.05-0.45h-0.01c-0.22,0.34-0.63,0.52-1.08,0.52
	c-0.82,0-1.47-0.62-1.47-1.57c-0.01-1.04,0.72-1.63,1.54-1.63c0.42,0,0.75,0.13,0.91,0.35h0.01v-1.66h1.07V93.29z M43.09,95.97
	c0-0.05-0.01-0.12-0.01-0.17c-0.06-0.26-0.3-0.47-0.63-0.47c-0.49,0-0.74,0.39-0.74,0.87c0,0.52,0.29,0.85,0.73,0.85
	c0.31,0,0.56-0.19,0.62-0.46c0.02-0.07,0.03-0.14,0.03-0.22C43.09,96.37,43.09,95.97,43.09,95.97z"/>
<path class="st2" d="M46.12,93.82c0,0.26-0.23,0.48-0.58,0.48c-0.34,0-0.56-0.21-0.56-0.48c-0.01-0.28,0.22-0.48,0.56-0.48
	S46.11,93.54,46.12,93.82z M45.01,97.74v-3.07h1.07v3.07H45.01z"/>
<path class="st2" d="M49.53,97.67c-0.19,0.08-0.55,0.14-0.96,0.14c-1.11,0-1.83-0.61-1.83-1.57c0-0.9,0.69-1.63,1.97-1.63
	c0.28,0,0.59,0.04,0.82,0.12l-0.17,0.71c-0.13-0.05-0.32-0.09-0.6-0.09c-0.56,0-0.93,0.36-0.92,0.86c0,0.56,0.42,0.86,0.94,0.86
	c0.25,0,0.45-0.04,0.61-0.1L49.53,97.67z"/>
<path class="st2" d="M51.61,96.76c0.29,0.13,0.73,0.26,1.19,0.26c0.49,0,0.75-0.18,0.75-0.46c0-0.26-0.23-0.41-0.8-0.6
	c-0.79-0.24-1.3-0.63-1.3-1.25c0-0.72,0.68-1.27,1.8-1.27c0.54,0,0.93,0.1,1.21,0.21l-0.24,0.77c-0.19-0.08-0.53-0.2-0.99-0.2
	c-0.47,0-0.69,0.19-0.69,0.41c0,0.27,0.27,0.39,0.88,0.6c0.84,0.28,1.23,0.66,1.23,1.26c0,0.71-0.61,1.32-1.92,1.32
	c-0.54,0-1.08-0.13-1.35-0.26L51.61,96.76z"/>
<path class="st2" d="M56.22,96.51c0.03,0.4,0.47,0.58,0.97,0.58c0.37,0,0.66-0.04,0.95-0.13l0.14,0.65
	c-0.35,0.13-0.78,0.19-1.25,0.19c-1.17,0-1.84-0.61-1.84-1.57c0-0.78,0.54-1.64,1.74-1.64c1.11,0,1.54,0.77,1.54,1.53
	c0,0.16-0.02,0.31-0.03,0.38L56.22,96.51L56.22,96.51z M57.49,95.86c0-0.23-0.11-0.62-0.61-0.62c-0.45,0-0.63,0.36-0.66,0.62H57.49z
	"/>
<path class="st2" d="M59.12,95.65c0-0.38-0.01-0.71-0.03-0.98H60l0.05,0.41h0.02c0.15-0.19,0.45-0.48,1.04-0.48
	c0.44,0,0.8,0.2,0.95,0.52h0.01c0.13-0.16,0.28-0.28,0.44-0.37c0.19-0.1,0.4-0.15,0.66-0.15c0.66,0,1.16,0.41,1.16,1.33v1.81h-1.04
	v-1.67c0-0.45-0.16-0.7-0.51-0.7c-0.25,0-0.42,0.15-0.49,0.33c-0.03,0.07-0.04,0.17-0.04,0.24v1.79H61.2v-1.72
	c0-0.39-0.15-0.65-0.49-0.65c-0.28,0-0.44,0.19-0.5,0.34c-0.03,0.08-0.04,0.16-0.04,0.24v1.79h-1.04L59.12,95.65L59.12,95.65z"/>
<path class="st2" d="M66.29,93.82c0,0.26-0.23,0.48-0.58,0.48c-0.34,0-0.57-0.21-0.56-0.48c-0.01-0.28,0.22-0.48,0.56-0.48
	C66.06,93.34,66.28,93.54,66.29,93.82z M65.18,97.74v-3.07h1.07v3.07H65.18z"/>
<path class="st2" d="M69.7,97.67c-0.19,0.08-0.55,0.14-0.96,0.14c-1.11,0-1.83-0.61-1.83-1.57c0-0.9,0.69-1.63,1.97-1.63
	c0.28,0,0.59,0.04,0.82,0.12l-0.17,0.71c-0.13-0.05-0.32-0.09-0.6-0.09c-0.56,0-0.93,0.36-0.92,0.86c0,0.56,0.42,0.86,0.94,0.86
	c0.25,0,0.45-0.04,0.61-0.1L69.7,97.67z"/>
<path class="st2" d="M73.62,96.17c0,1.12-0.9,1.64-1.82,1.64c-1.01,0-1.78-0.59-1.78-1.58c0-0.99,0.73-1.63,1.84-1.63
	C72.91,94.6,73.62,95.25,73.62,96.17z M71.12,96.2c0,0.53,0.25,0.92,0.7,0.92c0.42,0,0.68-0.37,0.68-0.92c0-0.46-0.2-0.92-0.68-0.92
	C71.31,95.28,71.12,95.75,71.12,96.2z"/>
<path class="st2" d="M74.28,95.65c0-0.38-0.01-0.71-0.03-0.98h0.93l0.05,0.42h0.02c0.14-0.19,0.49-0.49,1.07-0.49
	c0.7,0,1.23,0.41,1.23,1.32v1.82h-1.07v-1.7c0-0.39-0.15-0.66-0.54-0.66c-0.3,0-0.47,0.18-0.54,0.36c-0.03,0.06-0.04,0.15-0.04,0.24
	v1.77h-1.07v-2.1H74.28z"/>
<path class="st2" d="M81.75,93.29v3.54c0,0.34,0.01,0.71,0.03,0.92h-0.95l-0.05-0.45h-0.01c-0.22,0.34-0.63,0.52-1.08,0.52
	c-0.82,0-1.47-0.62-1.47-1.57c-0.01-1.04,0.72-1.63,1.54-1.63c0.42,0,0.75,0.13,0.91,0.35h0.01v-1.66h1.07V93.29z M80.68,95.97
	c0-0.05-0.01-0.12-0.01-0.17c-0.06-0.26-0.3-0.47-0.63-0.47c-0.49,0-0.74,0.39-0.74,0.87c0,0.52,0.29,0.85,0.73,0.85
	c0.31,0,0.56-0.19,0.62-0.46c0.02-0.07,0.03-0.14,0.03-0.22C80.68,96.37,80.68,95.97,80.68,95.97z"/>
<path class="st2" d="M85.86,96.76c0,0.4,0.01,0.73,0.03,0.98h-0.93l-0.05-0.43h-0.02c-0.13,0.19-0.46,0.5-1.08,0.5
	c-0.7,0-1.21-0.39-1.21-1.34v-1.8h1.08v1.65c0,0.45,0.16,0.72,0.54,0.72c0.3,0,0.47-0.18,0.54-0.33c0.03-0.06,0.03-0.13,0.03-0.21
	v-1.83h1.08v2.09H85.86z"/>
<path class="st2" d="M89.3,97.67c-0.19,0.08-0.55,0.14-0.96,0.14c-1.11,0-1.83-0.61-1.83-1.57c0-0.9,0.69-1.63,1.97-1.63
	c0.28,0,0.59,0.04,0.82,0.12l-0.17,0.71c-0.13-0.05-0.32-0.09-0.6-0.09c-0.56,0-0.93,0.36-0.92,0.86c0,0.56,0.42,0.86,0.94,0.86
	c0.25,0,0.45-0.04,0.61-0.1L89.3,97.67z"/>
<path class="st2" d="M91.2,93.84v0.83h0.77v0.7H91.2v1.11c0,0.37,0.1,0.54,0.42,0.54c0.15,0,0.21-0.01,0.32-0.02l0.01,0.72
	c-0.14,0.05-0.39,0.09-0.7,0.09c-0.35,0-0.63-0.11-0.8-0.27c-0.2-0.18-0.3-0.48-0.3-0.91v-1.26h-0.46v-0.7h0.46V94.1L91.2,93.84z"/>
<path class="st2" d="M95.96,96.17c0,1.12-0.9,1.64-1.82,1.64c-1.01,0-1.78-0.59-1.78-1.58c0-0.99,0.73-1.63,1.84-1.63
	C95.26,94.6,95.96,95.25,95.96,96.17z M93.46,96.2c0,0.53,0.25,0.92,0.7,0.92c0.42,0,0.68-0.37,0.68-0.92c0-0.46-0.2-0.92-0.68-0.92
	C93.66,95.28,93.46,95.75,93.46,96.2z"/>
<path class="st2" d="M96.62,95.68c0-0.45-0.01-0.75-0.03-1.01h0.92l0.03,0.56h0.03c0.18-0.45,0.6-0.63,0.93-0.63
	c0.1,0,0.15,0,0.23,0.01v0.9c-0.08-0.02-0.17-0.03-0.29-0.03c-0.39,0-0.66,0.19-0.73,0.48c-0.01,0.06-0.02,0.14-0.02,0.21v1.56
	h-1.07V95.68z"/>
<path class="st3" d="M12.78,101.04h1.08v3.43h1.89v0.8h-2.97V101.04z"/>
<path class="st3" d="M17.58,102.03h-0.01l-0.87,0.37l-0.18-0.72l1.21-0.5h0.89v4.08h-1.04C17.58,105.26,17.58,102.03,17.58,102.03z"
	/>
<path class="st3" d="M20.13,105.26v-0.58l0.59-0.48c1-0.8,1.49-1.25,1.5-1.73c0-0.33-0.23-0.6-0.75-0.6c-0.39,0-0.74,0.18-0.98,0.34
	l-0.3-0.68c0.35-0.23,0.88-0.42,1.5-0.42c1.04,0,1.61,0.54,1.61,1.28c0,0.68-0.56,1.23-1.22,1.76l-0.42,0.31v0.01h1.73v0.78h-3.26
	V105.26z"/>
<path class="st2" d="M27.22,103.29v0.64h-1.85v-0.64H27.22z"/>
<path class="st2" d="M30.39,101.04v2.43c0,0.73,0.31,1.1,0.86,1.1c0.56,0,0.87-0.35,0.87-1.1v-2.43h1.07v2.37
	c0,1.3-0.74,1.93-1.98,1.93c-1.2,0-1.9-0.59-1.9-1.94v-2.36H30.39z"/>
<path class="st2" d="M34.13,101.09c0.28-0.05,0.85-0.09,1.39-0.09c0.66,0,1.06,0.06,1.4,0.24c0.33,0.16,0.57,0.45,0.57,0.83
	c0,0.38-0.25,0.73-0.78,0.9v0.01c0.54,0.13,0.94,0.5,0.94,1.04c0,0.38-0.2,0.68-0.49,0.9c-0.35,0.24-0.92,0.38-1.87,0.38
	c-0.53,0-0.92-0.03-1.16-0.06V101.09z M35.19,102.71h0.35c0.56,0,0.87-0.21,0.87-0.52c0-0.32-0.27-0.49-0.76-0.49
	c-0.23,0-0.37,0.01-0.46,0.03V102.71z M35.19,104.59c0.1,0.01,0.23,0.01,0.42,0.01c0.49,0,0.92-0.17,0.92-0.61
	c0-0.43-0.43-0.6-0.97-0.6h-0.37C35.19,103.39,35.19,104.59,35.19,104.59z"/>
<path class="st2" d="M38.42,104.28c0.29,0.13,0.73,0.26,1.19,0.26c0.49,0,0.75-0.18,0.75-0.46c0-0.26-0.23-0.41-0.8-0.6
	c-0.79-0.24-1.3-0.63-1.3-1.25c0-0.72,0.68-1.27,1.8-1.27c0.54,0,0.93,0.1,1.21,0.21l-0.24,0.77c-0.19-0.08-0.53-0.2-0.99-0.2
	s-0.69,0.19-0.69,0.41c0,0.27,0.27,0.39,0.88,0.6c0.84,0.28,1.23,0.66,1.23,1.26c0,0.71-0.61,1.32-1.92,1.32
	c-0.54,0-1.08-0.13-1.35-0.26L38.42,104.28z"/>
<path class="st3" d="M12.78,108.56h1.08v3.43h1.89v0.8h-2.97V108.56z"/>
<path class="st3" d="M17.58,109.56h-0.01l-0.87,0.37l-0.18-0.72l1.21-0.5h0.89v4.08h-1.04C17.58,112.79,17.58,109.56,17.58,109.56z"
	/>
<path class="st3" d="M20.32,111.85c0.19,0.09,0.63,0.25,1.07,0.25c0.56,0,0.84-0.24,0.84-0.55c0-0.4-0.45-0.58-0.92-0.58h-0.44
	v-0.68h0.42c0.36-0.01,0.82-0.13,0.82-0.47c0-0.24-0.23-0.43-0.68-0.43c-0.37,0-0.77,0.14-0.96,0.24l-0.22-0.69
	c0.27-0.16,0.82-0.31,1.42-0.31c0.98,0,1.52,0.46,1.52,1.02c0,0.43-0.28,0.77-0.84,0.95v0.01c0.55,0.09,0.99,0.46,0.99,0.99
	c0,0.72-0.71,1.25-1.88,1.25c-0.59,0-1.09-0.14-1.36-0.29L20.32,111.85z"/>
<path class="st2" d="M27.22,110.82v0.64h-1.85v-0.64H27.22z"/>
<path class="st2" d="M33.29,112.59c-0.33,0.1-0.96,0.24-1.59,0.24c-0.87,0-1.49-0.19-1.93-0.57c-0.44-0.36-0.68-0.92-0.67-1.54
	c0.01-1.4,1.16-2.21,2.71-2.21c0.61,0,1.09,0.11,1.32,0.21l-0.23,0.77c-0.26-0.1-0.59-0.18-1.11-0.18c-0.9,0-1.57,0.45-1.57,1.37
	c0,0.87,0.61,1.39,1.49,1.39c0.25,0,0.44-0.03,0.53-0.06v-0.88h-0.73v-0.75h1.77L33.29,112.59L33.29,112.59z"/>
<path class="st2" d="M34.13,108.62c0.33-0.05,0.8-0.09,1.45-0.09c0.66,0,1.14,0.11,1.45,0.34c0.3,0.21,0.51,0.56,0.51,0.98
	c0,0.41-0.15,0.77-0.44,1c-0.37,0.31-0.91,0.45-1.54,0.45c-0.14,0-0.27-0.01-0.37-0.02v1.51h-1.07L34.13,108.62L34.13,108.62z
	 M35.19,110.53c0.09,0.02,0.2,0.03,0.36,0.03c0.57,0,0.92-0.26,0.92-0.69c0-0.39-0.3-0.62-0.84-0.62c-0.22,0-0.37,0.02-0.44,0.04
	V110.53z"/>
<path class="st2" d="M41.71,112.67c-0.2,0.09-0.64,0.19-1.22,0.19c-1.64,0-2.49-0.92-2.49-2.12c0-1.44,1.16-2.25,2.6-2.25
	c0.56,0,0.98,0.1,1.17,0.19l-0.22,0.76c-0.22-0.08-0.52-0.16-0.9-0.16c-0.85,0-1.52,0.46-1.52,1.4c0,0.85,0.56,1.38,1.52,1.38
	c0.32,0,0.68-0.06,0.9-0.14L41.71,112.67z"/>
<path class="st2" d="M47.81,112.59c-0.33,0.1-0.96,0.24-1.59,0.24c-0.87,0-1.49-0.19-1.93-0.57c-0.44-0.36-0.68-0.92-0.67-1.54
	c0.01-1.4,1.16-2.21,2.71-2.21c0.61,0,1.09,0.11,1.32,0.21l-0.23,0.77c-0.26-0.1-0.59-0.18-1.11-0.18c-0.9,0-1.57,0.45-1.57,1.37
	c0,0.87,0.61,1.39,1.49,1.39c0.25,0,0.44-0.03,0.53-0.06v-0.88h-0.73v-0.75h1.77L47.81,112.59L47.81,112.59z"/>
<path class="st2" d="M48.63,108.33h1.07v4.45h-1.07V108.33z"/>
<path class="st2" d="M53.97,111.22c0,1.12-0.9,1.64-1.82,1.64c-1.01,0-1.78-0.59-1.78-1.58c0-0.99,0.73-1.63,1.84-1.63
	C53.27,109.65,53.97,110.3,53.97,111.22z M51.48,111.25c0,0.53,0.25,0.92,0.7,0.92c0.42,0,0.68-0.37,0.68-0.92
	c0-0.46-0.2-0.92-0.68-0.92C51.67,110.33,51.48,110.8,51.48,111.25z"/>
<path class="st2" d="M54.63,108.33h1.07v1.75h0.01c0.2-0.26,0.56-0.43,1.04-0.43c0.82,0,1.43,0.61,1.42,1.55
	c0,1.1-0.79,1.66-1.58,1.66c-0.4,0-0.79-0.13-1.04-0.5h-0.01l-0.04,0.43h-0.91c0.01-0.2,0.03-0.57,0.03-0.92v-3.54H54.63z
	 M55.71,111.48c0,0.06,0.01,0.12,0.02,0.17c0.07,0.26,0.32,0.45,0.63,0.45c0.46,0,0.74-0.31,0.74-0.87c0-0.48-0.24-0.85-0.74-0.85
	c-0.29,0-0.56,0.2-0.63,0.47c-0.01,0.06-0.02,0.11-0.02,0.18V111.48z"/>
<path class="st2" d="M61.72,112.04c0,0.29,0.01,0.58,0.05,0.75H60.8l-0.06-0.31h-0.02c-0.23,0.24-0.58,0.38-0.99,0.38
	c-0.7,0-1.11-0.45-1.11-0.94c0-0.8,0.8-1.18,2.02-1.17v-0.04c0-0.16-0.1-0.4-0.63-0.4c-0.35,0-0.73,0.11-0.95,0.23l-0.2-0.61
	c0.24-0.12,0.71-0.27,1.34-0.27c1.15,0,1.52,0.6,1.52,1.32C61.72,110.98,61.72,112.04,61.72,112.04z M60.68,111.34
	c-0.56-0.01-1,0.11-1,0.48c0,0.24,0.18,0.36,0.42,0.36c0.27,0,0.49-0.16,0.56-0.35c0.01-0.05,0.02-0.11,0.02-0.16V111.34z"/>
<path class="st2" d="M62.57,108.33h1.07v4.45h-1.07V108.33z"/>
<path class="st2" d="M66.61,109.36h-1.28v-0.8h3.65v0.8h-1.3v3.43H66.6v-3.43H66.61z"/>
<path class="st2" d="M69.77,111.56c0.03,0.4,0.47,0.58,0.97,0.58c0.37,0,0.66-0.04,0.95-0.13l0.14,0.65
	c-0.35,0.13-0.78,0.19-1.25,0.19c-1.17,0-1.84-0.61-1.84-1.57c0-0.78,0.54-1.64,1.74-1.64c1.11,0,1.54,0.77,1.54,1.53
	c0,0.16-0.02,0.31-0.03,0.38L69.77,111.56L69.77,111.56z M71.03,110.9c0-0.23-0.11-0.62-0.61-0.62c-0.45,0-0.63,0.36-0.66,0.62
	H71.03z"/>
<path class="st2" d="M75.25,112.71c-0.19,0.08-0.55,0.14-0.96,0.14c-1.11,0-1.83-0.61-1.83-1.57c0-0.9,0.69-1.63,1.97-1.63
	c0.28,0,0.59,0.04,0.82,0.12l-0.17,0.71c-0.13-0.05-0.32-0.09-0.6-0.09c-0.56,0-0.93,0.36-0.92,0.86c0,0.56,0.42,0.86,0.94,0.86
	c0.25,0,0.45-0.04,0.61-0.1L75.25,112.71z"/>
<path class="st2" d="M75.84,108.33h1.07v1.75h0.01c0.11-0.13,0.25-0.24,0.42-0.31c0.16-0.08,0.36-0.12,0.56-0.12
	c0.68,0,1.21,0.42,1.21,1.34v1.79h-1.07v-1.69c0-0.4-0.15-0.68-0.56-0.68c-0.28,0-0.46,0.16-0.54,0.33
	c-0.03,0.06-0.04,0.14-0.04,0.21v1.82h-1.07v-4.44H75.84z"/>
<path class="st2" d="M79.97,110.7c0-0.38-0.01-0.71-0.03-0.98h0.93l0.05,0.42h0.02c0.14-0.19,0.49-0.49,1.07-0.49
	c0.7,0,1.23,0.41,1.23,1.32v1.82h-1.07v-1.7c0-0.39-0.15-0.66-0.54-0.66c-0.3,0-0.47,0.18-0.54,0.36c-0.03,0.06-0.04,0.15-0.04,0.24
	v1.77h-1.07v-2.1H79.97z"/>
<path class="st2" d="M87.51,111.22c0,1.12-0.9,1.64-1.82,1.64c-1.01,0-1.78-0.59-1.78-1.58c0-0.99,0.73-1.63,1.84-1.63
	C86.8,109.65,87.51,110.3,87.51,111.22z M85.01,111.25c0,0.53,0.25,0.92,0.7,0.92c0.42,0,0.68-0.37,0.68-0.92
	c0-0.46-0.2-0.92-0.68-0.92C85.2,110.33,85.01,110.8,85.01,111.25z"/>
<path class="st2" d="M88.17,108.33h1.07v4.45h-1.07V108.33z"/>
<path class="st2" d="M93.51,111.22c0,1.12-0.9,1.64-1.82,1.64c-1.01,0-1.78-0.59-1.78-1.58c0-0.99,0.73-1.63,1.84-1.63
	C92.81,109.65,93.51,110.3,93.51,111.22z M91.02,111.25c0,0.53,0.25,0.92,0.7,0.92c0.42,0,0.68-0.37,0.68-0.92
	c0-0.46-0.2-0.92-0.68-0.92C91.21,110.33,91.02,110.8,91.02,111.25z"/>
<path class="st2" d="M97.46,112.34c0,0.59-0.13,1.07-0.52,1.38c-0.38,0.29-0.9,0.38-1.4,0.38c-0.45,0-0.93-0.08-1.24-0.24l0.21-0.72
	c0.22,0.11,0.6,0.23,1,0.23c0.51,0,0.9-0.24,0.9-0.81v-0.2H96.4c-0.2,0.26-0.54,0.4-0.93,0.4c-0.85,0-1.46-0.61-1.46-1.5
	c0-0.98,0.72-1.61,1.57-1.61c0.47,0,0.77,0.18,0.94,0.43h0.01l0.04-0.36h0.93c-0.01,0.19-0.03,0.45-0.03,0.91v1.71H97.46z
	 M96.39,110.97c0-0.06-0.01-0.13-0.02-0.18c-0.08-0.25-0.28-0.42-0.58-0.42c-0.39,0-0.7,0.31-0.7,0.87c0,0.46,0.25,0.82,0.7,0.82
	c0.27,0,0.49-0.16,0.56-0.39c0.03-0.07,0.03-0.17,0.03-0.25v-0.45H96.39z"/>
<path class="st2" d="M99.12,109.72l0.52,1.51c0.06,0.18,0.13,0.41,0.17,0.57h0.02c0.05-0.16,0.11-0.4,0.16-0.57l0.42-1.51h1.15
	l-0.8,2.02c-0.49,1.22-0.82,1.71-1.21,2.01c-0.37,0.29-0.77,0.39-1.04,0.42l-0.23-0.81c0.13-0.02,0.3-0.08,0.47-0.16
	c0.16-0.08,0.34-0.23,0.44-0.38c0.03-0.04,0.06-0.09,0.06-0.14c0-0.03-0.01-0.08-0.05-0.16l-1.26-2.8
	C97.94,109.72,99.12,109.72,99.12,109.72z"/>
<path class="st2" d="M106.95,112.67c-0.2,0.09-0.64,0.19-1.22,0.19c-1.64,0-2.49-0.92-2.49-2.12c0-1.44,1.16-2.25,2.6-2.25
	c0.56,0,0.98,0.1,1.17,0.19l-0.22,0.76c-0.22-0.08-0.52-0.16-0.9-0.16c-0.85,0-1.52,0.46-1.52,1.4c0,0.85,0.56,1.38,1.52,1.38
	c0.32,0,0.68-0.06,0.9-0.14L106.95,112.67z"/>
<path class="st2" d="M108.31,111.56c0.03,0.4,0.47,0.58,0.97,0.58c0.37,0,0.66-0.04,0.95-0.13l0.14,0.65
	c-0.35,0.13-0.78,0.19-1.25,0.19c-1.17,0-1.84-0.61-1.84-1.57c0-0.78,0.54-1.64,1.74-1.64c1.11,0,1.54,0.77,1.54,1.53
	c0,0.16-0.02,0.31-0.03,0.38L108.31,111.56L108.31,111.56z M109.57,110.9c0-0.23-0.11-0.62-0.61-0.62c-0.45,0-0.63,0.36-0.66,0.62
	H109.57z"/>
<path class="st2" d="M111.2,110.7c0-0.38-0.01-0.71-0.03-0.98h0.93l0.05,0.42h0.02c0.14-0.19,0.49-0.49,1.07-0.49
	c0.7,0,1.23,0.41,1.23,1.32v1.82h-1.07v-1.7c0-0.39-0.15-0.66-0.54-0.66c-0.3,0-0.47,0.18-0.54,0.36c-0.03,0.06-0.04,0.15-0.04,0.24
	v1.77h-1.07v-2.1H111.2z"/>
<path class="st2" d="M116.49,108.88v0.83h0.77v0.7h-0.77v1.11c0,0.37,0.1,0.54,0.42,0.54c0.15,0,0.21-0.01,0.32-0.02l0.01,0.72
	c-0.14,0.05-0.39,0.09-0.7,0.09c-0.35,0-0.63-0.11-0.8-0.27c-0.2-0.18-0.3-0.48-0.3-0.91v-1.26h-0.46v-0.7h0.46v-0.58L116.49,108.88
	z"/>
<path class="st2" d="M118.67,111.56c0.03,0.4,0.47,0.58,0.97,0.58c0.37,0,0.66-0.04,0.95-0.13l0.14,0.65
	c-0.35,0.13-0.78,0.19-1.25,0.19c-1.17,0-1.84-0.61-1.84-1.57c0-0.78,0.54-1.64,1.74-1.64c1.11,0,1.54,0.77,1.54,1.53
	c0,0.16-0.02,0.31-0.03,0.38L118.67,111.56L118.67,111.56z M119.93,110.9c0-0.23-0.11-0.62-0.61-0.62c-0.45,0-0.63,0.36-0.66,0.62
	H119.93z"/>
<path class="st2" d="M121.56,110.73c0-0.45-0.01-0.75-0.03-1.01h0.92l0.03,0.56h0.03c0.18-0.45,0.6-0.63,0.93-0.63
	c0.1,0,0.15,0,0.23,0.01v0.9c-0.08-0.02-0.17-0.03-0.29-0.03c-0.39,0-0.66,0.19-0.73,0.48c-0.01,0.06-0.02,0.14-0.02,0.21v1.56
	h-1.07V110.73z"/>
<path class="st3" d="M12.78,116.08h1.08v3.43h1.89v0.8h-2.97V116.08z"/>
<path class="st3" d="M17.58,117.08h-0.01l-0.87,0.37l-0.18-0.72l1.21-0.5h0.89v4.08h-1.04C17.58,120.31,17.58,117.08,17.58,117.08z"
	/>
<path class="st3" d="M22.02,120.31v-0.97h-2.03v-0.62l1.74-2.48h1.31v2.39h0.55v0.71h-0.55v0.97
	C23.04,120.31,22.02,120.31,22.02,120.31z M22.02,118.62v-0.9c0-0.24,0.01-0.5,0.04-0.76h-0.03c-0.15,0.26-0.27,0.5-0.42,0.76
	L21,118.61v0.01H22.02z"/>
<path class="st2" d="M27.22,118.34v0.64h-1.85v-0.64H27.22z"/>
<path class="st2" d="M32.81,120.19c-0.2,0.09-0.64,0.19-1.22,0.19c-1.64,0-2.49-0.92-2.49-2.12c0-1.44,1.16-2.25,2.6-2.25
	c0.56,0,0.98,0.1,1.17,0.19l-0.22,0.76c-0.22-0.08-0.52-0.16-0.9-0.16c-0.85,0-1.52,0.46-1.52,1.4c0,0.85,0.56,1.38,1.52,1.38
	c0.32,0,0.68-0.06,0.9-0.14L32.81,120.19z"/>
<path class="st2" d="M36.28,119.56c0,0.29,0.01,0.58,0.05,0.75h-0.97L35.31,120h-0.02c-0.23,0.24-0.58,0.38-0.99,0.38
	c-0.7,0-1.11-0.45-1.11-0.94c0-0.8,0.8-1.18,2.02-1.17v-0.04c0-0.16-0.1-0.4-0.63-0.4c-0.35,0-0.73,0.11-0.95,0.23l-0.2-0.61
	c0.24-0.12,0.71-0.27,1.34-0.27c1.15,0,1.52,0.6,1.52,1.32L36.28,119.56L36.28,119.56z M35.24,118.86c-0.56-0.01-1,0.11-1,0.48
	c0,0.24,0.18,0.36,0.42,0.36c0.27,0,0.49-0.16,0.56-0.35c0.01-0.05,0.02-0.11,0.02-0.16V118.86z"/>
<path class="st2" d="M37.13,118.27c0-0.4-0.01-0.75-0.03-1.03h0.93l0.05,0.43h0.01c0.25-0.33,0.65-0.5,1.15-0.5
	c0.75,0,1.43,0.58,1.43,1.56c0,1.12-0.8,1.64-1.57,1.64c-0.42,0-0.74-0.15-0.9-0.35l0,0v1.52h-1.07V118.27z M38.2,118.99
	c0,0.08,0.01,0.14,0.02,0.2c0.07,0.26,0.32,0.45,0.63,0.45c0.47,0,0.74-0.35,0.74-0.87c0-0.49-0.25-0.86-0.73-0.86
	c-0.3,0-0.57,0.2-0.64,0.48c-0.01,0.05-0.02,0.11-0.02,0.17C38.2,118.56,38.2,118.99,38.2,118.99z"/>
<path class="st2" d="M44.63,119.87c0,0.59-0.13,1.07-0.52,1.38c-0.38,0.29-0.9,0.38-1.4,0.38c-0.45,0-0.93-0.08-1.24-0.24l0.21-0.72
	c0.22,0.11,0.6,0.23,1,0.23c0.51,0,0.9-0.24,0.9-0.81v-0.2h-0.01c-0.2,0.26-0.54,0.4-0.93,0.4c-0.85,0-1.46-0.61-1.46-1.5
	c0-0.98,0.72-1.61,1.57-1.61c0.47,0,0.77,0.18,0.94,0.43h0.01l0.04-0.36h0.93c-0.01,0.19-0.03,0.45-0.03,0.91L44.63,119.87
	L44.63,119.87z M43.56,118.49c0-0.06-0.01-0.13-0.02-0.18c-0.08-0.25-0.28-0.42-0.58-0.42c-0.39,0-0.7,0.31-0.7,0.87
	c0,0.46,0.25,0.82,0.7,0.82c0.27,0,0.49-0.16,0.56-0.39c0.03-0.07,0.03-0.17,0.03-0.25v-0.45H43.56z"/>
<path class="st2" d="M46.31,119.08c0.03,0.4,0.47,0.58,0.97,0.58c0.37,0,0.66-0.04,0.95-0.13l0.14,0.65
	c-0.35,0.13-0.78,0.19-1.25,0.19c-1.17,0-1.84-0.61-1.84-1.57c0-0.78,0.54-1.64,1.74-1.64c1.11,0,1.54,0.77,1.54,1.53
	c0,0.16-0.02,0.31-0.03,0.38L46.31,119.08L46.31,119.08z M47.57,118.43c0-0.23-0.11-0.62-0.61-0.62c-0.45,0-0.63,0.36-0.66,0.62
	H47.57z"/>
<path class="st2" d="M49.21,118.22c0-0.38-0.01-0.71-0.03-0.98h0.9l0.05,0.41h0.02c0.15-0.19,0.45-0.48,1.04-0.48
	c0.44,0,0.8,0.2,0.95,0.52h0.01c0.13-0.16,0.28-0.28,0.44-0.37c0.19-0.1,0.4-0.15,0.66-0.15c0.66,0,1.16,0.41,1.16,1.33v1.81h-1.04
	v-1.67c0-0.45-0.16-0.7-0.51-0.7c-0.25,0-0.42,0.15-0.49,0.33c-0.03,0.07-0.04,0.17-0.04,0.24v1.79h-1.04v-1.72
	c0-0.39-0.15-0.65-0.49-0.65c-0.28,0-0.44,0.19-0.5,0.34c-0.03,0.08-0.04,0.16-0.04,0.24v1.79h-1.04L49.21,118.22L49.21,118.22z"/>
<path class="st2" d="M56.38,116.39c0,0.26-0.23,0.48-0.58,0.48c-0.34,0-0.57-0.21-0.56-0.48c-0.01-0.28,0.22-0.48,0.56-0.48
	C56.15,115.91,56.37,116.11,56.38,116.39z M55.27,120.31v-3.07h1.07v3.07H55.27z"/>
<path class="st2" d="M57.2,118.22c0-0.38-0.01-0.71-0.03-0.98h0.93l0.05,0.42h0.02c0.14-0.19,0.49-0.49,1.07-0.49
	c0.7,0,1.23,0.41,1.23,1.32v1.82H59.4v-1.7c0-0.39-0.15-0.66-0.54-0.66c-0.3,0-0.47,0.18-0.54,0.36c-0.03,0.06-0.04,0.15-0.04,0.24
	v1.77H57.2V118.22z"/>
<path class="st2" d="M62.43,116.39c0,0.26-0.23,0.48-0.58,0.48c-0.34,0-0.57-0.21-0.56-0.48c-0.01-0.28,0.22-0.48,0.56-0.48
	C62.21,115.91,62.43,116.11,62.43,116.39z M61.33,120.31v-3.07h1.07v3.07H61.33z"/>
<g>
	<path class="st2" d="M28.82,37.56c-0.18,0.09-0.59,0.19-1.12,0.19c-1.51,0-2.29-0.95-2.29-2.19c0-1.49,1.06-2.32,2.38-2.32
		c0.51,0,0.9,0.1,1.08,0.19l-0.2,0.78c-0.2-0.08-0.48-0.16-0.83-0.16c-0.78,0-1.39,0.47-1.39,1.44c0,0.87,0.52,1.43,1.4,1.43
		c0.3,0,0.63-0.07,0.82-0.14L28.82,37.56z"/>
	<path class="st2" d="M32.44,36.07c0,1.16-0.82,1.69-1.67,1.69c-0.93,0-1.64-0.61-1.64-1.63s0.67-1.68,1.69-1.68
		C31.79,34.45,32.44,35.12,32.44,36.07z M30.14,36.1c0,0.54,0.23,0.95,0.65,0.95c0.38,0,0.63-0.38,0.63-0.95
		c0-0.47-0.18-0.95-0.63-0.95C30.32,35.15,30.14,35.63,30.14,36.1z"/>
	<path class="st2" d="M35.44,37.61c-0.17,0.08-0.51,0.15-0.88,0.15c-1.02,0-1.68-0.63-1.68-1.63c0-0.93,0.64-1.68,1.81-1.68
		c0.26,0,0.54,0.05,0.75,0.12l-0.16,0.73c-0.12-0.05-0.29-0.1-0.55-0.1c-0.52,0-0.85,0.37-0.85,0.89c0,0.58,0.39,0.89,0.87,0.89
		c0.23,0,0.41-0.04,0.56-0.1L35.44,37.61z"/>
	<path class="st2" d="M38.65,36.92c0,0.3,0.01,0.6,0.05,0.77h-0.89l-0.06-0.32h-0.02c-0.21,0.25-0.53,0.39-0.91,0.39
		c-0.64,0-1.02-0.47-1.02-0.97c0-0.82,0.74-1.22,1.86-1.21v-0.05c0-0.17-0.09-0.41-0.58-0.41c-0.32,0-0.67,0.11-0.87,0.24
		l-0.18-0.64c0.22-0.12,0.65-0.28,1.23-0.28c1.06,0,1.39,0.62,1.39,1.37C38.65,35.81,38.65,36.92,38.65,36.92z M37.69,36.19
		c-0.52-0.01-0.92,0.12-0.92,0.5c0,0.25,0.17,0.37,0.39,0.37c0.25,0,0.45-0.16,0.51-0.36c0.01-0.05,0.02-0.11,0.02-0.17V36.19z"/>
	<path class="st2" d="M40.92,35.65v0.66h-1.7v-0.66H40.92z"/>
	<path class="st2" d="M44.83,37.56c-0.18,0.09-0.59,0.19-1.12,0.19c-1.51,0-2.29-0.95-2.29-2.19c0-1.49,1.06-2.32,2.38-2.32
		c0.51,0,0.9,0.1,1.08,0.19l-0.2,0.78c-0.2-0.08-0.48-0.16-0.83-0.16c-0.78,0-1.39,0.47-1.39,1.44c0,0.87,0.52,1.43,1.4,1.43
		c0.3,0,0.63-0.07,0.82-0.14L44.83,37.56z"/>
	<path class="st2" d="M48.45,36.07c0,1.16-0.82,1.69-1.67,1.69c-0.93,0-1.64-0.61-1.64-1.63s0.67-1.68,1.69-1.68
		C47.8,34.45,48.45,35.12,48.45,36.07z M46.16,36.1c0,0.54,0.23,0.95,0.65,0.95c0.38,0,0.63-0.38,0.63-0.95
		c0-0.47-0.18-0.95-0.63-0.95C46.33,35.15,46.16,35.63,46.16,36.1z"/>
	<path class="st2" d="M49.06,33.09h0.98v4.6h-0.98V33.09z"/>
	<path class="st2" d="M53.48,36.92c0,0.3,0.01,0.6,0.05,0.77h-0.89l-0.06-0.32h-0.02c-0.21,0.25-0.53,0.39-0.91,0.39
		c-0.64,0-1.02-0.47-1.02-0.97c0-0.82,0.74-1.22,1.86-1.21v-0.05c0-0.17-0.09-0.41-0.58-0.41c-0.32,0-0.67,0.11-0.87,0.24
		l-0.18-0.64c0.22-0.12,0.65-0.28,1.23-0.28c1.06,0,1.39,0.62,1.39,1.37C53.48,35.81,53.48,36.92,53.48,36.92z M52.52,36.19
		c-0.52-0.01-0.92,0.12-0.92,0.5c0,0.25,0.17,0.37,0.39,0.37c0.25,0,0.45-0.16,0.51-0.36c0.01-0.05,0.02-0.11,0.02-0.17V36.19z"/>
	<path class="st2" d="M56.59,33.32V35h1.63v-1.68h0.98v4.37h-0.98v-1.83h-1.63v1.83H55.6v-4.37H56.59z"/>
	<path class="st2" d="M60.06,33.38c0.26-0.05,0.78-0.09,1.28-0.09c0.6,0,0.97,0.06,1.29,0.25c0.3,0.16,0.52,0.46,0.52,0.86
		c0,0.39-0.23,0.75-0.72,0.93v0.01c0.5,0.14,0.87,0.51,0.87,1.07c0,0.4-0.18,0.71-0.45,0.93c-0.32,0.25-0.85,0.39-1.72,0.39
		c-0.49,0-0.85-0.03-1.07-0.07C60.06,37.66,60.06,33.38,60.06,33.38z M61.03,35.05h0.32c0.52,0,0.8-0.21,0.8-0.54S61.9,34,61.45,34
		c-0.21,0-0.34,0.01-0.42,0.03V35.05z M61.03,36.99C61.13,37,61.25,37,61.42,37c0.45,0,0.84-0.18,0.84-0.63
		c0-0.44-0.4-0.62-0.89-0.62h-0.34V36.99z"/>
	<path class="st2" d="M67.17,37.56c-0.18,0.09-0.59,0.19-1.12,0.19c-1.51,0-2.29-0.95-2.29-2.19c0-1.49,1.06-2.32,2.38-2.32
		c0.51,0,0.9,0.1,1.08,0.19l-0.2,0.78c-0.2-0.08-0.48-0.16-0.83-0.16c-0.78,0-1.39,0.47-1.39,1.44c0,0.87,0.52,1.43,1.4,1.43
		c0.3,0,0.63-0.07,0.82-0.14L67.17,37.56z"/>
	<path class="st2" d="M69.13,33.38c0.3-0.05,0.73-0.09,1.33-0.09c0.61,0,1.04,0.12,1.33,0.35c0.28,0.22,0.47,0.58,0.47,1.01
		c0,0.43-0.14,0.79-0.4,1.04c-0.34,0.32-0.84,0.46-1.42,0.46c-0.13,0-0.25-0.01-0.34-0.02v1.56h-0.98L69.13,33.38L69.13,33.38z
		 M70.11,35.36c0.08,0.02,0.19,0.03,0.33,0.03c0.52,0,0.85-0.27,0.85-0.71c0-0.4-0.28-0.64-0.77-0.64c-0.2,0-0.34,0.02-0.41,0.04
		V35.36z"/>
	<path class="st2" d="M75.83,36.07c0,1.16-0.82,1.69-1.67,1.69c-0.93,0-1.64-0.61-1.64-1.63s0.67-1.68,1.69-1.68
		C75.18,34.45,75.83,35.12,75.83,36.07z M73.54,36.1c0,0.54,0.23,0.95,0.65,0.95c0.38,0,0.63-0.38,0.63-0.95
		c0-0.47-0.18-0.95-0.63-0.95C73.71,35.15,73.54,35.63,73.54,36.1z"/>
	<path class="st2" d="M76.44,33.09h0.98v4.6h-0.98V33.09z"/>
	<path class="st2" d="M78.21,36.82c0.18,0.11,0.56,0.24,0.85,0.24c0.3,0,0.42-0.1,0.42-0.27c0-0.16-0.1-0.24-0.47-0.36
		c-0.65-0.22-0.91-0.58-0.9-0.95c0-0.6,0.51-1.04,1.29-1.04c0.37,0,0.7,0.08,0.89,0.18l-0.17,0.68c-0.14-0.08-0.41-0.18-0.69-0.18
		c-0.24,0-0.38,0.1-0.38,0.26c0,0.15,0.12,0.23,0.51,0.36c0.6,0.21,0.85,0.51,0.86,0.98c0,0.59-0.47,1.03-1.37,1.03
		c-0.41,0-0.78-0.1-1.02-0.23L78.21,36.82z"/>
	<path class="st2" d="M82.01,35.85h0.01c0.07-0.13,0.15-0.26,0.23-0.38l0.64-0.95h1.19l-1.13,1.28l1.3,1.89h-1.21l-0.76-1.3
		l-0.25,0.31v0.99h-0.98v-4.6h0.98v2.76H82.01z"/>
	<path class="st2" d="M87.21,36.92c0,0.3,0.01,0.6,0.05,0.77h-0.89l-0.06-0.32h-0.02c-0.21,0.25-0.53,0.39-0.91,0.39
		c-0.64,0-1.02-0.47-1.02-0.97c0-0.82,0.74-1.22,1.86-1.21v-0.05c0-0.17-0.09-0.41-0.58-0.41c-0.32,0-0.67,0.11-0.87,0.24
		l-0.18-0.64c0.22-0.12,0.65-0.28,1.23-0.28c1.06,0,1.39,0.62,1.39,1.37C87.21,35.81,87.21,36.92,87.21,36.92z M86.25,36.19
		c-0.52-0.01-0.92,0.12-0.92,0.5c0,0.25,0.17,0.37,0.39,0.37c0.25,0,0.45-0.16,0.51-0.36c0.01-0.05,0.02-0.11,0.02-0.17V36.19z"/>
	<path class="st2" d="M90.31,33.64c0,0.27-0.21,0.49-0.53,0.49c-0.31,0-0.52-0.22-0.51-0.49c-0.01-0.29,0.2-0.5,0.52-0.5
		S90.31,33.35,90.31,33.64z M89.3,37.69v-3.17h0.98v3.17C90.28,37.69,89.3,37.69,89.3,37.69z"/>
	<path class="st2" d="M92.41,33.32h0.98v1.93h0.02c0.1-0.17,0.2-0.32,0.3-0.48l0.99-1.45h1.21l-1.44,1.86l1.52,2.51h-1.15
		l-1.07-1.89l-0.38,0.46v1.43h-0.98C92.41,37.69,92.41,33.32,92.41,33.32z"/>
	<path class="st2" d="M96.35,35.56c0-0.47-0.01-0.77-0.03-1.04h0.85l0.03,0.58h0.03c0.16-0.46,0.55-0.65,0.85-0.65
		c0.09,0,0.14,0,0.21,0.01v0.93c-0.07-0.02-0.16-0.03-0.27-0.03c-0.36,0-0.61,0.19-0.67,0.5c-0.01,0.06-0.02,0.14-0.02,0.22v1.61
		h-0.98V35.56z"/>
	<path class="st2" d="M101.39,36.92c0,0.3,0.01,0.6,0.05,0.77h-0.89l-0.06-0.32h-0.02c-0.21,0.25-0.53,0.39-0.91,0.39
		c-0.64,0-1.02-0.47-1.02-0.97c0-0.82,0.74-1.22,1.86-1.21v-0.05c0-0.17-0.09-0.41-0.58-0.41c-0.32,0-0.67,0.11-0.87,0.24
		l-0.18-0.64c0.22-0.12,0.65-0.28,1.23-0.28c1.06,0,1.39,0.62,1.39,1.37C101.39,35.81,101.39,36.92,101.39,36.92z M100.43,36.19
		c-0.52-0.01-0.92,0.12-0.92,0.5c0,0.25,0.17,0.37,0.39,0.37c0.25,0,0.45-0.16,0.51-0.36c0.01-0.05,0.02-0.11,0.02-0.17V36.19z"/>
	<path class="st2" d="M101.51,38.31c0.26-0.02,0.46-0.08,0.58-0.21c0.14-0.15,0.19-0.4,0.19-1.03v-2.55h0.99v2.79
		c0,0.69-0.16,1.11-0.45,1.39c-0.29,0.27-0.75,0.39-1.22,0.39L101.51,38.31z M103.3,33.64c0,0.27-0.2,0.49-0.53,0.49
		c-0.31,0-0.51-0.22-0.51-0.49c0-0.29,0.2-0.5,0.52-0.5S103.29,33.35,103.3,33.64z"/>
	<path class="st2" d="M104.8,36.42c0.03,0.41,0.43,0.6,0.89,0.6c0.34,0,0.61-0.05,0.87-0.13l0.13,0.67c-0.32,0.13-0.72,0.2-1.15,0.2
		c-1.08,0-1.69-0.63-1.69-1.62c0-0.8,0.5-1.69,1.6-1.69c1.02,0,1.41,0.8,1.41,1.58c0,0.17-0.02,0.32-0.03,0.39H104.8z M105.96,35.74
		c0-0.24-0.1-0.64-0.56-0.64c-0.41,0-0.58,0.38-0.61,0.64H105.96z"/>
	<path class="st2" d="M108.8,33.38c0.26-0.05,0.78-0.09,1.28-0.09c0.6,0,0.97,0.06,1.29,0.25c0.3,0.16,0.52,0.46,0.52,0.86
		c0,0.39-0.23,0.75-0.72,0.93v0.01c0.5,0.14,0.87,0.51,0.87,1.07c0,0.4-0.18,0.71-0.45,0.93c-0.32,0.25-0.85,0.39-1.72,0.39
		c-0.49,0-0.85-0.03-1.07-0.07V33.38z M109.78,35.05h0.32c0.52,0,0.8-0.21,0.8-0.54S110.65,34,110.2,34c-0.21,0-0.34,0.01-0.42,0.03
		C109.78,34.03,109.78,35.05,109.78,35.05z M109.78,36.99C109.88,37,110,37,110.16,37c0.45,0,0.84-0.18,0.84-0.63
		c0-0.44-0.4-0.62-0.89-0.62h-0.34L109.78,36.99L109.78,36.99z"/>
	<path class="st2" d="M115.34,36.92c0,0.3,0.01,0.6,0.05,0.77h-0.89l-0.06-0.32h-0.02c-0.21,0.25-0.53,0.39-0.91,0.39
		c-0.64,0-1.02-0.47-1.02-0.97c0-0.82,0.74-1.22,1.86-1.21v-0.05c0-0.17-0.09-0.41-0.58-0.41c-0.32,0-0.67,0.11-0.87,0.24
		l-0.18-0.64c0.22-0.12,0.65-0.28,1.23-0.28c1.06,0,1.39,0.62,1.39,1.37C115.34,35.81,115.34,36.92,115.34,36.92z M114.39,36.19
		c-0.52-0.01-0.92,0.12-0.92,0.5c0,0.25,0.17,0.37,0.39,0.37c0.25,0,0.45-0.16,0.51-0.36c0.01-0.05,0.02-0.11,0.02-0.17V36.19z"/>
	<path class="st2" d="M116.16,37.69V36.2l-0.42,0.33v-0.7l0.42-0.34v-2.41h0.99v1.68l0.46-0.37v0.71l-0.46,0.37v2.22
		C117.15,37.69,116.16,37.69,116.16,37.69z"/>
	<path class="st2" d="M119.08,33.66v0.86h0.71v0.73h-0.71v1.15c0,0.38,0.09,0.56,0.39,0.56c0.14,0,0.19-0.01,0.29-0.03l0.01,0.74
		c-0.13,0.05-0.36,0.09-0.64,0.09c-0.32,0-0.58-0.12-0.74-0.28c-0.18-0.19-0.27-0.49-0.27-0.94v-1.3h-0.42v-0.73h0.42v-0.6
		L119.08,33.66z"/>
	<path class="st2" d="M121.13,34.52l0.47,1.55c0.05,0.19,0.12,0.42,0.16,0.59h0.02c0.05-0.17,0.1-0.41,0.14-0.59l0.39-1.55h1.06
		l-0.74,2.09c-0.45,1.26-0.76,1.76-1.11,2.08c-0.34,0.3-0.71,0.4-0.95,0.43l-0.21-0.84c0.12-0.02,0.28-0.08,0.43-0.17
		c0.15-0.08,0.31-0.23,0.41-0.39c0.03-0.05,0.05-0.1,0.05-0.14c0-0.03-0.01-0.08-0.05-0.16l-1.16-2.9
		C120.04,34.52,121.13,34.52,121.13,34.52z"/>
	<path class="st2" d="M126.05,37.61c-0.17,0.08-0.51,0.15-0.88,0.15c-1.02,0-1.68-0.63-1.68-1.63c0-0.93,0.64-1.68,1.81-1.68
		c0.26,0,0.54,0.05,0.75,0.12l-0.16,0.73c-0.12-0.05-0.29-0.1-0.55-0.1c-0.52,0-0.85,0.37-0.85,0.89c0,0.58,0.39,0.89,0.87,0.89
		c0.23,0,0.41-0.04,0.56-0.1L126.05,37.61z"/>
	<path class="st2" d="M127.58,35.85h0.01c0.07-0.13,0.15-0.26,0.23-0.38l0.64-0.95h1.19l-1.13,1.28l1.3,1.89h-1.21l-0.76-1.3
		l-0.25,0.31v0.99h-0.98v-4.6h0.98v2.76H127.58z"/>
	<path class="st2" d="M131.19,33.64c0,0.27-0.21,0.49-0.53,0.49c-0.31,0-0.52-0.22-0.51-0.49c-0.01-0.29,0.2-0.5,0.52-0.5
		C130.98,33.14,131.18,33.35,131.19,33.64z M130.17,37.69v-3.17h0.98v3.17C131.15,37.69,130.17,37.69,130.17,37.69z"/>
	<path class="st2" d="M132.7,36.42c0.03,0.41,0.43,0.6,0.89,0.6c0.34,0,0.61-0.05,0.87-0.13l0.13,0.67c-0.32,0.13-0.72,0.2-1.15,0.2
		c-1.08,0-1.69-0.63-1.69-1.62c0-0.8,0.5-1.69,1.6-1.69c1.02,0,1.41,0.8,1.41,1.58c0,0.17-0.02,0.32-0.03,0.39H132.7z M133.86,35.74
		c0-0.24-0.1-0.64-0.56-0.64c-0.41,0-0.58,0.38-0.61,0.64H133.86z"/>
</g>
<g>
	<path d="M35.75,50.46c0,1.23-0.5,2.08-1.52,2.08c-1.03,0-1.49-0.93-1.49-2.06c0-1.16,0.49-2.07,1.52-2.07
		C35.33,48.41,35.75,49.36,35.75,50.46z M33.68,50.48c-0.01,0.92,0.21,1.35,0.58,1.35c0.36,0,0.56-0.45,0.56-1.36
		c0-0.88-0.19-1.35-0.56-1.35C33.91,49.12,33.67,49.55,33.68,50.48z"/>
</g>
</svg>
