<?xml version="1.0" encoding="utf-8"?>
<!-- Generator: Adobe Illustrator 23.0.1, SVG Export Plug-In . SVG Version: 6.00 Build 0)  -->
<svg version="1.1" id="Warstwa_1" xmlns="http://www.w3.org/2000/svg" xmlns:xlink="http://www.w3.org/1999/xlink" x="0px" y="0px"
	 viewBox="0 0 151.7 140.82" style="enable-background:new 0 0 151.7 140.82;" xml:space="preserve">
<style type="text/css">
	.st0{fill:#E2CFC3;stroke:#CB6333;stroke-width:3;stroke-miterlimit:10;}
	.st1{fill:#E12529;}
	.st2{fill:#131819;}
	.st3{fill:#0D76BA;}
	.st4{fill:#F8A233;}
	.st5{fill:#73BC45;}
	.st6{fill:#E82128;}
	.st7{fill:#B3D456;stroke:#000000;stroke-miterlimit:10;}
	.st8{fill:none;stroke:#000000;stroke-linecap:round;stroke-linejoin:round;stroke-miterlimit:10;}
	.st9{fill:#F47C2D;stroke:#000000;stroke-miterlimit:10;}
	.st10{fill:none;stroke:#000000;stroke-width:2;stroke-miterlimit:10;}
	.st11{fill:#DE3472;stroke:#000000;stroke-miterlimit:10;}
	.st12{fill:#3EC1C8;stroke:#000000;stroke-miterlimit:10;}
	.st13{fill:#51BD88;stroke:#000000;stroke-miterlimit:10;}
	.st14{fill:#9F4F9F;stroke:#000000;stroke-miterlimit:10;}
	.st15{fill:#F69138;stroke:#000000;stroke-miterlimit:10;}
	.st16{fill:#39A2D7;stroke:#000000;stroke-miterlimit:10;}
	.st17{fill:none;stroke:#000000;stroke-miterlimit:10;}
	.st18{fill:#68737A;}
	.st19{fill:#910028;}
	.st20{fill:#EE5F2B;}
	.st21{fill:#0FA8E1;}
	.st22{fill:#22488E;}
	.st23{fill:#50499E;}
	.st24{fill:#593594;}
	.st25{fill:none;}
	.st26{fill:#FBFAFC;}
	.st27{fill:#FFFFFF;}
	.st28{fill:#2C3579;}
	.st29{fill:#109EAE;}
	.st30{stroke:#000000;stroke-miterlimit:10;}
	.st31{fill:#F69138;}
	.st32{fill:#F47C2D;}
	.st33{fill:#B3D456;}
	.st34{fill:#51BD88;}
</style>
<g>
	<path class="st0" d="M116.34,133.69H35.36c-16.71,0-30.25-13.54-30.25-30.25V37.38c0-16.71,13.54-30.25,30.25-30.25h80.98
		c16.71,0,30.25,13.54,30.25,30.25v66.05C146.59,120.14,133.05,133.69,116.34,133.69z"/>
	<g>
		<path class="st33" d="M23.95,18.92c0.29-0.04,0.7-0.08,1.28-0.08c0.58,0,1,0.1,1.28,0.3c0.27,0.19,0.45,0.5,0.45,0.86
			c0,0.37-0.14,0.67-0.39,0.89c-0.32,0.27-0.8,0.39-1.36,0.39c-0.12,0-0.24-0.01-0.32-0.02v1.33h-0.94V18.92z M24.89,20.61
			c0.08,0.02,0.18,0.02,0.32,0.02c0.5,0,0.81-0.23,0.81-0.61c0-0.34-0.27-0.55-0.74-0.55c-0.19,0-0.32,0.02-0.39,0.03V20.61z"/>
		<path class="st33" d="M28.62,19.75h-0.01l-0.77,0.33l-0.16-0.63l1.07-0.44h0.78v3.59h-0.91V19.75z"/>
		<path d="M33.67,20.86v0.56h-1.63v-0.56H33.67z"/>
		<path d="M39.02,22.43c-0.29,0.09-0.85,0.21-1.4,0.21c-0.76,0-1.32-0.17-1.7-0.5c-0.39-0.32-0.6-0.81-0.59-1.36
			c0.01-1.24,1.02-1.95,2.39-1.95c0.54,0,0.96,0.09,1.16,0.18l-0.2,0.67c-0.23-0.09-0.52-0.16-0.98-0.16c-0.79,0-1.39,0.4-1.39,1.21
			c0,0.77,0.54,1.22,1.32,1.22c0.22,0,0.39-0.02,0.47-0.06v-0.78h-0.65v-0.66h1.56V22.43z"/>
		<path d="M40.49,21.52c0.03,0.35,0.42,0.51,0.86,0.51c0.32,0,0.58-0.04,0.84-0.11l0.12,0.57c-0.31,0.11-0.69,0.17-1.1,0.17
			c-1.03,0-1.62-0.54-1.62-1.38c0-0.69,0.48-1.44,1.54-1.44c0.98,0,1.36,0.68,1.36,1.35c0,0.14-0.02,0.27-0.03,0.33H40.49z
			 M41.6,20.94c0-0.2-0.1-0.55-0.53-0.55c-0.4,0-0.56,0.32-0.58,0.55H41.6z"/>
		<path d="M43.04,18.67h0.94v1.54H44c0.18-0.23,0.5-0.38,0.92-0.38c0.73,0,1.26,0.54,1.26,1.37c0,0.97-0.7,1.46-1.39,1.46
			c-0.35,0-0.7-0.12-0.91-0.44h-0.01l-0.04,0.38h-0.8c0.01-0.18,0.02-0.5,0.02-0.81V18.67z M43.99,21.45c0,0.06,0.01,0.11,0.02,0.15
			c0.06,0.23,0.28,0.4,0.55,0.4c0.4,0,0.65-0.28,0.65-0.76c0-0.42-0.21-0.75-0.65-0.75c-0.25,0-0.49,0.17-0.55,0.41
			c-0.01,0.05-0.02,0.1-0.02,0.15V21.45z"/>
		<path d="M47.5,21.52c0.03,0.35,0.42,0.51,0.86,0.51c0.32,0,0.58-0.04,0.84-0.11l0.12,0.57c-0.31,0.11-0.69,0.17-1.1,0.17
			c-1.03,0-1.62-0.54-1.62-1.38c0-0.69,0.48-1.44,1.54-1.44c0.98,0,1.36,0.68,1.36,1.35c0,0.14-0.02,0.27-0.03,0.33H47.5z
			 M48.61,20.94c0-0.2-0.1-0.55-0.53-0.55c-0.4,0-0.56,0.32-0.58,0.55H48.61z"/>
		<path d="M50.05,20.79c0-0.4-0.01-0.66-0.02-0.89h0.81l0.03,0.5h0.02c0.16-0.39,0.53-0.56,0.82-0.56c0.09,0,0.13,0,0.2,0.01v0.8
			c-0.07-0.02-0.15-0.03-0.26-0.03c-0.35,0-0.58,0.17-0.65,0.43C51,21.1,51,21.16,51,21.23v1.37h-0.94V20.79z"/>
		<path d="M53.39,19.14c0,0.23-0.2,0.42-0.51,0.42c-0.3,0-0.5-0.19-0.49-0.42c-0.01-0.24,0.19-0.43,0.5-0.43S53.38,18.9,53.39,19.14
			z M52.41,22.6v-2.7h0.94v2.7H52.41z"/>
		<path d="M55.17,19.16v0.74h0.68v0.62h-0.68v0.98c0,0.33,0.09,0.47,0.37,0.47c0.13,0,0.19-0.01,0.28-0.02l0.01,0.64
			c-0.12,0.04-0.35,0.08-0.62,0.08c-0.3,0-0.56-0.1-0.71-0.24c-0.17-0.16-0.26-0.42-0.26-0.8v-1.11h-0.4V19.9h0.4v-0.51L55.17,19.16
			z"/>
		<path d="M57.68,18.92c0.29-0.04,0.7-0.08,1.28-0.08c0.58,0,1,0.1,1.28,0.3c0.27,0.19,0.45,0.5,0.45,0.86
			c0,0.37-0.14,0.67-0.38,0.89c-0.32,0.27-0.8,0.39-1.36,0.39c-0.12,0-0.24-0.01-0.32-0.02v1.33h-0.94V18.92z M58.62,20.61
			c0.08,0.02,0.18,0.02,0.32,0.02c0.5,0,0.81-0.23,0.81-0.61c0-0.34-0.27-0.55-0.74-0.55c-0.19,0-0.32,0.02-0.39,0.03V20.61z"/>
		<path d="M61.2,20.79c0-0.4-0.01-0.66-0.02-0.89h0.81l0.03,0.5h0.02c0.16-0.39,0.53-0.56,0.82-0.56c0.09,0,0.13,0,0.2,0.01v0.8
			c-0.07-0.02-0.15-0.03-0.26-0.03c-0.35,0-0.58,0.17-0.65,0.43c-0.01,0.05-0.02,0.12-0.02,0.19v1.37H61.2V20.79z"/>
		<path d="M66.52,21.22c0,0.99-0.79,1.44-1.6,1.44c-0.89,0-1.57-0.52-1.57-1.39c0-0.87,0.65-1.43,1.62-1.43
			C65.9,19.83,66.52,20.4,66.52,21.22z M64.32,21.25c0,0.46,0.22,0.81,0.62,0.81c0.37,0,0.6-0.33,0.6-0.81c0-0.4-0.17-0.81-0.6-0.81
			C64.48,20.43,64.32,20.85,64.32,21.25z"/>
		<path d="M70.06,18.67v3.12c0,0.3,0.01,0.62,0.03,0.81h-0.84l-0.04-0.4h-0.01c-0.19,0.3-0.56,0.46-0.95,0.46
			c-0.72,0-1.3-0.55-1.3-1.39c-0.01-0.91,0.63-1.44,1.36-1.44c0.37,0,0.66,0.12,0.8,0.3h0.01v-1.47H70.06z M69.12,21.04
			c0-0.04-0.01-0.11-0.01-0.15c-0.06-0.23-0.26-0.41-0.55-0.41c-0.43,0-0.65,0.34-0.65,0.77c0,0.46,0.25,0.75,0.65,0.75
			c0.27,0,0.49-0.17,0.55-0.4c0.02-0.06,0.02-0.12,0.02-0.19V21.04z"/>
		<path d="M73.69,21.73c0,0.35,0.01,0.64,0.02,0.87h-0.82l-0.04-0.38h-0.02c-0.12,0.17-0.4,0.44-0.95,0.44
			c-0.62,0-1.07-0.34-1.07-1.18V19.9h0.95v1.45c0,0.39,0.14,0.63,0.47,0.63c0.26,0,0.41-0.16,0.47-0.29
			c0.02-0.05,0.03-0.12,0.03-0.18V19.9h0.95V21.73z"/>
		<path d="M75.39,21.03h0.01c0.07-0.11,0.14-0.22,0.22-0.33l0.62-0.81h1.14l-1.09,1.09l1.24,1.61h-1.16l-0.73-1.11l-0.24,0.27v0.85
			h-0.94v-3.93h0.94V21.03z"/>
		<path d="M80,22.53c-0.17,0.07-0.48,0.13-0.85,0.13c-0.98,0-1.61-0.54-1.61-1.39c0-0.79,0.61-1.44,1.74-1.44
			c0.25,0,0.52,0.04,0.72,0.1l-0.15,0.63c-0.11-0.04-0.28-0.08-0.53-0.08c-0.5,0-0.82,0.32-0.81,0.76c0,0.5,0.37,0.76,0.83,0.76
			c0.22,0,0.4-0.03,0.54-0.09L80,22.53z"/>
		<path d="M79.9,23.13c0.25-0.02,0.44-0.07,0.56-0.18c0.14-0.13,0.19-0.34,0.19-0.88V19.9h0.95v2.38c0,0.59-0.15,0.95-0.43,1.18
			c-0.28,0.23-0.72,0.33-1.18,0.33L79.9,23.13z M81.62,19.14c0,0.23-0.19,0.42-0.51,0.42c-0.3,0-0.49-0.19-0.49-0.42
			c0-0.24,0.19-0.43,0.5-0.43C81.42,18.72,81.61,18.9,81.62,19.14z"/>
		<path d="M84.87,21.94c0,0.26,0.01,0.51,0.04,0.66h-0.85L84,22.33h-0.02c-0.2,0.22-0.51,0.33-0.87,0.33c-0.62,0-0.98-0.4-0.98-0.83
			c0-0.7,0.71-1.04,1.78-1.03v-0.04c0-0.14-0.09-0.35-0.55-0.35c-0.31,0-0.64,0.09-0.84,0.2l-0.17-0.54
			c0.21-0.1,0.63-0.24,1.18-0.24c1.01,0,1.34,0.53,1.34,1.17V21.94z M83.95,21.32c-0.5-0.01-0.88,0.1-0.88,0.43
			c0,0.22,0.16,0.32,0.37,0.32c0.24,0,0.43-0.14,0.49-0.31c0.01-0.04,0.02-0.09,0.02-0.14V21.32z"/>
		<path class="st33" d="M23.95,25.56c0.29-0.04,0.7-0.08,1.28-0.08c0.58,0,1,0.1,1.28,0.3c0.27,0.19,0.45,0.5,0.45,0.86
			c0,0.37-0.14,0.67-0.39,0.89c-0.32,0.27-0.8,0.39-1.36,0.39c-0.12,0-0.24-0.01-0.32-0.02v1.33h-0.94V25.56z M24.89,27.25
			c0.08,0.02,0.18,0.02,0.32,0.02c0.5,0,0.81-0.23,0.81-0.61c0-0.34-0.27-0.55-0.74-0.55c-0.19,0-0.32,0.02-0.39,0.03V27.25z"/>
		<path class="st33" d="M27.41,29.23v-0.51l0.52-0.42c0.88-0.7,1.31-1.11,1.32-1.53c0-0.29-0.2-0.53-0.66-0.53
			c-0.35,0-0.65,0.15-0.86,0.3l-0.27-0.6c0.3-0.2,0.78-0.37,1.32-0.37c0.91,0,1.42,0.48,1.42,1.13c0,0.6-0.49,1.08-1.08,1.55
			l-0.37,0.28v0.01h1.52v0.69H27.41z"/>
		<path d="M33.67,27.5v0.56h-1.63V27.5H33.67z"/>
		<path d="M36.34,25.51h0.95v2.36c0,1.06-0.57,1.43-1.49,1.43c-0.22,0-0.5-0.03-0.69-0.09l0.11-0.68c0.13,0.04,0.3,0.07,0.48,0.07
			c0.4,0,0.65-0.16,0.65-0.74V25.51z"/>
		<path d="M40.54,28.57c0,0.26,0.01,0.51,0.04,0.66h-0.85l-0.06-0.27h-0.02c-0.2,0.22-0.51,0.33-0.87,0.33
			c-0.62,0-0.98-0.4-0.98-0.83c0-0.7,0.71-1.04,1.78-1.03v-0.04c0-0.14-0.09-0.35-0.55-0.35c-0.31,0-0.64,0.09-0.84,0.2l-0.17-0.54
			c0.21-0.1,0.63-0.24,1.18-0.24c1.01,0,1.34,0.53,1.34,1.17V28.57z M39.62,27.95c-0.5-0.01-0.88,0.1-0.88,0.43
			c0,0.22,0.16,0.32,0.37,0.32c0.24,0,0.43-0.14,0.49-0.31c0.01-0.04,0.02-0.09,0.02-0.14V27.95z"/>
		<path d="M43.57,29.17c-0.17,0.07-0.48,0.13-0.85,0.13c-0.98,0-1.61-0.54-1.61-1.39c0-0.79,0.61-1.44,1.74-1.44
			c0.25,0,0.52,0.04,0.72,0.1l-0.15,0.63c-0.11-0.04-0.28-0.08-0.53-0.08c-0.5,0-0.82,0.32-0.81,0.76c0,0.5,0.37,0.76,0.83,0.76
			c0.22,0,0.4-0.03,0.54-0.09L43.57,29.17z"/>
		<path d="M47.02,27.85c0,0.99-0.79,1.44-1.6,1.44c-0.89,0-1.57-0.52-1.57-1.39c0-0.87,0.65-1.43,1.62-1.43
			C46.4,26.47,47.02,27.04,47.02,27.85z M44.82,27.88c0,0.46,0.22,0.81,0.62,0.81c0.37,0,0.6-0.33,0.6-0.81
			c0-0.4-0.17-0.81-0.6-0.81C44.99,27.06,44.82,27.48,44.82,27.88z"/>
		<path d="M47.61,25.31h0.94v1.54h0.01c0.18-0.23,0.5-0.38,0.92-0.38c0.73,0,1.26,0.54,1.26,1.37c0,0.97-0.7,1.46-1.39,1.46
			c-0.35,0-0.7-0.12-0.91-0.44h-0.01l-0.04,0.38h-0.8c0.01-0.18,0.02-0.5,0.02-0.81V25.31z M48.55,28.08c0,0.06,0.01,0.11,0.02,0.15
			c0.06,0.23,0.28,0.4,0.55,0.4c0.4,0,0.65-0.28,0.65-0.76c0-0.42-0.21-0.75-0.65-0.75c-0.26,0-0.49,0.17-0.55,0.41
			c-0.01,0.05-0.02,0.1-0.02,0.15V28.08z"/>
		<path d="M51.31,28.5c0.17,0.09,0.53,0.21,0.81,0.21c0.29,0,0.4-0.09,0.4-0.23c0-0.14-0.09-0.2-0.45-0.31
			c-0.63-0.19-0.87-0.49-0.86-0.81c0-0.51,0.48-0.89,1.24-0.89c0.35,0,0.67,0.07,0.86,0.15l-0.17,0.58
			c-0.14-0.07-0.4-0.15-0.66-0.15c-0.23,0-0.36,0.08-0.36,0.22c0,0.13,0.12,0.19,0.49,0.31c0.58,0.18,0.82,0.44,0.83,0.84
			c0,0.5-0.45,0.88-1.32,0.88c-0.4,0-0.75-0.08-0.98-0.19L51.31,28.5z"/>
		<path class="st33" d="M23.95,32.19c0.29-0.04,0.7-0.08,1.28-0.08c0.58,0,1,0.1,1.28,0.3c0.27,0.19,0.45,0.5,0.45,0.86
			c0,0.37-0.14,0.67-0.39,0.89c-0.32,0.27-0.8,0.39-1.36,0.39c-0.12,0-0.24-0.01-0.32-0.02v1.33h-0.94V32.19z M24.89,33.88
			c0.08,0.02,0.18,0.02,0.32,0.02c0.5,0,0.81-0.23,0.81-0.61c0-0.34-0.27-0.55-0.74-0.55c-0.19,0-0.32,0.02-0.39,0.03V33.88z"/>
		<path class="st33" d="M27.58,35.04c0.17,0.08,0.55,0.22,0.94,0.22c0.49,0,0.74-0.21,0.74-0.48c0-0.35-0.4-0.51-0.81-0.51h-0.39
			v-0.6h0.37c0.32-0.01,0.72-0.11,0.72-0.41c0-0.22-0.2-0.38-0.6-0.38c-0.33,0-0.68,0.13-0.85,0.22l-0.19-0.61
			c0.24-0.14,0.73-0.27,1.25-0.27c0.86,0,1.34,0.4,1.34,0.9c0,0.38-0.24,0.68-0.74,0.84v0.01c0.48,0.08,0.88,0.4,0.88,0.87
			c0,0.64-0.63,1.1-1.65,1.1c-0.52,0-0.96-0.12-1.2-0.25L27.58,35.04z"/>
		<path d="M33.67,34.13v0.56h-1.63v-0.56H33.67z"/>
		<path d="M38.01,34.29h-1.54v0.89h1.72v0.69h-2.67v-3.73h2.59v0.69h-1.63v0.77h1.54V34.29z"/>
		<path d="M41.91,35.76c-0.17,0.08-0.57,0.17-1.08,0.17c-1.45,0-2.19-0.81-2.19-1.87c0-1.27,1.02-1.98,2.29-1.98
			c0.49,0,0.86,0.09,1.03,0.17l-0.19,0.67c-0.19-0.07-0.46-0.14-0.8-0.14c-0.75,0-1.34,0.4-1.34,1.23c0,0.75,0.5,1.22,1.34,1.22
			c0.29,0,0.6-0.06,0.79-0.12L41.91,35.76z"/>
		<path d="M46.28,34.29h-1.54v0.89h1.72v0.69h-2.67v-3.73h2.59v0.69h-1.63v0.77h1.54V34.29z"/>
		<path d="M47.07,34.02c0-0.34-0.01-0.63-0.02-0.86h0.82l0.04,0.37h0.02c0.12-0.17,0.44-0.43,0.94-0.43c0.62,0,1.09,0.36,1.09,1.16
			v1.6h-0.95v-1.5c0-0.35-0.14-0.59-0.48-0.59c-0.26,0-0.42,0.16-0.48,0.32c-0.03,0.06-0.04,0.13-0.04,0.21v1.56h-0.94V34.02z"/>
		<path d="M53.59,35.47c0,0.52-0.12,0.95-0.46,1.22c-0.34,0.25-0.79,0.33-1.24,0.33c-0.4,0-0.82-0.07-1.09-0.21l0.19-0.64
			c0.19,0.1,0.53,0.2,0.88,0.2c0.45,0,0.79-0.22,0.79-0.71v-0.18h-0.01c-0.18,0.23-0.47,0.35-0.82,0.35c-0.75,0-1.29-0.54-1.29-1.32
			c0-0.87,0.63-1.42,1.38-1.42c0.42,0,0.68,0.16,0.83,0.38h0.01l0.03-0.32h0.82c-0.01,0.17-0.02,0.4-0.02,0.8V35.47z M52.64,34.26
			c0-0.06-0.01-0.11-0.02-0.15c-0.07-0.22-0.25-0.37-0.51-0.37c-0.34,0-0.62,0.28-0.62,0.77c0,0.4,0.22,0.72,0.62,0.72
			c0.24,0,0.43-0.14,0.5-0.34c0.02-0.06,0.03-0.15,0.03-0.22V34.26z"/>
		<path d="M55.32,32.41c0,0.23-0.2,0.42-0.51,0.42c-0.3,0-0.5-0.19-0.49-0.42c-0.01-0.24,0.19-0.43,0.5-0.43
			C55.12,31.98,55.32,32.16,55.32,32.41z M54.35,35.86v-2.7h0.94v2.7H54.35z"/>
		<path d="M56.05,34.02c0-0.34-0.01-0.63-0.02-0.86h0.82l0.04,0.37h0.02c0.12-0.17,0.44-0.43,0.94-0.43c0.62,0,1.09,0.36,1.09,1.16
			v1.6h-0.95v-1.5c0-0.35-0.14-0.59-0.48-0.59c-0.26,0-0.42,0.16-0.48,0.32c-0.03,0.06-0.04,0.13-0.04,0.21v1.56h-0.94V34.02z"/>
		<path d="M60.41,34.78c0.03,0.35,0.42,0.51,0.86,0.51c0.32,0,0.58-0.04,0.84-0.11l0.12,0.57c-0.31,0.11-0.69,0.17-1.1,0.17
			c-1.03,0-1.62-0.54-1.62-1.38c0-0.69,0.48-1.44,1.54-1.44c0.98,0,1.36,0.68,1.36,1.35c0,0.14-0.02,0.27-0.03,0.33H60.41z
			 M61.53,34.2c0-0.2-0.1-0.55-0.53-0.55c-0.4,0-0.56,0.32-0.58,0.55H61.53z"/>
		<path d="M63.69,34.78c0.03,0.35,0.42,0.51,0.86,0.51c0.32,0,0.58-0.04,0.84-0.11l0.12,0.57c-0.31,0.11-0.69,0.17-1.1,0.17
			c-1.03,0-1.62-0.54-1.62-1.38c0-0.69,0.48-1.44,1.54-1.44c0.98,0,1.36,0.68,1.36,1.35c0,0.14-0.02,0.27-0.03,0.33H63.69z
			 M64.81,34.2c0-0.2-0.1-0.55-0.53-0.55c-0.4,0-0.56,0.32-0.58,0.55H64.81z"/>
		<path d="M66.25,34.05c0-0.4-0.01-0.66-0.02-0.89h0.81l0.03,0.5h0.02c0.16-0.39,0.53-0.56,0.82-0.56c0.09,0,0.13,0,0.2,0.01v0.8
			c-0.07-0.02-0.15-0.03-0.26-0.03c-0.35,0-0.58,0.17-0.65,0.43c-0.01,0.05-0.02,0.12-0.02,0.19v1.37h-0.94V34.05z"/>
		<path d="M69.58,32.41c0,0.23-0.2,0.42-0.51,0.42c-0.3,0-0.5-0.19-0.49-0.42c-0.01-0.24,0.19-0.43,0.5-0.43
			S69.58,32.16,69.58,32.41z M68.61,35.86v-2.7h0.94v2.7H68.61z"/>
		<path d="M70.31,34.02c0-0.34-0.01-0.63-0.02-0.86h0.82l0.04,0.37h0.02c0.12-0.17,0.44-0.43,0.94-0.43c0.62,0,1.09,0.36,1.09,1.16
			v1.6h-0.95v-1.5c0-0.35-0.14-0.59-0.48-0.59c-0.26,0-0.42,0.16-0.48,0.32c-0.03,0.06-0.04,0.13-0.04,0.21v1.56h-0.94V34.02z"/>
		<path d="M76.83,35.47c0,0.52-0.12,0.95-0.46,1.22c-0.34,0.25-0.79,0.33-1.24,0.33c-0.4,0-0.82-0.07-1.09-0.21l0.19-0.64
			c0.19,0.1,0.53,0.2,0.88,0.2c0.45,0,0.79-0.22,0.79-0.71v-0.18h-0.01c-0.18,0.23-0.47,0.35-0.82,0.35c-0.75,0-1.29-0.54-1.29-1.32
			c0-0.87,0.63-1.42,1.38-1.42c0.42,0,0.68,0.16,0.83,0.38H76l0.03-0.32h0.82c-0.01,0.17-0.02,0.4-0.02,0.8V35.47z M75.88,34.26
			c0-0.06-0.01-0.11-0.02-0.15c-0.07-0.22-0.25-0.37-0.51-0.37c-0.34,0-0.62,0.28-0.62,0.77c0,0.4,0.22,0.72,0.62,0.72
			c0.24,0,0.43-0.14,0.5-0.34c0.02-0.06,0.03-0.15,0.03-0.22V34.26z"/>
		<path class="st33" d="M23.95,38.82c0.29-0.04,0.7-0.08,1.28-0.08c0.58,0,1,0.1,1.28,0.3c0.27,0.19,0.45,0.5,0.45,0.86
			c0,0.37-0.14,0.67-0.39,0.89c-0.32,0.27-0.8,0.39-1.36,0.39c-0.12,0-0.24-0.01-0.32-0.02v1.33h-0.94V38.82z M24.89,40.51
			c0.08,0.02,0.18,0.02,0.32,0.02c0.5,0,0.81-0.23,0.81-0.61c0-0.34-0.27-0.55-0.74-0.55c-0.19,0-0.32,0.02-0.39,0.03V40.51z"/>
		<path class="st33" d="M29.08,42.5v-0.86h-1.79v-0.55l1.53-2.19h1.16v2.11h0.48v0.63h-0.48v0.86H29.08z M29.08,41.01v-0.8
			c0-0.22,0.01-0.44,0.03-0.67h-0.03c-0.13,0.23-0.24,0.44-0.37,0.67L28.18,41v0.01H29.08z"/>
		<path d="M33.67,40.76v0.56h-1.63v-0.56H33.67z"/>
		<path d="M35.55,41.63c0.26,0.12,0.65,0.23,1.05,0.23c0.43,0,0.67-0.16,0.67-0.4c0-0.23-0.2-0.37-0.7-0.53
			c-0.7-0.22-1.15-0.56-1.15-1.1c0-0.64,0.6-1.12,1.59-1.12c0.47,0,0.82,0.09,1.07,0.19l-0.21,0.68c-0.17-0.07-0.47-0.18-0.88-0.18
			c-0.41,0-0.61,0.17-0.61,0.36c0,0.24,0.24,0.34,0.78,0.53c0.74,0.24,1.09,0.59,1.09,1.11c0,0.62-0.54,1.16-1.69,1.16
			c-0.48,0-0.95-0.12-1.19-0.23L35.55,41.63z"/>
		<path d="M39.82,38.77v3.73h-0.95v-3.73H39.82z"/>
		<path d="M41.59,38.77v3.73h-0.95v-3.73H41.59z"/>
		<path class="st33" d="M23.95,45.45c0.29-0.04,0.7-0.08,1.28-0.08c0.58,0,1,0.1,1.28,0.3c0.27,0.19,0.45,0.5,0.45,0.86
			c0,0.37-0.14,0.67-0.39,0.89c-0.32,0.27-0.8,0.39-1.36,0.39c-0.12,0-0.24-0.01-0.32-0.02v1.33h-0.94V45.45z M24.89,47.14
			c0.08,0.02,0.18,0.02,0.32,0.02c0.5,0,0.81-0.23,0.81-0.61c0-0.34-0.27-0.55-0.74-0.55c-0.19,0-0.32,0.02-0.39,0.03V47.14z"/>
		<path class="st33" d="M30.11,46.23h-1.57l-0.09,0.55c0.09-0.01,0.16-0.01,0.26-0.01c0.39,0,0.78,0.08,1.06,0.26
			c0.3,0.18,0.49,0.48,0.49,0.9c0,0.67-0.65,1.26-1.73,1.26c-0.49,0-0.9-0.1-1.12-0.2l0.17-0.63c0.18,0.08,0.55,0.18,0.91,0.18
			c0.39,0,0.81-0.17,0.81-0.55c0-0.37-0.33-0.6-1.14-0.6c-0.22,0-0.38,0.01-0.55,0.03l0.27-1.89h2.23V46.23z"/>
		<path d="M33.67,47.39v0.56h-1.63v-0.56H33.67z"/>
		<path d="M39.35,47.23c0,1.22-0.83,1.96-2.06,1.96c-1.24,0-1.97-0.84-1.97-1.9c0-1.12,0.8-1.95,2.04-1.95
			C38.65,45.34,39.35,46.2,39.35,47.23z M36.33,47.28c0,0.73,0.39,1.24,1.02,1.24c0.64,0,1.01-0.54,1.01-1.27
			c0-0.67-0.36-1.24-1.01-1.24C36.7,46.01,36.33,46.55,36.33,47.28z"/>
		<path d="M39.97,47.33c0-0.35-0.01-0.66-0.02-0.91h0.82l0.04,0.38h0.01c0.22-0.29,0.57-0.44,1.01-0.44c0.66,0,1.26,0.51,1.26,1.38
			c0,0.98-0.7,1.45-1.38,1.45c-0.37,0-0.65-0.13-0.79-0.31h-0.01v1.34h-0.94V47.33z M40.91,47.97c0,0.07,0.01,0.13,0.02,0.18
			c0.06,0.23,0.28,0.4,0.55,0.4c0.41,0,0.65-0.3,0.65-0.76c0-0.43-0.22-0.76-0.64-0.76c-0.27,0-0.5,0.18-0.57,0.43
			c-0.01,0.04-0.02,0.1-0.02,0.15V47.97z"/>
		<path d="M44.43,48.04c0.03,0.35,0.42,0.51,0.86,0.51c0.32,0,0.58-0.04,0.84-0.11l0.12,0.57c-0.31,0.11-0.69,0.17-1.1,0.17
			c-1.03,0-1.62-0.54-1.62-1.38c0-0.69,0.48-1.44,1.54-1.44c0.98,0,1.36,0.68,1.36,1.35c0,0.14-0.02,0.27-0.03,0.33H44.43z
			 M45.54,47.47c0-0.2-0.1-0.55-0.53-0.55c-0.4,0-0.56,0.32-0.58,0.55H45.54z"/>
		<path d="M46.98,47.29c0-0.34-0.01-0.63-0.02-0.86h0.82l0.04,0.37h0.02c0.12-0.17,0.44-0.43,0.94-0.43c0.62,0,1.09,0.36,1.09,1.16
			v1.6h-0.95v-1.5c0-0.35-0.14-0.59-0.48-0.59c-0.26,0-0.42,0.16-0.48,0.32c-0.03,0.06-0.04,0.13-0.04,0.21v1.56h-0.94V47.29z"/>
		<path d="M52.86,49.13l-0.38-0.67c-0.15-0.26-0.25-0.45-0.37-0.67h-0.01c-0.09,0.22-0.19,0.41-0.32,0.67l-0.35,0.67h-1.08
			l1.21-1.89l-1.17-1.84h1.09l0.37,0.68c0.12,0.23,0.22,0.41,0.32,0.62h0.01c0.1-0.24,0.18-0.4,0.29-0.62l0.35-0.68h1.08l-1.18,1.82
			l1.24,1.91H52.86z"/>
		<path d="M55.71,45.45c0.29-0.04,0.7-0.08,1.28-0.08c0.58,0,1,0.1,1.28,0.3c0.27,0.19,0.45,0.5,0.45,0.86
			c0,0.37-0.14,0.67-0.39,0.89c-0.32,0.27-0.8,0.39-1.36,0.39c-0.12,0-0.24-0.01-0.32-0.02v1.33h-0.94V45.45z M56.65,47.14
			c0.08,0.02,0.18,0.02,0.32,0.02c0.5,0,0.81-0.23,0.81-0.61c0-0.34-0.27-0.55-0.74-0.55c-0.19,0-0.32,0.02-0.39,0.03V47.14z"/>
		<path d="M62.14,47.75c0,0.99-0.79,1.44-1.6,1.44c-0.89,0-1.57-0.52-1.57-1.39c0-0.87,0.65-1.43,1.62-1.43
			C61.52,46.36,62.14,46.93,62.14,47.75z M59.94,47.77c0,0.46,0.22,0.81,0.62,0.81c0.37,0,0.6-0.33,0.6-0.81
			c0-0.4-0.17-0.81-0.6-0.81C60.11,46.96,59.94,47.38,59.94,47.77z"/>
		<path d="M62.73,45.2h0.94v3.93h-0.94V45.2z"/>
		<path d="M66.97,48.47c0,0.26,0.01,0.51,0.04,0.66h-0.85l-0.06-0.27h-0.02c-0.2,0.22-0.51,0.33-0.87,0.33
			c-0.62,0-0.98-0.4-0.98-0.83c0-0.7,0.71-1.04,1.78-1.03v-0.04c0-0.14-0.09-0.35-0.55-0.35c-0.31,0-0.64,0.09-0.84,0.2l-0.17-0.54
			c0.21-0.1,0.63-0.24,1.18-0.24c1.01,0,1.34,0.53,1.34,1.17V48.47z M66.05,47.85c-0.5-0.01-0.88,0.1-0.88,0.43
			c0,0.22,0.16,0.32,0.37,0.32c0.24,0,0.43-0.14,0.49-0.31c0.01-0.04,0.02-0.09,0.02-0.14V47.85z"/>
		<path d="M67.72,47.29c0-0.34-0.01-0.63-0.02-0.86h0.82l0.04,0.37h0.02c0.12-0.17,0.44-0.43,0.94-0.43c0.62,0,1.09,0.36,1.09,1.16
			v1.6h-0.95v-1.5c0-0.35-0.14-0.59-0.48-0.59c-0.26,0-0.42,0.16-0.48,0.32c-0.03,0.06-0.04,0.13-0.04,0.21v1.56h-0.94V47.29z"/>
		<path d="M74.3,45.2v3.12c0,0.3,0.01,0.62,0.03,0.81h-0.84l-0.04-0.4h-0.01c-0.19,0.3-0.56,0.46-0.95,0.46
			c-0.72,0-1.3-0.55-1.3-1.39c-0.01-0.91,0.63-1.44,1.36-1.44c0.37,0,0.66,0.12,0.8,0.3h0.01V45.2H74.3z M73.36,47.57
			c0-0.04-0.01-0.11-0.01-0.15c-0.06-0.23-0.26-0.41-0.55-0.41c-0.43,0-0.65,0.34-0.65,0.77c0,0.46,0.25,0.75,0.65,0.75
			c0.27,0,0.49-0.17,0.55-0.4c0.02-0.06,0.02-0.12,0.02-0.19V47.57z"/>
		<path class="st34" d="M23.95,52.08c0.29-0.04,0.7-0.08,1.28-0.08c0.58,0,1,0.1,1.28,0.3c0.27,0.19,0.45,0.5,0.45,0.86
			c0,0.37-0.14,0.67-0.39,0.89c-0.32,0.27-0.8,0.39-1.36,0.39c-0.12,0-0.24-0.01-0.32-0.02v1.33h-0.94V52.08z M24.89,53.78
			c0.08,0.02,0.18,0.02,0.32,0.02c0.5,0,0.81-0.23,0.81-0.61c0-0.34-0.27-0.55-0.74-0.55c-0.19,0-0.32,0.02-0.39,0.03V53.78z"/>
		<path class="st34" d="M29.99,52.76c-0.11,0-0.22,0-0.37,0.01c-0.84,0.06-1.21,0.44-1.32,0.86h0.02c0.2-0.18,0.48-0.29,0.86-0.29
			c0.68,0,1.25,0.43,1.25,1.17c0,0.71-0.62,1.3-1.49,1.3c-1.08,0-1.6-0.71-1.6-1.57c0-0.67,0.28-1.24,0.71-1.6
			c0.4-0.33,0.93-0.5,1.56-0.53c0.17-0.01,0.29-0.01,0.38-0.01V52.76z M28.94,55.2c0.33,0,0.54-0.27,0.54-0.64
			c0-0.33-0.2-0.62-0.6-0.62c-0.25,0-0.47,0.14-0.56,0.32c-0.03,0.04-0.04,0.11-0.04,0.21C28.29,54.86,28.5,55.2,28.94,55.2
			L28.94,55.2z"/>
		<path d="M33.67,54.02v0.56h-1.63v-0.56H33.67z"/>
		<path d="M35.55,54.89c0.26,0.12,0.65,0.23,1.05,0.23c0.43,0,0.67-0.16,0.67-0.4c0-0.23-0.2-0.37-0.7-0.53
			c-0.7-0.22-1.15-0.56-1.15-1.1c0-0.64,0.6-1.12,1.59-1.12c0.47,0,0.82,0.09,1.07,0.19l-0.21,0.68c-0.17-0.07-0.47-0.18-0.88-0.18
			c-0.41,0-0.61,0.17-0.61,0.36c0,0.24,0.24,0.34,0.78,0.53c0.74,0.24,1.09,0.59,1.09,1.11c0,0.62-0.54,1.16-1.69,1.16
			c-0.48,0-0.95-0.12-1.19-0.23L35.55,54.89z"/>
		<path d="M39.82,52.3c0,0.23-0.2,0.42-0.51,0.42c-0.3,0-0.5-0.19-0.49-0.42c-0.01-0.24,0.19-0.43,0.5-0.43
			C39.62,51.88,39.81,52.06,39.82,52.3z M38.84,55.76v-2.7h0.94v2.7H38.84z"/>
		<path d="M41.27,54.68c0.03,0.35,0.42,0.51,0.86,0.51c0.32,0,0.58-0.04,0.84-0.11l0.12,0.57c-0.31,0.11-0.69,0.17-1.1,0.17
			c-1.03,0-1.62-0.54-1.62-1.38c0-0.69,0.48-1.44,1.54-1.44c0.98,0,1.35,0.68,1.35,1.35c0,0.14-0.02,0.27-0.03,0.33H41.27z
			 M42.38,54.1c0-0.2-0.1-0.55-0.53-0.55c-0.4,0-0.56,0.32-0.58,0.55H42.38z"/>
		<path d="M46.1,55.69c-0.17,0.07-0.48,0.13-0.85,0.13c-0.98,0-1.61-0.54-1.61-1.39c0-0.79,0.61-1.44,1.74-1.44
			c0.25,0,0.52,0.04,0.72,0.1l-0.15,0.63c-0.11-0.04-0.28-0.08-0.53-0.08c-0.5,0-0.82,0.32-0.81,0.76c0,0.5,0.37,0.76,0.83,0.76
			c0.22,0,0.4-0.03,0.54-0.09L46.1,55.69z M46.13,51.88l-0.76,0.84h-0.65l0.53-0.84H46.13z"/>
		<path d="M47.91,52.08c0.25-0.04,0.75-0.08,1.22-0.08c0.58,0,0.93,0.05,1.24,0.21c0.29,0.14,0.5,0.39,0.5,0.73
			c0,0.33-0.22,0.64-0.69,0.8v0.01c0.48,0.12,0.83,0.44,0.83,0.92c0,0.34-0.17,0.6-0.43,0.79c-0.3,0.22-0.81,0.34-1.65,0.34
			c-0.47,0-0.81-0.03-1.03-0.06V52.08z M48.85,53.51h0.31c0.5,0,0.76-0.18,0.76-0.46c0-0.28-0.24-0.43-0.67-0.43
			c-0.21,0-0.32,0.01-0.4,0.02V53.51z M48.85,55.16c0.09,0.01,0.21,0.01,0.37,0.01c0.43,0,0.81-0.15,0.81-0.54
			c0-0.38-0.38-0.53-0.85-0.53h-0.32V55.16z"/>
		<path d="M54.19,55.1c0,0.26,0.01,0.51,0.04,0.66h-0.85l-0.06-0.27H53.3c-0.2,0.22-0.51,0.33-0.87,0.33c-0.62,0-0.98-0.4-0.98-0.83
			c0-0.7,0.71-1.04,1.78-1.03v-0.04c0-0.14-0.09-0.35-0.55-0.35c-0.31,0-0.64,0.09-0.84,0.2l-0.17-0.54
			c0.21-0.1,0.63-0.24,1.18-0.24c1.01,0,1.34,0.53,1.34,1.17V55.1z M53.27,54.48c-0.5-0.01-0.88,0.1-0.88,0.43
			c0,0.22,0.16,0.32,0.37,0.32c0.24,0,0.43-0.14,0.49-0.31c0.01-0.04,0.02-0.09,0.02-0.14V54.48z"/>
		<path d="M57.88,51.83v3.12c0,0.3,0.01,0.62,0.03,0.81h-0.84l-0.04-0.4h-0.01c-0.19,0.3-0.56,0.46-0.95,0.46
			c-0.72,0-1.3-0.55-1.3-1.39C54.75,53.52,55.39,53,56.12,53c0.37,0,0.66,0.12,0.8,0.3h0.01v-1.47H57.88z M56.93,54.2
			c0-0.04-0.01-0.11-0.01-0.15c-0.06-0.23-0.26-0.41-0.55-0.41c-0.43,0-0.65,0.34-0.65,0.77c0,0.46,0.25,0.75,0.65,0.75
			c0.27,0,0.49-0.17,0.55-0.4c0.02-0.06,0.02-0.12,0.02-0.19V54.2z"/>
		<path d="M61.17,55.1c0,0.26,0.01,0.51,0.04,0.66h-0.85l-0.06-0.27h-0.02c-0.2,0.22-0.51,0.33-0.87,0.33
			c-0.62,0-0.98-0.4-0.98-0.83c0-0.7,0.71-1.04,1.78-1.03v-0.04c0-0.14-0.09-0.35-0.55-0.35c-0.31,0-0.64,0.09-0.84,0.2l-0.17-0.54
			c0.21-0.1,0.63-0.24,1.18-0.24c1.01,0,1.34,0.53,1.34,1.17V55.1z M60.25,54.48c-0.5-0.01-0.88,0.1-0.88,0.43
			c0,0.22,0.16,0.32,0.37,0.32c0.24,0,0.43-0.14,0.49-0.31c0.01-0.04,0.02-0.09,0.02-0.14V54.48z"/>
		<path d="M62.49,53.06l0.24,1.11c0.06,0.28,0.12,0.58,0.17,0.89h0.01c0.06-0.31,0.15-0.62,0.22-0.89l0.32-1.11h0.75l0.3,1.08
			c0.08,0.3,0.16,0.61,0.22,0.92h0.01c0.04-0.31,0.11-0.61,0.17-0.92l0.26-1.07h0.93l-0.93,2.7h-0.89l-0.29-0.95
			c-0.07-0.27-0.13-0.5-0.19-0.84H63.8c-0.06,0.34-0.12,0.59-0.2,0.84l-0.3,0.95h-0.89l-0.88-2.7H62.49z"/>
		<path d="M68.74,55.69c-0.17,0.07-0.48,0.13-0.85,0.13c-0.98,0-1.61-0.54-1.61-1.39c0-0.79,0.61-1.44,1.74-1.44
			c0.25,0,0.52,0.04,0.72,0.1l-0.15,0.63c-0.11-0.04-0.28-0.08-0.53-0.08c-0.5,0-0.82,0.32-0.81,0.76c0,0.5,0.37,0.76,0.83,0.76
			c0.22,0,0.4-0.03,0.54-0.09L68.74,55.69z"/>
		<path d="M69.02,55.28l0.96-1.07c0.17-0.18,0.31-0.32,0.48-0.48v-0.01h-1.34v-0.66h2.49v0.5l-0.91,1.02
			c-0.17,0.18-0.32,0.35-0.5,0.5v0.01h1.46v0.67h-2.64V55.28z"/>
		<path d="M74.71,55.1c0,0.26,0.01,0.51,0.04,0.66H73.9l-0.06-0.27h-0.02c-0.2,0.22-0.51,0.33-0.87,0.33c-0.62,0-0.98-0.4-0.98-0.83
			c0-0.7,0.71-1.04,1.78-1.03v-0.04c0-0.14-0.09-0.35-0.55-0.35c-0.31,0-0.64,0.09-0.84,0.2l-0.17-0.54
			c0.21-0.1,0.63-0.24,1.18-0.24c1.01,0,1.34,0.53,1.34,1.17V55.1z M73.79,54.48c-0.5-0.01-0.88,0.1-0.88,0.43
			c0,0.22,0.16,0.32,0.37,0.32c0.24,0,0.43-0.14,0.49-0.31c0.01-0.04,0.02-0.09,0.02-0.14V54.48z"/>
		<path d="M76.78,55.76v-1.3l-0.47,0.28v-0.58l0.47-0.29v-1.84h0.94v1.28l0.78-0.47v0.59l-0.78,0.47v1.15h1.67v0.71H76.78z"/>
		<path d="M82.72,54.89c0,0.35,0.01,0.64,0.02,0.87h-0.82l-0.04-0.38h-0.02c-0.12,0.17-0.4,0.44-0.95,0.44
			c-0.62,0-1.07-0.34-1.07-1.18v-1.59h0.95v1.45c0,0.39,0.14,0.63,0.47,0.63c0.26,0,0.41-0.16,0.47-0.29
			c0.02-0.05,0.03-0.12,0.03-0.18v-1.61h0.95V54.89z"/>
		<path d="M84.42,54.2h0.01c0.07-0.11,0.14-0.22,0.22-0.33l0.62-0.81h1.14l-1.09,1.09l1.24,1.61h-1.16l-0.73-1.11l-0.24,0.27v0.85
			h-0.94v-3.93h0.94V54.2z"/>
		<path d="M89.41,55.1c0,0.26,0.01,0.51,0.04,0.66H88.6l-0.06-0.27h-0.02c-0.2,0.22-0.51,0.33-0.87,0.33c-0.62,0-0.98-0.4-0.98-0.83
			c0-0.7,0.71-1.04,1.78-1.03v-0.04c0-0.14-0.09-0.35-0.55-0.35c-0.31,0-0.64,0.09-0.84,0.2l-0.17-0.54
			c0.21-0.1,0.63-0.24,1.18-0.24c1.01,0,1.34,0.53,1.34,1.17V55.1z M88.49,54.48c-0.5-0.01-0.88,0.1-0.88,0.43
			c0,0.22,0.16,0.32,0.37,0.32c0.24,0,0.43-0.14,0.49-0.31c0.01-0.04,0.02-0.09,0.02-0.14V54.48z"/>
		<path d="M90.14,55.02c0.17,0.09,0.53,0.21,0.81,0.21c0.29,0,0.4-0.09,0.4-0.23c0-0.14-0.09-0.2-0.45-0.31
			c-0.63-0.19-0.87-0.49-0.86-0.81c0-0.51,0.48-0.89,1.24-0.89c0.35,0,0.67,0.07,0.86,0.15l-0.17,0.58
			c-0.14-0.07-0.4-0.15-0.66-0.15c-0.23,0-0.36,0.08-0.36,0.22c0,0.13,0.12,0.19,0.49,0.31c0.58,0.18,0.82,0.44,0.83,0.84
			c0,0.5-0.45,0.88-1.32,0.88c-0.4,0-0.75-0.08-0.98-0.19L90.14,55.02z"/>
		<path d="M93.82,52.3c0,0.23-0.2,0.42-0.51,0.42c-0.3,0-0.5-0.19-0.49-0.42c-0.01-0.24,0.19-0.43,0.5-0.43S93.82,52.06,93.82,52.3z
			 M92.85,55.76v-2.7h0.94v2.7H92.85z"/>
		<path d="M95.28,54.68c0.03,0.35,0.42,0.51,0.86,0.51c0.32,0,0.58-0.04,0.84-0.11l0.12,0.57c-0.31,0.11-0.69,0.17-1.1,0.17
			c-1.03,0-1.62-0.54-1.62-1.38c0-0.69,0.48-1.44,1.54-1.44c0.98,0,1.36,0.68,1.36,1.35c0,0.14-0.02,0.27-0.03,0.33H95.28z
			 M96.39,54.1c0-0.2-0.1-0.55-0.53-0.55c-0.4,0-0.56,0.32-0.58,0.55H96.39z"/>
		<path d="M98.44,53.06l0.24,1.11c0.06,0.28,0.12,0.58,0.17,0.89h0.01c0.06-0.31,0.15-0.62,0.22-0.89l0.32-1.11h0.75l0.3,1.08
			c0.08,0.3,0.16,0.61,0.22,0.92h0.01c0.04-0.31,0.11-0.61,0.17-0.92l0.26-1.07h0.93l-0.93,2.7h-0.89l-0.29-0.95
			c-0.07-0.27-0.13-0.5-0.19-0.84h-0.01c-0.06,0.34-0.12,0.59-0.2,0.84l-0.3,0.95h-0.89l-0.88-2.7H98.44z"/>
		<path d="M103.48,52.3c0,0.23-0.2,0.42-0.51,0.42c-0.3,0-0.5-0.19-0.49-0.42c-0.01-0.24,0.19-0.43,0.5-0.43
			S103.48,52.06,103.48,52.3z M102.51,55.76v-2.7h0.94v2.7H102.51z"/>
		<path d="M106.49,55.69c-0.17,0.07-0.48,0.13-0.85,0.13c-0.98,0-1.61-0.54-1.61-1.39c0-0.79,0.61-1.44,1.74-1.44
			c0.25,0,0.52,0.04,0.72,0.1l-0.15,0.63c-0.11-0.04-0.28-0.08-0.53-0.08c-0.5,0-0.82,0.32-0.81,0.76c0,0.5,0.37,0.76,0.83,0.76
			c0.22,0,0.4-0.03,0.54-0.09L106.49,55.69z"/>
		<path d="M106.77,55.28l0.96-1.07c0.17-0.18,0.31-0.32,0.48-0.48v-0.01h-1.34v-0.66h2.49v0.5l-0.91,1.02
			c-0.17,0.18-0.32,0.35-0.5,0.5v0.01h1.46v0.67h-2.64V55.28z"/>
		<path class="st34" d="M23.95,58.72c0.29-0.04,0.7-0.08,1.28-0.08c0.58,0,1,0.1,1.28,0.3c0.27,0.19,0.45,0.5,0.45,0.86
			c0,0.37-0.14,0.67-0.39,0.89c-0.32,0.27-0.8,0.39-1.36,0.39c-0.12,0-0.24-0.01-0.32-0.02v1.33h-0.94V58.72z M24.89,60.41
			c0.08,0.02,0.18,0.02,0.32,0.02c0.5,0,0.81-0.23,0.81-0.61c0-0.34-0.27-0.55-0.74-0.55c-0.19,0-0.32,0.02-0.39,0.03V60.41z"/>
		<path class="st34" d="M30.31,58.8v0.53l-1.67,3.06h-1l1.67-2.89v-0.01h-1.85V58.8H30.31z"/>
		<path d="M33.67,60.66v0.56h-1.63v-0.56H33.67z"/>
		<path d="M38.01,60.82h-1.54v0.89h1.72v0.69h-2.67v-3.73h2.59v0.69h-1.63v0.77h1.54V60.82z"/>
		<path d="M38.83,58.72c0.35-0.05,0.8-0.08,1.28-0.08c0.8,0,1.31,0.13,1.72,0.4c0.44,0.29,0.71,0.75,0.71,1.4
			c0,0.71-0.29,1.21-0.7,1.51c-0.44,0.33-1.11,0.48-1.93,0.48c-0.49,0-0.84-0.03-1.08-0.06V58.72z M39.79,61.76
			c0.08,0.02,0.21,0.02,0.33,0.02c0.86,0.01,1.42-0.41,1.42-1.31c0.01-0.77-0.5-1.18-1.32-1.18c-0.21,0-0.35,0.02-0.43,0.03V61.76z"
			/>
		<path d="M44.03,61.44l-0.3,0.96h-0.98l1.28-3.73h1.24l1.3,3.73h-1.02l-0.32-0.96H44.03z M45.1,60.81l-0.26-0.79
			c-0.07-0.22-0.15-0.5-0.21-0.72h-0.01c-0.06,0.22-0.12,0.5-0.19,0.72l-0.25,0.79H45.1z"/>
		<path d="M50.48,62.22c-0.29,0.09-0.85,0.21-1.4,0.21c-0.76,0-1.32-0.17-1.7-0.5c-0.39-0.32-0.6-0.81-0.59-1.36
			c0.01-1.24,1.02-1.95,2.39-1.95c0.54,0,0.96,0.09,1.16,0.18l-0.2,0.67c-0.23-0.09-0.52-0.16-0.98-0.16c-0.79,0-1.39,0.4-1.39,1.21
			c0,0.77,0.54,1.22,1.32,1.22c0.22,0,0.39-0.02,0.47-0.06v-0.78h-0.65v-0.66h1.56V62.22z"/>
		<path d="M54.96,60.82h-1.54v0.89h1.72v0.69h-2.67v-3.73h2.59v0.69h-1.63v0.77h1.54V60.82z"/>
		<path d="M55.76,60.55c0-0.34-0.01-0.63-0.02-0.86h0.82l0.04,0.37h0.02c0.12-0.17,0.44-0.43,0.94-0.43c0.62,0,1.09,0.36,1.09,1.16
			v1.6h-0.95v-1.5c0-0.35-0.14-0.59-0.48-0.59c-0.26,0-0.42,0.16-0.48,0.32c-0.03,0.06-0.04,0.13-0.04,0.21v1.56h-0.94V60.55z"/>
		<path d="M62.27,62c0,0.52-0.12,0.95-0.46,1.22c-0.34,0.25-0.79,0.33-1.24,0.33c-0.4,0-0.82-0.07-1.09-0.21l0.19-0.64
			c0.19,0.1,0.53,0.2,0.88,0.2c0.45,0,0.79-0.22,0.79-0.71v-0.18h-0.01c-0.18,0.23-0.47,0.35-0.82,0.35c-0.75,0-1.29-0.54-1.29-1.32
			c0-0.87,0.63-1.42,1.38-1.42c0.42,0,0.68,0.16,0.83,0.38h0.01l0.03-0.32h0.82c-0.01,0.17-0.02,0.4-0.02,0.8V62z M61.33,60.79
			c0-0.06-0.01-0.11-0.02-0.15c-0.07-0.22-0.25-0.37-0.51-0.37c-0.34,0-0.62,0.28-0.62,0.77c0,0.4,0.22,0.72,0.62,0.72
			c0.24,0,0.43-0.14,0.5-0.34c0.02-0.06,0.03-0.15,0.03-0.22V60.79z"/>
		<path d="M64.01,58.94c0,0.23-0.2,0.42-0.51,0.42c-0.3,0-0.5-0.19-0.49-0.42c-0.01-0.24,0.19-0.43,0.5-0.43S64,58.69,64.01,58.94z
			 M63.03,62.39v-2.7h0.94v2.7H63.03z"/>
		<path d="M64.73,60.55c0-0.34-0.01-0.63-0.02-0.86h0.82l0.04,0.37h0.02c0.12-0.17,0.44-0.43,0.94-0.43c0.62,0,1.09,0.36,1.09,1.16
			v1.6h-0.95v-1.5c0-0.35-0.14-0.59-0.48-0.59c-0.26,0-0.42,0.16-0.48,0.32c-0.03,0.06-0.04,0.13-0.04,0.21v1.56h-0.94V60.55z"/>
		<path d="M69.1,61.31c0.03,0.35,0.42,0.51,0.86,0.51c0.32,0,0.58-0.04,0.84-0.11l0.12,0.57c-0.31,0.11-0.69,0.17-1.1,0.17
			c-1.03,0-1.62-0.54-1.62-1.38c0-0.69,0.48-1.44,1.54-1.44c0.98,0,1.35,0.68,1.35,1.35c0,0.14-0.02,0.27-0.03,0.33H69.1z
			 M70.21,60.73c0-0.2-0.1-0.55-0.53-0.55c-0.4,0-0.56,0.32-0.58,0.55H70.21z"/>
		<path d="M72.38,61.31c0.03,0.35,0.42,0.51,0.86,0.51c0.32,0,0.58-0.04,0.84-0.11l0.12,0.57c-0.31,0.11-0.69,0.17-1.1,0.17
			c-1.03,0-1.62-0.54-1.62-1.38c0-0.69,0.48-1.44,1.54-1.44c0.98,0,1.35,0.68,1.35,1.35c0,0.14-0.02,0.27-0.03,0.33H72.38z
			 M73.49,60.73c0-0.2-0.1-0.55-0.53-0.55c-0.4,0-0.56,0.32-0.58,0.55H73.49z"/>
		<path d="M74.93,60.58c0-0.4-0.01-0.66-0.02-0.89h0.81l0.03,0.5h0.02c0.16-0.39,0.53-0.56,0.82-0.56c0.09,0,0.13,0,0.2,0.01v0.8
			c-0.07-0.02-0.15-0.03-0.26-0.03c-0.35,0-0.58,0.17-0.65,0.43c-0.01,0.05-0.02,0.12-0.02,0.19v1.37h-0.94V60.58z"/>
		<path d="M78.27,58.94c0,0.23-0.2,0.42-0.51,0.42c-0.3,0-0.5-0.19-0.49-0.42c-0.01-0.24,0.19-0.43,0.5-0.43
			C78.07,58.51,78.26,58.69,78.27,58.94z M77.29,62.39v-2.7h0.94v2.7H77.29z"/>
		<path d="M78.99,60.55c0-0.34-0.01-0.63-0.02-0.86h0.82l0.04,0.37h0.02c0.12-0.17,0.44-0.43,0.94-0.43c0.62,0,1.09,0.36,1.09,1.16
			v1.6h-0.95v-1.5c0-0.35-0.14-0.59-0.48-0.59c-0.26,0-0.42,0.16-0.48,0.32c-0.03,0.06-0.04,0.13-0.04,0.21v1.56h-0.94V60.55z"/>
		<path d="M85.51,62c0,0.52-0.12,0.95-0.46,1.22c-0.34,0.25-0.79,0.33-1.24,0.33c-0.4,0-0.82-0.07-1.09-0.21l0.19-0.64
			c0.19,0.1,0.53,0.2,0.88,0.2c0.45,0,0.79-0.22,0.79-0.71v-0.18h-0.01c-0.18,0.23-0.47,0.35-0.82,0.35c-0.75,0-1.29-0.54-1.29-1.32
			c0-0.87,0.63-1.42,1.38-1.42c0.42,0,0.68,0.16,0.83,0.38h0.01l0.03-0.32h0.82c-0.01,0.17-0.02,0.4-0.02,0.8V62z M84.57,60.79
			c0-0.06-0.01-0.11-0.02-0.15c-0.07-0.22-0.25-0.37-0.51-0.37c-0.34,0-0.62,0.28-0.62,0.77c0,0.4,0.22,0.72,0.62,0.72
			c0.24,0,0.43-0.14,0.5-0.34c0.02-0.06,0.03-0.15,0.03-0.22V60.79z"/>
		<path class="st34" d="M23.95,65.35c0.29-0.04,0.7-0.08,1.28-0.08c0.58,0,1,0.1,1.28,0.3c0.27,0.19,0.45,0.5,0.45,0.86
			c0,0.37-0.14,0.67-0.39,0.89c-0.32,0.27-0.8,0.39-1.36,0.39c-0.12,0-0.24-0.01-0.32-0.02v1.33h-0.94V65.35z M24.89,67.04
			c0.08,0.02,0.18,0.02,0.32,0.02c0.5,0,0.81-0.23,0.81-0.61c0-0.34-0.27-0.55-0.74-0.55c-0.19,0-0.32,0.02-0.39,0.03V67.04z"/>
		<path class="st34" d="M28.07,67.17c-0.39-0.18-0.58-0.47-0.58-0.78c0-0.61,0.62-1.01,1.42-1.01c0.94,0,1.34,0.49,1.34,0.92
			c0,0.31-0.19,0.61-0.58,0.79v0.02c0.39,0.13,0.74,0.43,0.74,0.9c0,0.65-0.62,1.09-1.55,1.09c-1.03,0-1.5-0.51-1.5-1
			c0-0.43,0.28-0.73,0.72-0.9V67.17z M29.44,68.06c0-0.32-0.26-0.5-0.63-0.59c-0.31,0.08-0.49,0.28-0.49,0.54
			c-0.01,0.26,0.22,0.5,0.57,0.5C29.22,68.5,29.44,68.31,29.44,68.06z M28.38,66.35c0,0.24,0.25,0.4,0.57,0.49
			c0.22-0.06,0.41-0.23,0.41-0.46c0-0.22-0.14-0.44-0.49-0.44C28.54,65.94,28.38,66.13,28.38,66.35z"/>
		<path d="M33.67,67.29v0.56h-1.63v-0.56H33.67z"/>
		<path d="M36.47,65.3v1.43h1.56V65.3h0.95v3.73h-0.95v-1.56h-1.56v1.56h-0.95V65.3H36.47z"/>
		<path d="M42.3,68.37c0,0.26,0.01,0.51,0.04,0.66h-0.85l-0.06-0.27h-0.02c-0.2,0.22-0.51,0.33-0.87,0.33
			c-0.62,0-0.98-0.4-0.98-0.83c0-0.7,0.71-1.04,1.78-1.03v-0.04c0-0.14-0.09-0.35-0.55-0.35c-0.31,0-0.64,0.09-0.84,0.2l-0.17-0.54
			c0.21-0.1,0.63-0.24,1.18-0.24c1.01,0,1.34,0.53,1.34,1.17V68.37z M41.38,67.75c-0.5-0.01-0.88,0.1-0.88,0.43
			c0,0.22,0.16,0.32,0.37,0.32c0.24,0,0.43-0.14,0.49-0.31c0.01-0.04,0.02-0.09,0.02-0.14V67.75z"/>
		<path d="M45.92,68.63c0,0.52-0.12,0.95-0.46,1.22c-0.34,0.25-0.79,0.33-1.24,0.33c-0.4,0-0.82-0.07-1.09-0.21l0.19-0.64
			c0.19,0.1,0.53,0.2,0.88,0.2c0.45,0,0.79-0.22,0.79-0.71v-0.18h-0.01C44.8,68.87,44.51,69,44.16,69c-0.75,0-1.29-0.54-1.29-1.32
			c0-0.87,0.63-1.42,1.38-1.42c0.42,0,0.68,0.16,0.83,0.38h0.01l0.03-0.32h0.82c-0.01,0.17-0.02,0.4-0.02,0.8V68.63z M44.98,67.42
			c0-0.06-0.01-0.11-0.02-0.15c-0.07-0.22-0.25-0.37-0.51-0.37c-0.34,0-0.62,0.28-0.62,0.77c0,0.4,0.22,0.72,0.62,0.72
			c0.24,0,0.43-0.14,0.5-0.34c0.02-0.06,0.03-0.15,0.03-0.22V67.42z"/>
		<path d="M47.41,67.94c0.03,0.35,0.42,0.51,0.86,0.51c0.32,0,0.58-0.04,0.84-0.11l0.12,0.57c-0.31,0.11-0.69,0.17-1.1,0.17
			c-1.03,0-1.62-0.54-1.62-1.38c0-0.69,0.48-1.44,1.54-1.44c0.98,0,1.35,0.68,1.35,1.35c0,0.14-0.02,0.27-0.03,0.33H47.41z
			 M48.52,67.37c0-0.2-0.1-0.55-0.53-0.55c-0.4,0-0.56,0.32-0.58,0.55H48.52z"/>
		<path d="M49.96,67.21c0-0.4-0.01-0.66-0.02-0.89h0.81l0.03,0.5h0.02c0.16-0.39,0.53-0.56,0.82-0.56c0.09,0,0.13,0,0.2,0.01v0.8
			c-0.07-0.02-0.15-0.03-0.26-0.03c-0.35,0-0.58,0.17-0.65,0.43c-0.01,0.05-0.02,0.12-0.02,0.19v1.37h-0.94V67.21z"/>
		<path d="M53.61,65.35c0.29-0.04,0.7-0.08,1.28-0.08c0.58,0,1,0.1,1.28,0.3c0.27,0.19,0.45,0.5,0.45,0.86
			c0,0.37-0.14,0.67-0.39,0.89c-0.32,0.27-0.8,0.39-1.36,0.39c-0.12,0-0.24-0.01-0.32-0.02v1.33h-0.94V65.35z M54.55,67.04
			c0.08,0.02,0.18,0.02,0.32,0.02c0.5,0,0.81-0.23,0.81-0.61c0-0.34-0.27-0.55-0.74-0.55c-0.19,0-0.32,0.02-0.39,0.03V67.04z"/>
		<path d="M57.13,67.21c0-0.4-0.01-0.66-0.02-0.89h0.81l0.03,0.5h0.02c0.16-0.39,0.53-0.56,0.82-0.56c0.09,0,0.13,0,0.2,0.01v0.8
			c-0.07-0.02-0.15-0.03-0.26-0.03c-0.35,0-0.58,0.17-0.65,0.43c-0.01,0.05-0.02,0.12-0.02,0.19v1.37h-0.94V67.21z"/>
		<path d="M62.44,67.64c0,0.99-0.79,1.44-1.6,1.44c-0.89,0-1.57-0.52-1.57-1.39c0-0.87,0.65-1.43,1.62-1.43
			C61.82,66.26,62.44,66.83,62.44,67.64z M60.24,67.67c0,0.46,0.22,0.81,0.62,0.81c0.37,0,0.6-0.33,0.6-0.81
			c0-0.4-0.17-0.81-0.6-0.81C60.41,66.86,60.24,67.27,60.24,67.67z"/>
		<path d="M65.99,65.1v3.12c0,0.3,0.01,0.62,0.03,0.81h-0.84l-0.04-0.4h-0.01c-0.19,0.3-0.56,0.46-0.95,0.46
			c-0.72,0-1.3-0.55-1.3-1.39c-0.01-0.91,0.63-1.44,1.36-1.44c0.37,0,0.66,0.12,0.8,0.3h0.01V65.1H65.99z M65.04,67.47
			c0-0.04-0.01-0.11-0.01-0.15c-0.06-0.23-0.26-0.41-0.55-0.41c-0.43,0-0.65,0.34-0.65,0.77c0,0.46,0.25,0.75,0.65,0.75
			c0.27,0,0.49-0.17,0.55-0.4c0.02-0.06,0.02-0.12,0.02-0.19V67.47z"/>
		<path d="M69.61,68.16c0,0.35,0.01,0.64,0.02,0.87h-0.82l-0.04-0.38h-0.02c-0.12,0.17-0.4,0.44-0.95,0.44
			c-0.62,0-1.07-0.34-1.07-1.18v-1.59h0.95v1.45c0,0.39,0.14,0.63,0.47,0.63c0.26,0,0.41-0.16,0.47-0.29
			c0.02-0.05,0.03-0.12,0.03-0.18v-1.61h0.95V68.16z"/>
		<path d="M72.65,68.96c-0.17,0.07-0.48,0.13-0.85,0.13c-0.98,0-1.61-0.54-1.61-1.39c0-0.79,0.61-1.44,1.74-1.44
			c0.25,0,0.52,0.04,0.72,0.1l-0.15,0.63c-0.11-0.04-0.28-0.08-0.53-0.08c-0.5,0-0.82,0.32-0.81,0.76c0,0.5,0.37,0.76,0.83,0.76
			c0.22,0,0.4-0.03,0.54-0.09L72.65,68.96z"/>
		<path d="M74.32,65.58v0.74H75v0.62h-0.68v0.98c0,0.33,0.09,0.47,0.37,0.47c0.13,0,0.19-0.01,0.28-0.02l0.01,0.64
			c-0.12,0.04-0.35,0.08-0.62,0.08c-0.3,0-0.56-0.1-0.71-0.24c-0.17-0.16-0.26-0.42-0.26-0.8v-1.11h-0.4v-0.62h0.4v-0.51
			L74.32,65.58z"/>
		<path d="M76.52,65.57c0,0.23-0.2,0.42-0.51,0.42c-0.3,0-0.5-0.19-0.49-0.42c-0.01-0.24,0.19-0.43,0.5-0.43
			S76.52,65.33,76.52,65.57z M75.55,69.02v-2.7h0.94v2.7H75.55z"/>
		<path d="M80.25,67.64c0,0.99-0.79,1.44-1.6,1.44c-0.89,0-1.57-0.52-1.57-1.39c0-0.87,0.65-1.43,1.62-1.43
			C79.63,66.26,80.25,66.83,80.25,67.64z M78.05,67.67c0,0.46,0.22,0.81,0.62,0.81c0.37,0,0.6-0.33,0.6-0.81
			c0-0.4-0.17-0.81-0.6-0.81C78.22,66.86,78.05,67.27,78.05,67.67z"/>
		<path d="M80.83,67.18c0-0.34-0.01-0.63-0.02-0.86h0.82l0.04,0.37h0.02c0.12-0.17,0.44-0.43,0.94-0.43c0.62,0,1.09,0.36,1.09,1.16
			v1.6h-0.95v-1.5c0-0.35-0.14-0.59-0.48-0.59c-0.26,0-0.42,0.16-0.48,0.32c-0.03,0.06-0.04,0.13-0.04,0.21v1.56h-0.94V67.18z"/>
		<path class="st34" d="M23.95,71.98c0.29-0.04,0.7-0.08,1.28-0.08c0.58,0,1,0.1,1.28,0.3c0.27,0.19,0.45,0.5,0.45,0.86
			c0,0.37-0.14,0.67-0.39,0.89c-0.32,0.27-0.8,0.39-1.36,0.39c-0.12,0-0.24-0.01-0.32-0.02v1.33h-0.94V71.98z M24.89,73.67
			c0.08,0.02,0.18,0.02,0.32,0.02c0.5,0,0.81-0.23,0.81-0.61c0-0.34-0.27-0.55-0.74-0.55c-0.19,0-0.32,0.02-0.39,0.03V73.67z"/>
		<path class="st34" d="M27.71,75.05c0.12,0.01,0.22,0.01,0.41,0c0.29-0.02,0.58-0.09,0.8-0.22c0.26-0.16,0.43-0.39,0.51-0.66
			l-0.02-0.01c-0.18,0.17-0.44,0.26-0.81,0.26c-0.68,0-1.26-0.43-1.26-1.12c0-0.7,0.63-1.29,1.52-1.29c1.04,0,1.53,0.71,1.53,1.55
			c0,0.75-0.27,1.29-0.71,1.65c-0.38,0.31-0.91,0.48-1.54,0.5c-0.16,0.01-0.32,0.01-0.43,0V75.05z M28.83,72.62
			c-0.32,0-0.55,0.25-0.55,0.63c0,0.31,0.19,0.58,0.57,0.58c0.26,0,0.43-0.11,0.52-0.24c0.03-0.05,0.05-0.11,0.05-0.21
			C29.43,72.99,29.26,72.62,28.83,72.62L28.83,72.62z"/>
		<path d="M33.67,73.92v0.56h-1.63v-0.56H33.67z"/>
		<path d="M35.55,74.79c0.26,0.12,0.65,0.23,1.05,0.23c0.43,0,0.67-0.16,0.67-0.4c0-0.23-0.2-0.37-0.7-0.53
			c-0.7-0.22-1.15-0.56-1.15-1.1c0-0.64,0.6-1.12,1.59-1.12c0.47,0,0.82,0.09,1.07,0.19l-0.21,0.68c-0.17-0.07-0.47-0.18-0.88-0.18
			c-0.41,0-0.61,0.17-0.61,0.36c0,0.24,0.24,0.34,0.78,0.53c0.74,0.24,1.09,0.59,1.09,1.11c0,0.62-0.54,1.16-1.69,1.16
			c-0.48,0-0.95-0.12-1.19-0.23L35.55,74.79z"/>
		<path d="M39.82,71.93v2.15c0,0.64,0.27,0.97,0.76,0.97c0.5,0,0.77-0.31,0.77-0.97v-2.15h0.95v2.09c0,1.15-0.65,1.7-1.75,1.7
			c-1.06,0-1.68-0.52-1.68-1.71v-2.08H39.82z"/>
		<path d="M43.11,71.98c0.29-0.04,0.7-0.08,1.28-0.08c0.58,0,1,0.1,1.28,0.3c0.27,0.19,0.45,0.5,0.45,0.86
			c0,0.37-0.14,0.67-0.39,0.89c-0.32,0.27-0.8,0.39-1.36,0.39c-0.12,0-0.24-0.01-0.32-0.02v1.33h-0.94V71.98z M44.05,73.67
			c0.08,0.02,0.18,0.02,0.32,0.02c0.5,0,0.81-0.23,0.81-0.61c0-0.34-0.27-0.55-0.74-0.55c-0.19,0-0.32,0.02-0.39,0.03V73.67z"/>
		<path d="M49.21,74.08h-1.54v0.89h1.72v0.69h-2.67v-3.73h2.59v0.69h-1.63v0.77h1.54V74.08z"/>
		<path d="M50.04,71.98c0.3-0.04,0.76-0.08,1.26-0.08c0.62,0,1.06,0.08,1.35,0.29c0.25,0.18,0.39,0.44,0.39,0.78
			c0,0.47-0.38,0.8-0.74,0.92v0.02c0.29,0.1,0.45,0.35,0.56,0.7c0.13,0.42,0.26,0.91,0.34,1.05h-0.97
			c-0.07-0.11-0.17-0.41-0.29-0.87c-0.11-0.46-0.29-0.59-0.68-0.6h-0.29v1.47h-0.94V71.98z M50.97,73.58h0.37
			c0.47,0,0.75-0.21,0.75-0.54c0-0.34-0.26-0.51-0.7-0.52c-0.23,0-0.36,0.02-0.43,0.03V73.58z"/>
		<path d="M53.75,74.79c0.26,0.12,0.65,0.23,1.05,0.23c0.43,0,0.67-0.16,0.67-0.4c0-0.23-0.2-0.37-0.7-0.53
			c-0.7-0.22-1.15-0.56-1.15-1.1c0-0.64,0.6-1.12,1.59-1.12c0.47,0,0.82,0.09,1.07,0.19l-0.21,0.68c-0.17-0.07-0.47-0.18-0.88-0.18
			s-0.61,0.17-0.61,0.36c0,0.24,0.24,0.34,0.78,0.53c0.74,0.24,1.09,0.59,1.09,1.11c0,0.62-0.54,1.16-1.69,1.16
			c-0.48,0-0.95-0.12-1.19-0.23L53.75,74.79z"/>
		<path d="M57.07,75.66v-3.73h1.11l0.87,1.37c0.25,0.39,0.5,0.86,0.68,1.28h0.02c-0.06-0.49-0.08-1-0.08-1.56v-1.08h0.87v3.73h-0.99
			l-0.9-1.44c-0.25-0.4-0.52-0.88-0.73-1.32l-0.02,0.01c0.03,0.49,0.04,1.02,0.04,1.63v1.12H57.07z"/>
		<path d="M65.2,73.75c0,1.22-0.83,1.96-2.06,1.96c-1.24,0-1.97-0.84-1.97-1.9c0-1.12,0.8-1.95,2.04-1.95
			C64.49,71.87,65.2,72.73,65.2,73.75z M62.17,73.8c0,0.73,0.39,1.24,1.02,1.24c0.64,0,1.01-0.54,1.01-1.27
			c0-0.67-0.36-1.24-1.01-1.24C62.54,72.54,62.17,73.08,62.17,73.8z"/>
		<path d="M66.45,75.66l-0.99-3.73h1.01l0.32,1.53c0.09,0.45,0.18,0.93,0.25,1.3h0.01c0.07-0.4,0.17-0.85,0.27-1.31l0.35-1.53h1.01
			l0.34,1.57c0.09,0.44,0.16,0.84,0.22,1.25h0.01c0.06-0.41,0.16-0.85,0.24-1.29l0.34-1.53h0.96l-1.08,3.73h-1.03l-0.35-1.6
			c-0.08-0.38-0.15-0.72-0.2-1.15h-0.01c-0.07,0.42-0.14,0.77-0.24,1.15l-0.4,1.6H66.45z"/>
		<path class="st34" d="M23.95,78.61c0.29-0.04,0.7-0.08,1.28-0.08c0.58,0,1,0.1,1.28,0.3c0.27,0.19,0.45,0.5,0.45,0.86
			c0,0.37-0.14,0.67-0.39,0.89c-0.32,0.27-0.8,0.39-1.36,0.39c-0.12,0-0.24-0.01-0.32-0.02v1.33h-0.94V78.61z M24.89,80.3
			c0.08,0.02,0.18,0.02,0.32,0.02c0.5,0,0.81-0.23,0.81-0.61c0-0.34-0.27-0.55-0.74-0.55c-0.19,0-0.32,0.02-0.39,0.03V80.3z"/>
		<path class="st34" d="M28.62,79.44h-0.01l-0.77,0.33l-0.16-0.63l1.07-0.44h0.78v3.59h-0.91V79.44z"/>
		<path class="st34" d="M33.84,80.48c0,1.11-0.5,1.87-1.54,1.87c-1.04,0-1.5-0.84-1.51-1.85c0-1.04,0.5-1.86,1.54-1.86
			C33.42,78.63,33.84,79.49,33.84,80.48z M31.75,80.5c-0.01,0.82,0.22,1.22,0.58,1.22c0.37,0,0.57-0.41,0.57-1.23
			c0-0.8-0.19-1.22-0.57-1.22C31.98,79.27,31.74,79.66,31.75,80.5z"/>
		<path d="M37.12,80.55v0.56h-1.63v-0.56H37.12z"/>
		<path d="M38.96,78.56h0.94v1.65h0.02c0.09-0.14,0.19-0.28,0.29-0.41l0.95-1.24h1.16l-1.39,1.59l1.46,2.14h-1.11l-1.03-1.61
			l-0.36,0.39v1.22h-0.94V78.56z"/>
		<path d="M43.73,78.56v3.73h-0.95v-3.73H43.73z"/>
		<path d="M44.55,78.61c0.3-0.04,0.76-0.08,1.26-0.08c0.62,0,1.06,0.08,1.35,0.29c0.25,0.18,0.39,0.44,0.39,0.78
			c0,0.47-0.38,0.8-0.74,0.92v0.02c0.29,0.1,0.45,0.35,0.56,0.7c0.13,0.42,0.26,0.91,0.34,1.05h-0.97
			c-0.07-0.11-0.17-0.41-0.29-0.87c-0.11-0.46-0.29-0.59-0.68-0.6h-0.29v1.47h-0.94V78.61z M45.49,80.22h0.37
			c0.47,0,0.75-0.21,0.75-0.54c0-0.34-0.26-0.51-0.7-0.52c-0.23,0-0.36,0.02-0.43,0.03V80.22z"/>
		<path d="M51.29,82.18c-0.17,0.08-0.57,0.17-1.08,0.17c-1.45,0-2.19-0.81-2.19-1.87c0-1.27,1.02-1.98,2.29-1.98
			c0.49,0,0.86,0.09,1.03,0.17l-0.19,0.67c-0.19-0.07-0.46-0.14-0.8-0.14c-0.75,0-1.34,0.4-1.34,1.23c0,0.75,0.5,1.22,1.34,1.22
			c0.29,0,0.6-0.06,0.79-0.12L51.29,82.18z"/>
		<path d="M52.86,78.56v1.43h1.56v-1.43h0.95v3.73h-0.95v-1.56h-1.56v1.56h-0.95v-3.73H52.86z"/>
		<path d="M57.14,78.56v1.43h1.56v-1.43h0.95v3.73H58.7v-1.56h-1.56v1.56h-0.95v-3.73H57.14z"/>
		<path d="M64.3,80.39c0,1.22-0.83,1.96-2.06,1.96c-1.24,0-1.97-0.84-1.97-1.9c0-1.12,0.8-1.95,2.04-1.95
			C63.6,78.5,64.3,79.36,64.3,80.39z M61.27,80.44c0,0.73,0.39,1.24,1.02,1.24c0.64,0,1.01-0.54,1.01-1.27
			c0-0.67-0.36-1.24-1.01-1.24C61.65,79.17,61.27,79.71,61.27,80.44z"/>
		<path d="M64.92,78.56h2.56v0.69h-1.61v0.85h1.5v0.69h-1.5v1.5h-0.95V78.56z"/>
		<path d="M68.19,78.56h2.56v0.69h-1.61v0.85h1.5v0.69h-1.5v1.5h-0.95V78.56z"/>
		<path class="st34" d="M23.95,85.24c0.29-0.04,0.7-0.08,1.28-0.08c0.58,0,1,0.1,1.28,0.3c0.27,0.19,0.45,0.5,0.45,0.86
			c0,0.37-0.14,0.67-0.39,0.89c-0.32,0.27-0.8,0.39-1.36,0.39c-0.12,0-0.24-0.01-0.32-0.02v1.33h-0.94V85.24z M24.89,86.94
			c0.08,0.02,0.18,0.02,0.32,0.02c0.5,0,0.81-0.23,0.81-0.61c0-0.34-0.27-0.55-0.74-0.55c-0.19,0-0.32,0.02-0.39,0.03V86.94z"/>
		<path class="st34" d="M28.62,86.07h-0.01l-0.77,0.33l-0.16-0.63l1.07-0.44h0.78v3.59h-0.91V86.07z"/>
		<path class="st34" d="M32.07,86.07h-0.01l-0.77,0.33l-0.16-0.63l1.07-0.44h0.78v3.59h-0.91V86.07z"/>
		<path d="M37.12,87.18v0.56h-1.63v-0.56H37.12z"/>
		<path d="M38.96,85.24c0.3-0.04,0.76-0.08,1.26-0.08c0.62,0,1.06,0.08,1.35,0.29c0.25,0.18,0.39,0.44,0.39,0.78
			c0,0.47-0.38,0.8-0.74,0.92v0.02c0.29,0.1,0.45,0.35,0.56,0.7c0.13,0.42,0.26,0.91,0.34,1.05h-0.97
			c-0.07-0.11-0.17-0.41-0.29-0.87c-0.11-0.46-0.29-0.59-0.68-0.6H39.9v1.47h-0.94V85.24z M39.9,86.85h0.37
			c0.47,0,0.75-0.21,0.75-0.54c0-0.34-0.26-0.51-0.7-0.52c-0.23,0-0.36,0.02-0.43,0.03V86.85z"/>
		<path d="M45.21,88.26c0,0.26,0.01,0.51,0.04,0.66H44.4l-0.06-0.27h-0.02c-0.2,0.22-0.51,0.33-0.87,0.33
			c-0.62,0-0.98-0.4-0.98-0.83c0-0.7,0.71-1.04,1.78-1.03v-0.04c0-0.14-0.09-0.35-0.55-0.35c-0.31,0-0.64,0.09-0.84,0.2l-0.17-0.54
			c0.21-0.1,0.63-0.24,1.18-0.24c1.01,0,1.34,0.53,1.34,1.17V88.26z M44.29,87.64c-0.5-0.01-0.88,0.1-0.88,0.43
			c0,0.22,0.16,0.32,0.37,0.32c0.24,0,0.43-0.14,0.49-0.31c0.01-0.04,0.02-0.09,0.02-0.14V87.64z"/>
		<path d="M48.9,84.99v3.12c0,0.3,0.01,0.62,0.03,0.81h-0.84l-0.04-0.4h-0.01c-0.19,0.3-0.56,0.46-0.95,0.46
			c-0.72,0-1.3-0.55-1.3-1.39c-0.01-0.91,0.63-1.44,1.36-1.44c0.37,0,0.66,0.12,0.8,0.3h0.01v-1.47H48.9z M47.96,87.36
			c0-0.04-0.01-0.11-0.01-0.15c-0.06-0.23-0.26-0.41-0.55-0.41c-0.43,0-0.65,0.34-0.65,0.77c0,0.46,0.25,0.75,0.65,0.75
			c0.27,0,0.49-0.17,0.55-0.4c0.02-0.06,0.02-0.12,0.02-0.19V87.36z"/>
		<path d="M50.63,85.47c0,0.23-0.2,0.42-0.51,0.42c-0.3,0-0.5-0.19-0.49-0.42c-0.01-0.24,0.19-0.43,0.5-0.43
			C50.43,85.04,50.63,85.22,50.63,85.47z M49.66,88.92v-2.7h0.94v2.7H49.66z"/>
		<path d="M54.36,87.54c0,0.99-0.79,1.44-1.6,1.44c-0.89,0-1.57-0.52-1.57-1.39c0-0.87,0.65-1.43,1.62-1.43
			C53.74,86.16,54.36,86.73,54.36,87.54z M52.16,87.57c0,0.46,0.22,0.81,0.62,0.81c0.37,0,0.6-0.33,0.6-0.81
			c0-0.4-0.17-0.81-0.6-0.81C52.33,86.75,52.16,87.17,52.16,87.57z"/>
		<path d="M58.72,87.35h-1.54v0.89h1.72v0.69h-2.67v-3.73h2.59v0.69h-1.63v0.77h1.54V87.35z"/>
		<path d="M59.58,88.05c0.26,0.12,0.65,0.23,1.05,0.23c0.43,0,0.67-0.16,0.67-0.4c0-0.23-0.2-0.37-0.7-0.53
			c-0.7-0.22-1.15-0.56-1.15-1.1c0-0.64,0.6-1.12,1.59-1.12c0.47,0,0.82,0.09,1.07,0.19L61.88,86c-0.17-0.07-0.47-0.18-0.88-0.18
			c-0.41,0-0.61,0.17-0.61,0.36c0,0.24,0.24,0.34,0.78,0.53c0.74,0.24,1.09,0.59,1.09,1.11c0,0.62-0.54,1.16-1.69,1.16
			c-0.48,0-0.95-0.12-1.19-0.23L59.58,88.05z"/>
		<path d="M62.9,85.19h0.94v1.65h0.02c0.09-0.14,0.19-0.28,0.29-0.41l0.95-1.24h1.16l-1.39,1.59l1.46,2.14h-1.11l-1.03-1.61
			l-0.36,0.39v1.22H62.9V85.19z"/>
		<path d="M67.77,87.96l-0.3,0.96h-0.98l1.28-3.73h1.24l1.3,3.73h-1.02l-0.32-0.96H67.77z M68.83,87.33l-0.26-0.79
			c-0.07-0.22-0.15-0.5-0.21-0.72h-0.01c-0.06,0.22-0.12,0.5-0.19,0.72l-0.25,0.79H68.83z"/>
		<path class="st34" d="M23.95,91.88c0.29-0.04,0.7-0.08,1.28-0.08c0.58,0,1,0.1,1.28,0.3c0.27,0.19,0.45,0.5,0.45,0.86
			c0,0.37-0.14,0.67-0.39,0.89c-0.32,0.27-0.8,0.39-1.36,0.39c-0.12,0-0.24-0.01-0.32-0.02v1.33h-0.94V91.88z M24.89,93.57
			c0.08,0.02,0.18,0.02,0.32,0.02c0.5,0,0.81-0.23,0.81-0.61c0-0.34-0.27-0.55-0.74-0.55c-0.19,0-0.32,0.02-0.39,0.03V93.57z"/>
		<path class="st34" d="M28.62,92.71h-0.01l-0.77,0.33l-0.16-0.63l1.07-0.44h0.78v3.59h-0.91V92.71z"/>
		<path class="st34" d="M30.86,95.55v-0.51l0.52-0.42c0.88-0.7,1.31-1.11,1.32-1.53c0-0.29-0.2-0.53-0.67-0.53
			c-0.35,0-0.65,0.15-0.86,0.3l-0.27-0.6c0.3-0.2,0.78-0.37,1.32-0.37c0.91,0,1.42,0.48,1.42,1.13c0,0.6-0.49,1.08-1.08,1.55
			l-0.37,0.28v0.01h1.52v0.69H30.86z"/>
		<path d="M37.12,93.82v0.56h-1.63v-0.56H37.12z"/>
		<path d="M38.96,91.88c0.35-0.05,0.8-0.08,1.28-0.08c0.8,0,1.31,0.13,1.72,0.4c0.44,0.29,0.71,0.75,0.71,1.4
			c0,0.71-0.29,1.21-0.7,1.51c-0.44,0.33-1.11,0.48-1.93,0.48c-0.49,0-0.84-0.03-1.08-0.06V91.88z M39.92,94.92
			c0.08,0.02,0.21,0.02,0.33,0.02c0.86,0.01,1.42-0.41,1.42-1.31c0.01-0.77-0.5-1.18-1.32-1.18c-0.21,0-0.35,0.02-0.43,0.03V94.92z"
			/>
		<path d="M43.29,91.83h0.94v1.65h0.02c0.09-0.14,0.19-0.28,0.29-0.41l0.95-1.24h1.16l-1.39,1.59l1.46,2.14h-1.11l-1.03-1.61
			l-0.36,0.39v1.22h-0.94V91.83z"/>
		<path d="M50.65,94.13c-0.02-0.45-0.04-0.99-0.04-1.53h-0.02c-0.13,0.48-0.3,1.01-0.47,1.44l-0.51,1.45h-0.74l-0.45-1.44
			c-0.14-0.44-0.28-0.97-0.38-1.46h-0.01c-0.02,0.5-0.04,1.08-0.07,1.54l-0.07,1.42h-0.88l0.27-3.73h1.26l0.41,1.24
			c0.13,0.43,0.26,0.9,0.35,1.33h0.02c0.12-0.43,0.26-0.92,0.4-1.34l0.45-1.24h1.24l0.23,3.73h-0.93L50.65,94.13z"/>
		<path d="M52.39,94.69c0.26,0.12,0.65,0.23,1.05,0.23c0.43,0,0.67-0.16,0.67-0.4c0-0.23-0.2-0.37-0.7-0.53
			c-0.7-0.22-1.15-0.56-1.15-1.1c0-0.64,0.6-1.12,1.59-1.12c0.47,0,0.82,0.09,1.07,0.19l-0.21,0.68c-0.17-0.07-0.47-0.18-0.88-0.18
			c-0.41,0-0.61,0.17-0.61,0.36c0,0.24,0.24,0.34,0.78,0.53c0.74,0.24,1.09,0.59,1.09,1.11c0,0.62-0.54,1.16-1.69,1.16
			c-0.48,0-0.95-0.12-1.19-0.23L52.39,94.69z"/>
		<path class="st33" d="M23.95,98.51c0.29-0.04,0.7-0.08,1.28-0.08c0.58,0,1,0.1,1.28,0.3c0.27,0.19,0.45,0.5,0.45,0.86
			c0,0.37-0.14,0.67-0.39,0.89c-0.32,0.27-0.8,0.39-1.36,0.39c-0.12,0-0.24-0.01-0.32-0.02v1.33h-0.94V98.51z M24.89,100.2
			c0.08,0.02,0.18,0.02,0.32,0.02c0.5,0,0.81-0.23,0.81-0.61c0-0.34-0.27-0.55-0.74-0.55c-0.19,0-0.32,0.02-0.39,0.03V100.2z"/>
		<path class="st33" d="M28.62,99.34h-0.01l-0.77,0.33l-0.16-0.63l1.07-0.44h0.78v3.59h-0.91V99.34z"/>
		<path class="st33" d="M31.03,101.36c0.17,0.08,0.55,0.22,0.94,0.22c0.49,0,0.74-0.21,0.74-0.48c0-0.35-0.4-0.51-0.81-0.51h-0.39
			v-0.6h0.37c0.32-0.01,0.72-0.11,0.72-0.41c0-0.22-0.2-0.38-0.6-0.38c-0.33,0-0.68,0.13-0.85,0.22l-0.19-0.61
			c0.24-0.14,0.73-0.27,1.25-0.27c0.86,0,1.34,0.4,1.34,0.9c0,0.38-0.24,0.68-0.74,0.84v0.01c0.48,0.08,0.88,0.4,0.88,0.87
			c0,0.64-0.63,1.1-1.65,1.1c-0.52,0-0.96-0.12-1.2-0.25L31.03,101.36z"/>
		<path d="M37.12,100.45v0.56h-1.63v-0.56H37.12z"/>
		<path d="M42.55,102.83c-0.6-0.15-1.09-0.32-1.65-0.53c-0.09-0.03-0.19-0.05-0.29-0.06c-0.95-0.06-1.83-0.67-1.83-1.89
			c0-1.12,0.8-1.96,2.05-1.96c1.28,0,1.98,0.86,1.98,1.88c0,0.85-0.44,1.44-0.99,1.66v0.02c0.32,0.08,0.68,0.15,1.01,0.21
			L42.55,102.83z M40.79,101.58c0.63,0,1.01-0.54,1.01-1.27c0-0.68-0.36-1.24-1.01-1.24c-0.65,0-1.02,0.56-1.02,1.26
			C39.77,101.03,40.15,101.58,40.79,101.58L40.79,101.58z"/>
		<path d="M46.29,101.32c0,0.35,0.01,0.64,0.02,0.87h-0.82l-0.04-0.38h-0.02c-0.12,0.17-0.4,0.44-0.95,0.44
			c-0.62,0-1.07-0.34-1.07-1.18v-1.59h0.95v1.45c0,0.39,0.14,0.63,0.47,0.63c0.26,0,0.41-0.16,0.47-0.29
			c0.02-0.05,0.03-0.12,0.03-0.18v-1.61h0.95V101.32z"/>
		<path d="M49.58,101.53c0,0.26,0.01,0.51,0.04,0.66h-0.85l-0.06-0.27h-0.02c-0.2,0.22-0.51,0.33-0.87,0.33
			c-0.62,0-0.98-0.4-0.98-0.83c0-0.7,0.71-1.04,1.78-1.03v-0.04c0-0.14-0.09-0.35-0.55-0.35c-0.31,0-0.64,0.09-0.84,0.2l-0.17-0.54
			c0.21-0.1,0.63-0.24,1.18-0.24c1.01,0,1.34,0.53,1.34,1.17V101.53z M48.66,100.91c-0.5-0.01-0.88,0.1-0.88,0.43
			c0,0.22,0.16,0.32,0.37,0.32c0.24,0,0.43-0.14,0.49-0.31c0.01-0.04,0.02-0.09,0.02-0.14V100.91z"/>
		<path d="M50.32,98.26h0.94v3.93h-0.94V98.26z"/>
		<path d="M53.09,98.75v0.74h0.68v0.62h-0.68v0.98c0,0.33,0.09,0.47,0.37,0.47c0.13,0,0.19-0.01,0.28-0.02l0.01,0.64
			c-0.12,0.04-0.35,0.08-0.62,0.08c-0.3,0-0.56-0.1-0.71-0.24c-0.17-0.16-0.26-0.42-0.26-0.8v-1.11h-0.4v-0.62h0.4v-0.51
			L53.09,98.75z"/>
		<path d="M54.31,100.37c0-0.4-0.01-0.66-0.02-0.89h0.81l0.03,0.5h0.02c0.16-0.39,0.53-0.56,0.82-0.56c0.09,0,0.13,0,0.2,0.01v0.8
			c-0.07-0.02-0.15-0.03-0.26-0.03c-0.35,0-0.58,0.17-0.65,0.43c-0.01,0.05-0.02,0.12-0.02,0.19v1.37h-0.94V100.37z"/>
		<path d="M57.65,98.73c0,0.23-0.2,0.42-0.51,0.42c-0.3,0-0.5-0.19-0.49-0.42c-0.01-0.24,0.19-0.43,0.5-0.43
			C57.45,98.3,57.64,98.49,57.65,98.73z M56.67,102.19v-2.7h0.94v2.7H56.67z"/>
		<path d="M60.65,102.12c-0.17,0.07-0.48,0.13-0.85,0.13c-0.98,0-1.61-0.54-1.61-1.39c0-0.79,0.61-1.44,1.74-1.44
			c0.25,0,0.52,0.04,0.72,0.1l-0.15,0.63c-0.11-0.04-0.28-0.08-0.53-0.08c-0.5,0-0.82,0.32-0.81,0.76c0,0.5,0.37,0.76,0.83,0.76
			c0.22,0,0.4-0.03,0.54-0.09L60.65,102.12z"/>
		<path d="M61.17,101.45c0.17,0.09,0.53,0.2,0.81,0.2c0.29,0,0.4-0.09,0.4-0.23c0-0.14-0.09-0.2-0.45-0.31
			c-0.63-0.19-0.87-0.49-0.86-0.81c0-0.51,0.48-0.89,1.24-0.89c0.35,0,0.67,0.07,0.86,0.15L63,100.16c-0.14-0.07-0.4-0.15-0.66-0.15
			c-0.23,0-0.36,0.08-0.36,0.22c0,0.13,0.12,0.19,0.49,0.31c0.58,0.18,0.82,0.44,0.83,0.84c0,0.5-0.45,0.88-1.32,0.88
			c-0.4,0-0.75-0.08-0.98-0.19L61.17,101.45z"/>
		<path class="st33" d="M23.95,105.14c0.29-0.04,0.7-0.08,1.28-0.08c0.58,0,1,0.1,1.28,0.3c0.27,0.19,0.45,0.5,0.45,0.86
			c0,0.37-0.14,0.67-0.39,0.89c-0.32,0.27-0.8,0.39-1.36,0.39c-0.12,0-0.24-0.01-0.32-0.02v1.33h-0.94V105.14z M24.89,106.83
			c0.08,0.02,0.18,0.02,0.32,0.02c0.5,0,0.81-0.23,0.81-0.61c0-0.34-0.27-0.55-0.74-0.55c-0.19,0-0.32,0.02-0.39,0.03V106.83z"/>
		<path class="st33" d="M28.62,105.97h-0.01l-0.77,0.33l-0.16-0.63l1.07-0.44h0.78v3.59h-0.91V105.97z"/>
		<path class="st33" d="M32.53,108.82v-0.86h-1.79v-0.55l1.53-2.19h1.16v2.11h0.48v0.63h-0.48v0.86H32.53z M32.53,107.33v-0.8
			c0-0.22,0.01-0.44,0.03-0.67h-0.02c-0.13,0.23-0.24,0.44-0.37,0.67l-0.54,0.78v0.01H32.53z"/>
		<path d="M37.12,107.08v0.56h-1.63v-0.56H37.12z"/>
		<path d="M39.94,107.86l-0.3,0.96h-0.98l1.28-3.73h1.24l1.3,3.73h-1.02l-0.32-0.96H39.94z M41,107.23l-0.26-0.79
			c-0.07-0.22-0.15-0.5-0.21-0.72h-0.01c-0.06,0.22-0.12,0.5-0.19,0.72l-0.25,0.79H41z"/>
		<path d="M42.97,106.98c0-0.34-0.01-0.63-0.02-0.86h0.8l0.04,0.36h0.02c0.13-0.17,0.4-0.43,0.92-0.43c0.39,0,0.7,0.18,0.83,0.46
			h0.01c0.11-0.14,0.25-0.25,0.39-0.33c0.17-0.09,0.35-0.13,0.58-0.13c0.58,0,1.03,0.36,1.03,1.17v1.59h-0.92v-1.47
			c0-0.39-0.14-0.62-0.45-0.62c-0.22,0-0.37,0.13-0.43,0.29c-0.02,0.06-0.04,0.15-0.04,0.22v1.58h-0.92v-1.52
			c0-0.34-0.14-0.58-0.43-0.58c-0.24,0-0.39,0.17-0.44,0.3c-0.03,0.07-0.04,0.14-0.04,0.21v1.58h-0.92V106.98z"/>
		<path d="M50.85,108.16c0,0.26,0.01,0.51,0.04,0.66h-0.85l-0.06-0.27h-0.02c-0.2,0.22-0.51,0.33-0.87,0.33
			c-0.62,0-0.98-0.4-0.98-0.83c0-0.7,0.71-1.04,1.78-1.03v-0.04c0-0.14-0.09-0.35-0.55-0.35c-0.31,0-0.64,0.09-0.84,0.2l-0.17-0.54
			c0.21-0.1,0.63-0.24,1.18-0.24c1.01,0,1.34,0.53,1.34,1.17V108.16z M49.93,107.54c-0.5-0.01-0.88,0.1-0.88,0.43
			c0,0.22,0.16,0.32,0.37,0.32c0.24,0,0.43-0.14,0.49-0.31c0.01-0.04,0.02-0.09,0.02-0.14V107.54z"/>
		<path d="M51.59,107c0-0.4-0.01-0.66-0.02-0.89h0.81l0.03,0.5h0.02c0.16-0.39,0.53-0.56,0.82-0.56c0.09,0,0.13,0,0.2,0.01v0.8
			c-0.07-0.02-0.15-0.03-0.26-0.03c-0.35,0-0.58,0.17-0.65,0.43c-0.01,0.05-0.02,0.12-0.02,0.19v1.37h-0.94V107z"/>
		<path d="M55.14,105.38v0.74h0.68v0.62h-0.68v0.98c0,0.33,0.09,0.47,0.37,0.47c0.13,0,0.19-0.01,0.28-0.02l0.01,0.64
			c-0.12,0.04-0.35,0.08-0.62,0.08c-0.3,0-0.56-0.1-0.71-0.24c-0.17-0.16-0.26-0.42-0.26-0.8v-1.11h-0.4v-0.62h0.4v-0.51
			L55.14,105.38z"/>
		<path d="M59.23,107.95c0,0.35,0.01,0.64,0.02,0.87h-0.82l-0.04-0.38h-0.02c-0.12,0.17-0.4,0.44-0.95,0.44
			c-0.62,0-1.07-0.34-1.07-1.18v-1.59h0.95v1.45c0,0.39,0.14,0.63,0.47,0.63c0.26,0,0.41-0.16,0.47-0.29
			c0.02-0.05,0.03-0.12,0.03-0.18v-1.61h0.95V107.95z"/>
		<path d="M59.98,108.08c0.17,0.09,0.53,0.2,0.81,0.2c0.29,0,0.4-0.09,0.4-0.23c0-0.14-0.09-0.2-0.45-0.31
			c-0.63-0.19-0.87-0.49-0.86-0.81c0-0.51,0.48-0.89,1.24-0.89c0.35,0,0.67,0.07,0.86,0.15l-0.17,0.58
			c-0.14-0.07-0.4-0.15-0.66-0.15c-0.23,0-0.36,0.08-0.36,0.22c0,0.13,0.12,0.19,0.49,0.31c0.58,0.18,0.82,0.44,0.83,0.84
			c0,0.5-0.45,0.88-1.32,0.88c-0.4,0-0.75-0.08-0.98-0.19L59.98,108.08z"/>
		<path class="st34" d="M23.95,111.77c0.29-0.04,0.7-0.08,1.28-0.08c0.58,0,1,0.1,1.28,0.3c0.27,0.19,0.45,0.5,0.45,0.86
			c0,0.37-0.14,0.67-0.39,0.89c-0.32,0.27-0.8,0.39-1.36,0.39c-0.12,0-0.24-0.01-0.32-0.02v1.33h-0.94V111.77z M24.89,113.46
			c0.08,0.02,0.18,0.02,0.32,0.02c0.5,0,0.81-0.23,0.81-0.61c0-0.34-0.27-0.55-0.74-0.55c-0.19,0-0.32,0.02-0.39,0.03V113.46z"/>
		<path class="st34" d="M28.62,112.6h-0.01l-0.77,0.33l-0.16-0.63l1.07-0.44h0.78v3.59h-0.91V112.6z"/>
		<path class="st34" d="M33.56,112.55h-1.57l-0.09,0.55c0.09-0.01,0.16-0.01,0.26-0.01c0.39,0,0.78,0.08,1.06,0.26
			c0.31,0.18,0.49,0.48,0.49,0.9c0,0.67-0.65,1.26-1.73,1.26c-0.49,0-0.9-0.1-1.12-0.2l0.17-0.63c0.18,0.08,0.55,0.18,0.91,0.18
			c0.39,0,0.81-0.17,0.81-0.55c0-0.37-0.33-0.6-1.14-0.6c-0.22,0-0.38,0.01-0.55,0.03l0.27-1.89h2.23V112.55z"/>
		<path d="M37.12,113.71v0.56h-1.63v-0.56H37.12z"/>
		<path d="M38.96,111.77c0.29-0.04,0.7-0.08,1.28-0.08c0.58,0,1,0.1,1.28,0.3c0.27,0.19,0.45,0.5,0.45,0.86
			c0,0.37-0.14,0.67-0.38,0.89c-0.32,0.27-0.8,0.39-1.36,0.39c-0.12,0-0.24-0.01-0.32-0.02v1.33h-0.94V111.77z M39.9,113.46
			c0.08,0.02,0.18,0.02,0.32,0.02c0.5,0,0.81-0.23,0.81-0.61c0-0.34-0.27-0.55-0.74-0.55c-0.19,0-0.32,0.02-0.39,0.03V113.46z"/>
		<path d="M42.54,111.52h0.94v1.54h0.01c0.1-0.12,0.22-0.21,0.37-0.28c0.14-0.07,0.32-0.1,0.49-0.1c0.6,0,1.06,0.37,1.06,1.18v1.58
			h-0.95v-1.49c0-0.35-0.14-0.6-0.49-0.6c-0.25,0-0.4,0.14-0.47,0.29c-0.03,0.06-0.03,0.13-0.03,0.19v1.6h-0.94V111.52z"/>
		<path d="M47.16,111.99c0,0.23-0.2,0.42-0.51,0.42c-0.3,0-0.5-0.19-0.49-0.42c-0.01-0.24,0.19-0.43,0.5-0.43
			C46.96,111.57,47.15,111.75,47.16,111.99z M46.18,115.45v-2.7h0.94v2.7H46.18z"/>
		<path d="M47.88,111.52h0.94v3.93h-0.94V111.52z"/>
		<path d="M50.57,111.99c0,0.23-0.2,0.42-0.51,0.42c-0.3,0-0.5-0.19-0.49-0.42c-0.01-0.24,0.19-0.43,0.5-0.43
			S50.56,111.75,50.57,111.99z M49.59,115.45v-2.7h0.94v2.7H49.59z"/>
		<path d="M51.3,113.65c0-0.35-0.01-0.66-0.02-0.91h0.82l0.04,0.38h0.01c0.22-0.29,0.57-0.44,1.01-0.44c0.66,0,1.26,0.51,1.26,1.38
			c0,0.98-0.7,1.45-1.38,1.45c-0.37,0-0.65-0.13-0.79-0.31h-0.01v1.34H51.3V113.65z M52.24,114.29c0,0.07,0.01,0.13,0.02,0.18
			c0.06,0.23,0.28,0.4,0.55,0.4c0.41,0,0.65-0.3,0.65-0.76c0-0.43-0.22-0.76-0.64-0.76c-0.27,0-0.5,0.18-0.57,0.43
			c-0.01,0.04-0.02,0.1-0.02,0.15V114.29z"/>
		<path d="M59.84,114.02c-0.02-0.45-0.04-0.99-0.04-1.53h-0.02c-0.13,0.48-0.3,1.01-0.47,1.44l-0.51,1.45h-0.74l-0.45-1.44
			c-0.14-0.44-0.28-0.97-0.38-1.46h-0.01c-0.03,0.5-0.04,1.08-0.07,1.54l-0.07,1.42H56.2l0.27-3.73h1.26l0.41,1.24
			c0.13,0.43,0.26,0.9,0.35,1.33h0.02c0.12-0.43,0.26-0.92,0.4-1.34l0.45-1.24h1.24l0.23,3.73H59.9L59.84,114.02z"/>
		<path d="M64.54,114.07c0,0.99-0.79,1.44-1.6,1.44c-0.89,0-1.57-0.52-1.57-1.39c0-0.87,0.65-1.43,1.62-1.43
			C63.92,112.69,64.54,113.25,64.54,114.07z M62.34,114.1c0,0.46,0.22,0.81,0.62,0.81c0.37,0,0.6-0.33,0.6-0.81
			c0-0.4-0.17-0.81-0.6-0.81C62.51,113.28,62.34,113.7,62.34,114.1z"/>
		<path d="M65.12,113.64c0-0.4-0.01-0.66-0.02-0.89h0.81l0.03,0.5h0.02c0.16-0.39,0.53-0.56,0.82-0.56c0.09,0,0.13,0,0.2,0.01v0.8
			c-0.07-0.02-0.15-0.03-0.26-0.03c-0.35,0-0.58,0.17-0.65,0.43c-0.01,0.05-0.02,0.12-0.02,0.19v1.37h-0.94V113.64z"/>
		<path d="M67.48,113.64c0-0.4-0.01-0.66-0.02-0.89h0.81l0.03,0.5h0.02c0.16-0.39,0.53-0.56,0.82-0.56c0.09,0,0.13,0,0.2,0.01v0.8
			c-0.07-0.02-0.15-0.03-0.26-0.03c-0.35,0-0.58,0.17-0.65,0.43c-0.01,0.05-0.02,0.12-0.02,0.19v1.37h-0.94V113.64z"/>
		<path d="M70.82,111.99c0,0.23-0.2,0.42-0.51,0.42c-0.3,0-0.5-0.19-0.49-0.42c-0.01-0.24,0.19-0.43,0.5-0.43
			C70.62,111.57,70.81,111.75,70.82,111.99z M69.84,115.45v-2.7h0.94v2.7H69.84z"/>
		<path d="M71.54,114.71c0.17,0.09,0.53,0.2,0.81,0.2c0.29,0,0.4-0.09,0.4-0.23c0-0.14-0.09-0.2-0.45-0.31
			c-0.63-0.19-0.87-0.49-0.86-0.81c0-0.51,0.48-0.89,1.24-0.89c0.35,0,0.67,0.07,0.86,0.15l-0.17,0.58
			c-0.14-0.07-0.4-0.15-0.66-0.15c-0.23,0-0.36,0.08-0.36,0.22c0,0.13,0.12,0.19,0.49,0.31c0.58,0.18,0.82,0.44,0.83,0.84
			c0,0.5-0.45,0.88-1.32,0.88c-0.4,0-0.75-0.08-0.98-0.19L71.54,114.71z"/>
		<path d="M75.53,111.77c0.29-0.04,0.7-0.08,1.28-0.08c0.58,0,1,0.1,1.28,0.3c0.27,0.19,0.45,0.5,0.45,0.86
			c0,0.37-0.14,0.67-0.39,0.89c-0.32,0.27-0.8,0.39-1.36,0.39c-0.12,0-0.24-0.01-0.32-0.02v1.33h-0.94V111.77z M76.47,113.46
			c0.08,0.02,0.18,0.02,0.32,0.02c0.5,0,0.81-0.23,0.81-0.61c0-0.34-0.27-0.55-0.74-0.55c-0.19,0-0.32,0.02-0.39,0.03V113.46z"/>
		<path d="M81.96,114.07c0,0.99-0.79,1.44-1.6,1.44c-0.89,0-1.57-0.52-1.57-1.39c0-0.87,0.65-1.43,1.62-1.43
			C81.34,112.69,81.96,113.25,81.96,114.07z M79.76,114.1c0,0.46,0.22,0.81,0.62,0.81c0.37,0,0.6-0.33,0.6-0.81
			c0-0.4-0.17-0.81-0.6-0.81C79.93,113.28,79.76,113.7,79.76,114.1z"/>
		<path d="M82.54,111.52h0.94v3.93h-0.94V111.52z"/>
		<path d="M84.24,114.71c0.17,0.09,0.53,0.2,0.81,0.2c0.29,0,0.4-0.09,0.4-0.23c0-0.14-0.09-0.2-0.45-0.31
			c-0.63-0.19-0.87-0.49-0.86-0.81c0-0.51,0.48-0.89,1.24-0.89c0.35,0,0.67,0.07,0.86,0.15l-0.17,0.58
			c-0.14-0.07-0.4-0.15-0.66-0.15c-0.23,0-0.36,0.08-0.36,0.22c0,0.13,0.12,0.19,0.49,0.31c0.58,0.18,0.82,0.44,0.83,0.84
			c0,0.5-0.45,0.88-1.32,0.88c-0.4,0-0.75-0.08-0.98-0.19L84.24,114.71z"/>
		<path d="M87.89,113.88h0.01c0.07-0.11,0.14-0.22,0.22-0.33l0.62-0.81h1.14l-1.09,1.09l1.24,1.61h-1.16l-0.73-1.11l-0.24,0.27v0.85
			h-0.94v-3.93h0.94V113.88z"/>
		<path d="M92.88,114.79c0,0.26,0.01,0.51,0.04,0.66h-0.85l-0.06-0.27H92c-0.2,0.22-0.51,0.33-0.87,0.33c-0.62,0-0.98-0.4-0.98-0.83
			c0-0.7,0.71-1.04,1.78-1.03v-0.04c0-0.14-0.09-0.35-0.55-0.35c-0.31,0-0.64,0.09-0.84,0.2l-0.17-0.54
			c0.21-0.1,0.63-0.24,1.18-0.24c1.01,0,1.34,0.53,1.34,1.17V114.79z M91.96,114.17c-0.5-0.01-0.88,0.1-0.88,0.43
			c0,0.22,0.16,0.32,0.37,0.32c0.24,0,0.43-0.14,0.49-0.31c0.01-0.04,0.02-0.09,0.02-0.14V114.17z"/>
		<path d="M94.91,111.77c0.35-0.05,0.8-0.08,1.28-0.08c0.8,0,1.31,0.13,1.72,0.4c0.44,0.29,0.71,0.75,0.71,1.4
			c0,0.71-0.29,1.21-0.7,1.51c-0.44,0.33-1.11,0.48-1.93,0.48c-0.49,0-0.84-0.03-1.08-0.06V111.77z M95.86,114.81
			c0.08,0.02,0.21,0.02,0.33,0.02c0.86,0.01,1.42-0.41,1.42-1.31c0.01-0.77-0.5-1.18-1.32-1.18c-0.21,0-0.35,0.02-0.43,0.03V114.81z
			"/>
		<path d="M100.2,111.99c0,0.23-0.2,0.42-0.51,0.42c-0.3,0-0.5-0.19-0.49-0.42c-0.01-0.24,0.19-0.43,0.5-0.43
			C100,111.57,100.2,111.75,100.2,111.99z M99.23,115.45v-2.7h0.94v2.7H99.23z"/>
		<path d="M100.92,114.71c0.17,0.09,0.53,0.2,0.81,0.2c0.29,0,0.4-0.09,0.4-0.23c0-0.14-0.09-0.2-0.45-0.31
			c-0.63-0.19-0.87-0.49-0.86-0.81c0-0.51,0.48-0.89,1.24-0.89c0.35,0,0.67,0.07,0.86,0.15l-0.17,0.58
			c-0.14-0.07-0.4-0.15-0.66-0.15c-0.23,0-0.36,0.08-0.36,0.22c0,0.13,0.12,0.19,0.49,0.31c0.58,0.18,0.82,0.44,0.83,0.84
			c0,0.5-0.45,0.88-1.32,0.88c-0.4,0-0.75-0.08-0.98-0.19L100.92,114.71z"/>
		<path d="M104.68,112.01v0.74h0.68v0.62h-0.68v0.98c0,0.33,0.09,0.47,0.37,0.47c0.13,0,0.19-0.01,0.28-0.02l0.01,0.64
			c-0.12,0.04-0.35,0.08-0.62,0.08c-0.3,0-0.56-0.1-0.71-0.24c-0.17-0.16-0.26-0.42-0.26-0.8v-1.11h-0.4v-0.62h0.4v-0.51
			L104.68,112.01z"/>
		<path d="M105.9,113.64c0-0.4-0.01-0.66-0.02-0.89h0.81l0.03,0.5h0.02c0.16-0.39,0.53-0.56,0.82-0.56c0.09,0,0.13,0,0.2,0.01v0.8
			c-0.07-0.02-0.15-0.03-0.26-0.03c-0.35,0-0.58,0.17-0.65,0.43c-0.01,0.05-0.02,0.12-0.02,0.19v1.37h-0.94V113.64z"/>
		<path d="M109.24,111.99c0,0.23-0.2,0.42-0.51,0.42c-0.3,0-0.5-0.19-0.49-0.42c-0.01-0.24,0.19-0.43,0.5-0.43
			C109.04,111.57,109.23,111.75,109.24,111.99z M108.26,115.45v-2.7h0.94v2.7H108.26z"/>
		<path d="M109.97,111.52h0.94v1.54h0.01c0.18-0.23,0.5-0.38,0.92-0.38c0.73,0,1.26,0.54,1.26,1.37c0,0.97-0.7,1.46-1.39,1.46
			c-0.35,0-0.7-0.12-0.91-0.44h-0.01l-0.04,0.38h-0.8c0.01-0.18,0.02-0.5,0.02-0.81V111.52z M110.91,114.3
			c0,0.06,0.01,0.11,0.02,0.15c0.06,0.23,0.28,0.4,0.55,0.4c0.4,0,0.65-0.28,0.65-0.76c0-0.42-0.21-0.75-0.65-0.75
			c-0.26,0-0.49,0.17-0.55,0.41c-0.01,0.05-0.02,0.1-0.02,0.15V114.3z"/>
		<path d="M116.55,114.58c0,0.35,0.01,0.64,0.02,0.87h-0.82l-0.04-0.38h-0.02c-0.12,0.17-0.4,0.44-0.95,0.44
			c-0.62,0-1.07-0.34-1.07-1.18v-1.59h0.95v1.45c0,0.39,0.14,0.63,0.47,0.63c0.26,0,0.41-0.16,0.47-0.29
			c0.02-0.05,0.03-0.12,0.03-0.18v-1.61h0.95V114.58z"/>
		<path d="M118.36,112.01v0.74h0.68v0.62h-0.68v0.98c0,0.33,0.09,0.47,0.37,0.47c0.13,0,0.19-0.01,0.28-0.02l0.01,0.64
			c-0.12,0.04-0.35,0.08-0.62,0.08c-0.3,0-0.56-0.1-0.71-0.24c-0.17-0.16-0.26-0.42-0.26-0.8v-1.11h-0.4v-0.62h0.4v-0.51
			L118.36,112.01z"/>
		<path d="M120.56,111.99c0,0.23-0.2,0.42-0.51,0.42c-0.3,0-0.5-0.19-0.49-0.42c-0.01-0.24,0.19-0.43,0.5-0.43
			S120.55,111.75,120.56,111.99z M119.58,115.45v-2.7h0.94v2.7H119.58z"/>
		<path d="M124.29,114.07c0,0.99-0.79,1.44-1.6,1.44c-0.89,0-1.57-0.52-1.57-1.39c0-0.87,0.65-1.43,1.62-1.43
			C123.66,112.69,124.29,113.25,124.29,114.07z M122.09,114.1c0,0.46,0.22,0.81,0.62,0.81c0.37,0,0.6-0.33,0.6-0.81
			c0-0.4-0.17-0.81-0.6-0.81C122.25,113.28,122.09,113.7,122.09,114.1z"/>
		<path d="M124.87,113.61c0-0.34-0.01-0.63-0.02-0.86h0.82l0.04,0.37h0.02c0.12-0.17,0.44-0.43,0.94-0.43
			c0.62,0,1.09,0.36,1.09,1.16v1.6h-0.95v-1.5c0-0.35-0.14-0.59-0.48-0.59c-0.26,0-0.42,0.16-0.48,0.32
			c-0.03,0.06-0.04,0.13-0.04,0.21v1.56h-0.94V113.61z"/>
		<path class="st34" d="M23.95,118.4c0.29-0.04,0.7-0.08,1.28-0.08c0.58,0,1,0.1,1.28,0.3c0.27,0.19,0.45,0.5,0.45,0.86
			c0,0.37-0.14,0.67-0.39,0.89c-0.32,0.27-0.8,0.39-1.36,0.39c-0.12,0-0.24-0.01-0.32-0.02v1.33h-0.94V118.4z M24.89,120.1
			c0.08,0.02,0.18,0.02,0.32,0.02c0.5,0,0.81-0.23,0.81-0.61c0-0.34-0.27-0.55-0.74-0.55c-0.19,0-0.32,0.02-0.39,0.03V120.1z"/>
		<path class="st34" d="M28.62,119.23h-0.01l-0.77,0.33l-0.16-0.63l1.07-0.44h0.78v3.59h-0.91V119.23z"/>
		<path class="st34" d="M33.44,119.08c-0.11,0-0.22,0-0.37,0.01c-0.84,0.06-1.21,0.44-1.32,0.86h0.02c0.2-0.18,0.48-0.29,0.86-0.29
			c0.68,0,1.25,0.43,1.25,1.17c0,0.71-0.62,1.3-1.49,1.3c-1.08,0-1.6-0.71-1.6-1.57c0-0.67,0.28-1.24,0.71-1.6
			c0.4-0.33,0.93-0.5,1.56-0.53c0.17-0.01,0.29-0.01,0.38-0.01V119.08z M32.38,121.52c0.33,0,0.54-0.27,0.54-0.64
			c0-0.33-0.2-0.62-0.6-0.62c-0.25,0-0.47,0.14-0.56,0.32c-0.03,0.04-0.04,0.11-0.04,0.21C31.74,121.18,31.95,121.52,32.38,121.52
			L32.38,121.52z"/>
		<path d="M37.12,120.35v0.56h-1.63v-0.56H37.12z"/>
		<path d="M38.96,118.35h2.56v0.69h-1.61v0.85h1.5v0.69h-1.5v1.5h-0.95V118.35z"/>
		<path d="M44.73,120.51h-1.54v0.89h1.72v0.69h-2.67v-3.73h2.59v0.69h-1.63v0.77h1.54V120.51z"/>
		<path d="M46.59,122.08l-1.34-3.73h1.04l0.51,1.58c0.14,0.44,0.27,0.87,0.37,1.33h0.02c0.11-0.45,0.24-0.89,0.38-1.32l0.53-1.59
			h1.01l-1.41,3.73H46.59z"/>
	</g>
</g>
</svg>
