<?xml version="1.0" encoding="utf-8"?>
<!-- Generator: Adobe Illustrator 23.0.1, SVG Export Plug-In . SVG Version: 6.00 Build 0)  -->
<svg version="1.1" id="Warstwa_1" xmlns="http://www.w3.org/2000/svg" xmlns:xlink="http://www.w3.org/1999/xlink" x="0px" y="0px"
	 viewBox="0 0 151.7 140.82" style="enable-background:new 0 0 151.7 140.82;" xml:space="preserve">
<style type="text/css">
	.st0{fill:#E2CFC3;stroke:#CB6333;stroke-width:3;stroke-miterlimit:10;}
	.st1{fill:#E12529;}
	.st2{fill:#131819;}
	.st3{fill:#0D76BA;}
	.st4{fill:#F8A233;}
	.st5{fill:#73BC45;}
	.st6{fill:#E82128;}
	.st7{fill:#B3D456;stroke:#000000;stroke-miterlimit:10;}
	.st8{fill:none;stroke:#000000;stroke-linecap:round;stroke-linejoin:round;stroke-miterlimit:10;}
	.st9{fill:#F47C2D;stroke:#000000;stroke-miterlimit:10;}
	.st10{fill:none;stroke:#000000;stroke-width:2;stroke-miterlimit:10;}
	.st11{fill:#DE3472;stroke:#000000;stroke-miterlimit:10;}
	.st12{fill:#3EC1C8;stroke:#000000;stroke-miterlimit:10;}
	.st13{fill:#51BD88;stroke:#000000;stroke-miterlimit:10;}
	.st14{fill:#9F4F9F;stroke:#000000;stroke-miterlimit:10;}
	.st15{fill:#F69138;stroke:#000000;stroke-miterlimit:10;}
	.st16{fill:#39A2D7;stroke:#000000;stroke-miterlimit:10;}
	.st17{fill:none;stroke:#000000;stroke-miterlimit:10;}
	.st18{fill:#68737A;}
	.st19{fill:#910028;}
	.st20{fill:#EE5F2B;}
	.st21{fill:#0FA8E1;}
	.st22{fill:#22488E;}
	.st23{fill:#50499E;}
	.st24{fill:#593594;}
	.st25{fill:none;}
	.st26{fill:#FBFAFC;}
	.st27{fill:#FFFFFF;}
	.st28{fill:#2C3579;}
	.st29{fill:#109EAE;}
	.st30{stroke:#000000;stroke-miterlimit:10;}
	.st31{fill:#F69138;}
	.st32{fill:#F47C2D;}
	.st33{fill:#B3D456;}
</style>
<g>
	<path class="st0" d="M110.88,130.58H42.48c-16.71,0-30.25-13.54-30.25-30.25V38.15c0-16.71,13.54-30.25,30.25-30.25h68.41
		c16.71,0,30.25,13.54,30.25,30.25v62.18C141.13,117.04,127.59,130.58,110.88,130.58z"/>
	<g>
		<path class="st32" d="M29.92,30.92c0.27,0.13,0.7,0.25,1.13,0.25c0.47,0,0.72-0.17,0.72-0.43c0-0.25-0.21-0.39-0.76-0.57
			c-0.75-0.23-1.24-0.6-1.24-1.18c0-0.68,0.64-1.21,1.71-1.21c0.51,0,0.88,0.1,1.15,0.2l-0.23,0.73c-0.18-0.08-0.5-0.19-0.94-0.19
			s-0.66,0.18-0.66,0.39c0,0.26,0.25,0.37,0.84,0.56c0.8,0.26,1.17,0.63,1.17,1.2c0,0.67-0.58,1.25-1.82,1.25
			c-0.51,0-1.02-0.13-1.28-0.25L29.92,30.92z M32.48,26.89l-0.82,0.73h-0.82l0.56-0.73H32.48z"/>
		<path class="st32" d="M33.5,27.9c0.33-0.05,0.82-0.08,1.36-0.08c0.67,0,1.14,0.09,1.46,0.32c0.27,0.19,0.41,0.47,0.41,0.84
			c0,0.51-0.41,0.86-0.8,0.99v0.02c0.31,0.11,0.49,0.38,0.6,0.75c0.14,0.45,0.28,0.98,0.37,1.13h-1.04
			c-0.07-0.12-0.18-0.44-0.31-0.93c-0.12-0.5-0.31-0.64-0.73-0.64h-0.31v1.58H33.5V27.9z M34.51,29.62h0.4
			c0.51,0,0.81-0.23,0.81-0.58c0-0.37-0.28-0.55-0.75-0.56c-0.25,0-0.39,0.02-0.46,0.03V29.62z"/>
		<path class="st32" d="M38.6,28.79h-0.01l-0.83,0.35l-0.17-0.68l1.15-0.48h0.84v3.87H38.6V28.79z"/>
		<path d="M44.03,29.99v0.61h-1.75v-0.61H44.03z"/>
		<path d="M46.02,27.9c0.27-0.05,0.81-0.08,1.32-0.08c0.62,0,1,0.05,1.33,0.23c0.31,0.15,0.54,0.42,0.54,0.79
			c0,0.36-0.23,0.69-0.74,0.86v0.01c0.52,0.12,0.9,0.47,0.9,0.99c0,0.36-0.19,0.65-0.47,0.85c-0.33,0.23-0.88,0.36-1.77,0.36
			c-0.5,0-0.88-0.03-1.1-0.06V27.9z M47.03,29.43h0.33c0.54,0,0.82-0.2,0.82-0.49c0-0.3-0.26-0.46-0.72-0.46
			c-0.22,0-0.35,0.01-0.43,0.02V29.43z M47.03,31.21c0.1,0.01,0.22,0.01,0.39,0.01c0.46,0,0.87-0.16,0.87-0.58
			c0-0.4-0.41-0.56-0.92-0.56h-0.35V31.21z"/>
		<path d="M50.03,29.9c0-0.43-0.01-0.71-0.03-0.96h0.88l0.03,0.54h0.03c0.17-0.42,0.57-0.6,0.88-0.6c0.09,0,0.14,0,0.21,0.01v0.86
			c-0.07-0.02-0.16-0.03-0.27-0.03c-0.37,0-0.63,0.18-0.7,0.46c-0.01,0.06-0.02,0.13-0.02,0.2v1.48h-1.02V29.9z"/>
		<path d="M55.74,30.37c0,1.07-0.85,1.55-1.73,1.55c-0.96,0-1.69-0.56-1.69-1.5c0-0.94,0.7-1.54,1.75-1.54
			C55.08,28.88,55.74,29.49,55.74,30.37z M53.38,30.4c0,0.5,0.23,0.87,0.67,0.87c0.39,0,0.65-0.35,0.65-0.87
			c0-0.43-0.19-0.87-0.65-0.87C53.56,29.52,53.38,29.97,53.38,30.4z"/>
		<path d="M57.01,28.94l0.26,1.19c0.07,0.3,0.13,0.62,0.19,0.96h0.01c0.07-0.33,0.16-0.67,0.24-0.95l0.35-1.2h0.8l0.33,1.16
			c0.09,0.33,0.17,0.65,0.24,0.99h0.01c0.05-0.33,0.11-0.66,0.19-0.99l0.28-1.15h1l-1,2.91h-0.96l-0.31-1.02
			c-0.08-0.29-0.14-0.54-0.21-0.9h-0.01c-0.06,0.36-0.13,0.64-0.21,0.9l-0.33,1.02h-0.96l-0.95-2.91H57.01z"/>
		<path d="M61.38,29.87c0-0.36-0.01-0.67-0.03-0.93h0.88l0.05,0.4h0.02c0.13-0.18,0.47-0.46,1.01-0.46c0.67,0,1.17,0.39,1.17,1.25
			v1.73h-1.02v-1.61c0-0.37-0.15-0.63-0.52-0.63c-0.28,0-0.45,0.17-0.51,0.34c-0.03,0.06-0.04,0.14-0.04,0.23v1.68h-1.02V29.87z"/>
		<path d="M66.68,27.9c0.27-0.05,0.81-0.08,1.32-0.08c0.62,0,1,0.05,1.33,0.23c0.31,0.15,0.54,0.42,0.54,0.79
			c0,0.36-0.23,0.69-0.74,0.86v0.01c0.52,0.12,0.9,0.47,0.9,0.99c0,0.36-0.19,0.65-0.47,0.85c-0.33,0.23-0.88,0.36-1.77,0.36
			c-0.5,0-0.88-0.03-1.1-0.06V27.9z M67.69,29.43h0.33c0.54,0,0.82-0.2,0.82-0.49c0-0.3-0.26-0.46-0.72-0.46
			c-0.22,0-0.35,0.01-0.43,0.02V29.43z M67.69,31.21c0.1,0.01,0.22,0.01,0.39,0.01c0.46,0,0.87-0.16,0.87-0.58
			c0-0.4-0.41-0.56-0.92-0.56h-0.35V31.21z"/>
		<path d="M70.69,29.9c0-0.43-0.01-0.71-0.03-0.96h0.88l0.03,0.54h0.03c0.17-0.42,0.57-0.6,0.88-0.6c0.09,0,0.14,0,0.21,0.01v0.86
			c-0.07-0.02-0.16-0.03-0.27-0.03c-0.37,0-0.63,0.18-0.7,0.46c-0.01,0.06-0.02,0.13-0.02,0.2v1.48h-1.02V29.9z"/>
		<path d="M76.4,30.37c0,1.07-0.85,1.55-1.73,1.55c-0.96,0-1.69-0.56-1.69-1.5c0-0.94,0.7-1.54,1.75-1.54
			C75.73,28.88,76.4,29.49,76.4,30.37z M74.04,30.4c0,0.5,0.23,0.87,0.67,0.87c0.39,0,0.65-0.35,0.65-0.87
			c0-0.43-0.19-0.87-0.65-0.87C74.22,29.52,74.04,29.97,74.04,30.4z"/>
		<path d="M78.17,28.15v0.79h0.73v0.67h-0.73v1.05c0,0.35,0.09,0.51,0.4,0.51c0.14,0,0.2-0.01,0.3-0.02l0.01,0.68
			c-0.13,0.05-0.37,0.08-0.66,0.08c-0.33,0-0.6-0.11-0.76-0.26c-0.19-0.17-0.28-0.45-0.28-0.86v-1.19h-0.43v-0.67h0.43V28.4
			L78.17,28.15z"/>
		<path d="M79.48,27.63h1.02v1.66h0.01c0.11-0.13,0.24-0.23,0.4-0.3c0.15-0.07,0.34-0.11,0.53-0.11c0.65,0,1.14,0.4,1.14,1.27v1.7
			h-1.02v-1.6c0-0.38-0.15-0.64-0.53-0.64c-0.27,0-0.43,0.16-0.51,0.32c-0.03,0.06-0.03,0.14-0.03,0.2v1.73h-1.02V27.63z"/>
		<path d="M84.18,30.69c0.03,0.37,0.45,0.55,0.92,0.55c0.35,0,0.63-0.04,0.9-0.12l0.13,0.61c-0.33,0.12-0.74,0.18-1.18,0.18
			c-1.11,0-1.75-0.58-1.75-1.49c0-0.74,0.52-1.55,1.65-1.55c1.06,0,1.46,0.73,1.46,1.45c0,0.15-0.02,0.29-0.03,0.36H84.18z
			 M85.38,30.07c0-0.22-0.11-0.59-0.57-0.59c-0.43,0-0.6,0.35-0.63,0.59H85.38z"/>
		<path d="M86.93,29.9c0-0.43-0.01-0.71-0.03-0.96h0.88l0.03,0.54h0.03c0.17-0.42,0.57-0.6,0.88-0.6c0.09,0,0.14,0,0.21,0.01v0.86
			c-0.07-0.02-0.16-0.03-0.27-0.03c-0.37,0-0.63,0.18-0.7,0.46c-0.01,0.06-0.02,0.13-0.02,0.2v1.48h-1.02V29.9z"/>
		<path d="M89.46,31.06c0.19,0.1,0.57,0.22,0.88,0.22c0.31,0,0.43-0.09,0.43-0.24c0-0.15-0.1-0.22-0.48-0.33
			c-0.68-0.2-0.94-0.53-0.93-0.87c0-0.55,0.52-0.96,1.33-0.96c0.38,0,0.72,0.08,0.92,0.17l-0.18,0.62
			c-0.15-0.07-0.43-0.17-0.71-0.17c-0.25,0-0.39,0.09-0.39,0.24c0,0.14,0.13,0.21,0.53,0.33c0.62,0.19,0.88,0.47,0.89,0.9
			c0,0.54-0.48,0.95-1.42,0.95c-0.43,0-0.81-0.09-1.06-0.21L89.46,31.06z"/>
		<path d="M94.78,27.84v1.54h1.68v-1.54h1.02v4.01h-1.02v-1.68h-1.68v1.68h-1.02v-4.01H94.78z"/>
		<path d="M101.05,31.15c0,0.28,0.01,0.55,0.05,0.71h-0.92l-0.06-0.29h-0.02c-0.21,0.23-0.55,0.36-0.94,0.36
			c-0.66,0-1.06-0.43-1.06-0.89c0-0.76,0.76-1.12,1.92-1.11v-0.04c0-0.16-0.09-0.37-0.6-0.37c-0.33,0-0.69,0.1-0.9,0.22l-0.19-0.58
			c0.23-0.11,0.68-0.26,1.27-0.26c1.09,0,1.44,0.57,1.44,1.26V31.15z M100.06,30.48c-0.54-0.01-0.95,0.11-0.95,0.46
			c0,0.23,0.17,0.34,0.4,0.34c0.25,0,0.46-0.15,0.53-0.33c0.01-0.05,0.02-0.1,0.02-0.16V30.48z"/>
		<path d="M101.85,29.9c0-0.43-0.01-0.71-0.03-0.96h0.88l0.03,0.54h0.03c0.17-0.42,0.57-0.6,0.88-0.6c0.09,0,0.14,0,0.21,0.01v0.86
			c-0.07-0.02-0.16-0.03-0.27-0.03c-0.37,0-0.63,0.18-0.7,0.46c-0.01,0.06-0.02,0.13-0.02,0.2v1.48h-1.02V29.9z"/>
		<path d="M104.39,29.9c0-0.43-0.01-0.71-0.03-0.96h0.88l0.03,0.54h0.03c0.17-0.42,0.57-0.6,0.88-0.6c0.09,0,0.14,0,0.21,0.01v0.86
			c-0.07-0.02-0.16-0.03-0.27-0.03c-0.37,0-0.63,0.18-0.7,0.46c-0.01,0.06-0.02,0.13-0.02,0.2v1.48h-1.02V29.9z"/>
		<path d="M107.98,28.14c0,0.25-0.21,0.45-0.55,0.45c-0.32,0-0.53-0.2-0.53-0.45c-0.01-0.26,0.21-0.46,0.54-0.46
			C107.77,27.68,107.98,27.87,107.98,28.14z M106.93,31.85v-2.91h1.02v2.91H106.93z"/>
		<path d="M108.76,29.87c0-0.36-0.01-0.67-0.03-0.93h0.86l0.05,0.39h0.02c0.14-0.18,0.43-0.46,0.99-0.46c0.42,0,0.76,0.19,0.9,0.49
			h0.01c0.12-0.15,0.27-0.27,0.42-0.35c0.18-0.1,0.38-0.14,0.62-0.14c0.63,0,1.1,0.39,1.1,1.26v1.71h-0.99v-1.58
			c0-0.42-0.15-0.67-0.48-0.67c-0.23,0-0.4,0.14-0.47,0.32c-0.03,0.07-0.04,0.16-0.04,0.23v1.7h-0.99v-1.63
			c0-0.37-0.15-0.62-0.47-0.62c-0.26,0-0.41,0.18-0.48,0.33c-0.03,0.07-0.04,0.16-0.04,0.23v1.7h-0.99V29.87z"/>
		<path d="M117.24,31.15c0,0.28,0.01,0.55,0.05,0.71h-0.92l-0.06-0.29h-0.02c-0.21,0.23-0.55,0.36-0.94,0.36
			c-0.66,0-1.06-0.43-1.06-0.89c0-0.76,0.76-1.12,1.92-1.11v-0.04c0-0.16-0.09-0.37-0.6-0.37c-0.33,0-0.69,0.1-0.9,0.22l-0.19-0.58
			c0.23-0.11,0.68-0.26,1.27-0.26c1.09,0,1.44,0.57,1.44,1.26V31.15z M116.25,30.48c-0.54-0.01-0.95,0.11-0.95,0.46
			c0,0.23,0.17,0.34,0.4,0.34c0.25,0,0.46-0.15,0.53-0.33c0.01-0.05,0.02-0.1,0.02-0.16V30.48z"/>
		<path d="M118.04,29.87c0-0.36-0.01-0.67-0.03-0.93h0.88l0.05,0.4h0.02c0.13-0.18,0.47-0.46,1.01-0.46c0.67,0,1.17,0.39,1.17,1.25
			v1.73h-1.02v-1.61c0-0.37-0.15-0.63-0.52-0.63c-0.28,0-0.45,0.17-0.51,0.34c-0.03,0.06-0.04,0.14-0.04,0.23v1.68h-1.02V29.87z"/>
		<path class="st32" d="M29.92,38.06c0.27,0.13,0.7,0.25,1.13,0.25c0.47,0,0.72-0.17,0.72-0.43c0-0.25-0.21-0.39-0.76-0.57
			c-0.75-0.23-1.24-0.6-1.24-1.18c0-0.68,0.64-1.21,1.71-1.21c0.51,0,0.88,0.1,1.15,0.2l-0.23,0.73c-0.18-0.08-0.5-0.19-0.94-0.19
			s-0.66,0.18-0.66,0.39c0,0.26,0.25,0.37,0.84,0.56c0.8,0.26,1.17,0.63,1.17,1.2c0,0.67-0.58,1.25-1.82,1.25
			c-0.51,0-1.02-0.13-1.28-0.25L29.92,38.06z M32.48,34.03l-0.82,0.73h-0.82l0.56-0.73H32.48z"/>
		<path class="st32" d="M33.5,35.03c0.33-0.05,0.82-0.08,1.36-0.08c0.67,0,1.14,0.09,1.46,0.32c0.27,0.19,0.41,0.47,0.41,0.84
			c0,0.51-0.41,0.86-0.8,0.99v0.02c0.31,0.11,0.49,0.38,0.6,0.75c0.14,0.45,0.28,0.98,0.37,1.13h-1.04
			c-0.07-0.12-0.18-0.44-0.31-0.93c-0.12-0.5-0.31-0.64-0.73-0.64h-0.31v1.58H33.5V35.03z M34.51,36.76h0.4
			c0.51,0,0.81-0.23,0.81-0.58c0-0.37-0.28-0.55-0.75-0.56c-0.25,0-0.39,0.02-0.46,0.03V36.76z"/>
		<path class="st32" d="M37.3,38.99v-0.55l0.56-0.45c0.95-0.76,1.41-1.19,1.42-1.64c0-0.32-0.21-0.57-0.72-0.57
			c-0.37,0-0.7,0.17-0.93,0.32l-0.29-0.65c0.33-0.22,0.84-0.4,1.42-0.4c0.98,0,1.53,0.51,1.53,1.21c0,0.65-0.53,1.17-1.16,1.67
			l-0.4,0.3v0.01h1.64v0.74H37.3z"/>
		<path d="M44.03,37.12v0.61h-1.75v-0.61H44.03z"/>
		<path d="M49.79,38.81c-0.31,0.09-0.91,0.23-1.5,0.23c-0.82,0-1.42-0.18-1.83-0.54c-0.41-0.35-0.64-0.87-0.64-1.46
			c0.01-1.33,1.1-2.09,2.58-2.09c0.58,0,1.03,0.1,1.25,0.2l-0.21,0.73c-0.25-0.1-0.56-0.17-1.05-0.17c-0.85,0-1.49,0.43-1.49,1.3
			c0,0.83,0.58,1.31,1.42,1.31c0.23,0,0.42-0.02,0.5-0.06V37.4h-0.7v-0.71h1.68V38.81z"/>
		<path d="M50.57,37.04c0-0.43-0.01-0.71-0.03-0.96h0.88l0.03,0.54h0.03c0.17-0.42,0.57-0.6,0.88-0.6c0.09,0,0.14,0,0.21,0.01v0.86
			c-0.07-0.02-0.16-0.03-0.27-0.03c-0.37,0-0.63,0.18-0.7,0.46c-0.01,0.06-0.02,0.13-0.02,0.2v1.48h-1.02V37.04z"/>
		<path d="M55.76,38.28c0,0.28,0.01,0.55,0.05,0.71h-0.92l-0.06-0.29h-0.02c-0.21,0.23-0.55,0.36-0.94,0.36
			c-0.66,0-1.06-0.43-1.06-0.89c0-0.76,0.76-1.12,1.92-1.11v-0.04c0-0.16-0.09-0.37-0.6-0.37c-0.33,0-0.69,0.1-0.9,0.22l-0.19-0.58
			c0.23-0.11,0.68-0.26,1.27-0.26c1.09,0,1.44,0.57,1.44,1.26V38.28z M54.77,37.62c-0.54-0.01-0.95,0.11-0.95,0.46
			c0,0.23,0.17,0.34,0.4,0.34c0.25,0,0.46-0.15,0.53-0.33c0.01-0.05,0.02-0.1,0.02-0.16V37.62z"/>
		<path d="M57.62,35.27c0,0.25-0.21,0.45-0.55,0.45c-0.32,0-0.53-0.2-0.53-0.45c-0.01-0.26,0.21-0.46,0.54-0.46
			S57.61,35.01,57.62,35.27z M56.56,38.99v-2.91h1.02v2.91H56.56z"/>
		<path d="M59.53,35.29v0.79h0.73v0.67h-0.73v1.05c0,0.35,0.09,0.51,0.4,0.51c0.14,0,0.2-0.01,0.3-0.02l0.01,0.68
			c-0.13,0.05-0.37,0.08-0.66,0.08c-0.33,0-0.6-0.11-0.76-0.26c-0.19-0.17-0.28-0.45-0.28-0.86v-1.19H58.1v-0.67h0.43v-0.55
			L59.53,35.29z"/>
		<path d="M61.6,37.82c0.03,0.37,0.45,0.55,0.92,0.55c0.35,0,0.63-0.04,0.9-0.12l0.13,0.61c-0.33,0.12-0.74,0.18-1.18,0.18
			c-1.11,0-1.75-0.58-1.75-1.49c0-0.74,0.52-1.55,1.65-1.55c1.06,0,1.46,0.73,1.46,1.45c0,0.15-0.02,0.29-0.03,0.36H61.6z
			 M62.79,37.2c0-0.22-0.11-0.59-0.57-0.59c-0.43,0-0.6,0.35-0.63,0.59H62.79z"/>
		<path d="M66.8,38.92c-0.18,0.07-0.52,0.14-0.91,0.14c-1.06,0-1.73-0.58-1.73-1.49c0-0.85,0.66-1.55,1.87-1.55
			c0.27,0,0.56,0.04,0.78,0.11l-0.16,0.67c-0.12-0.05-0.3-0.09-0.57-0.09c-0.54,0-0.88,0.34-0.88,0.82c0,0.54,0.4,0.81,0.9,0.81
			c0.24,0,0.43-0.04,0.58-0.09L66.8,38.92z"/>
		<path class="st32" d="M29.92,45.19c0.27,0.13,0.7,0.25,1.13,0.25c0.47,0,0.72-0.17,0.72-0.43c0-0.25-0.21-0.39-0.76-0.57
			c-0.75-0.23-1.24-0.6-1.24-1.18c0-0.68,0.64-1.21,1.71-1.21c0.51,0,0.88,0.1,1.15,0.2l-0.23,0.73c-0.18-0.08-0.5-0.19-0.94-0.19
			s-0.66,0.18-0.66,0.39c0,0.26,0.25,0.37,0.84,0.56c0.8,0.26,1.17,0.63,1.17,1.2c0,0.67-0.58,1.25-1.82,1.25
			c-0.51,0-1.02-0.13-1.28-0.25L29.92,45.19z M32.48,41.16l-0.82,0.73h-0.82l0.56-0.73H32.48z"/>
		<path class="st32" d="M33.5,42.17c0.33-0.05,0.82-0.08,1.36-0.08c0.67,0,1.14,0.09,1.46,0.32c0.27,0.19,0.41,0.47,0.41,0.84
			c0,0.51-0.41,0.86-0.8,0.99v0.02c0.31,0.11,0.49,0.38,0.6,0.75c0.14,0.45,0.28,0.98,0.37,1.13h-1.04
			c-0.07-0.12-0.18-0.44-0.31-0.93c-0.12-0.5-0.31-0.64-0.73-0.64h-0.31v1.58H33.5V42.17z M34.51,43.89h0.4
			c0.51,0,0.81-0.23,0.81-0.58c0-0.37-0.28-0.55-0.75-0.56c-0.25,0-0.39,0.02-0.46,0.03V43.89z"/>
		<path class="st32" d="M37.48,45.24c0.18,0.08,0.6,0.24,1.01,0.24c0.53,0,0.8-0.23,0.8-0.52c0-0.38-0.43-0.55-0.88-0.55H38v-0.65
			h0.39c0.34-0.01,0.78-0.12,0.78-0.45c0-0.23-0.21-0.4-0.64-0.4c-0.35,0-0.73,0.14-0.91,0.23l-0.21-0.65
			c0.26-0.15,0.78-0.29,1.34-0.29c0.93,0,1.45,0.43,1.45,0.96c0,0.41-0.26,0.73-0.8,0.9v0.01c0.52,0.08,0.94,0.43,0.94,0.94
			c0,0.68-0.68,1.18-1.78,1.18c-0.56,0-1.04-0.13-1.29-0.27L37.48,45.24z"/>
		<path d="M44.03,44.26v0.61h-1.75v-0.61H44.03z"/>
		<path d="M48.71,44.43h-1.66v0.95h1.85v0.74h-2.88v-4.01h2.78v0.74h-1.76v0.83h1.66V44.43z"/>
		<path d="M52.58,45.19c0,0.38,0.01,0.69,0.03,0.93h-0.88l-0.05-0.41h-0.02c-0.13,0.18-0.43,0.48-1.02,0.48
			c-0.66,0-1.15-0.37-1.15-1.27v-1.71h1.02v1.56c0,0.42,0.15,0.68,0.51,0.68c0.28,0,0.44-0.17,0.51-0.32
			c0.03-0.05,0.03-0.13,0.03-0.2v-1.73h1.02V45.19z"/>
		<path d="M53.39,44.17c0-0.43-0.01-0.71-0.03-0.96h0.88l0.03,0.54h0.03c0.17-0.42,0.57-0.6,0.88-0.6c0.09,0,0.14,0,0.21,0.01v0.86
			c-0.07-0.02-0.16-0.03-0.27-0.03c-0.37,0-0.63,0.18-0.7,0.46c-0.01,0.06-0.02,0.13-0.02,0.2v1.48h-1.02V44.17z"/>
		<path d="M59.11,44.64c0,1.07-0.85,1.55-1.73,1.55c-0.96,0-1.69-0.56-1.69-1.5c0-0.94,0.7-1.54,1.75-1.54
			C58.44,43.15,59.11,43.76,59.11,44.64z M56.74,44.67c0,0.5,0.23,0.87,0.67,0.87c0.39,0,0.65-0.35,0.65-0.87
			c0-0.43-0.19-0.87-0.65-0.87C56.92,43.79,56.74,44.24,56.74,44.67z"/>
		<path d="M59.73,45.33c0.19,0.1,0.57,0.22,0.88,0.22c0.31,0,0.43-0.1,0.43-0.24c0-0.15-0.1-0.22-0.48-0.33
			c-0.68-0.2-0.94-0.53-0.93-0.87c0-0.55,0.52-0.96,1.33-0.96c0.38,0,0.72,0.08,0.92,0.17l-0.18,0.62
			c-0.15-0.07-0.43-0.17-0.71-0.17c-0.25,0-0.39,0.09-0.39,0.24c0,0.14,0.13,0.21,0.53,0.33c0.62,0.19,0.88,0.47,0.89,0.9
			c0,0.54-0.48,0.95-1.42,0.95c-0.43,0-0.81-0.09-1.06-0.21L59.73,45.33z"/>
		<path d="M63.77,42.42v0.79h0.73v0.67h-0.73v1.05c0,0.35,0.09,0.51,0.4,0.51c0.14,0,0.2-0.01,0.3-0.02l0.01,0.68
			c-0.13,0.05-0.37,0.08-0.66,0.08c-0.33,0-0.6-0.11-0.76-0.26c-0.19-0.17-0.28-0.45-0.28-0.86v-1.19h-0.43v-0.67h0.43v-0.55
			L63.77,42.42z"/>
		<path d="M68.17,45.19c0,0.38,0.01,0.69,0.03,0.93h-0.88l-0.05-0.41h-0.02c-0.13,0.18-0.43,0.48-1.02,0.48
			c-0.66,0-1.15-0.37-1.15-1.27v-1.71h1.02v1.56c0,0.42,0.15,0.68,0.51,0.68c0.28,0,0.44-0.17,0.51-0.32
			c0.03-0.05,0.03-0.13,0.03-0.2v-1.73h1.02V45.19z"/>
		<path d="M72.15,41.9v3.36c0,0.33,0.01,0.67,0.03,0.87h-0.9l-0.05-0.43h-0.01c-0.21,0.33-0.6,0.49-1.02,0.49
			c-0.78,0-1.4-0.59-1.4-1.49c-0.01-0.98,0.68-1.55,1.47-1.55c0.4,0,0.72,0.13,0.86,0.33h0.01V41.9H72.15z M71.14,44.45
			c0-0.05-0.01-0.11-0.01-0.16c-0.06-0.24-0.28-0.45-0.6-0.45c-0.46,0-0.7,0.37-0.7,0.83c0,0.49,0.27,0.8,0.7,0.8
			c0.29,0,0.53-0.18,0.59-0.43c0.02-0.07,0.03-0.13,0.03-0.21V44.45z"/>
		<path d="M73.75,44.96c0.03,0.37,0.45,0.55,0.92,0.55c0.35,0,0.63-0.04,0.9-0.12l0.13,0.61c-0.33,0.12-0.74,0.18-1.18,0.18
			c-1.11,0-1.75-0.58-1.75-1.49c0-0.74,0.52-1.55,1.65-1.55c1.06,0,1.46,0.73,1.46,1.45c0,0.15-0.02,0.29-0.03,0.36H73.75z
			 M74.95,44.34c0-0.22-0.11-0.59-0.57-0.59c-0.43,0-0.6,0.35-0.63,0.59H74.95z"/>
		<path d="M76.5,44.14c0-0.36-0.01-0.67-0.03-0.93h0.88l0.05,0.4h0.02c0.13-0.18,0.47-0.46,1.01-0.46c0.67,0,1.17,0.39,1.17,1.25
			v1.73h-1.02v-1.61c0-0.37-0.15-0.63-0.51-0.63c-0.28,0-0.45,0.17-0.52,0.34c-0.03,0.06-0.04,0.14-0.04,0.23v1.68H76.5V44.14z"/>
		<path d="M81.51,42.42v0.79h0.73v0.67h-0.73v1.05c0,0.35,0.09,0.51,0.4,0.51c0.14,0,0.2-0.01,0.3-0.02l0.01,0.68
			c-0.13,0.05-0.37,0.08-0.66,0.08c-0.33,0-0.6-0.11-0.76-0.26c-0.19-0.17-0.28-0.45-0.28-0.86v-1.19h-0.43v-0.67h0.43v-0.55
			L81.51,42.42z"/>
		<path class="st32" d="M29.92,52.33c0.27,0.13,0.7,0.25,1.13,0.25c0.47,0,0.72-0.17,0.72-0.43c0-0.25-0.21-0.39-0.76-0.57
			c-0.75-0.23-1.24-0.6-1.24-1.18c0-0.68,0.64-1.21,1.71-1.21c0.51,0,0.88,0.1,1.15,0.2l-0.23,0.73c-0.18-0.08-0.5-0.19-0.94-0.19
			s-0.66,0.18-0.66,0.39c0,0.26,0.25,0.37,0.84,0.56c0.8,0.26,1.17,0.63,1.17,1.2c0,0.67-0.58,1.25-1.82,1.25
			c-0.51,0-1.02-0.13-1.28-0.25L29.92,52.33z M32.48,48.3l-0.82,0.73h-0.82l0.56-0.73H32.48z"/>
		<path class="st32" d="M33.5,49.31c0.33-0.05,0.82-0.08,1.36-0.08c0.67,0,1.14,0.09,1.46,0.32c0.27,0.19,0.41,0.47,0.41,0.84
			c0,0.51-0.41,0.86-0.8,0.99v0.02c0.31,0.11,0.49,0.38,0.6,0.75c0.14,0.45,0.28,0.98,0.37,1.13h-1.04
			c-0.07-0.12-0.18-0.44-0.31-0.93c-0.12-0.5-0.31-0.64-0.73-0.64h-0.31v1.58H33.5V49.31z M34.51,51.03h0.4
			c0.51,0,0.81-0.23,0.81-0.58c0-0.37-0.28-0.55-0.75-0.56c-0.25,0-0.39,0.02-0.46,0.03V51.03z"/>
		<path class="st32" d="M39.1,53.26v-0.92h-1.93v-0.59l1.65-2.36h1.24v2.27h0.52v0.68h-0.52v0.92H39.1z M39.1,51.66V50.8
			c0-0.23,0.01-0.47,0.03-0.72h-0.03c-0.14,0.25-0.25,0.48-0.4,0.72l-0.58,0.84v0.01H39.1z"/>
		<path d="M44.03,51.39V52h-1.75v-0.61H44.03z"/>
		<path d="M47.07,52.23l-0.32,1.03H45.7l1.38-4.01h1.34l1.4,4.01h-1.1l-0.35-1.03H47.07z M48.22,51.55l-0.28-0.85
			c-0.08-0.24-0.16-0.54-0.23-0.77H47.7c-0.07,0.24-0.13,0.54-0.21,0.77l-0.27,0.85H48.22z"/>
		<path d="M50.41,49.31c0.33-0.05,0.82-0.08,1.36-0.08c0.67,0,1.14,0.09,1.46,0.32c0.27,0.19,0.41,0.47,0.41,0.84
			c0,0.51-0.41,0.86-0.8,0.99v0.02c0.31,0.11,0.49,0.38,0.6,0.75c0.14,0.45,0.28,0.98,0.37,1.13h-1.04
			c-0.07-0.12-0.18-0.44-0.31-0.93c-0.12-0.5-0.31-0.64-0.73-0.64h-0.31v1.58h-1.01V49.31z M51.42,51.03h0.4
			c0.51,0,0.81-0.23,0.81-0.58c0-0.37-0.28-0.55-0.75-0.56c-0.25,0-0.39,0.02-0.46,0.03V51.03z"/>
		<path d="M57.66,53.15c-0.19,0.08-0.61,0.18-1.16,0.18c-1.56,0-2.36-0.87-2.36-2.01c0-1.37,1.1-2.13,2.46-2.13
			c0.53,0,0.93,0.1,1.11,0.18l-0.21,0.72c-0.21-0.08-0.5-0.15-0.86-0.15c-0.81,0-1.44,0.43-1.44,1.33c0,0.8,0.54,1.31,1.45,1.31
			c0.31,0,0.65-0.06,0.85-0.13L57.66,53.15z"/>
		<path d="M62.98,53.15c-0.19,0.08-0.61,0.18-1.16,0.18c-1.56,0-2.36-0.87-2.36-2.01c0-1.37,1.1-2.13,2.46-2.13
			c0.53,0,0.93,0.1,1.11,0.18l-0.21,0.72c-0.21-0.08-0.5-0.15-0.86-0.15c-0.81,0-1.44,0.43-1.44,1.33c0,0.8,0.54,1.31,1.45,1.31
			c0.31,0,0.65-0.06,0.85-0.13L62.98,53.15z"/>
		<path d="M66.72,51.77c0,1.07-0.85,1.55-1.73,1.55c-0.96,0-1.69-0.56-1.69-1.5c0-0.94,0.7-1.54,1.75-1.54
			C66.05,50.29,66.72,50.9,66.72,51.77z M64.35,51.8c0,0.5,0.23,0.87,0.67,0.87c0.39,0,0.65-0.35,0.65-0.87
			c0-0.43-0.19-0.87-0.65-0.87C64.53,50.93,64.35,51.38,64.35,51.8z"/>
		<path d="M67.35,51.28c0-0.36-0.01-0.67-0.03-0.93h0.88l0.05,0.4h0.02c0.13-0.18,0.47-0.46,1.01-0.46c0.67,0,1.17,0.39,1.17,1.25
			v1.73h-1.02v-1.61c0-0.37-0.15-0.63-0.52-0.63c-0.28,0-0.45,0.17-0.51,0.34c-0.03,0.06-0.04,0.14-0.04,0.23v1.68h-1.02V51.28z"/>
		<path d="M71.26,52.47c0.19,0.1,0.57,0.22,0.88,0.22c0.31,0,0.43-0.1,0.43-0.24c0-0.15-0.1-0.22-0.48-0.33
			c-0.68-0.2-0.94-0.53-0.93-0.87c0-0.55,0.52-0.96,1.33-0.96c0.38,0,0.72,0.08,0.92,0.17l-0.18,0.62
			c-0.15-0.07-0.43-0.17-0.71-0.17c-0.25,0-0.39,0.09-0.39,0.24c0,0.14,0.13,0.21,0.53,0.33c0.62,0.19,0.88,0.47,0.89,0.9
			c0,0.54-0.48,0.95-1.42,0.95c-0.43,0-0.81-0.09-1.06-0.21L71.26,52.47z"/>
		<path d="M77.25,52.33c0,0.38,0.01,0.69,0.03,0.93h-0.88l-0.05-0.41h-0.02c-0.13,0.18-0.43,0.48-1.02,0.48
			c-0.66,0-1.15-0.37-1.15-1.27v-1.71h1.02v1.56c0,0.42,0.15,0.68,0.51,0.68c0.28,0,0.44-0.17,0.51-0.32
			c0.03-0.05,0.03-0.13,0.03-0.2v-1.73h1.02V52.33z"/>
		<path d="M78.06,49.04h1.02v4.22h-1.02V49.04z"/>
		<path d="M81.04,49.56v0.79h0.73v0.67h-0.73v1.05c0,0.35,0.09,0.51,0.4,0.51c0.14,0,0.2-0.01,0.3-0.02l0.01,0.68
			c-0.13,0.05-0.37,0.08-0.66,0.08c-0.33,0-0.6-0.11-0.76-0.26c-0.19-0.17-0.28-0.45-0.28-0.86v-1.19H79.6v-0.67h0.43V49.8
			L81.04,49.56z"/>
		<path d="M83.4,49.54c0,0.25-0.21,0.45-0.55,0.45c-0.32,0-0.53-0.2-0.53-0.45c-0.01-0.26,0.21-0.46,0.54-0.46
			S83.4,49.28,83.4,49.54z M82.35,53.26v-2.91h1.02v2.91H82.35z"/>
		<path d="M84.18,51.28c0-0.36-0.01-0.67-0.03-0.93h0.88l0.05,0.4h0.02c0.13-0.18,0.47-0.46,1.01-0.46c0.67,0,1.17,0.39,1.17,1.25
			v1.73h-1.02v-1.61c0-0.37-0.15-0.63-0.51-0.63c-0.28,0-0.45,0.17-0.52,0.34c-0.03,0.06-0.04,0.14-0.04,0.23v1.68h-1.02V51.28z"/>
		<path d="M91.2,52.84c0,0.56-0.13,1.02-0.5,1.31c-0.36,0.27-0.85,0.36-1.33,0.36c-0.43,0-0.88-0.08-1.18-0.23l0.2-0.68
			c0.21,0.11,0.57,0.22,0.95,0.22c0.48,0,0.85-0.23,0.85-0.77v-0.19h-0.01c-0.19,0.24-0.51,0.38-0.88,0.38
			c-0.81,0-1.38-0.58-1.38-1.42c0-0.93,0.68-1.53,1.48-1.53c0.45,0,0.73,0.17,0.9,0.41h0.01l0.03-0.35h0.88
			c-0.01,0.18-0.03,0.43-0.03,0.86V52.84z M90.18,51.54c0-0.06-0.01-0.12-0.02-0.17c-0.07-0.24-0.27-0.4-0.55-0.4
			c-0.37,0-0.67,0.3-0.67,0.83c0,0.43,0.24,0.77,0.67,0.77c0.26,0,0.47-0.15,0.54-0.37c0.03-0.06,0.03-0.16,0.03-0.24V51.54z"/>
		<path d="M97.16,53.08c-0.31,0.09-0.91,0.23-1.5,0.23c-0.82,0-1.42-0.18-1.83-0.54c-0.41-0.35-0.64-0.87-0.64-1.46
			c0.01-1.33,1.1-2.09,2.58-2.09c0.58,0,1.03,0.1,1.25,0.2l-0.21,0.73c-0.25-0.1-0.56-0.17-1.05-0.17c-0.85,0-1.49,0.43-1.49,1.3
			c0,0.83,0.58,1.31,1.42,1.31c0.23,0,0.42-0.02,0.5-0.06v-0.84h-0.7v-0.71h1.68V53.08z"/>
		<path d="M97.95,49.31c0.33-0.05,0.82-0.08,1.36-0.08c0.67,0,1.14,0.09,1.46,0.32c0.27,0.19,0.41,0.47,0.41,0.84
			c0,0.51-0.41,0.86-0.8,0.99v0.02c0.31,0.11,0.49,0.38,0.6,0.75c0.14,0.45,0.28,0.98,0.37,1.13h-1.04
			c-0.07-0.12-0.18-0.44-0.31-0.93c-0.12-0.5-0.31-0.64-0.73-0.64h-0.31v1.58h-1.01V49.31z M98.96,51.03h0.4
			c0.51,0,0.81-0.23,0.81-0.58c0-0.37-0.28-0.55-0.75-0.56c-0.25,0-0.39,0.02-0.46,0.03V51.03z"/>
		<path d="M106.02,51.22c0,1.31-0.9,2.11-2.21,2.11c-1.34,0-2.12-0.9-2.12-2.04c0-1.2,0.86-2.1,2.19-2.1
			C105.26,49.19,106.02,50.11,106.02,51.22z M102.76,51.27c0,0.79,0.41,1.34,1.1,1.34c0.69,0,1.08-0.58,1.08-1.36
			c0-0.72-0.39-1.34-1.09-1.34C103.16,49.91,102.76,50.49,102.76,51.27z"/>
		<path d="M107.7,49.25v2.31c0,0.69,0.29,1.04,0.82,1.04c0.54,0,0.83-0.33,0.83-1.04v-2.31h1.02v2.25c0,1.24-0.7,1.83-1.88,1.83
			c-1.14,0-1.81-0.56-1.81-1.84v-2.24H107.7z"/>
		<path d="M111.24,49.31c0.31-0.05,0.76-0.08,1.38-0.08c0.63,0,1.08,0.11,1.38,0.32c0.29,0.2,0.48,0.54,0.48,0.93
			c0,0.39-0.15,0.73-0.41,0.95c-0.35,0.29-0.86,0.42-1.47,0.42c-0.13,0-0.25-0.01-0.35-0.02v1.43h-1.01V49.31z M112.25,51.13
			c0.09,0.02,0.19,0.02,0.34,0.02c0.54,0,0.88-0.24,0.88-0.65c0-0.37-0.29-0.59-0.8-0.59c-0.21,0-0.35,0.02-0.42,0.04V51.13z"/>
		<path class="st32" d="M29.92,59.46c0.27,0.13,0.7,0.25,1.13,0.25c0.47,0,0.72-0.17,0.72-0.43c0-0.25-0.21-0.39-0.76-0.57
			c-0.75-0.23-1.24-0.6-1.24-1.18c0-0.68,0.64-1.21,1.71-1.21c0.51,0,0.88,0.1,1.15,0.2l-0.23,0.73c-0.18-0.08-0.5-0.19-0.94-0.19
			s-0.66,0.18-0.66,0.39c0,0.26,0.25,0.37,0.84,0.56c0.8,0.26,1.17,0.63,1.17,1.2c0,0.67-0.58,1.25-1.82,1.25
			c-0.51,0-1.02-0.13-1.28-0.25L29.92,59.46z M32.48,55.44l-0.82,0.73h-0.82l0.56-0.73H32.48z"/>
		<path class="st32" d="M33.5,56.44c0.33-0.05,0.82-0.08,1.36-0.08c0.67,0,1.14,0.09,1.46,0.32c0.27,0.19,0.41,0.47,0.41,0.84
			c0,0.51-0.41,0.86-0.8,0.99v0.02c0.31,0.11,0.49,0.38,0.6,0.75c0.14,0.45,0.28,0.98,0.37,1.13h-1.04
			c-0.07-0.12-0.18-0.44-0.31-0.93c-0.12-0.5-0.31-0.64-0.73-0.64h-0.31v1.58H33.5V56.44z M34.51,58.17h0.4
			c0.51,0,0.81-0.23,0.81-0.58c0-0.37-0.28-0.55-0.75-0.56c-0.25,0-0.39,0.02-0.46,0.03V58.17z"/>
		<path class="st32" d="M40.21,57.27h-1.69l-0.09,0.59c0.09-0.01,0.17-0.01,0.28-0.01c0.41,0,0.84,0.08,1.14,0.28
			c0.33,0.2,0.53,0.52,0.53,0.97c0,0.72-0.7,1.36-1.87,1.36c-0.53,0-0.97-0.11-1.21-0.22l0.18-0.68c0.19,0.08,0.59,0.19,0.98,0.19
			c0.42,0,0.87-0.18,0.87-0.59c0-0.4-0.36-0.64-1.22-0.64c-0.24,0-0.41,0.01-0.59,0.04l0.29-2.03h2.4V57.27z"/>
		<path d="M44.03,58.53v0.61h-1.75v-0.61H44.03z"/>
		<path d="M46.84,60.4l-1.44-4.01h1.12l0.55,1.7c0.15,0.48,0.29,0.93,0.4,1.43h0.02c0.11-0.48,0.25-0.96,0.41-1.42l0.57-1.71h1.08
			l-1.52,4.01H46.84z"/>
		<path d="M52.44,59.69c0,0.28,0.01,0.55,0.05,0.71h-0.92l-0.06-0.29h-0.02c-0.21,0.23-0.55,0.36-0.94,0.36
			c-0.66,0-1.06-0.43-1.06-0.89c0-0.76,0.76-1.12,1.92-1.11v-0.04c0-0.16-0.09-0.37-0.6-0.37c-0.33,0-0.69,0.1-0.9,0.22l-0.19-0.58
			c0.23-0.11,0.68-0.26,1.27-0.26c1.09,0,1.44,0.57,1.44,1.26V59.69z M51.45,59.02c-0.54-0.01-0.95,0.11-0.95,0.46
			c0,0.23,0.17,0.35,0.4,0.35c0.25,0,0.46-0.15,0.53-0.33c0.01-0.05,0.02-0.1,0.02-0.16V59.02z"/>
		<path d="M53.24,56.17h1.02v4.22h-1.02V56.17z"/>
		<path d="M55.86,59.23c0.03,0.37,0.45,0.55,0.92,0.55c0.35,0,0.63-0.04,0.9-0.12l0.13,0.61c-0.33,0.12-0.74,0.18-1.18,0.18
			c-1.11,0-1.75-0.58-1.75-1.49c0-0.74,0.52-1.55,1.65-1.55c1.06,0,1.46,0.73,1.46,1.45c0,0.15-0.02,0.29-0.03,0.36H55.86z
			 M57.06,58.61c0-0.22-0.11-0.59-0.57-0.59c-0.43,0-0.6,0.35-0.63,0.59H57.06z"/>
		<path d="M61.84,58.91c0,1.07-0.85,1.55-1.73,1.55c-0.96,0-1.69-0.56-1.69-1.5c0-0.94,0.7-1.54,1.75-1.54
			C61.17,57.42,61.84,58.04,61.84,58.91z M59.47,58.94c0,0.5,0.23,0.87,0.67,0.87c0.39,0,0.65-0.35,0.65-0.87
			c0-0.43-0.19-0.87-0.65-0.87C59.65,58.07,59.47,58.51,59.47,58.94z"/>
		<path d="M64.9,59.37l-0.32,1.03h-1.06l1.38-4.01h1.34l1.4,4.01h-1.1l-0.35-1.03H64.9z M66.04,58.69l-0.28-0.85
			c-0.08-0.24-0.16-0.54-0.23-0.77h-0.01c-0.07,0.24-0.13,0.54-0.21,0.77l-0.27,0.85H66.04z"/>
		<path d="M71.19,59.46c0,0.38,0.01,0.69,0.03,0.93h-0.88l-0.05-0.41h-0.02c-0.13,0.18-0.43,0.48-1.02,0.48
			c-0.66,0-1.15-0.37-1.15-1.27v-1.71h1.02v1.56c0,0.42,0.15,0.68,0.51,0.68c0.28,0,0.44-0.17,0.51-0.32
			c0.03-0.05,0.03-0.13,0.03-0.2v-1.73h1.02V59.46z"/>
		<path d="M73.13,56.7v0.79h0.73v0.67h-0.73v1.05c0,0.35,0.09,0.51,0.4,0.51c0.14,0,0.2-0.01,0.3-0.02l0.01,0.68
			c-0.13,0.05-0.37,0.08-0.66,0.08c-0.33,0-0.6-0.11-0.76-0.26c-0.19-0.17-0.28-0.45-0.28-0.86v-1.19H71.7v-0.67h0.43v-0.55
			L73.13,56.7z"/>
		<path d="M77.65,58.91c0,1.07-0.85,1.55-1.73,1.55c-0.96,0-1.69-0.56-1.69-1.5c0-0.94,0.7-1.54,1.75-1.54
			C76.98,57.42,77.65,58.04,77.65,58.91z M75.28,58.94c0,0.5,0.23,0.87,0.67,0.87c0.39,0,0.65-0.35,0.65-0.87
			c0-0.43-0.19-0.87-0.65-0.87C75.46,58.07,75.28,58.51,75.28,58.94z"/>
		<path d="M78.27,59.61c0.19,0.1,0.57,0.22,0.88,0.22c0.31,0,0.43-0.1,0.43-0.24c0-0.15-0.1-0.22-0.48-0.33
			c-0.68-0.2-0.94-0.53-0.93-0.87c0-0.55,0.52-0.96,1.33-0.96c0.38,0,0.72,0.08,0.92,0.17l-0.18,0.62
			c-0.15-0.07-0.43-0.17-0.71-0.17c-0.25,0-0.39,0.09-0.39,0.24c0,0.14,0.13,0.21,0.53,0.33c0.62,0.19,0.88,0.47,0.89,0.9
			c0,0.54-0.48,0.95-1.42,0.95c-0.43,0-0.81-0.09-1.06-0.21L78.27,59.61z"/>
		<path d="M81.94,57.49l0.49,1.43c0.05,0.17,0.12,0.39,0.16,0.54h0.02c0.05-0.16,0.1-0.37,0.15-0.54l0.4-1.43h1.09l-0.76,1.92
			c-0.47,1.15-0.78,1.62-1.15,1.91c-0.36,0.27-0.73,0.37-0.98,0.4l-0.21-0.77c0.13-0.02,0.29-0.07,0.44-0.16
			c0.15-0.07,0.32-0.21,0.42-0.36c0.03-0.04,0.05-0.09,0.05-0.13c0-0.03-0.01-0.08-0.05-0.15l-1.2-2.66H81.94z"/>
		<path d="M84.56,59.61c0.19,0.1,0.57,0.22,0.88,0.22c0.31,0,0.43-0.1,0.43-0.24c0-0.15-0.1-0.22-0.48-0.33
			c-0.68-0.2-0.94-0.53-0.93-0.87c0-0.55,0.52-0.96,1.33-0.96c0.38,0,0.72,0.08,0.92,0.17l-0.18,0.62
			c-0.15-0.07-0.43-0.17-0.71-0.17c-0.25,0-0.39,0.09-0.39,0.24c0,0.14,0.13,0.21,0.53,0.33c0.62,0.19,0.88,0.47,0.89,0.9
			c0,0.54-0.48,0.95-1.42,0.95c-0.43,0-0.81-0.09-1.06-0.21L84.56,59.61z"/>
		<path d="M88.6,56.7v0.79h0.73v0.67H88.6v1.05c0,0.35,0.09,0.51,0.4,0.51c0.14,0,0.2-0.01,0.3-0.02l0.01,0.68
			c-0.13,0.05-0.37,0.08-0.66,0.08c-0.33,0-0.6-0.11-0.76-0.26c-0.19-0.17-0.28-0.45-0.28-0.86v-1.19h-0.43v-0.67h0.43v-0.55
			L88.6,56.7z"/>
		<path d="M90.67,59.23c0.03,0.37,0.45,0.55,0.92,0.55c0.35,0,0.63-0.04,0.9-0.12l0.13,0.61c-0.33,0.12-0.74,0.18-1.18,0.18
			c-1.11,0-1.75-0.58-1.75-1.49c0-0.74,0.52-1.55,1.65-1.55c1.06,0,1.46,0.73,1.46,1.45c0,0.15-0.02,0.29-0.03,0.36H90.67z
			 M91.87,58.61c0-0.22-0.11-0.59-0.57-0.59c-0.43,0-0.6,0.35-0.63,0.59H91.87z"/>
		<path d="M93.42,58.42c0-0.36-0.01-0.67-0.03-0.93h0.86l0.05,0.39h0.02c0.14-0.18,0.43-0.46,0.99-0.46c0.42,0,0.76,0.19,0.9,0.49
			h0.01c0.12-0.15,0.27-0.27,0.42-0.35c0.18-0.1,0.38-0.14,0.62-0.14c0.63,0,1.1,0.39,1.1,1.26v1.71h-0.99v-1.58
			c0-0.42-0.15-0.67-0.48-0.67c-0.23,0-0.4,0.14-0.47,0.32c-0.03,0.07-0.04,0.16-0.04,0.23v1.7h-0.99v-1.63
			c0-0.37-0.15-0.62-0.47-0.62c-0.26,0-0.41,0.18-0.48,0.33c-0.03,0.07-0.04,0.16-0.04,0.23v1.7h-0.99V58.42z"/>
		<path d="M99.8,57.49l0.49,1.43c0.05,0.17,0.12,0.39,0.16,0.54h0.02c0.05-0.16,0.1-0.37,0.15-0.54l0.4-1.43h1.09l-0.76,1.92
			c-0.47,1.15-0.78,1.62-1.15,1.91c-0.36,0.27-0.73,0.37-0.98,0.4L99,60.95c0.13-0.02,0.29-0.07,0.44-0.16
			c0.15-0.07,0.32-0.21,0.42-0.36c0.03-0.04,0.05-0.09,0.05-0.13c0-0.03-0.01-0.08-0.05-0.15l-1.2-2.66H99.8z"/>
		<path class="st32" d="M29.92,66.6c0.27,0.13,0.7,0.25,1.13,0.25c0.47,0,0.72-0.17,0.72-0.43c0-0.25-0.21-0.39-0.76-0.57
			c-0.75-0.23-1.24-0.6-1.24-1.18c0-0.68,0.64-1.21,1.71-1.21c0.51,0,0.88,0.1,1.15,0.2l-0.23,0.73c-0.18-0.08-0.5-0.19-0.94-0.19
			s-0.66,0.18-0.66,0.39c0,0.26,0.25,0.37,0.84,0.56c0.8,0.26,1.17,0.63,1.17,1.2c0,0.67-0.58,1.25-1.82,1.25
			c-0.51,0-1.02-0.13-1.28-0.25L29.92,66.6z M32.48,62.57l-0.82,0.73h-0.82l0.56-0.73H32.48z"/>
		<path class="st32" d="M33.5,63.58c0.33-0.05,0.82-0.08,1.36-0.08c0.67,0,1.14,0.09,1.46,0.32c0.27,0.19,0.41,0.47,0.41,0.84
			c0,0.51-0.41,0.86-0.8,0.99v0.02c0.31,0.11,0.49,0.38,0.6,0.75c0.14,0.45,0.28,0.98,0.37,1.13h-1.04
			c-0.07-0.12-0.18-0.44-0.31-0.93c-0.12-0.5-0.31-0.64-0.73-0.64h-0.31v1.58H33.5V63.58z M34.51,65.3h0.4
			c0.51,0,0.81-0.23,0.81-0.58c0-0.37-0.28-0.55-0.75-0.56c-0.25,0-0.39,0.02-0.46,0.03V65.3z"/>
		<path class="st32" d="M40.08,64.31c-0.11,0-0.23,0-0.39,0.01c-0.9,0.07-1.3,0.48-1.42,0.93h0.02c0.21-0.2,0.52-0.31,0.92-0.31
			c0.73,0,1.34,0.46,1.34,1.26c0,0.77-0.66,1.4-1.61,1.4c-1.16,0-1.73-0.77-1.73-1.69c0-0.73,0.3-1.33,0.77-1.72
			c0.43-0.35,1-0.54,1.68-0.57c0.19-0.01,0.31-0.01,0.41-0.01V64.31z M38.94,66.93c0.35,0,0.58-0.29,0.58-0.68
			c0-0.36-0.21-0.67-0.65-0.67c-0.27,0-0.5,0.15-0.6,0.35c-0.03,0.05-0.04,0.12-0.04,0.23C38.25,66.56,38.47,66.93,38.94,66.93
			L38.94,66.93z"/>
		<path d="M44.03,65.67v0.61h-1.75v-0.61H44.03z"/>
		<path d="M47.37,63.52h1.01v1.77h0.02c0.1-0.15,0.21-0.3,0.31-0.44l1.02-1.33h1.25l-1.49,1.71l1.57,2.3h-1.19l-1.1-1.73l-0.39,0.42
			v1.31h-1.01V63.52z"/>
		<path d="M52.5,63.52v4.01h-1.02v-4.01H52.5z"/>
		<path d="M57.51,65.49c0,1.31-0.9,2.11-2.21,2.11c-1.34,0-2.12-0.9-2.12-2.04c0-1.2,0.86-2.1,2.19-2.1
			C56.75,63.46,57.51,64.38,57.51,65.49z M54.25,65.54c0,0.79,0.41,1.34,1.1,1.34c0.69,0,1.08-0.58,1.08-1.36
			c0-0.72-0.39-1.34-1.09-1.34C54.65,64.18,54.25,64.76,54.25,65.54z"/>
		<path d="M58.18,67.53v-4.01h1.19l0.94,1.47c0.27,0.42,0.54,0.92,0.74,1.37h0.02c-0.07-0.53-0.09-1.07-0.09-1.68v-1.17h0.94v4.01
			h-1.07l-0.96-1.55c-0.27-0.43-0.56-0.95-0.78-1.42l-0.02,0.01c0.03,0.53,0.04,1.09,0.04,1.75v1.21H58.18z"/>
		<path d="M64.14,63.58c0.27-0.05,0.81-0.08,1.32-0.08c0.62,0,1,0.05,1.33,0.23c0.31,0.15,0.54,0.42,0.54,0.79
			c0,0.36-0.23,0.69-0.74,0.86v0.01c0.52,0.12,0.9,0.47,0.9,0.99c0,0.36-0.19,0.65-0.47,0.85c-0.33,0.23-0.88,0.36-1.77,0.36
			c-0.5,0-0.88-0.03-1.1-0.06V63.58z M65.15,65.11h0.33c0.54,0,0.82-0.2,0.82-0.49c0-0.3-0.26-0.46-0.72-0.46
			c-0.22,0-0.35,0.01-0.43,0.02V65.11z M65.15,66.89c0.1,0.01,0.22,0.01,0.39,0.01c0.46,0,0.87-0.16,0.87-0.58
			c0-0.4-0.41-0.56-0.92-0.56h-0.35V66.89z"/>
		<path d="M71.22,66.6c0,0.38,0.01,0.69,0.03,0.93h-0.88l-0.05-0.41H70.3c-0.13,0.18-0.43,0.48-1.02,0.48
			c-0.66,0-1.15-0.37-1.15-1.27v-1.71h1.02v1.56c0,0.42,0.15,0.68,0.51,0.68c0.28,0,0.44-0.17,0.51-0.32
			c0.03-0.05,0.03-0.13,0.03-0.2v-1.73h1.02V66.6z"/>
		<path d="M72.03,66.74c0.19,0.1,0.57,0.22,0.88,0.22c0.31,0,0.43-0.09,0.43-0.24c0-0.15-0.1-0.22-0.48-0.33
			c-0.68-0.2-0.94-0.53-0.93-0.87c0-0.55,0.52-0.96,1.33-0.96c0.38,0,0.72,0.08,0.92,0.17L74,65.35c-0.15-0.07-0.43-0.17-0.71-0.17
			c-0.25,0-0.39,0.09-0.39,0.24c0,0.14,0.13,0.21,0.53,0.33c0.62,0.19,0.88,0.47,0.89,0.9c0,0.54-0.48,0.95-1.42,0.95
			c-0.43,0-0.81-0.09-1.06-0.21L72.03,66.74z"/>
		<path d="M75.99,63.82c0,0.25-0.21,0.45-0.55,0.45c-0.32,0-0.54-0.2-0.53-0.45c-0.01-0.26,0.21-0.46,0.54-0.46
			C75.77,63.36,75.98,63.55,75.99,63.82z M74.94,67.53v-2.91h1.02v2.91H74.94z"/>
		<path d="M76.77,65.55c0-0.36-0.01-0.67-0.03-0.93h0.88l0.05,0.4h0.02c0.13-0.18,0.47-0.46,1.01-0.46c0.67,0,1.17,0.39,1.17,1.25
			v1.73h-1.02v-1.61c0-0.37-0.15-0.63-0.52-0.63c-0.28,0-0.45,0.17-0.51,0.34c-0.03,0.06-0.04,0.14-0.04,0.23v1.68h-1.02V65.55z"/>
		<path d="M81.47,66.37c0.03,0.37,0.45,0.55,0.92,0.55c0.35,0,0.63-0.04,0.9-0.12l0.13,0.61c-0.33,0.12-0.74,0.18-1.18,0.18
			c-1.11,0-1.75-0.58-1.75-1.49c0-0.74,0.52-1.55,1.65-1.55c1.06,0,1.46,0.73,1.46,1.45c0,0.15-0.02,0.29-0.03,0.36H81.47z
			 M82.67,65.75c0-0.22-0.11-0.59-0.57-0.59c-0.43,0-0.6,0.35-0.63,0.59H82.67z"/>
		<path d="M84.21,66.74c0.19,0.1,0.57,0.22,0.88,0.22c0.31,0,0.43-0.09,0.43-0.24c0-0.15-0.1-0.22-0.48-0.33
			c-0.68-0.2-0.94-0.53-0.93-0.87c0-0.55,0.52-0.96,1.33-0.96c0.38,0,0.72,0.08,0.92,0.17l-0.18,0.62
			c-0.15-0.07-0.43-0.17-0.71-0.17c-0.25,0-0.39,0.09-0.39,0.24c0,0.14,0.13,0.21,0.53,0.33c0.62,0.19,0.88,0.47,0.89,0.9
			c0,0.54-0.48,0.95-1.42,0.95c-0.43,0-0.81-0.09-1.06-0.21L84.21,66.74z"/>
		<path d="M87.11,66.74c0.19,0.1,0.57,0.22,0.88,0.22c0.31,0,0.43-0.09,0.43-0.24c0-0.15-0.1-0.22-0.48-0.33
			c-0.68-0.2-0.94-0.53-0.93-0.87c0-0.55,0.52-0.96,1.33-0.96c0.38,0,0.72,0.08,0.92,0.17l-0.18,0.62
			c-0.15-0.07-0.43-0.17-0.71-0.17c-0.25,0-0.39,0.09-0.39,0.24c0,0.14,0.13,0.21,0.53,0.33c0.62,0.19,0.88,0.47,0.89,0.9
			c0,0.54-0.48,0.95-1.42,0.95c-0.43,0-0.81-0.09-1.06-0.21L87.11,66.74z"/>
		<path d="M91.43,66.6c0.27,0.13,0.7,0.25,1.13,0.25c0.47,0,0.72-0.17,0.72-0.43c0-0.25-0.21-0.39-0.76-0.57
			c-0.75-0.23-1.24-0.6-1.24-1.18c0-0.68,0.64-1.21,1.71-1.21c0.51,0,0.88,0.1,1.15,0.2l-0.23,0.73c-0.18-0.08-0.5-0.19-0.94-0.19
			c-0.44,0-0.66,0.18-0.66,0.39c0,0.26,0.25,0.37,0.84,0.56c0.8,0.26,1.17,0.63,1.17,1.2c0,0.67-0.58,1.25-1.82,1.25
			c-0.51,0-1.02-0.13-1.28-0.25L91.43,66.6z"/>
		<path d="M95.81,66.37c0.03,0.37,0.45,0.55,0.92,0.55c0.35,0,0.63-0.04,0.9-0.12l0.13,0.61c-0.33,0.12-0.74,0.18-1.18,0.18
			c-1.11,0-1.75-0.58-1.75-1.49c0-0.74,0.52-1.55,1.65-1.55c1.06,0,1.46,0.73,1.46,1.45c0,0.15-0.02,0.29-0.03,0.36H95.81z
			 M97,65.75c0-0.22-0.11-0.59-0.57-0.59c-0.43,0-0.6,0.35-0.63,0.59H97z"/>
		<path d="M98.55,65.58c0-0.43-0.01-0.71-0.03-0.96h0.88l0.03,0.54h0.03c0.17-0.42,0.57-0.6,0.88-0.6c0.09,0,0.14,0,0.21,0.01v0.86
			c-0.07-0.02-0.16-0.03-0.27-0.03c-0.37,0-0.63,0.18-0.7,0.46c-0.01,0.06-0.02,0.13-0.02,0.2v1.48h-1.02V65.58z"/>
		<path d="M101.97,64.62l0.44,1.35c0.08,0.24,0.14,0.48,0.19,0.71h0.02c0.05-0.24,0.11-0.46,0.18-0.71l0.42-1.35h1.07l-1.22,2.91
			h-1.02l-1.19-2.91H101.97z"/>
		<path d="M105.8,63.82c0,0.25-0.21,0.45-0.55,0.45c-0.32,0-0.54-0.2-0.53-0.45c-0.01-0.26,0.21-0.46,0.54-0.46
			C105.59,63.36,105.8,63.55,105.8,63.82z M104.75,67.53v-2.91h1.02v2.91H104.75z"/>
		<path d="M109.04,67.46c-0.18,0.07-0.52,0.14-0.91,0.14c-1.06,0-1.73-0.58-1.73-1.49c0-0.85,0.66-1.55,1.87-1.55
			c0.27,0,0.56,0.04,0.78,0.11l-0.16,0.67c-0.12-0.05-0.3-0.09-0.57-0.09c-0.54,0-0.88,0.34-0.88,0.82c0,0.54,0.4,0.81,0.9,0.81
			c0.24,0,0.43-0.04,0.58-0.09L109.04,67.46z"/>
		<path d="M110.31,66.37c0.03,0.37,0.45,0.55,0.92,0.55c0.35,0,0.63-0.04,0.9-0.12l0.13,0.61c-0.33,0.12-0.74,0.18-1.18,0.18
			c-1.11,0-1.75-0.58-1.75-1.49c0-0.74,0.52-1.55,1.65-1.55c1.06,0,1.46,0.73,1.46,1.45c0,0.15-0.02,0.29-0.03,0.36H110.31z
			 M111.51,65.75c0-0.22-0.11-0.59-0.57-0.59c-0.43,0-0.6,0.35-0.63,0.59H111.51z"/>
		<path d="M113.05,66.74c0.19,0.1,0.57,0.22,0.88,0.22c0.31,0,0.43-0.09,0.43-0.24c0-0.15-0.1-0.22-0.48-0.33
			c-0.68-0.2-0.94-0.53-0.93-0.87c0-0.55,0.52-0.96,1.33-0.96c0.38,0,0.72,0.08,0.92,0.17l-0.18,0.62
			c-0.15-0.07-0.43-0.17-0.71-0.17c-0.25,0-0.39,0.09-0.39,0.24c0,0.14,0.13,0.21,0.53,0.33c0.62,0.19,0.88,0.47,0.89,0.9
			c0,0.54-0.48,0.95-1.42,0.95c-0.43,0-0.81-0.09-1.06-0.21L113.05,66.74z"/>
		<path class="st33" d="M29.92,73.74c0.27,0.13,0.7,0.25,1.13,0.25c0.47,0,0.72-0.17,0.72-0.43c0-0.25-0.21-0.39-0.76-0.57
			c-0.75-0.23-1.24-0.6-1.24-1.18c0-0.68,0.64-1.21,1.71-1.21c0.51,0,0.88,0.1,1.15,0.2l-0.23,0.73c-0.18-0.08-0.5-0.19-0.94-0.19
			s-0.66,0.18-0.66,0.39c0,0.26,0.25,0.37,0.84,0.56c0.8,0.26,1.17,0.63,1.17,1.2c0,0.67-0.58,1.25-1.82,1.25
			c-0.51,0-1.02-0.13-1.28-0.25L29.92,73.74z M32.48,69.71l-0.82,0.73h-0.82l0.56-0.73H32.48z"/>
		<path class="st33" d="M33.5,70.71c0.33-0.05,0.82-0.08,1.36-0.08c0.67,0,1.14,0.09,1.46,0.32c0.27,0.19,0.41,0.47,0.41,0.84
			c0,0.51-0.41,0.86-0.8,0.99v0.02c0.31,0.11,0.49,0.38,0.6,0.75c0.14,0.45,0.28,0.98,0.37,1.13h-1.04
			c-0.07-0.12-0.18-0.44-0.31-0.93c-0.12-0.5-0.31-0.64-0.73-0.64h-0.31v1.58H33.5V70.71z M34.51,72.44h0.4
			c0.51,0,0.81-0.23,0.81-0.58c0-0.37-0.28-0.55-0.75-0.56c-0.25,0-0.39,0.02-0.46,0.03V72.44z"/>
		<path class="st33" d="M40.42,70.8v0.57l-1.79,3.3h-1.08l1.79-3.11v-0.01h-1.99V70.8H40.42z"/>
		<path d="M44.03,72.8v0.61h-1.75V72.8H44.03z"/>
		<path d="M46.02,70.71c0.31-0.05,0.76-0.08,1.38-0.08c0.63,0,1.08,0.11,1.38,0.32c0.29,0.2,0.48,0.54,0.48,0.93
			c0,0.39-0.15,0.73-0.41,0.95c-0.35,0.29-0.86,0.42-1.46,0.42c-0.13,0-0.25-0.01-0.35-0.02v1.43h-1.01V70.71z M47.03,72.53
			c0.09,0.02,0.19,0.02,0.34,0.02c0.54,0,0.88-0.24,0.88-0.65c0-0.37-0.29-0.59-0.8-0.59c-0.21,0-0.35,0.02-0.42,0.04V72.53z"/>
		<path d="M52.78,74.67c-0.09-0.09-0.19-0.18-0.29-0.29c-0.29,0.2-0.7,0.35-1.24,0.35c-1.09,0-1.57-0.58-1.57-1.14
			c0-0.53,0.34-0.91,0.86-1.15v-0.02c-0.19-0.19-0.34-0.49-0.34-0.77c0-0.51,0.45-1.06,1.35-1.06c0.7,0,1.22,0.36,1.22,0.94
			c0,0.4-0.27,0.75-0.89,1.03l-0.01,0.02c0.26,0.26,0.54,0.55,0.76,0.75c0.18-0.25,0.32-0.62,0.38-0.98h0.91
			c-0.12,0.61-0.35,1.12-0.75,1.52c0.25,0.26,0.51,0.52,0.8,0.79H52.78z M51.39,74.08c0.26,0,0.48-0.09,0.62-0.2
			c-0.28-0.25-0.65-0.61-1.02-0.98c-0.19,0.12-0.35,0.29-0.35,0.55C50.64,73.79,50.92,74.08,51.39,74.08L51.39,74.08z M51.5,71.16
			c-0.25,0-0.4,0.2-0.4,0.41c0,0.2,0.11,0.38,0.31,0.58c0.33-0.2,0.5-0.36,0.5-0.59C51.9,71.37,51.77,71.16,51.5,71.16L51.5,71.16z"
			/>
		<path d="M58.2,74.49c-0.31,0.09-0.91,0.23-1.5,0.23c-0.82,0-1.42-0.18-1.83-0.54c-0.41-0.35-0.64-0.87-0.64-1.46
			c0.01-1.33,1.1-2.09,2.58-2.09c0.58,0,1.03,0.1,1.25,0.2l-0.21,0.73c-0.25-0.1-0.56-0.17-1.05-0.17c-0.85,0-1.49,0.43-1.49,1.3
			c0,0.83,0.58,1.31,1.42,1.31c0.23,0,0.42-0.02,0.5-0.06v-0.84h-0.7v-0.71h1.68V74.49z"/>
		<path class="st33" d="M29.92,80.87c0.27,0.13,0.7,0.25,1.13,0.25c0.47,0,0.72-0.17,0.72-0.43c0-0.25-0.21-0.39-0.76-0.57
			c-0.75-0.23-1.24-0.6-1.24-1.18c0-0.68,0.64-1.21,1.71-1.21c0.51,0,0.88,0.1,1.15,0.2l-0.23,0.73c-0.18-0.08-0.5-0.19-0.94-0.19
			s-0.66,0.18-0.66,0.39c0,0.26,0.25,0.37,0.84,0.56c0.8,0.26,1.17,0.63,1.17,1.2c0,0.67-0.58,1.25-1.82,1.25
			c-0.51,0-1.02-0.13-1.28-0.25L29.92,80.87z M32.48,76.84l-0.82,0.73h-0.82l0.56-0.73H32.48z"/>
		<path class="st33" d="M33.5,77.85c0.33-0.05,0.82-0.08,1.36-0.08c0.67,0,1.14,0.09,1.46,0.32c0.27,0.19,0.41,0.47,0.41,0.84
			c0,0.51-0.41,0.86-0.8,0.99v0.02c0.31,0.11,0.49,0.38,0.6,0.75c0.14,0.45,0.28,0.98,0.37,1.13h-1.04
			c-0.07-0.12-0.18-0.44-0.31-0.93c-0.12-0.5-0.31-0.64-0.73-0.64h-0.31v1.58H33.5V77.85z M34.51,79.57h0.4
			c0.51,0,0.81-0.23,0.81-0.58c0-0.37-0.28-0.55-0.75-0.56c-0.25,0-0.39,0.02-0.46,0.03V79.57z"/>
		<path class="st33" d="M38.01,79.81c-0.42-0.19-0.63-0.51-0.63-0.84c0-0.65,0.66-1.09,1.53-1.09c1.02,0,1.44,0.52,1.44,0.99
			c0,0.33-0.2,0.66-0.63,0.85v0.02c0.42,0.14,0.8,0.46,0.8,0.96c0,0.7-0.66,1.17-1.67,1.17c-1.1,0-1.61-0.55-1.61-1.08
			c0-0.46,0.3-0.79,0.78-0.97V79.81z M39.48,80.76c0-0.34-0.28-0.54-0.68-0.64c-0.34,0.08-0.53,0.3-0.53,0.58
			c-0.01,0.28,0.23,0.54,0.61,0.54C39.25,81.25,39.48,81.04,39.48,80.76z M38.34,78.93c0,0.26,0.27,0.43,0.62,0.52
			c0.23-0.06,0.44-0.25,0.44-0.49c0-0.24-0.15-0.48-0.53-0.48C38.52,78.49,38.34,78.69,38.34,78.93z"/>
		<path d="M44.03,79.94v0.61h-1.75v-0.61H44.03z"/>
		<path d="M49.84,80.27c-0.02-0.48-0.04-1.07-0.04-1.65h-0.02c-0.14,0.51-0.33,1.08-0.5,1.55l-0.55,1.56h-0.8l-0.48-1.55
			c-0.15-0.48-0.3-1.05-0.41-1.57h-0.01c-0.03,0.54-0.05,1.16-0.08,1.66l-0.08,1.52h-0.94l0.29-4.01h1.36l0.44,1.34
			c0.14,0.46,0.28,0.96,0.38,1.43h0.02c0.13-0.46,0.28-0.99,0.43-1.44l0.48-1.33h1.33l0.25,4.01h-1L49.84,80.27z"/>
		<path d="M54.9,80.32c0,1.07-0.85,1.55-1.73,1.55c-0.96,0-1.69-0.56-1.69-1.5c0-0.94,0.7-1.54,1.75-1.54
			C54.23,78.83,54.9,79.44,54.9,80.32z M52.53,80.35c0,0.5,0.23,0.87,0.67,0.87c0.39,0,0.65-0.35,0.65-0.87
			c0-0.43-0.19-0.87-0.65-0.87C52.71,79.47,52.53,79.92,52.53,80.35z"/>
		<path d="M56.66,78.1v0.79h0.73v0.67h-0.73v1.05c0,0.35,0.09,0.51,0.4,0.51c0.14,0,0.2-0.01,0.3-0.02l0.01,0.68
			c-0.13,0.05-0.37,0.08-0.66,0.08c-0.33,0-0.6-0.11-0.76-0.26c-0.19-0.17-0.28-0.45-0.28-0.86v-1.19h-0.43V78.9h0.43v-0.55
			L56.66,78.1z"/>
		<path d="M60.7,81.1c0,0.28,0.01,0.55,0.05,0.71h-0.92l-0.06-0.29h-0.02c-0.21,0.23-0.55,0.36-0.94,0.36
			c-0.66,0-1.06-0.43-1.06-0.89c0-0.76,0.76-1.12,1.92-1.11v-0.04c0-0.16-0.09-0.37-0.6-0.37c-0.33,0-0.69,0.1-0.9,0.22L58,79.09
			c0.23-0.11,0.68-0.26,1.27-0.26c1.09,0,1.44,0.57,1.44,1.26V81.1z M59.71,80.43c-0.54-0.01-0.95,0.11-0.95,0.46
			c0,0.23,0.17,0.35,0.4,0.35c0.25,0,0.46-0.15,0.53-0.33c0.01-0.05,0.02-0.1,0.02-0.16V80.43z"/>
		<path d="M63.05,79.94v0.61H61.3v-0.61H63.05z"/>
		<path d="M66.37,80.11h-1.66v0.95h1.85v0.74h-2.88V77.8h2.78v0.74h-1.76v0.83h1.66V80.11z"/>
		<path d="M67.23,79.82c0-0.36-0.01-0.67-0.03-0.93h0.88l0.05,0.4h0.02c0.13-0.18,0.47-0.46,1.01-0.46c0.67,0,1.17,0.39,1.17,1.25
			v1.73h-1.02v-1.61c0-0.37-0.15-0.63-0.52-0.63c-0.28,0-0.45,0.17-0.51,0.34c-0.03,0.06-0.04,0.14-0.04,0.23v1.68h-1.02V79.82z"/>
		<path d="M74.24,81.38c0,0.56-0.13,1.02-0.5,1.31c-0.36,0.27-0.85,0.36-1.33,0.36c-0.43,0-0.88-0.08-1.18-0.23l0.2-0.68
			c0.21,0.11,0.57,0.22,0.95,0.22c0.48,0,0.85-0.23,0.85-0.77V81.4h-0.01c-0.19,0.24-0.51,0.38-0.88,0.38
			c-0.81,0-1.38-0.58-1.38-1.42c0-0.93,0.68-1.53,1.48-1.53c0.45,0,0.73,0.17,0.9,0.41h0.01l0.03-0.35h0.88
			c-0.01,0.18-0.03,0.43-0.03,0.86V81.38z M73.22,80.08c0-0.06-0.01-0.12-0.02-0.17c-0.07-0.24-0.27-0.4-0.55-0.4
			c-0.37,0-0.67,0.3-0.67,0.83c0,0.43,0.24,0.77,0.67,0.77c0.26,0,0.47-0.15,0.54-0.37c0.03-0.06,0.03-0.16,0.03-0.24V80.08z"/>
		<path d="M76.1,78.09c0,0.25-0.21,0.45-0.55,0.45c-0.32,0-0.53-0.2-0.53-0.45c-0.01-0.26,0.21-0.46,0.54-0.46
			C75.89,77.63,76.1,77.82,76.1,78.09z M75.05,81.81V78.9h1.02v2.91H75.05z"/>
		<path d="M76.88,77.58h1.02v4.22h-1.02V77.58z"/>
		<path d="M83.42,81.69c-0.19,0.08-0.61,0.18-1.16,0.18c-1.56,0-2.36-0.87-2.36-2.01c0-1.37,1.1-2.13,2.46-2.13
			c0.53,0,0.93,0.1,1.11,0.18l-0.21,0.72c-0.21-0.08-0.5-0.15-0.86-0.15c-0.81,0-1.44,0.43-1.44,1.33c0,0.8,0.54,1.31,1.45,1.31
			c0.31,0,0.65-0.06,0.85-0.13L83.42,81.69z"/>
		<path d="M84.7,80.64c0.03,0.37,0.45,0.55,0.92,0.55c0.35,0,0.63-0.04,0.9-0.12l0.13,0.61c-0.33,0.12-0.74,0.18-1.18,0.18
			c-1.11,0-1.75-0.58-1.75-1.49c0-0.74,0.52-1.55,1.65-1.55c1.06,0,1.46,0.73,1.46,1.45c0,0.15-0.02,0.29-0.03,0.36H84.7z
			 M85.9,80.02c0-0.22-0.11-0.59-0.57-0.59c-0.43,0-0.6,0.35-0.63,0.59H85.9z"/>
		<path d="M87.45,79.82c0-0.36-0.01-0.67-0.03-0.93h0.88l0.05,0.4h0.02c0.13-0.18,0.47-0.46,1.01-0.46c0.67,0,1.17,0.39,1.17,1.25
			v1.73h-1.02v-1.61c0-0.37-0.15-0.63-0.51-0.63c-0.28,0-0.45,0.17-0.52,0.34c-0.03,0.06-0.04,0.14-0.04,0.23v1.68h-1.02V79.82z"/>
		<path d="M92.46,78.1v0.79h0.73v0.67h-0.73v1.05c0,0.35,0.09,0.51,0.4,0.51c0.14,0,0.2-0.01,0.3-0.02l0.01,0.68
			c-0.13,0.05-0.37,0.08-0.66,0.08c-0.33,0-0.6-0.11-0.76-0.26c-0.19-0.17-0.28-0.45-0.28-0.86v-1.19h-0.43V78.9h0.43v-0.55
			L92.46,78.1z"/>
		<path d="M93.78,79.85c0-0.43-0.01-0.71-0.03-0.96h0.88l0.03,0.54h0.03c0.17-0.42,0.57-0.6,0.88-0.6c0.09,0,0.14,0,0.21,0.01v0.86
			c-0.07-0.02-0.16-0.03-0.27-0.03c-0.37,0-0.63,0.18-0.7,0.46c-0.01,0.06-0.02,0.13-0.02,0.2v1.48h-1.02V79.85z"/>
		<path d="M98.97,81.1c0,0.28,0.01,0.55,0.05,0.71H98.1l-0.06-0.29h-0.02c-0.21,0.23-0.55,0.36-0.94,0.36
			c-0.66,0-1.06-0.43-1.06-0.89c0-0.76,0.76-1.12,1.92-1.11v-0.04c0-0.16-0.09-0.37-0.6-0.37c-0.33,0-0.69,0.1-0.9,0.22l-0.19-0.58
			c0.23-0.11,0.68-0.26,1.27-0.26c1.09,0,1.44,0.57,1.44,1.26V81.1z M97.98,80.43c-0.54-0.01-0.95,0.11-0.95,0.46
			c0,0.23,0.17,0.35,0.4,0.35c0.25,0,0.46-0.15,0.53-0.33c0.01-0.05,0.02-0.1,0.02-0.16V80.43z"/>
		<path d="M99.77,77.58h1.02v4.22h-1.02V77.58z"/>
		<path d="M105.68,80.11h-1.66v0.95h1.85v0.74H103V77.8h2.78v0.74h-1.76v0.83h1.66V80.11z"/>
		<path d="M109.55,80.87c0,0.38,0.01,0.69,0.03,0.93h-0.88l-0.05-0.41h-0.02c-0.13,0.18-0.43,0.48-1.02,0.48
			c-0.66,0-1.15-0.37-1.15-1.27V78.9h1.02v1.56c0,0.42,0.15,0.68,0.51,0.68c0.28,0,0.44-0.17,0.51-0.32
			c0.03-0.05,0.03-0.13,0.03-0.2V78.9h1.02V80.87z"/>
		<path d="M110.36,79.85c0-0.43-0.01-0.71-0.03-0.96h0.88l0.03,0.54h0.03c0.17-0.42,0.57-0.6,0.88-0.6c0.09,0,0.14,0,0.21,0.01v0.86
			c-0.07-0.02-0.16-0.03-0.27-0.03c-0.37,0-0.63,0.18-0.7,0.46c-0.01,0.06-0.02,0.13-0.02,0.2v1.48h-1.02V79.85z"/>
		<path d="M116.08,80.32c0,1.07-0.85,1.55-1.73,1.55c-0.96,0-1.69-0.56-1.69-1.5c0-0.94,0.7-1.54,1.75-1.54
			C115.41,78.83,116.08,79.44,116.08,80.32z M113.71,80.35c0,0.5,0.23,0.87,0.67,0.87c0.39,0,0.65-0.35,0.65-0.87
			c0-0.43-0.19-0.87-0.65-0.87C113.89,79.47,113.71,79.92,113.71,80.35z"/>
		<path d="M116.7,79.87c0-0.38-0.01-0.71-0.03-0.98h0.88l0.05,0.4h0.01c0.24-0.31,0.62-0.47,1.09-0.47c0.72,0,1.36,0.55,1.36,1.48
			c0,1.06-0.76,1.56-1.49,1.56c-0.39,0-0.7-0.14-0.85-0.33h-0.01v1.45h-1.02V79.87z M117.72,80.56c0,0.07,0.01,0.14,0.02,0.19
			c0.07,0.24,0.3,0.43,0.59,0.43c0.44,0,0.7-0.33,0.7-0.82c0-0.46-0.23-0.81-0.69-0.81c-0.29,0-0.54,0.19-0.61,0.46
			c-0.01,0.05-0.02,0.11-0.02,0.16V80.56z"/>
		<path d="M121.5,80.64c0.03,0.37,0.45,0.55,0.92,0.55c0.35,0,0.63-0.04,0.9-0.12l0.13,0.61c-0.33,0.12-0.74,0.18-1.18,0.18
			c-1.11,0-1.75-0.58-1.75-1.49c0-0.74,0.52-1.55,1.65-1.55c1.06,0,1.46,0.73,1.46,1.45c0,0.15-0.02,0.29-0.03,0.36H121.5z
			 M122.7,80.02c0-0.22-0.11-0.59-0.57-0.59c-0.43,0-0.6,0.35-0.63,0.59H122.7z"/>
		<path class="st33" d="M29.92,88.01c0.27,0.13,0.7,0.25,1.13,0.25c0.47,0,0.72-0.17,0.72-0.43c0-0.25-0.21-0.39-0.76-0.57
			c-0.75-0.23-1.24-0.6-1.24-1.18c0-0.68,0.64-1.21,1.71-1.21c0.51,0,0.88,0.1,1.15,0.2l-0.23,0.73c-0.18-0.08-0.5-0.19-0.94-0.19
			s-0.66,0.18-0.66,0.39c0,0.26,0.25,0.37,0.84,0.56c0.8,0.26,1.17,0.63,1.17,1.2c0,0.67-0.58,1.25-1.82,1.25
			c-0.51,0-1.02-0.13-1.28-0.25L29.92,88.01z M32.48,83.98l-0.82,0.73h-0.82l0.56-0.73H32.48z"/>
		<path class="st33" d="M33.5,84.99c0.33-0.05,0.82-0.08,1.36-0.08c0.67,0,1.14,0.09,1.46,0.32c0.27,0.19,0.41,0.47,0.41,0.84
			c0,0.51-0.41,0.86-0.8,0.99v0.02c0.31,0.11,0.49,0.38,0.6,0.75c0.14,0.45,0.28,0.98,0.37,1.13h-1.04
			c-0.07-0.12-0.18-0.44-0.31-0.93c-0.12-0.5-0.31-0.64-0.73-0.64h-0.31v1.58H33.5V84.99z M34.51,86.71h0.4
			c0.51,0,0.81-0.23,0.81-0.58c0-0.37-0.28-0.55-0.75-0.56c-0.25,0-0.39,0.02-0.46,0.03V86.71z"/>
		<path class="st33" d="M37.62,88.29c0.13,0.01,0.24,0.01,0.44,0c0.31-0.02,0.62-0.1,0.86-0.24c0.28-0.17,0.47-0.42,0.55-0.71
			l-0.02-0.01c-0.19,0.18-0.48,0.28-0.87,0.28c-0.74,0-1.36-0.46-1.36-1.21c0-0.76,0.68-1.39,1.64-1.39c1.12,0,1.65,0.76,1.65,1.67
			c0,0.8-0.29,1.39-0.76,1.78c-0.41,0.33-0.98,0.52-1.66,0.54c-0.17,0.01-0.35,0.01-0.46,0V88.29z M38.83,85.67
			c-0.34,0-0.6,0.27-0.59,0.68c0,0.33,0.2,0.62,0.62,0.62c0.27,0,0.47-0.12,0.56-0.26c0.03-0.05,0.05-0.11,0.05-0.23
			C39.47,86.07,39.3,85.67,38.83,85.67L38.83,85.67z"/>
		<path d="M44.03,87.07v0.61h-1.75v-0.61H44.03z"/>
		<path d="M47.07,87.91l-0.32,1.03H45.7l1.38-4.01h1.34l1.4,4.01h-1.1l-0.35-1.03H47.07z M48.22,87.23l-0.28-0.85
			c-0.08-0.24-0.16-0.54-0.23-0.77H47.7c-0.07,0.24-0.13,0.54-0.21,0.77l-0.27,0.85H48.22z"/>
		<path d="M51.39,85.22c0,0.25-0.21,0.45-0.55,0.45c-0.32,0-0.54-0.2-0.53-0.45c-0.01-0.26,0.21-0.46,0.54-0.46
			C51.17,84.76,51.38,84.96,51.39,85.22z M50.34,88.94v-2.91h1.02v2.91H50.34z"/>
		<path d="M52.17,86.99c0-0.43-0.01-0.71-0.03-0.96h0.88l0.03,0.54h0.03c0.17-0.42,0.57-0.6,0.88-0.6c0.09,0,0.14,0,0.21,0.01v0.86
			c-0.07-0.02-0.16-0.03-0.27-0.03c-0.37,0-0.63,0.18-0.7,0.46c-0.01,0.06-0.02,0.13-0.02,0.2v1.48h-1.02V86.99z"/>
		<path d="M56.09,84.93h1.02v3.25h1.79v0.76h-2.82V84.93z"/>
		<path d="M60.52,85.22c0,0.25-0.21,0.45-0.55,0.45c-0.32,0-0.54-0.2-0.53-0.45c-0.01-0.26,0.21-0.46,0.54-0.46
			C60.31,84.76,60.51,84.96,60.52,85.22z M59.47,88.94v-2.91h1.02v2.91H59.47z"/>
		<path d="M63.46,88.58h-0.01c-0.21,0.27-0.54,0.43-0.97,0.43c-0.71,0-1.36-0.55-1.36-1.48c0-1.04,0.75-1.56,1.45-1.56
			c0.42,0,0.73,0.14,0.91,0.4h0.01l0.03-0.34h0.98c-0.01,0.28-0.02,0.57-0.02,0.87v3.21h-1.02V88.58z M63.46,87.25
			c0-0.05-0.01-0.1-0.02-0.15c-0.05-0.23-0.27-0.43-0.58-0.43c-0.47,0-0.7,0.35-0.7,0.82c0,0.49,0.26,0.8,0.69,0.8
			c0.29,0,0.52-0.17,0.59-0.41c0.02-0.06,0.03-0.14,0.03-0.2V87.25z"/>
		<path d="M68.36,88.01c0,0.38,0.01,0.69,0.03,0.93h-0.88l-0.05-0.41h-0.02c-0.13,0.18-0.43,0.48-1.02,0.48
			c-0.66,0-1.15-0.37-1.15-1.27v-1.71h1.02v1.56c0,0.42,0.15,0.68,0.51,0.68c0.28,0,0.44-0.17,0.51-0.32
			c0.03-0.05,0.03-0.13,0.03-0.2v-1.73h1.02V88.01z"/>
		<path d="M70.23,85.22c0,0.25-0.21,0.45-0.55,0.45c-0.32,0-0.54-0.2-0.53-0.45c-0.01-0.26,0.21-0.46,0.54-0.46
			C70.01,84.76,70.22,84.96,70.23,85.22z M69.18,88.94v-2.91h1.02v2.91H69.18z"/>
		<path d="M74.18,84.72v3.36c0,0.33,0.01,0.67,0.03,0.87h-0.9l-0.05-0.43h-0.01c-0.21,0.33-0.6,0.49-1.02,0.49
			c-0.78,0-1.4-0.59-1.4-1.49c-0.01-0.98,0.68-1.55,1.47-1.55c0.4,0,0.72,0.13,0.86,0.33h0.01v-1.58H74.18z M73.16,87.26
			c0-0.05-0.01-0.11-0.01-0.16c-0.06-0.24-0.28-0.45-0.6-0.45c-0.46,0-0.7,0.37-0.7,0.83c0,0.49,0.27,0.8,0.7,0.8
			c0.29,0,0.53-0.18,0.59-0.43c0.02-0.07,0.03-0.13,0.03-0.21V87.26z"/>
		<path d="M75.77,87.78c0.03,0.37,0.45,0.55,0.92,0.55c0.35,0,0.63-0.04,0.9-0.12l0.13,0.61c-0.33,0.12-0.74,0.18-1.18,0.18
			c-1.11,0-1.75-0.58-1.75-1.49c0-0.74,0.52-1.55,1.65-1.55c1.06,0,1.46,0.73,1.46,1.45c0,0.15-0.02,0.29-0.03,0.36H75.77z
			 M76.97,87.16c0-0.22-0.11-0.59-0.57-0.59c-0.43,0-0.6,0.35-0.63,0.59H76.97z"/>
		<path class="st33" d="M29.92,95.14c0.27,0.13,0.7,0.25,1.13,0.25c0.47,0,0.72-0.17,0.72-0.43c0-0.25-0.21-0.39-0.76-0.57
			c-0.75-0.23-1.24-0.6-1.24-1.18c0-0.68,0.64-1.21,1.71-1.21c0.51,0,0.88,0.1,1.15,0.2l-0.23,0.73c-0.18-0.08-0.5-0.19-0.94-0.19
			s-0.66,0.18-0.66,0.39c0,0.26,0.25,0.37,0.84,0.56c0.8,0.26,1.17,0.63,1.17,1.2c0,0.67-0.58,1.25-1.82,1.25
			c-0.51,0-1.02-0.13-1.28-0.25L29.92,95.14z M32.48,91.12l-0.82,0.73h-0.82l0.56-0.73H32.48z"/>
		<path class="st33" d="M33.5,92.12c0.33-0.05,0.82-0.08,1.36-0.08c0.67,0,1.14,0.09,1.46,0.32c0.27,0.19,0.41,0.47,0.41,0.84
			c0,0.51-0.41,0.86-0.8,0.99v0.02c0.31,0.11,0.49,0.38,0.6,0.75c0.14,0.45,0.28,0.98,0.37,1.13h-1.04
			c-0.07-0.12-0.18-0.44-0.31-0.93c-0.12-0.5-0.31-0.64-0.73-0.64h-0.31v1.58H33.5V92.12z M34.51,93.85h0.4
			c0.51,0,0.81-0.23,0.81-0.58c0-0.37-0.28-0.55-0.75-0.56c-0.25,0-0.39,0.02-0.46,0.03V93.85z"/>
		<path class="st33" d="M38.6,93.01h-0.01l-0.83,0.35l-0.17-0.68l1.15-0.48h0.84v3.87H38.6V93.01z"/>
		<path class="st33" d="M44.22,94.13c0,1.2-0.54,2.02-1.65,2.02c-1.12,0-1.62-0.9-1.63-1.99c0-1.12,0.54-2.01,1.66-2.01
			C43.77,92.14,44.22,93.07,44.22,94.13z M41.97,94.15c-0.01,0.89,0.23,1.31,0.63,1.31c0.39,0,0.61-0.44,0.61-1.32
			c0-0.86-0.21-1.31-0.62-1.31C42.22,92.83,41.96,93.25,41.97,94.15z"/>
		<path d="M47.74,94.21v0.61h-1.75v-0.61H47.74z"/>
		<path d="M49.73,92.12c0.27-0.05,0.81-0.08,1.32-0.08c0.62,0,1,0.05,1.33,0.23c0.31,0.15,0.54,0.42,0.54,0.79
			c0,0.36-0.23,0.69-0.74,0.86v0.01c0.52,0.12,0.9,0.47,0.9,0.99c0,0.36-0.19,0.65-0.47,0.85c-0.33,0.23-0.88,0.36-1.77,0.36
			c-0.5,0-0.88-0.03-1.1-0.06V92.12z M50.74,93.66h0.33c0.54,0,0.82-0.2,0.82-0.49c0-0.3-0.26-0.46-0.72-0.46
			c-0.22,0-0.35,0.01-0.43,0.02V93.66z M50.74,95.44c0.1,0.01,0.22,0.01,0.39,0.01c0.46,0,0.87-0.16,0.87-0.58
			c0-0.4-0.41-0.56-0.92-0.56h-0.35V95.44z"/>
		<path d="M54.43,96.08l-1.07-4.01h1.09l0.34,1.65c0.1,0.48,0.19,1,0.27,1.4h0.01c0.07-0.43,0.18-0.92,0.29-1.41l0.38-1.64h1.08
			l0.36,1.69c0.1,0.47,0.17,0.9,0.24,1.34h0.01c0.07-0.45,0.17-0.92,0.26-1.39l0.37-1.64h1.04l-1.16,4.01h-1.1l-0.38-1.73
			c-0.09-0.4-0.16-0.78-0.21-1.24h-0.01c-0.08,0.45-0.15,0.83-0.26,1.24l-0.43,1.73H54.43z"/>
		<path d="M60.65,92.07v4.01h-1.02v-4.01H60.65z"/>
		<path d="M62.89,92.12c0.31-0.05,0.76-0.08,1.38-0.08c0.63,0,1.08,0.11,1.38,0.32c0.29,0.2,0.48,0.54,0.48,0.93
			c0,0.39-0.15,0.73-0.41,0.95c-0.35,0.29-0.86,0.42-1.46,0.42c-0.13,0-0.25-0.01-0.35-0.02v1.43h-1.01V92.12z M63.9,93.94
			c0.09,0.02,0.19,0.02,0.34,0.02c0.54,0,0.88-0.24,0.88-0.65c0-0.37-0.29-0.59-0.8-0.59c-0.21,0-0.35,0.02-0.42,0.04V93.94z"/>
		<path d="M69.81,94.59c0,1.07-0.85,1.55-1.73,1.55c-0.96,0-1.69-0.56-1.69-1.5c0-0.94,0.7-1.54,1.75-1.54
			C69.14,93.1,69.81,93.72,69.81,94.59z M67.44,94.62c0,0.5,0.23,0.87,0.67,0.87c0.39,0,0.65-0.35,0.65-0.87
			c0-0.43-0.19-0.87-0.65-0.87C67.62,93.75,67.44,94.19,67.44,94.62z"/>
		<path d="M70.43,91.85h1.02v4.22h-1.02V91.85z"/>
		<path d="M75,95.37c0,0.28,0.01,0.55,0.05,0.71h-0.92l-0.06-0.29h-0.02c-0.21,0.23-0.55,0.36-0.94,0.36
			c-0.66,0-1.06-0.43-1.06-0.89c0-0.76,0.76-1.12,1.92-1.11V94.1c0-0.16-0.09-0.37-0.6-0.37c-0.33,0-0.69,0.1-0.9,0.22l-0.19-0.58
			c0.23-0.11,0.68-0.26,1.27-0.26c1.09,0,1.44,0.57,1.44,1.26V95.37z M74.01,94.7c-0.54-0.01-0.95,0.11-0.95,0.46
			c0,0.23,0.17,0.35,0.4,0.35c0.25,0,0.46-0.15,0.53-0.33c0.01-0.05,0.02-0.1,0.02-0.16V94.7z"/>
		<path d="M75.8,94.1c0-0.36-0.01-0.67-0.03-0.93h0.88l0.05,0.4h0.02c0.13-0.18,0.47-0.46,1.01-0.46c0.67,0,1.17,0.39,1.17,1.25
			v1.73h-1.02v-1.61c0-0.37-0.15-0.63-0.52-0.63c-0.28,0-0.45,0.17-0.51,0.34c-0.03,0.06-0.04,0.14-0.04,0.23v1.68H75.8V94.1z"/>
		<path d="M82.89,91.85v3.36c0,0.33,0.01,0.67,0.03,0.87h-0.9l-0.05-0.43h-0.01c-0.21,0.33-0.6,0.49-1.02,0.49
			c-0.78,0-1.4-0.59-1.4-1.49c-0.01-0.98,0.68-1.55,1.47-1.55c0.4,0,0.72,0.13,0.86,0.33h0.01v-1.58H82.89z M81.87,94.4
			c0-0.05-0.01-0.11-0.01-0.16c-0.06-0.24-0.28-0.45-0.6-0.45c-0.46,0-0.7,0.37-0.7,0.83c0,0.49,0.27,0.8,0.7,0.8
			c0.29,0,0.53-0.18,0.59-0.43c0.02-0.07,0.03-0.13,0.03-0.21V94.4z"/>
		<path d="M85.69,92.83h-1.21v-0.76h3.46v0.76h-1.23v3.25h-1.02V92.83z"/>
		<path d="M88.69,94.91c0.03,0.37,0.45,0.55,0.92,0.55c0.35,0,0.63-0.04,0.9-0.12l0.13,0.61c-0.33,0.12-0.74,0.18-1.18,0.18
			c-1.11,0-1.75-0.58-1.75-1.49c0-0.74,0.52-1.55,1.65-1.55c1.06,0,1.46,0.73,1.46,1.45c0,0.15-0.02,0.29-0.03,0.36H88.69z
			 M89.89,94.29c0-0.22-0.11-0.59-0.57-0.59c-0.43,0-0.6,0.35-0.63,0.59H89.89z"/>
		<path d="M93.9,96.01c-0.18,0.07-0.52,0.14-0.91,0.14c-1.06,0-1.73-0.58-1.73-1.49c0-0.85,0.66-1.55,1.87-1.55
			c0.27,0,0.56,0.04,0.78,0.11l-0.16,0.67c-0.12-0.05-0.3-0.09-0.57-0.09c-0.54,0-0.88,0.34-0.88,0.82c0,0.54,0.4,0.81,0.9,0.81
			c0.24,0,0.43-0.04,0.58-0.09L93.9,96.01z"/>
		<path d="M94.45,91.85h1.02v1.66h0.01c0.11-0.13,0.24-0.23,0.4-0.3c0.15-0.07,0.34-0.11,0.53-0.11c0.65,0,1.14,0.4,1.14,1.27v1.7
			h-1.02v-1.6c0-0.38-0.15-0.64-0.53-0.64c-0.27,0-0.43,0.16-0.51,0.32c-0.03,0.06-0.03,0.14-0.03,0.2v1.73h-1.02V91.85z"/>
		<path d="M98.37,94.1c0-0.36-0.01-0.67-0.03-0.93h0.88l0.05,0.4h0.02c0.13-0.18,0.47-0.46,1.01-0.46c0.67,0,1.17,0.39,1.17,1.25
			v1.73h-1.02v-1.61c0-0.37-0.15-0.63-0.51-0.63c-0.28,0-0.45,0.17-0.52,0.34c-0.03,0.06-0.04,0.14-0.04,0.23v1.68h-1.02V94.1z"/>
		<path d="M105.52,94.59c0,1.07-0.85,1.55-1.73,1.55c-0.96,0-1.69-0.56-1.69-1.5c0-0.94,0.7-1.54,1.75-1.54
			C104.85,93.1,105.52,93.72,105.52,94.59z M103.15,94.62c0,0.5,0.23,0.87,0.67,0.87c0.39,0,0.65-0.35,0.65-0.87
			c0-0.43-0.19-0.87-0.65-0.87C103.33,93.75,103.15,94.19,103.15,94.62z"/>
		<path d="M106.14,91.85h1.02v4.22h-1.02V91.85z"/>
		<path d="M111.21,94.59c0,1.07-0.85,1.55-1.73,1.55c-0.96,0-1.69-0.56-1.69-1.5c0-0.94,0.7-1.54,1.75-1.54
			C110.54,93.1,111.21,93.72,111.21,94.59z M108.85,94.62c0,0.5,0.23,0.87,0.67,0.87c0.39,0,0.65-0.35,0.65-0.87
			c0-0.43-0.19-0.87-0.65-0.87C109.03,93.75,108.85,94.19,108.85,94.62z"/>
		<path d="M114.96,95.66c0,0.56-0.13,1.02-0.5,1.31c-0.36,0.27-0.85,0.36-1.33,0.36c-0.43,0-0.88-0.08-1.18-0.23l0.2-0.68
			c0.21,0.11,0.57,0.22,0.95,0.22c0.48,0,0.85-0.23,0.85-0.77v-0.19h-0.01c-0.19,0.24-0.51,0.38-0.88,0.38
			c-0.81,0-1.38-0.58-1.38-1.42c0-0.93,0.68-1.53,1.48-1.53c0.45,0,0.73,0.17,0.9,0.41h0.01l0.03-0.35h0.88
			c-0.01,0.18-0.03,0.43-0.03,0.86V95.66z M113.94,94.35c0-0.06-0.01-0.12-0.02-0.17c-0.07-0.24-0.27-0.4-0.55-0.4
			c-0.37,0-0.67,0.3-0.67,0.83c0,0.43,0.24,0.77,0.67,0.77c0.26,0,0.47-0.15,0.54-0.37c0.03-0.06,0.03-0.16,0.03-0.24V94.35z"/>
		<path d="M116.82,92.36c0,0.25-0.21,0.45-0.55,0.45c-0.32,0-0.54-0.2-0.53-0.45c-0.01-0.26,0.21-0.46,0.54-0.46
			C116.61,91.9,116.81,92.1,116.82,92.36z M115.77,96.08v-2.91h1.02v2.91H115.77z"/>
		<path d="M118.38,94.91c0.03,0.37,0.45,0.55,0.92,0.55c0.35,0,0.63-0.04,0.9-0.12l0.13,0.61c-0.33,0.12-0.74,0.18-1.18,0.18
			c-1.11,0-1.75-0.58-1.75-1.49c0-0.74,0.52-1.55,1.65-1.55c1.06,0,1.46,0.73,1.46,1.45c0,0.15-0.02,0.29-0.03,0.36H118.38z
			 M119.58,94.29c0-0.22-0.11-0.59-0.57-0.59c-0.43,0-0.6,0.35-0.63,0.59H119.58z"/>
		<path d="M121.12,95.29c0.19,0.1,0.57,0.22,0.88,0.22c0.31,0,0.43-0.1,0.43-0.24c0-0.15-0.1-0.22-0.48-0.33
			c-0.68-0.2-0.94-0.53-0.93-0.87c0-0.55,0.52-0.96,1.33-0.96c0.38,0,0.72,0.08,0.92,0.17l-0.18,0.62
			c-0.15-0.07-0.43-0.17-0.71-0.17c-0.25,0-0.39,0.09-0.39,0.24c0,0.14,0.13,0.21,0.53,0.33c0.62,0.19,0.88,0.47,0.89,0.9
			c0,0.54-0.48,0.95-1.42,0.95c-0.43,0-0.81-0.09-1.06-0.21L121.12,95.29z"/>
		<path class="st33" d="M29.92,102.28c0.27,0.13,0.7,0.25,1.13,0.25c0.47,0,0.72-0.17,0.72-0.43c0-0.25-0.21-0.39-0.76-0.57
			c-0.75-0.23-1.24-0.6-1.24-1.18c0-0.68,0.64-1.21,1.71-1.21c0.51,0,0.88,0.1,1.15,0.2l-0.23,0.73c-0.18-0.08-0.5-0.19-0.94-0.19
			s-0.66,0.18-0.66,0.39c0,0.26,0.25,0.37,0.84,0.56c0.8,0.26,1.17,0.63,1.17,1.2c0,0.67-0.58,1.25-1.82,1.25
			c-0.51,0-1.02-0.13-1.28-0.25L29.92,102.28z M32.48,98.25l-0.82,0.73h-0.82l0.56-0.73H32.48z"/>
		<path class="st33" d="M33.5,99.26c0.33-0.05,0.82-0.08,1.36-0.08c0.67,0,1.14,0.09,1.46,0.32c0.27,0.19,0.41,0.47,0.41,0.84
			c0,0.51-0.41,0.86-0.8,0.99v0.02c0.31,0.11,0.49,0.38,0.6,0.75c0.14,0.45,0.28,0.98,0.37,1.13h-1.04
			c-0.07-0.12-0.18-0.44-0.31-0.93c-0.12-0.5-0.31-0.64-0.73-0.64h-0.31v1.58H33.5V99.26z M34.51,100.98h0.4
			c0.51,0,0.81-0.23,0.81-0.58c0-0.37-0.28-0.55-0.75-0.56c-0.25,0-0.39,0.02-0.46,0.03V100.98z"/>
		<path class="st33" d="M38.6,100.15h-0.01l-0.83,0.35l-0.17-0.68l1.15-0.48h0.84v3.87H38.6V100.15z"/>
		<path class="st33" d="M42.31,100.15H42.3l-0.83,0.35l-0.17-0.68l1.15-0.48h0.84v3.87h-0.98V100.15z"/>
		<path d="M47.74,101.35v0.61h-1.75v-0.61H47.74z"/>
		<path d="M53.86,101.17c0,1.31-0.9,2.11-2.21,2.11c-1.34,0-2.12-0.9-2.12-2.04c0-1.2,0.86-2.1,2.19-2.1
			C53.1,99.14,53.86,100.06,53.86,101.17z M50.6,101.22c0,0.79,0.41,1.34,1.1,1.34c0.69,0,1.08-0.58,1.08-1.36
			c0-0.72-0.39-1.34-1.09-1.34C51,99.86,50.6,100.44,50.6,101.22z"/>
		<path d="M54.52,101.23c0-0.36-0.01-0.67-0.03-0.93h0.88l0.05,0.4h0.02c0.13-0.18,0.47-0.46,1.01-0.46c0.67,0,1.17,0.39,1.17,1.25
			v1.73h-1.02v-1.61c0-0.37-0.15-0.63-0.52-0.63c-0.28,0-0.45,0.17-0.51,0.34c-0.03,0.06-0.04,0.14-0.04,0.23v1.68h-1.02V101.23z"/>
		<path d="M59.01,100.3l0.26,1.19c0.07,0.3,0.13,0.62,0.19,0.96h0.01c0.07-0.33,0.16-0.67,0.24-0.95l0.35-1.2h0.8l0.33,1.16
			c0.09,0.33,0.17,0.65,0.24,0.99h0.01c0.05-0.33,0.11-0.66,0.19-0.99l0.28-1.15h1l-1,2.91h-0.96l-0.31-1.02
			c-0.08-0.29-0.14-0.54-0.21-0.9h-0.01c-0.06,0.36-0.13,0.64-0.21,0.9l-0.33,1.02h-0.96l-0.95-2.91H59.01z"/>
		<path d="M64.06,102.05c0.03,0.37,0.45,0.55,0.92,0.55c0.35,0,0.63-0.04,0.9-0.12l0.13,0.61c-0.33,0.12-0.74,0.18-1.18,0.18
			c-1.11,0-1.75-0.58-1.75-1.49c0-0.74,0.52-1.55,1.65-1.55c1.06,0,1.46,0.73,1.46,1.45c0,0.15-0.02,0.29-0.03,0.36H64.06z
			 M65.26,101.43c0-0.22-0.11-0.59-0.57-0.59c-0.43,0-0.6,0.35-0.63,0.59H65.26z"/>
		<path d="M66.81,98.99h1.02v4.22h-1.02V98.99z"/>
		<path d="M71.88,101.73c0,1.07-0.85,1.55-1.73,1.55c-0.96,0-1.69-0.56-1.69-1.5c0-0.94,0.7-1.54,1.75-1.54
			C71.21,100.24,71.88,100.85,71.88,101.73z M69.51,101.76c0,0.5,0.23,0.87,0.67,0.87c0.39,0,0.65-0.35,0.65-0.87
			c0-0.43-0.19-0.87-0.65-0.87C69.69,100.88,69.51,101.33,69.51,101.76z"/>
		<path class="st33" d="M29.92,109.42c0.27,0.13,0.7,0.25,1.13,0.25c0.47,0,0.72-0.17,0.72-0.43c0-0.25-0.21-0.39-0.76-0.57
			c-0.75-0.23-1.24-0.6-1.24-1.18c0-0.68,0.64-1.21,1.71-1.21c0.51,0,0.88,0.1,1.15,0.2l-0.23,0.73c-0.18-0.08-0.5-0.19-0.94-0.19
			s-0.66,0.18-0.66,0.39c0,0.26,0.25,0.37,0.84,0.56c0.8,0.26,1.17,0.63,1.17,1.2c0,0.67-0.58,1.25-1.82,1.25
			c-0.51,0-1.02-0.13-1.28-0.25L29.92,109.42z M32.48,105.39l-0.82,0.73h-0.82l0.56-0.73H32.48z"/>
		<path class="st33" d="M33.5,106.39c0.33-0.05,0.82-0.08,1.36-0.08c0.67,0,1.14,0.09,1.46,0.32c0.27,0.19,0.41,0.47,0.41,0.84
			c0,0.51-0.41,0.86-0.8,0.99v0.02c0.31,0.11,0.49,0.38,0.6,0.75c0.14,0.45,0.28,0.98,0.37,1.13h-1.04
			c-0.07-0.12-0.18-0.44-0.31-0.93c-0.12-0.5-0.31-0.64-0.73-0.64h-0.31v1.58H33.5V106.39z M34.51,108.12h0.4
			c0.51,0,0.81-0.23,0.81-0.58c0-0.37-0.28-0.55-0.75-0.56c-0.25,0-0.39,0.02-0.46,0.03V108.12z"/>
		<path class="st33" d="M38.6,107.29h-0.01l-0.83,0.35l-0.17-0.68l1.15-0.48h0.84v3.87H38.6V107.29z"/>
		<path class="st33" d="M41.01,110.35v-0.55l0.56-0.45c0.95-0.76,1.41-1.19,1.42-1.64c0-0.32-0.21-0.57-0.72-0.57
			c-0.37,0-0.7,0.17-0.93,0.32l-0.29-0.65c0.33-0.22,0.84-0.4,1.42-0.4c0.98,0,1.53,0.51,1.53,1.21c0,0.65-0.53,1.17-1.16,1.67
			l-0.4,0.3v0.01h1.64v0.74H41.01z"/>
		<path d="M47.74,108.48v0.61h-1.75v-0.61H47.74z"/>
		<path d="M49.73,106.34h2.76v0.74h-1.73V108h1.62v0.74h-1.62v1.61h-1.02V106.34z"/>
		<path d="M56.28,108.86c0,1.07-0.85,1.55-1.73,1.55c-0.96,0-1.69-0.56-1.69-1.5c0-0.94,0.7-1.54,1.75-1.54
			C55.61,107.37,56.28,107.99,56.28,108.86z M53.91,108.89c0,0.5,0.23,0.87,0.67,0.87c0.39,0,0.65-0.35,0.65-0.87
			c0-0.43-0.19-0.87-0.65-0.87C54.09,108.02,53.91,108.46,53.91,108.89z"/>
		<path d="M56.91,108.4c0-0.43-0.01-0.71-0.03-0.96h0.88l0.03,0.54h0.03c0.17-0.42,0.57-0.6,0.88-0.6c0.09,0,0.14,0,0.21,0.01v0.86
			c-0.07-0.02-0.16-0.03-0.27-0.03c-0.37,0-0.63,0.18-0.7,0.46c-0.01,0.06-0.02,0.13-0.02,0.2v1.48h-1.02V108.4z"/>
		<path d="M62.49,109.93c0,0.56-0.13,1.02-0.5,1.31c-0.36,0.27-0.85,0.36-1.33,0.36c-0.43,0-0.88-0.08-1.18-0.23l0.2-0.68
			c0.21,0.11,0.57,0.22,0.95,0.22c0.48,0,0.85-0.23,0.85-0.77v-0.19h-0.01c-0.19,0.24-0.51,0.38-0.88,0.38
			c-0.81,0-1.38-0.58-1.38-1.42c0-0.93,0.68-1.53,1.48-1.53c0.45,0,0.73,0.17,0.9,0.41h0.01l0.03-0.35h0.88
			c-0.01,0.18-0.03,0.43-0.03,0.86V109.93z M61.47,108.62c0-0.06-0.01-0.12-0.02-0.17c-0.07-0.24-0.27-0.4-0.55-0.4
			c-0.37,0-0.67,0.3-0.67,0.83c0,0.43,0.24,0.77,0.67,0.77c0.26,0,0.47-0.15,0.54-0.37c0.03-0.06,0.03-0.16,0.03-0.24V108.62z"/>
		<path d="M63.3,106.13h1.02v4.22H63.3V106.13z"/>
		<path d="M67.87,109.64c0,0.28,0.01,0.55,0.05,0.71H67l-0.06-0.29h-0.02c-0.21,0.23-0.55,0.36-0.94,0.36
			c-0.66,0-1.06-0.43-1.06-0.89c0-0.76,0.76-1.12,1.92-1.11v-0.04c0-0.16-0.09-0.37-0.6-0.37c-0.33,0-0.69,0.1-0.9,0.22l-0.19-0.58
			c0.23-0.11,0.68-0.26,1.27-0.26c1.09,0,1.44,0.57,1.44,1.26V109.64z M66.88,108.98c-0.54-0.01-0.95,0.11-0.95,0.46
			c0,0.23,0.17,0.34,0.4,0.34c0.25,0,0.46-0.15,0.53-0.33c0.01-0.05,0.02-0.1,0.02-0.16V108.98z"/>
		<path d="M68.66,109.56c0.19,0.1,0.57,0.22,0.88,0.22c0.31,0,0.43-0.09,0.43-0.24c0-0.15-0.1-0.22-0.48-0.33
			c-0.68-0.2-0.94-0.53-0.93-0.87c0-0.55,0.52-0.96,1.33-0.96c0.38,0,0.72,0.08,0.92,0.17l-0.18,0.62
			c-0.15-0.07-0.43-0.17-0.71-0.17c-0.25,0-0.39,0.09-0.39,0.24c0,0.14,0.13,0.21,0.53,0.33c0.62,0.19,0.88,0.47,0.89,0.9
			c0,0.54-0.48,0.95-1.42,0.95c-0.43,0-0.81-0.09-1.06-0.21L68.66,109.56z"/>
		<path d="M71.56,109.56c0.19,0.1,0.57,0.22,0.88,0.22c0.31,0,0.43-0.09,0.43-0.24c0-0.15-0.1-0.22-0.48-0.33
			c-0.68-0.2-0.94-0.53-0.93-0.87c0-0.55,0.52-0.96,1.33-0.96c0.38,0,0.72,0.08,0.92,0.17l-0.18,0.62
			c-0.15-0.07-0.43-0.17-0.71-0.17c-0.25,0-0.39,0.09-0.39,0.24c0,0.14,0.13,0.21,0.53,0.33c0.62,0.19,0.88,0.47,0.89,0.9
			c0,0.54-0.48,0.95-1.42,0.95c-0.43,0-0.81-0.09-1.06-0.21L71.56,109.56z"/>
	</g>
</g>
</svg>
