<?xml version="1.0" encoding="utf-8"?>
<!-- Generator: Adobe Illustrator 23.0.1, SVG Export Plug-In . SVG Version: 6.00 Build 0)  -->
<svg version="1.1" id="Warstwa_1" xmlns="http://www.w3.org/2000/svg" xmlns:xlink="http://www.w3.org/1999/xlink" x="0px" y="0px"
	 viewBox="0 0 151.7 140.82" style="enable-background:new 0 0 151.7 140.82;" xml:space="preserve">
<style type="text/css">
	.st0{fill:#E2CFC3;stroke:#CB6333;stroke-width:3;stroke-miterlimit:10;}
	.st1{fill:#E12529;}
	.st2{fill:#131819;}
	.st3{fill:#0D76BA;}
	.st4{fill:#F8A233;}
	.st5{fill:#73BC45;}
	.st6{fill:#E82128;}
	.st7{fill:#B3D456;stroke:#000000;stroke-miterlimit:10;}
	.st8{fill:none;stroke:#000000;stroke-linecap:round;stroke-linejoin:round;stroke-miterlimit:10;}
	.st9{fill:#F47C2D;stroke:#000000;stroke-miterlimit:10;}
	.st10{fill:none;stroke:#000000;stroke-width:2;stroke-miterlimit:10;}
	.st11{fill:#DE3472;stroke:#000000;stroke-miterlimit:10;}
	.st12{fill:#3EC1C8;stroke:#000000;stroke-miterlimit:10;}
	.st13{fill:#51BD88;stroke:#000000;stroke-miterlimit:10;}
	.st14{fill:#9F4F9F;stroke:#000000;stroke-miterlimit:10;}
	.st15{fill:#F69138;stroke:#000000;stroke-miterlimit:10;}
	.st16{fill:#39A2D7;stroke:#000000;stroke-miterlimit:10;}
	.st17{fill:none;stroke:#000000;stroke-miterlimit:10;}
	.st18{fill:#68737A;}
	.st19{fill:#910028;}
	.st20{fill:#EE5F2B;}
	.st21{fill:#0FA8E1;}
	.st22{fill:#22488E;}
	.st23{fill:#50499E;}
	.st24{fill:#593594;}
	.st25{fill:none;}
	.st26{fill:#FBFAFC;}
	.st27{fill:#FFFFFF;}
	.st28{fill:#2C3579;}
	.st29{fill:#109EAE;}
	.st30{stroke:#000000;stroke-miterlimit:10;}
	.st31{fill:#F69138;}
	.st32{fill:#F47C2D;}
</style>
<g>
	<path class="st0" d="M116.22,135.42h-75.4c-16.71,0-30.25-13.54-30.25-30.25V36.33c0-16.71,13.54-30.25,30.25-30.25h75.4
		c16.71,0,30.25,13.54,30.25,30.25v68.84C146.47,121.88,132.93,135.42,116.22,135.42z"/>
	<g>
		<path class="st31" d="M23.07,23.05h1.08v3.43h1.89v0.8h-2.97V23.05z"/>
		<path class="st31" d="M27.87,24.05h-0.01l-0.87,0.37l-0.18-0.72l1.21-0.5h0.89v4.08h-1.04V24.05z"/>
		<path d="M33.6,25.31v0.64h-1.85v-0.64H33.6z"/>
		<path d="M35.7,23.11c0.35-0.05,0.86-0.09,1.43-0.09c0.7,0,1.2,0.09,1.54,0.33c0.28,0.2,0.44,0.5,0.44,0.89
			c0,0.54-0.43,0.91-0.84,1.04v0.02c0.33,0.12,0.51,0.4,0.63,0.79c0.15,0.48,0.3,1.03,0.39,1.19h-1.1
			c-0.08-0.13-0.19-0.46-0.33-0.98c-0.13-0.53-0.33-0.67-0.77-0.68h-0.32v1.66H35.7V23.11z M36.76,24.93h0.42
			c0.54,0,0.85-0.24,0.85-0.61c0-0.39-0.3-0.58-0.79-0.59c-0.26,0-0.41,0.02-0.49,0.03V24.93z"/>
		<path d="M43.25,25.71c0,1.12-0.9,1.64-1.82,1.64c-1.01,0-1.78-0.59-1.78-1.58c0-0.99,0.73-1.63,1.84-1.63
			C42.54,24.14,43.25,24.79,43.25,25.71z M40.75,25.74c0,0.53,0.25,0.92,0.7,0.92c0.42,0,0.68-0.37,0.68-0.92
			c0-0.46-0.2-0.92-0.68-0.92C40.94,24.82,40.75,25.29,40.75,25.74z"/>
		<path d="M46.52,27.2c-0.19,0.08-0.55,0.14-0.96,0.14c-1.11,0-1.83-0.61-1.83-1.57c0-0.9,0.69-1.63,1.97-1.63
			c0.28,0,0.59,0.04,0.82,0.12l-0.17,0.71c-0.13-0.05-0.32-0.09-0.6-0.09c-0.56,0-0.93,0.36-0.92,0.86c0,0.56,0.42,0.86,0.94,0.86
			c0.25,0,0.45-0.04,0.61-0.1L46.52,27.2z"/>
		<path d="M48.18,25.5h0.01c0.08-0.13,0.16-0.25,0.25-0.37l0.7-0.92h1.29l-1.23,1.24l1.41,1.83h-1.32l-0.83-1.26l-0.28,0.3v0.96
			h-1.07v-4.45h1.07V25.5z"/>
		<path d="M51.69,24.21l0.28,1.25c0.07,0.31,0.14,0.66,0.2,1.01h0.01c0.07-0.35,0.17-0.7,0.25-1l0.37-1.26h0.85l0.35,1.22
			c0.09,0.35,0.18,0.69,0.25,1.04h0.01c0.05-0.35,0.12-0.7,0.2-1.05l0.3-1.22h1.05l-1.06,3.07h-1.01l-0.32-1.08
			c-0.08-0.3-0.15-0.57-0.22-0.95h-0.01c-0.06,0.38-0.13,0.67-0.23,0.95l-0.35,1.08H51.6l-1-3.07H51.69z"/>
		<path d="M57.02,26.05c0.03,0.4,0.47,0.58,0.97,0.58c0.37,0,0.66-0.04,0.95-0.13l0.14,0.65c-0.35,0.13-0.78,0.19-1.25,0.19
			c-1.17,0-1.84-0.61-1.84-1.57c0-0.78,0.54-1.64,1.74-1.64c1.11,0,1.54,0.77,1.54,1.53c0,0.16-0.02,0.31-0.03,0.38H57.02z
			 M58.28,25.39c0-0.23-0.11-0.62-0.61-0.62c-0.45,0-0.63,0.36-0.66,0.62H58.28z"/>
		<path d="M59.91,22.82h1.07v4.45h-1.07V22.82z"/>
		<path d="M61.85,22.82h1.07v4.45h-1.07V22.82z"/>
		<path d="M66.35,26.19l-0.34,1.09H64.9l1.45-4.23h1.41l1.47,4.23h-1.16l-0.37-1.09H66.35z M67.56,25.48l-0.3-0.9
			c-0.08-0.25-0.17-0.56-0.24-0.82h-0.01c-0.07,0.25-0.14,0.57-0.22,0.82l-0.28,0.9H67.56z"/>
		<path d="M72.98,26.29c0,0.4,0.01,0.73,0.03,0.98h-0.93l-0.05-0.43h-0.02c-0.13,0.19-0.46,0.5-1.08,0.5c-0.7,0-1.21-0.39-1.21-1.34
			v-1.8h1.08v1.65c0,0.45,0.16,0.72,0.54,0.72c0.3,0,0.47-0.18,0.54-0.33c0.03-0.06,0.03-0.13,0.03-0.21v-1.83h1.08V26.29z"/>
		<path d="M75.04,23.38v0.83h0.77v0.7h-0.77v1.11c0,0.37,0.1,0.54,0.42,0.54c0.15,0,0.21-0.01,0.32-0.02l0.01,0.72
			c-0.14,0.05-0.39,0.09-0.7,0.09c-0.35,0-0.63-0.11-0.8-0.27c-0.2-0.18-0.3-0.48-0.3-0.91v-1.26h-0.46v-0.7h0.46v-0.58L75.04,23.38
			z"/>
		<path d="M79.79,25.71c0,1.12-0.9,1.64-1.82,1.64c-1.01,0-1.78-0.59-1.78-1.58c0-0.99,0.73-1.63,1.84-1.63
			C79.09,24.14,79.79,24.79,79.79,25.71z M77.3,25.74c0,0.53,0.25,0.92,0.7,0.92c0.42,0,0.68-0.37,0.68-0.92
			c0-0.46-0.2-0.92-0.68-0.92C77.49,24.82,77.3,25.29,77.3,25.74z"/>
		<path d="M80.45,25.19c0-0.38-0.01-0.71-0.03-0.98h0.9l0.05,0.41h0.02c0.15-0.19,0.45-0.48,1.04-0.48c0.44,0,0.8,0.2,0.95,0.52
			h0.01c0.13-0.16,0.28-0.28,0.44-0.37c0.19-0.1,0.4-0.15,0.66-0.15c0.66,0,1.16,0.41,1.16,1.33v1.81h-1.04v-1.67
			c0-0.45-0.16-0.7-0.51-0.7c-0.25,0-0.42,0.15-0.49,0.33c-0.03,0.07-0.04,0.17-0.04,0.24v1.79h-1.04v-1.72
			c0-0.39-0.15-0.65-0.49-0.65c-0.28,0-0.44,0.19-0.5,0.34c-0.03,0.08-0.04,0.16-0.04,0.24v1.79h-1.04V25.19z"/>
		<path d="M89.39,26.53c0,0.29,0.01,0.58,0.05,0.75h-0.97l-0.06-0.31h-0.02c-0.23,0.24-0.58,0.38-0.99,0.38
			c-0.7,0-1.11-0.45-1.11-0.94c0-0.8,0.8-1.18,2.02-1.17v-0.04c0-0.16-0.1-0.4-0.63-0.4c-0.35,0-0.73,0.11-0.95,0.23l-0.2-0.61
			c0.24-0.12,0.71-0.27,1.34-0.27c1.15,0,1.52,0.6,1.52,1.32V26.53z M88.35,25.83c-0.56-0.01-1,0.11-1,0.48
			c0,0.24,0.18,0.36,0.42,0.36c0.27,0,0.49-0.16,0.56-0.35c0.01-0.05,0.02-0.11,0.02-0.16V25.83z"/>
		<path d="M91.38,23.38v0.83h0.77v0.7h-0.77v1.11c0,0.37,0.1,0.54,0.42,0.54c0.15,0,0.21-0.01,0.32-0.02l0.01,0.72
			c-0.14,0.05-0.39,0.09-0.7,0.09c-0.35,0-0.63-0.11-0.8-0.27c-0.2-0.18-0.3-0.48-0.3-0.91v-1.26h-0.46v-0.7h0.46v-0.58L91.38,23.38
			z"/>
		<path d="M93.87,23.36c0,0.26-0.23,0.48-0.58,0.48c-0.34,0-0.57-0.21-0.56-0.48c-0.01-0.28,0.22-0.48,0.56-0.48
			C93.65,22.87,93.86,23.08,93.87,23.36z M92.76,27.28v-3.07h1.07v3.07H92.76z"/>
		<path d="M98.1,25.71c0,1.12-0.9,1.64-1.82,1.64c-1.01,0-1.78-0.59-1.78-1.58c0-0.99,0.73-1.63,1.84-1.63
			C97.4,24.14,98.1,24.79,98.1,25.71z M95.6,25.74c0,0.53,0.25,0.92,0.7,0.92c0.42,0,0.68-0.37,0.68-0.92c0-0.46-0.2-0.92-0.68-0.92
			C95.79,24.82,95.6,25.29,95.6,25.74z"/>
		<path d="M98.76,25.19c0-0.38-0.01-0.71-0.03-0.98h0.93l0.05,0.42h0.02c0.14-0.19,0.49-0.49,1.07-0.49c0.7,0,1.23,0.41,1.23,1.32
			v1.82h-1.07v-1.7c0-0.39-0.15-0.66-0.54-0.66c-0.3,0-0.47,0.18-0.54,0.36c-0.03,0.06-0.04,0.15-0.04,0.24v1.77h-1.07V25.19z"/>
		<path class="st31" d="M23.07,30.57h1.08V34h1.89v0.8h-2.97V30.57z"/>
		<path class="st31" d="M26.51,34.8v-0.58l0.59-0.48c1-0.8,1.49-1.25,1.5-1.73c0-0.33-0.23-0.6-0.75-0.6c-0.4,0-0.74,0.18-0.98,0.34
			l-0.3-0.68c0.35-0.23,0.88-0.42,1.5-0.42c1.04,0,1.61,0.54,1.61,1.28c0,0.68-0.56,1.23-1.22,1.76L28.03,34v0.01h1.73v0.78H26.51z"
			/>
		<path d="M33.6,32.83v0.64h-1.85v-0.64H33.6z"/>
		<path d="M35.7,30.63c0.28-0.05,0.85-0.09,1.39-0.09c0.66,0,1.06,0.06,1.4,0.24c0.33,0.16,0.57,0.45,0.57,0.83
			c0,0.38-0.25,0.73-0.78,0.9v0.01c0.54,0.13,0.94,0.5,0.94,1.04c0,0.38-0.2,0.68-0.49,0.9c-0.35,0.24-0.92,0.38-1.87,0.38
			c-0.53,0-0.92-0.03-1.16-0.06V30.63z M36.76,32.25h0.35c0.56,0,0.87-0.21,0.87-0.52c0-0.32-0.27-0.49-0.76-0.49
			c-0.23,0-0.37,0.01-0.46,0.03V32.25z M36.76,34.12c0.1,0.01,0.23,0.01,0.42,0.01c0.49,0,0.92-0.17,0.92-0.61
			c0-0.43-0.43-0.6-0.97-0.6h-0.37V34.12z"/>
		<path d="M43.37,33.23c0,1.12-0.9,1.64-1.82,1.64c-1.01,0-1.78-0.59-1.78-1.58c0-0.99,0.73-1.63,1.84-1.63
			C42.66,31.66,43.37,32.31,43.37,33.23z M40.87,33.26c0,0.53,0.25,0.92,0.7,0.92c0.42,0,0.68-0.37,0.68-0.92
			c0-0.46-0.2-0.92-0.68-0.92C41.06,32.34,40.87,32.81,40.87,33.26z"/>
		<path d="M44.03,32.74c0-0.45-0.01-0.75-0.03-1.01h0.92l0.03,0.56h0.03c0.18-0.45,0.6-0.63,0.93-0.63c0.1,0,0.15,0,0.23,0.01v0.9
			c-0.08-0.02-0.17-0.03-0.29-0.03c-0.39,0-0.66,0.19-0.73,0.48c-0.01,0.06-0.02,0.14-0.02,0.21v1.56h-1.07V32.74z"/>
		<path d="M49.91,34.36c0,0.59-0.13,1.07-0.52,1.38c-0.38,0.29-0.9,0.38-1.4,0.38c-0.45,0-0.93-0.08-1.24-0.24l0.21-0.72
			c0.22,0.11,0.6,0.23,1,0.23c0.51,0,0.9-0.24,0.9-0.81v-0.2h-0.01c-0.2,0.26-0.54,0.4-0.93,0.4c-0.85,0-1.46-0.61-1.46-1.5
			c0-0.98,0.72-1.61,1.57-1.61c0.47,0,0.77,0.18,0.94,0.43h0.01l0.04-0.36h0.93c-0.01,0.19-0.03,0.45-0.03,0.91V34.36z M48.84,32.98
			c0-0.06-0.01-0.13-0.02-0.18c-0.08-0.25-0.28-0.42-0.58-0.42c-0.39,0-0.7,0.31-0.7,0.87c0,0.46,0.25,0.82,0.7,0.82
			c0.27,0,0.49-0.16,0.56-0.39c0.03-0.07,0.03-0.17,0.03-0.25V32.98z"/>
		<path d="M51.51,31.73l0.28,1.25c0.07,0.31,0.14,0.66,0.2,1.01H52c0.07-0.35,0.17-0.7,0.25-1l0.37-1.26h0.85l0.35,1.22
			c0.09,0.35,0.18,0.69,0.25,1.04h0.01c0.05-0.35,0.12-0.7,0.2-1.05l0.3-1.22h1.05l-1.06,3.07h-1.01l-0.32-1.08
			c-0.08-0.3-0.15-0.57-0.22-0.95H53c-0.06,0.38-0.13,0.67-0.23,0.95l-0.35,1.08h-1.01l-1-3.07H51.51z"/>
		<path d="M58.95,34.05c0,0.29,0.01,0.58,0.05,0.75h-0.97l-0.06-0.31h-0.02c-0.23,0.24-0.58,0.38-0.99,0.38
			c-0.7,0-1.11-0.45-1.11-0.94c0-0.8,0.8-1.18,2.02-1.17v-0.04c0-0.16-0.1-0.4-0.63-0.4c-0.35,0-0.73,0.11-0.95,0.23l-0.2-0.61
			c0.24-0.12,0.71-0.27,1.34-0.27c1.15,0,1.52,0.6,1.52,1.32V34.05z M57.9,33.35c-0.56-0.01-1,0.11-1,0.48
			c0,0.24,0.18,0.36,0.42,0.36c0.27,0,0.49-0.16,0.56-0.35c0.01-0.05,0.02-0.11,0.02-0.16V33.35z"/>
		<path d="M59.79,32.74c0-0.45-0.01-0.75-0.03-1.01h0.92l0.03,0.56h0.03c0.18-0.45,0.6-0.63,0.93-0.63c0.1,0,0.15,0,0.23,0.01v0.9
			c-0.08-0.02-0.17-0.03-0.29-0.03c-0.4,0-0.66,0.19-0.73,0.48c-0.01,0.06-0.02,0.14-0.02,0.21v1.56h-1.07V32.74z"/>
		<path d="M62.47,32.71c0-0.38-0.01-0.71-0.03-0.98h0.93l0.05,0.42h0.02c0.14-0.19,0.49-0.49,1.07-0.49c0.7,0,1.23,0.41,1.23,1.32
			v1.82h-1.07v-1.7c0-0.39-0.15-0.66-0.54-0.66c-0.3,0-0.47,0.18-0.54,0.36c-0.03,0.06-0.04,0.15-0.04,0.24v1.77h-1.07V32.71z"/>
		<path d="M67.42,33.57c0.03,0.4,0.47,0.58,0.97,0.58c0.37,0,0.66-0.04,0.95-0.13l0.14,0.65c-0.35,0.13-0.78,0.19-1.25,0.19
			c-1.17,0-1.84-0.61-1.84-1.57c0-0.78,0.54-1.64,1.74-1.64c1.11,0,1.54,0.77,1.54,1.53c0,0.16-0.02,0.31-0.03,0.38H67.42z
			 M68.69,32.92c0-0.23-0.11-0.62-0.61-0.62c-0.45,0-0.63,0.36-0.66,0.62H68.69z"/>
		<path d="M70.32,32.74c0-0.45-0.01-0.75-0.03-1.01h0.92l0.03,0.56h0.03c0.18-0.45,0.6-0.63,0.93-0.63c0.1,0,0.15,0,0.23,0.01v0.9
			c-0.08-0.02-0.17-0.03-0.29-0.03c-0.4,0-0.66,0.19-0.73,0.48c-0.01,0.06-0.02,0.14-0.02,0.21v1.56h-1.07V32.74z"/>
		<path d="M78.47,33.18c-0.02-0.51-0.04-1.12-0.04-1.74h-0.02c-0.15,0.54-0.35,1.14-0.53,1.64l-0.58,1.65h-0.84l-0.51-1.63
			c-0.15-0.5-0.32-1.1-0.43-1.66h-0.01c-0.03,0.57-0.05,1.22-0.08,1.75l-0.08,1.61h-0.99l0.3-4.23h1.43l0.47,1.41
			c0.15,0.48,0.3,1.02,0.4,1.51h0.02c0.13-0.49,0.3-1.05,0.45-1.52l0.51-1.41h1.4l0.26,4.23h-1.05L78.47,33.18z"/>
		<path d="M83.81,33.23c0,1.12-0.9,1.64-1.82,1.64c-1.01,0-1.78-0.59-1.78-1.58c0-0.99,0.73-1.63,1.84-1.63
			C83.1,31.66,83.81,32.31,83.81,33.23z M81.31,33.26c0,0.53,0.25,0.92,0.7,0.92c0.42,0,0.68-0.37,0.68-0.92
			c0-0.46-0.2-0.92-0.68-0.92C81.5,32.34,81.31,32.81,81.31,33.26z"/>
		<path d="M84.47,30.35h1.07v1.75h0.01c0.2-0.26,0.56-0.43,1.04-0.43c0.82,0,1.43,0.61,1.42,1.55c0,1.1-0.79,1.66-1.58,1.66
			c-0.4,0-0.79-0.13-1.04-0.5h-0.01l-0.04,0.43h-0.91c0.01-0.2,0.03-0.57,0.03-0.92V30.35z M85.54,33.5c0,0.06,0.01,0.12,0.02,0.17
			c0.07,0.26,0.32,0.45,0.63,0.45c0.46,0,0.74-0.31,0.74-0.87c0-0.48-0.24-0.85-0.74-0.85c-0.29,0-0.56,0.19-0.63,0.47
			c-0.01,0.06-0.02,0.11-0.02,0.18V33.5z"/>
		<path d="M89.79,30.88c0,0.26-0.23,0.48-0.58,0.48c-0.34,0-0.57-0.21-0.56-0.48c-0.01-0.28,0.22-0.48,0.56-0.48
			C89.56,30.4,89.78,30.6,89.79,30.88z M88.68,34.8v-3.07h1.07v3.07H88.68z"/>
		<path d="M90.61,30.35h1.07v4.45h-1.07V30.35z"/>
		<path d="M93.66,30.88c0,0.26-0.23,0.48-0.58,0.48c-0.34,0-0.56-0.21-0.56-0.48c-0.01-0.28,0.22-0.48,0.56-0.48
			C93.43,30.4,93.65,30.6,93.66,30.88z M92.55,34.8v-3.07h1.07v3.07H92.55z"/>
		<path d="M95.68,30.9v0.83h0.77v0.7h-0.77v1.11c0,0.37,0.1,0.54,0.42,0.54c0.15,0,0.21-0.01,0.32-0.02l0.01,0.72
			c-0.14,0.05-0.39,0.09-0.7,0.09c-0.35,0-0.63-0.11-0.8-0.27c-0.2-0.18-0.3-0.48-0.3-0.91v-1.26h-0.46v-0.7h0.46v-0.58L95.68,30.9z
			"/>
		<path d="M97.91,31.73l0.52,1.51c0.06,0.18,0.13,0.41,0.17,0.57h0.02c0.05-0.16,0.11-0.4,0.16-0.57l0.42-1.51h1.15l-0.8,2.02
			c-0.49,1.22-0.82,1.71-1.21,2.01c-0.37,0.29-0.77,0.39-1.04,0.42l-0.23-0.81c0.13-0.02,0.3-0.08,0.47-0.16
			c0.16-0.08,0.34-0.23,0.44-0.38c0.03-0.04,0.06-0.09,0.06-0.14c0-0.03-0.01-0.08-0.05-0.16l-1.26-2.8H97.91z"/>
		<path class="st31" d="M23.07,38.1h1.08v3.43h1.89v0.8h-2.97V38.1z"/>
		<path class="st31" d="M26.7,41.39c0.19,0.09,0.63,0.25,1.07,0.25c0.56,0,0.84-0.24,0.84-0.55c0-0.4-0.45-0.58-0.92-0.58h-0.44
			v-0.68h0.42c0.36-0.01,0.82-0.13,0.82-0.47c0-0.24-0.23-0.43-0.68-0.43c-0.37,0-0.77,0.14-0.96,0.24l-0.22-0.69
			c0.27-0.16,0.82-0.31,1.42-0.31c0.98,0,1.52,0.46,1.52,1.02c0,0.43-0.28,0.77-0.84,0.95v0.01c0.55,0.09,0.99,0.46,0.99,0.99
			c0,0.72-0.71,1.25-1.88,1.25c-0.59,0-1.09-0.14-1.36-0.29L26.7,41.39z"/>
		<path d="M33.6,40.35v0.64h-1.85v-0.64H33.6z"/>
		<path d="M38.53,40.54h-1.75v1h1.95v0.78H35.7V38.1h2.93v0.78h-1.85v0.88h1.75V40.54z"/>
		<path d="M42.74,37.87v3.54c0,0.34,0.01,0.71,0.03,0.92h-0.95l-0.05-0.45h-0.01c-0.22,0.34-0.63,0.52-1.08,0.52
			c-0.82,0-1.47-0.62-1.47-1.57c-0.01-1.04,0.72-1.63,1.54-1.63c0.42,0,0.75,0.13,0.91,0.35h0.01v-1.66H42.74z M41.67,40.55
			c0-0.05-0.01-0.12-0.01-0.17c-0.06-0.26-0.3-0.47-0.63-0.47c-0.49,0-0.74,0.39-0.74,0.87c0,0.52,0.29,0.85,0.73,0.85
			c0.31,0,0.56-0.19,0.62-0.46c0.02-0.07,0.03-0.14,0.03-0.22V40.55z"/>
		<path d="M46.85,41.34c0,0.4,0.01,0.73,0.03,0.98h-0.93l-0.05-0.43h-0.02c-0.13,0.19-0.46,0.5-1.08,0.5c-0.7,0-1.21-0.39-1.21-1.34
			v-1.8h1.08v1.65c0,0.45,0.16,0.72,0.54,0.72c0.3,0,0.47-0.18,0.54-0.33c0.03-0.06,0.03-0.13,0.03-0.21v-1.83h1.08V41.34z"/>
		<path d="M47.71,37.87h1.07v1.75h0.01c0.2-0.26,0.56-0.43,1.04-0.43c0.82,0,1.43,0.61,1.42,1.55c0,1.1-0.79,1.66-1.58,1.66
			c-0.4,0-0.79-0.13-1.04-0.5h-0.01l-0.04,0.43h-0.91c0.01-0.2,0.03-0.57,0.03-0.92V37.87z M48.78,41.02c0,0.06,0.01,0.12,0.02,0.17
			c0.07,0.26,0.32,0.45,0.63,0.45c0.46,0,0.74-0.31,0.74-0.87c0-0.48-0.24-0.85-0.74-0.85c-0.29,0-0.56,0.2-0.63,0.47
			c-0.01,0.06-0.02,0.11-0.02,0.18V41.02z"/>
		<path d="M51.92,40.27c0-0.45-0.01-0.75-0.03-1.01h0.92l0.03,0.56h0.03c0.18-0.45,0.6-0.63,0.93-0.63c0.1,0,0.15,0,0.23,0.01v0.9
			c-0.08-0.02-0.17-0.03-0.29-0.03c-0.39,0-0.66,0.19-0.73,0.48c-0.01,0.06-0.02,0.14-0.02,0.21v1.56h-1.07V40.27z"/>
		<path d="M57.95,40.75c0,1.12-0.9,1.64-1.82,1.64c-1.01,0-1.78-0.59-1.78-1.58c0-0.99,0.73-1.63,1.84-1.63
			C57.24,39.19,57.95,39.83,57.95,40.75z M55.45,40.79c0,0.53,0.25,0.92,0.7,0.92c0.42,0,0.68-0.37,0.68-0.92
			c0-0.46-0.2-0.92-0.68-0.92C55.64,39.86,55.45,40.34,55.45,40.79z"/>
		<path d="M59.68,40.55h0.01c0.08-0.13,0.16-0.25,0.25-0.37l0.7-0.92h1.29l-1.23,1.24l1.41,1.83h-1.32l-0.83-1.26l-0.28,0.3v0.96
			h-1.07v-4.45h1.07V40.55z"/>
		<path d="M63.15,41.09c0.03,0.4,0.47,0.58,0.97,0.58c0.37,0,0.66-0.04,0.95-0.13l0.14,0.65c-0.35,0.13-0.78,0.19-1.25,0.19
			c-1.17,0-1.84-0.61-1.84-1.57c0-0.78,0.54-1.64,1.74-1.64c1.11,0,1.54,0.77,1.54,1.53c0,0.16-0.02,0.31-0.03,0.38H63.15z
			 M64.42,40.44c0-0.23-0.11-0.62-0.61-0.62c-0.45,0-0.63,0.36-0.66,0.62H64.42z"/>
		<path d="M66.05,40.27c0-0.45-0.01-0.75-0.03-1.01h0.92l0.03,0.56h0.03c0.18-0.45,0.6-0.63,0.93-0.63c0.1,0,0.15,0,0.23,0.01v0.9
			c-0.08-0.02-0.17-0.03-0.29-0.03c-0.39,0-0.66,0.19-0.73,0.48c-0.01,0.06-0.02,0.14-0.02,0.21v1.56h-1.07V40.27z"/>
		<path class="st31" d="M23.07,45.62h1.08v3.43h1.89v0.8h-2.97V45.62z"/>
		<path class="st31" d="M28.4,49.85v-0.97h-2.03v-0.62l1.74-2.48h1.31v2.39h0.55v0.71h-0.55v0.97H28.4z M28.4,48.16v-0.9
			c0-0.24,0.01-0.5,0.04-0.76h-0.03c-0.15,0.26-0.27,0.5-0.42,0.76l-0.61,0.89v0.01H28.4z"/>
		<path d="M33.6,47.88v0.64h-1.85v-0.64H33.6z"/>
		<path d="M36.77,45.62v2.43c0,0.73,0.31,1.1,0.86,1.1c0.56,0,0.87-0.35,0.87-1.1v-2.43h1.07v2.37c0,1.3-0.74,1.93-1.98,1.93
			c-1.2,0-1.9-0.59-1.9-1.94v-2.36H36.77z"/>
		<path d="M40.47,47.76c0-0.38-0.01-0.71-0.03-0.98h0.93l0.05,0.42h0.02c0.14-0.19,0.49-0.49,1.07-0.49c0.7,0,1.23,0.41,1.23,1.32
			v1.82h-1.07v-1.7c0-0.39-0.15-0.66-0.54-0.66c-0.3,0-0.47,0.18-0.54,0.36c-0.03,0.06-0.04,0.15-0.04,0.24v1.77h-1.07V47.76z"/>
		<path d="M45.71,45.93c0,0.26-0.23,0.48-0.58,0.48c-0.34,0-0.56-0.21-0.56-0.48c-0.01-0.28,0.22-0.48,0.56-0.48
			S45.7,45.65,45.71,45.93z M44.6,49.85v-3.07h1.07v3.07H44.6z"/>
		<path d="M47.73,45.94v0.83h0.77v0.7h-0.77v1.11c0,0.37,0.1,0.54,0.42,0.54c0.15,0,0.21-0.01,0.32-0.02l0.01,0.72
			c-0.14,0.05-0.39,0.09-0.7,0.09c-0.35,0-0.63-0.11-0.8-0.27c-0.2-0.18-0.3-0.48-0.3-0.91v-1.26h-0.46v-0.7h0.46V46.2L47.73,45.94z
			"/>
		<path d="M49.73,47.74c-0.44-0.2-0.66-0.53-0.66-0.89c0-0.69,0.7-1.15,1.62-1.15c1.07,0,1.52,0.55,1.52,1.05
			c0,0.35-0.21,0.7-0.66,0.9v0.02c0.44,0.15,0.84,0.49,0.84,1.02c0,0.74-0.7,1.24-1.76,1.24c-1.16,0-1.7-0.58-1.7-1.14
			c0-0.49,0.32-0.83,0.82-1.02V47.74z M51.28,48.75c0-0.36-0.3-0.57-0.72-0.67c-0.35,0.09-0.56,0.31-0.56,0.61
			c-0.01,0.29,0.25,0.57,0.65,0.57C51.03,49.26,51.28,49.04,51.28,48.75z M50.08,46.82c0,0.28,0.28,0.45,0.65,0.55
			c0.25-0.06,0.47-0.26,0.47-0.52c0-0.25-0.16-0.5-0.56-0.5C50.27,46.35,50.08,46.56,50.08,46.82z"/>
		<path class="st31" d="M23.07,53.14h1.08v3.43h1.89v0.8h-2.97V53.14z"/>
		<path class="st31" d="M29.57,54.08h-1.78l-0.1,0.63c0.1-0.01,0.18-0.01,0.3-0.01c0.44,0,0.88,0.09,1.21,0.29
			c0.35,0.21,0.56,0.55,0.56,1.02c0,0.76-0.73,1.43-1.97,1.43c-0.56,0-1.02-0.11-1.28-0.23l0.19-0.72c0.2,0.09,0.62,0.2,1.04,0.2
			c0.44,0,0.92-0.19,0.92-0.62c0-0.42-0.37-0.68-1.29-0.68c-0.25,0-0.43,0.01-0.62,0.04l0.3-2.14h2.53V54.08z"/>
		<path d="M33.6,55.4v0.64h-1.85V55.4H33.6z"/>
		<path d="M38.53,55.58h-1.75v1h1.95v0.78H35.7v-4.23h2.93v0.78h-1.85v0.88h1.75V55.58z"/>
		<path d="M39.46,53.2c0.28-0.05,0.85-0.09,1.39-0.09c0.66,0,1.06,0.06,1.4,0.24c0.33,0.16,0.57,0.45,0.57,0.83
			c0,0.38-0.25,0.73-0.78,0.9v0.01c0.54,0.13,0.94,0.5,0.94,1.04c0,0.38-0.2,0.68-0.49,0.9c-0.35,0.24-0.92,0.38-1.87,0.38
			c-0.53,0-0.92-0.03-1.16-0.06V53.2z M40.53,54.82h0.35c0.56,0,0.87-0.21,0.87-0.52c0-0.32-0.27-0.49-0.76-0.49
			c-0.23,0-0.37,0.01-0.46,0.03V54.82z M40.53,56.69c0.1,0.01,0.23,0.01,0.42,0.01c0.49,0,0.92-0.17,0.92-0.61
			c0-0.43-0.43-0.6-0.97-0.6h-0.37V56.69z"/>
		<path d="M43.72,53.2c0.4-0.06,0.91-0.09,1.45-0.09c0.9,0,1.49,0.14,1.95,0.45c0.49,0.33,0.8,0.85,0.8,1.59
			c0,0.81-0.33,1.37-0.79,1.71c-0.5,0.37-1.26,0.55-2.19,0.55c-0.56,0-0.95-0.03-1.22-0.06V53.2z M44.8,56.65
			c0.09,0.02,0.24,0.02,0.37,0.02c0.97,0.01,1.61-0.47,1.61-1.48c0.01-0.88-0.57-1.34-1.49-1.34c-0.24,0-0.4,0.02-0.49,0.04V56.65z"
			/>
		<path d="M54.02,57.18c-0.33,0.1-0.96,0.24-1.59,0.24c-0.87,0-1.49-0.19-1.93-0.57c-0.44-0.36-0.68-0.92-0.67-1.54
			c0.01-1.4,1.16-2.21,2.71-2.21c0.61,0,1.09,0.11,1.32,0.21l-0.23,0.77c-0.26-0.1-0.59-0.18-1.11-0.18c-0.9,0-1.57,0.45-1.57,1.37
			c0,0.87,0.61,1.39,1.49,1.39c0.25,0,0.44-0.03,0.53-0.06V55.7h-0.73v-0.75h1.77V57.18z"/>
		<path d="M54.84,55.31c0-0.45-0.01-0.75-0.03-1.01h0.92l0.03,0.56h0.03c0.18-0.45,0.6-0.63,0.93-0.63c0.1,0,0.15,0,0.23,0.01v0.9
			c-0.08-0.02-0.17-0.03-0.29-0.03c-0.39,0-0.66,0.19-0.73,0.48c-0.01,0.06-0.02,0.14-0.02,0.21v1.56h-1.07V55.31z"/>
		<path d="M60.86,55.8c0,1.12-0.9,1.64-1.82,1.64c-1.01,0-1.78-0.59-1.78-1.58c0-0.99,0.73-1.63,1.84-1.63
			C60.16,54.23,60.86,54.88,60.86,55.8z M58.37,55.83c0,0.53,0.25,0.92,0.7,0.92c0.42,0,0.68-0.37,0.68-0.92
			c0-0.46-0.2-0.92-0.68-0.92C58.56,54.91,58.37,55.38,58.37,55.83z"/>
		<path d="M64.78,56.39c0,0.4,0.01,0.73,0.03,0.98h-0.93l-0.05-0.43H63.8c-0.13,0.19-0.46,0.5-1.08,0.5c-0.7,0-1.21-0.39-1.21-1.34
			v-1.8h1.08v1.65c0,0.45,0.16,0.72,0.54,0.72c0.3,0,0.47-0.18,0.54-0.33c0.03-0.06,0.03-0.13,0.03-0.21V54.3h1.08V56.39z"/>
		<path d="M65.63,55.33c0-0.4-0.01-0.75-0.03-1.03h0.93l0.05,0.43h0.01c0.25-0.33,0.65-0.5,1.15-0.5c0.75,0,1.43,0.58,1.43,1.56
			c0,1.12-0.8,1.64-1.57,1.64c-0.42,0-0.74-0.15-0.9-0.35H66.7v1.52h-1.07V55.33z M66.7,56.05c0,0.08,0.01,0.14,0.02,0.2
			c0.07,0.26,0.32,0.45,0.63,0.45c0.47,0,0.74-0.35,0.74-0.87c0-0.49-0.25-0.86-0.73-0.86c-0.3,0-0.57,0.2-0.64,0.48
			c-0.01,0.05-0.02,0.11-0.02,0.17V56.05z"/>
		<path class="st31" d="M23.07,60.66h1.08v3.43h1.89v0.8h-2.97V60.66z"/>
		<path class="st31" d="M29.43,61.49c-0.12,0-0.25,0-0.42,0.01c-0.95,0.07-1.37,0.5-1.49,0.98h0.02c0.23-0.21,0.54-0.33,0.97-0.33
			c0.77,0,1.42,0.48,1.42,1.33c0,0.81-0.7,1.47-1.69,1.47c-1.22,0-1.82-0.81-1.82-1.78c0-0.77,0.32-1.4,0.81-1.81
			c0.46-0.37,1.05-0.57,1.77-0.6c0.2-0.01,0.32-0.01,0.43-0.01V61.49z M28.23,64.26c0.37,0,0.61-0.31,0.61-0.72
			c0-0.38-0.23-0.7-0.68-0.7c-0.29,0-0.53,0.16-0.63,0.36c-0.03,0.05-0.04,0.13-0.04,0.24C27.51,63.87,27.74,64.26,28.23,64.26
			L28.23,64.26z"/>
		<path d="M33.6,62.92v0.64h-1.85v-0.64H33.6z"/>
		<path d="M35.7,60.72c0.4-0.06,0.91-0.09,1.45-0.09c0.9,0,1.49,0.14,1.95,0.45c0.49,0.33,0.8,0.85,0.8,1.59
			c0,0.81-0.33,1.37-0.79,1.71c-0.5,0.37-1.26,0.55-2.19,0.55c-0.56,0-0.95-0.03-1.22-0.06V60.72z M36.78,64.17
			c0.09,0.02,0.24,0.02,0.37,0.02c0.97,0.01,1.61-0.47,1.61-1.48c0.01-0.88-0.57-1.34-1.49-1.34c-0.24,0-0.4,0.02-0.49,0.04V64.17z"
			/>
		<path d="M43.45,64.15c0,0.29,0.01,0.58,0.05,0.75h-0.97l-0.06-0.31h-0.02c-0.23,0.24-0.58,0.38-0.99,0.38
			c-0.7,0-1.11-0.45-1.11-0.94c0-0.8,0.8-1.18,2.02-1.17V62.8c0-0.16-0.1-0.4-0.63-0.4c-0.35,0-0.73,0.11-0.95,0.23l-0.2-0.61
			c0.24-0.12,0.71-0.27,1.34-0.27c1.15,0,1.52,0.6,1.52,1.32V64.15z M42.4,63.44c-0.56-0.01-1,0.11-1,0.48
			c0,0.24,0.18,0.36,0.42,0.36c0.27,0,0.49-0.16,0.56-0.35c0.01-0.05,0.02-0.11,0.02-0.16V63.44z"/>
		<path d="M44.28,64.06c0.2,0.11,0.61,0.23,0.92,0.23c0.32,0,0.46-0.1,0.46-0.26c0-0.16-0.11-0.23-0.51-0.35
			c-0.71-0.21-0.99-0.56-0.98-0.92c0-0.58,0.55-1.01,1.4-1.01c0.4,0,0.76,0.08,0.97,0.18l-0.19,0.66c-0.15-0.08-0.45-0.18-0.75-0.18
			c-0.26,0-0.41,0.09-0.41,0.25c0,0.14,0.13,0.22,0.56,0.35c0.66,0.2,0.93,0.5,0.94,0.95c0,0.57-0.51,1-1.49,1
			c-0.45,0-0.85-0.09-1.11-0.22L44.28,64.06z"/>
		<path d="M47.34,64.06c0.2,0.11,0.61,0.23,0.92,0.23c0.32,0,0.46-0.1,0.46-0.26c0-0.16-0.11-0.23-0.51-0.35
			c-0.71-0.21-0.99-0.56-0.98-0.92c0-0.58,0.55-1.01,1.4-1.01c0.4,0,0.76,0.08,0.97,0.18l-0.19,0.66c-0.15-0.08-0.45-0.18-0.75-0.18
			c-0.26,0-0.41,0.09-0.41,0.25c0,0.14,0.13,0.22,0.56,0.35c0.66,0.2,0.93,0.5,0.94,0.95c0,0.57-0.51,1-1.49,1
			c-0.45,0-0.85-0.09-1.11-0.22L47.34,64.06z"/>
		<path d="M53.28,64.15c0,0.29,0.01,0.58,0.05,0.75h-0.97l-0.06-0.31h-0.02c-0.23,0.24-0.58,0.38-0.99,0.38
			c-0.7,0-1.11-0.45-1.11-0.94c0-0.8,0.8-1.18,2.02-1.17V62.8c0-0.16-0.1-0.4-0.63-0.4c-0.35,0-0.73,0.11-0.95,0.23l-0.2-0.61
			c0.24-0.12,0.71-0.27,1.34-0.27c1.15,0,1.52,0.6,1.52,1.32V64.15z M52.24,63.44c-0.56-0.01-1,0.11-1,0.48
			c0,0.24,0.18,0.36,0.42,0.36c0.27,0,0.49-0.16,0.56-0.35c0.01-0.05,0.02-0.11,0.02-0.16V63.44z"/>
		<path d="M57.38,63.91c0,0.4,0.01,0.73,0.03,0.98h-0.93l-0.05-0.43H56.4c-0.13,0.19-0.46,0.5-1.08,0.5c-0.7,0-1.21-0.39-1.21-1.34
			v-1.8h1.08v1.65c0,0.45,0.16,0.72,0.54,0.72c0.3,0,0.47-0.18,0.54-0.33c0.03-0.06,0.03-0.13,0.03-0.21v-1.83h1.08V63.91z"/>
		<path d="M58.24,60.44h1.07v4.45h-1.07V60.44z"/>
		<path d="M61.37,60.99v0.83h0.77v0.7h-0.77v1.11c0,0.37,0.1,0.54,0.42,0.54c0.15,0,0.21-0.01,0.32-0.02l0.01,0.72
			c-0.14,0.05-0.39,0.09-0.7,0.09c-0.35,0-0.63-0.11-0.8-0.27c-0.2-0.18-0.3-0.48-0.3-0.91v-1.26h-0.46v-0.7h0.46v-0.58L61.37,60.99
			z"/>
		<path d="M64.25,63.91c0.29,0.13,0.73,0.26,1.19,0.26c0.49,0,0.75-0.18,0.75-0.46c0-0.26-0.23-0.41-0.8-0.6
			c-0.79-0.24-1.3-0.63-1.3-1.25c0-0.72,0.68-1.27,1.8-1.27c0.54,0,0.93,0.1,1.21,0.21l-0.24,0.77c-0.19-0.08-0.53-0.2-0.99-0.2
			s-0.69,0.19-0.69,0.41c0,0.27,0.27,0.39,0.88,0.6c0.84,0.28,1.23,0.66,1.23,1.26c0,0.71-0.61,1.32-1.92,1.32
			c-0.54,0-1.08-0.13-1.35-0.26L64.25,63.91z"/>
		<path d="M68.69,61.83l0.52,1.51c0.06,0.18,0.13,0.41,0.17,0.57h0.02c0.05-0.16,0.11-0.4,0.16-0.57l0.42-1.51h1.15l-0.8,2.02
			c-0.49,1.22-0.82,1.71-1.21,2.01c-0.37,0.29-0.77,0.39-1.04,0.42l-0.23-0.81c0.13-0.02,0.3-0.08,0.47-0.16
			c0.16-0.08,0.34-0.23,0.44-0.38c0.03-0.04,0.06-0.09,0.06-0.14c0-0.03-0.01-0.08-0.05-0.16l-1.26-2.8H68.69z"/>
		<path d="M71.45,64.06c0.2,0.11,0.61,0.23,0.92,0.23c0.32,0,0.46-0.1,0.46-0.26c0-0.16-0.11-0.23-0.51-0.35
			c-0.71-0.21-0.99-0.56-0.98-0.92c0-0.58,0.55-1.01,1.4-1.01c0.4,0,0.76,0.08,0.97,0.18l-0.19,0.66c-0.15-0.08-0.45-0.18-0.75-0.18
			c-0.26,0-0.41,0.09-0.41,0.25c0,0.14,0.13,0.22,0.56,0.35c0.66,0.2,0.93,0.5,0.94,0.95c0,0.57-0.51,1-1.49,1
			c-0.45,0-0.85-0.09-1.11-0.22L71.45,64.06z"/>
		<path d="M75.71,60.99v0.83h0.77v0.7h-0.77v1.11c0,0.37,0.1,0.54,0.42,0.54c0.15,0,0.21-0.01,0.32-0.02l0.01,0.72
			c-0.14,0.05-0.39,0.09-0.7,0.09c-0.35,0-0.63-0.11-0.8-0.27c-0.2-0.18-0.3-0.48-0.3-0.91v-1.26H74.2v-0.7h0.46v-0.58L75.71,60.99z
			"/>
		<path d="M77.89,63.66c0.03,0.4,0.47,0.58,0.97,0.58c0.37,0,0.66-0.04,0.95-0.13l0.14,0.65c-0.35,0.13-0.78,0.19-1.25,0.19
			c-1.17,0-1.84-0.61-1.84-1.57c0-0.78,0.54-1.64,1.74-1.64c1.11,0,1.54,0.77,1.54,1.53c0,0.16-0.02,0.31-0.03,0.38H77.89z
			 M79.15,63.01c0-0.23-0.11-0.62-0.61-0.62c-0.45,0-0.63,0.36-0.66,0.62H79.15z"/>
		<path d="M80.79,62.8c0-0.38-0.01-0.71-0.03-0.98h0.9l0.05,0.41h0.02c0.15-0.19,0.45-0.48,1.04-0.48c0.44,0,0.8,0.2,0.95,0.52h0.01
			c0.13-0.16,0.28-0.28,0.44-0.37c0.19-0.1,0.4-0.15,0.66-0.15c0.66,0,1.16,0.41,1.16,1.33v1.81h-1.04v-1.67
			c0-0.45-0.16-0.7-0.51-0.7c-0.25,0-0.42,0.15-0.49,0.33c-0.03,0.07-0.04,0.17-0.04,0.24v1.79h-1.04v-1.72
			c0-0.39-0.15-0.65-0.49-0.65c-0.28,0-0.44,0.19-0.5,0.34c-0.03,0.08-0.04,0.16-0.04,0.24v1.79h-1.04V62.8z"/>
		<path d="M86.84,64.06c0.2,0.11,0.61,0.23,0.92,0.23c0.32,0,0.46-0.1,0.46-0.26c0-0.16-0.11-0.23-0.51-0.35
			c-0.71-0.21-0.99-0.56-0.98-0.92c0-0.58,0.55-1.01,1.4-1.01c0.4,0,0.76,0.08,0.97,0.18l-0.19,0.66c-0.15-0.08-0.45-0.18-0.75-0.18
			c-0.26,0-0.41,0.09-0.41,0.25c0,0.14,0.13,0.22,0.56,0.35c0.66,0.2,0.93,0.5,0.94,0.95c0,0.57-0.51,1-1.49,1
			c-0.45,0-0.85-0.09-1.11-0.22L86.84,64.06z"/>
		<path class="st31" d="M23.07,68.19h1.08v3.43h1.89v0.8h-2.97V68.19z"/>
		<path class="st31" d="M29.79,68.34v0.6l-1.89,3.47h-1.14l1.89-3.28v-0.01h-2.1v-0.78H29.79z"/>
		<path d="M33.6,70.45v0.64h-1.85v-0.64H33.6z"/>
		<path d="M36.81,71.33l-0.34,1.09h-1.11l1.45-4.23h1.41l1.47,4.23h-1.16l-0.37-1.09H36.81z M38.01,70.62l-0.3-0.9
			c-0.08-0.25-0.17-0.56-0.24-0.82h-0.01c-0.07,0.25-0.14,0.57-0.22,0.82l-0.28,0.9H38.01z"/>
		<path d="M40.32,72.42v-4.23h1.26l0.99,1.55c0.28,0.45,0.56,0.97,0.78,1.45h0.02c-0.07-0.56-0.09-1.13-0.09-1.77v-1.23h0.99v4.23
			h-1.13l-1.02-1.63c-0.28-0.45-0.59-1-0.82-1.49l-0.02,0.01c0.03,0.56,0.04,1.15,0.04,1.84v1.27H40.32z"/>
		<path d="M46.1,68.99h-1.28v-0.8h3.65v0.8h-1.3v3.43H46.1V68.99z"/>
		<path class="st32" d="M23.07,75.71h1.08v3.43h1.89v0.8h-2.97V75.71z"/>
		<path class="st32" d="M27.25,77.83c-0.44-0.2-0.66-0.53-0.66-0.89c0-0.69,0.7-1.15,1.62-1.15c1.07,0,1.52,0.55,1.52,1.05
			c0,0.35-0.21,0.7-0.66,0.9v0.02c0.44,0.15,0.84,0.49,0.84,1.02c0,0.74-0.7,1.24-1.76,1.24c-1.16,0-1.7-0.58-1.7-1.14
			c0-0.49,0.32-0.83,0.82-1.02V77.83z M28.8,78.84c0-0.36-0.3-0.57-0.72-0.67c-0.35,0.09-0.56,0.31-0.56,0.61
			c-0.01,0.29,0.25,0.57,0.65,0.57C28.56,79.35,28.8,79.13,28.8,78.84z M27.6,76.91c0,0.28,0.28,0.45,0.65,0.55
			c0.25-0.06,0.47-0.26,0.47-0.52c0-0.25-0.16-0.5-0.56-0.5C27.79,76.44,27.6,76.65,27.6,76.91z"/>
		<path d="M33.6,77.97v0.64h-1.85v-0.64H33.6z"/>
		<path d="M38.53,78.15h-1.75v1h1.95v0.78H35.7v-4.23h2.93v0.78h-1.85v0.88h1.75V78.15z"/>
		<path d="M39.5,78.95c0.29,0.13,0.73,0.26,1.19,0.26c0.49,0,0.75-0.18,0.75-0.46c0-0.26-0.23-0.41-0.8-0.6
			c-0.79-0.24-1.3-0.63-1.3-1.25c0-0.72,0.68-1.27,1.8-1.27c0.54,0,0.93,0.1,1.21,0.21l-0.24,0.77c-0.19-0.08-0.53-0.2-0.99-0.2
			s-0.69,0.19-0.69,0.41c0,0.27,0.27,0.39,0.88,0.6c0.84,0.28,1.23,0.66,1.23,1.26c0,0.71-0.61,1.32-1.92,1.32
			c-0.54,0-1.08-0.13-1.35-0.26L39.5,78.95z"/>
		<path d="M46.1,78.15h-1.75v1h1.95v0.78h-3.03v-4.23h2.93v0.78h-1.85v0.88h1.75V78.15z"/>
		<path d="M47.98,76.51h-1.28v-0.8h3.65v0.8h-1.3v3.43h-1.08V76.51z"/>
		<path class="st32" d="M23.07,83.23h1.08v3.43h1.89v0.8h-2.97V83.23z"/>
		<path class="st32" d="M26.84,86.77c0.13,0.01,0.25,0.01,0.47,0c0.32-0.02,0.66-0.1,0.9-0.25c0.3-0.18,0.49-0.45,0.58-0.75
			l-0.02-0.01c-0.2,0.19-0.5,0.3-0.92,0.3c-0.78,0-1.43-0.48-1.43-1.27c0-0.8,0.72-1.47,1.73-1.47c1.18,0,1.74,0.8,1.74,1.76
			c0,0.85-0.3,1.47-0.8,1.88c-0.44,0.35-1.04,0.55-1.75,0.57c-0.18,0.01-0.37,0.01-0.49,0V86.77z M28.11,84.01
			c-0.36,0-0.63,0.29-0.62,0.72c0,0.35,0.21,0.65,0.65,0.65c0.29,0,0.49-0.13,0.59-0.27c0.04-0.06,0.06-0.12,0.06-0.24
			C28.79,84.44,28.61,84.01,28.11,84.01L28.11,84.01z"/>
		<path d="M33.6,85.49v0.64h-1.85v-0.64H33.6z"/>
		<path d="M35.7,83.29c0.4-0.06,0.91-0.09,1.45-0.09c0.9,0,1.49,0.14,1.95,0.45c0.49,0.33,0.8,0.85,0.8,1.59
			c0,0.81-0.33,1.37-0.79,1.71c-0.5,0.37-1.26,0.55-2.19,0.55c-0.56,0-0.95-0.03-1.22-0.06V83.29z M36.78,86.74
			c0.09,0.02,0.24,0.02,0.37,0.02c0.97,0.01,1.61-0.47,1.61-1.48c0.01-0.88-0.57-1.34-1.49-1.34c-0.24,0-0.4,0.02-0.49,0.04V86.74z"
			/>
		<path d="M43.45,86.72c0,0.29,0.01,0.58,0.05,0.75h-0.97l-0.06-0.31h-0.02c-0.23,0.24-0.58,0.38-0.99,0.38
			c-0.7,0-1.11-0.45-1.11-0.94c0-0.8,0.8-1.18,2.02-1.17v-0.04c0-0.16-0.1-0.4-0.63-0.4c-0.35,0-0.73,0.11-0.95,0.23l-0.2-0.61
			c0.24-0.12,0.71-0.27,1.34-0.27c1.15,0,1.52,0.6,1.52,1.32V86.72z M42.4,86.01c-0.56-0.01-1,0.11-1,0.48
			c0,0.24,0.18,0.36,0.42,0.36c0.27,0,0.49-0.16,0.56-0.35c0.01-0.05,0.02-0.11,0.02-0.16V86.01z"/>
		<path d="M44.29,85.37c0-0.38-0.01-0.71-0.03-0.98h0.93l0.05,0.42h0.02c0.14-0.19,0.49-0.49,1.07-0.49c0.7,0,1.23,0.41,1.23,1.32
			v1.82h-1.07v-1.7c0-0.39-0.15-0.66-0.54-0.66c-0.3,0-0.47,0.18-0.54,0.36c-0.03,0.06-0.04,0.15-0.04,0.24v1.77h-1.07V85.37z"/>
		<path d="M53.37,87.34c-0.2,0.09-0.64,0.19-1.22,0.19c-1.64,0-2.49-0.92-2.49-2.12c0-1.44,1.16-2.25,2.6-2.25
			c0.56,0,0.98,0.1,1.17,0.19l-0.22,0.76c-0.22-0.08-0.52-0.16-0.9-0.16c-0.85,0-1.52,0.46-1.52,1.4c0,0.85,0.56,1.38,1.52,1.38
			c0.32,0,0.68-0.06,0.9-0.14L53.37,87.34z"/>
		<path d="M56.84,86.72c0,0.29,0.01,0.58,0.05,0.75h-0.97l-0.06-0.31h-0.02c-0.23,0.24-0.58,0.38-0.99,0.38
			c-0.7,0-1.11-0.45-1.11-0.94c0-0.8,0.8-1.18,2.02-1.17v-0.04c0-0.16-0.1-0.4-0.63-0.4c-0.35,0-0.73,0.11-0.95,0.23l-0.2-0.61
			c0.24-0.12,0.71-0.27,1.34-0.27c1.15,0,1.52,0.6,1.52,1.32V86.72z M55.8,86.01c-0.56-0.01-1,0.11-1,0.48
			c0,0.24,0.18,0.36,0.42,0.36c0.27,0,0.49-0.16,0.56-0.35c0.01-0.05,0.02-0.11,0.02-0.16V86.01z"/>
		<path d="M58.76,85.69h0.01c0.08-0.13,0.16-0.25,0.25-0.37l0.7-0.92h1.29l-1.23,1.24l1.41,1.83h-1.32l-0.83-1.26l-0.28,0.3v0.96
			h-1.07v-4.45h1.07V85.69z"/>
		<path d="M62.23,86.23c0.03,0.4,0.47,0.58,0.97,0.58c0.37,0,0.66-0.04,0.95-0.13l0.14,0.65c-0.35,0.13-0.78,0.19-1.25,0.19
			c-1.17,0-1.84-0.61-1.84-1.57c0-0.78,0.54-1.64,1.74-1.64c1.11,0,1.54,0.77,1.54,1.53c0,0.16-0.02,0.31-0.03,0.38H62.23z
			 M63.49,85.58c0-0.23-0.11-0.62-0.61-0.62c-0.45,0-0.63,0.36-0.66,0.62H63.49z"/>
		<path class="st32" d="M23.07,90.76h1.08v3.43h1.89v0.8h-2.97V90.76z"/>
		<path class="st32" d="M27.87,91.76h-0.01l-0.87,0.37l-0.18-0.72l1.21-0.5h0.89v4.08h-1.04V91.76z"/>
		<path class="st32" d="M33.8,92.93c0,1.26-0.57,2.13-1.74,2.13c-1.18,0-1.71-0.95-1.71-2.1c0-1.18,0.56-2.11,1.75-2.11
			C33.32,90.84,33.8,91.81,33.8,92.93z M31.42,92.95c-0.01,0.93,0.25,1.38,0.66,1.38c0.42,0,0.64-0.46,0.64-1.39
			c0-0.9-0.22-1.38-0.65-1.38C31.69,91.56,31.42,92.01,31.42,92.95z"/>
		<path d="M37.51,93.02v0.64h-1.85v-0.64H37.51z"/>
		<path d="M43.1,94.87c-0.2,0.09-0.64,0.19-1.22,0.19c-1.64,0-2.49-0.92-2.49-2.12c0-1.44,1.16-2.25,2.6-2.25
			c0.56,0,0.98,0.1,1.17,0.19l-0.22,0.76c-0.22-0.08-0.52-0.16-0.9-0.16c-0.85,0-1.52,0.46-1.52,1.4c0,0.85,0.56,1.38,1.52,1.38
			c0.32,0,0.68-0.06,0.9-0.14L43.1,94.87z"/>
		<path d="M47.04,93.42c0,1.12-0.9,1.64-1.82,1.64c-1.01,0-1.78-0.59-1.78-1.58c0-0.99,0.73-1.63,1.84-1.63
			C46.34,91.85,47.04,92.5,47.04,93.42z M44.54,93.45c0,0.53,0.25,0.92,0.7,0.92c0.42,0,0.68-0.37,0.68-0.92
			c0-0.46-0.2-0.92-0.68-0.92C44.73,92.53,44.54,93,44.54,93.45z"/>
		<path d="M47.7,92.9c0-0.38-0.01-0.71-0.03-0.98h0.9l0.05,0.41h0.02c0.15-0.19,0.45-0.48,1.04-0.48c0.44,0,0.8,0.2,0.95,0.52h0.01
			c0.13-0.16,0.28-0.28,0.44-0.37c0.19-0.1,0.4-0.15,0.66-0.15c0.66,0,1.16,0.41,1.16,1.33v1.81h-1.04v-1.67
			c0-0.45-0.16-0.7-0.51-0.7c-0.25,0-0.42,0.15-0.49,0.33c-0.03,0.07-0.04,0.17-0.04,0.24v1.79h-1.04v-1.72
			c0-0.39-0.15-0.65-0.49-0.65c-0.28,0-0.44,0.19-0.5,0.34c-0.03,0.08-0.04,0.16-0.04,0.24v1.79H47.7V92.9z"/>
		<path d="M56.64,94.24c0,0.29,0.01,0.58,0.05,0.75h-0.97l-0.06-0.31h-0.02c-0.23,0.24-0.58,0.38-0.99,0.38
			c-0.7,0-1.11-0.45-1.11-0.94c0-0.8,0.8-1.18,2.02-1.17V92.9c0-0.16-0.1-0.4-0.63-0.4c-0.35,0-0.73,0.11-0.95,0.23l-0.2-0.61
			c0.24-0.12,0.71-0.27,1.34-0.27c1.15,0,1.52,0.6,1.52,1.32V94.24z M55.59,93.54c-0.56-0.01-1,0.11-1,0.48
			c0,0.24,0.18,0.36,0.42,0.36c0.27,0,0.49-0.16,0.56-0.35c0.01-0.05,0.02-0.11,0.02-0.16V93.54z"/>
		<path d="M57.48,92.93c0-0.45-0.01-0.75-0.03-1.01h0.92l0.03,0.56h0.03c0.18-0.45,0.6-0.63,0.93-0.63c0.1,0,0.15,0,0.23,0.01v0.9
			c-0.08-0.02-0.17-0.03-0.29-0.03c-0.4,0-0.66,0.19-0.73,0.48c-0.01,0.06-0.02,0.14-0.02,0.21v1.56h-1.07V92.93z"/>
		<path d="M62.69,94.91c-0.19,0.08-0.55,0.14-0.96,0.14c-1.11,0-1.83-0.61-1.83-1.57c0-0.9,0.69-1.63,1.97-1.63
			c0.28,0,0.59,0.04,0.82,0.12l-0.17,0.71c-0.13-0.05-0.32-0.09-0.6-0.09c-0.56,0-0.93,0.36-0.92,0.86c0,0.56,0.42,0.86,0.94,0.86
			c0.25,0,0.45-0.04,0.61-0.1L62.69,94.91z"/>
		<path d="M63.28,90.53h1.07v1.75h0.01c0.11-0.13,0.25-0.24,0.42-0.31c0.16-0.08,0.36-0.12,0.56-0.12c0.68,0,1.21,0.42,1.21,1.34
			v1.79h-1.07V93.3c0-0.4-0.15-0.68-0.56-0.68c-0.28,0-0.46,0.16-0.54,0.33c-0.03,0.06-0.04,0.14-0.04,0.21v1.82h-1.07V90.53z"/>
		<path class="st32" d="M23.07,98.28h1.08v3.43h1.89v0.8h-2.97V98.28z"/>
		<path class="st32" d="M27.87,99.28h-0.01l-0.87,0.37l-0.18-0.72l1.21-0.5h0.89v4.08h-1.04V99.28z"/>
		<path class="st32" d="M31.78,99.28h-0.01l-0.87,0.37l-0.18-0.72l1.21-0.5h0.89v4.08h-1.04V99.28z"/>
		<path d="M37.51,100.54v0.64h-1.85v-0.64H37.51z"/>
		<path d="M39.61,102.51v-4.23h1.26l0.99,1.55c0.28,0.45,0.56,0.97,0.78,1.45h0.02c-0.07-0.56-0.09-1.13-0.09-1.77v-1.23h0.99v4.23
			h-1.13l-1.02-1.63c-0.28-0.45-0.59-1-0.82-1.49l-0.02,0.01c0.03,0.56,0.04,1.15,0.04,1.84v1.27H39.61z"/>
		<path d="M47.82,100.94c0,1.12-0.9,1.64-1.82,1.64c-1.01,0-1.78-0.59-1.78-1.58c0-0.99,0.73-1.63,1.84-1.63
			C47.12,99.37,47.82,100.02,47.82,100.94z M45.33,100.97c0,0.53,0.25,0.92,0.7,0.92c0.42,0,0.68-0.37,0.68-0.92
			c0-0.46-0.2-0.92-0.68-0.92C45.52,100.05,45.33,100.52,45.33,100.97z"/>
		<path d="M48.48,100.45c0-0.45-0.01-0.75-0.03-1.01h0.92l0.03,0.56h0.03c0.18-0.45,0.6-0.63,0.93-0.63c0.1,0,0.15,0,0.23,0.01v0.9
			c-0.08-0.02-0.17-0.03-0.29-0.03c-0.39,0-0.66,0.19-0.73,0.48c-0.01,0.06-0.02,0.14-0.02,0.21v1.56h-1.07V100.45z"/>
		<path d="M54.45,98.06v3.54c0,0.34,0.01,0.71,0.03,0.92h-0.95l-0.05-0.45h-0.01c-0.22,0.34-0.63,0.52-1.08,0.52
			c-0.82,0-1.47-0.62-1.47-1.57c-0.01-1.04,0.72-1.63,1.54-1.63c0.42,0,0.75,0.13,0.91,0.35h0.01v-1.66H54.45z M53.37,100.74
			c0-0.05-0.01-0.12-0.01-0.17c-0.06-0.26-0.3-0.47-0.63-0.47c-0.49,0-0.74,0.39-0.74,0.87c0,0.52,0.29,0.85,0.73,0.85
			c0.31,0,0.56-0.19,0.62-0.46c0.02-0.07,0.03-0.14,0.03-0.22V100.74z"/>
		<path d="M56.41,98.59c0,0.26-0.23,0.48-0.58,0.48c-0.34,0-0.56-0.21-0.56-0.48c-0.01-0.28,0.22-0.48,0.56-0.48
			C56.19,98.11,56.4,98.31,56.41,98.59z M55.3,102.51v-3.07h1.07v3.07H55.3z"/>
		<path d="M59.82,102.43c-0.19,0.08-0.55,0.14-0.96,0.14c-1.11,0-1.83-0.61-1.83-1.57c0-0.9,0.69-1.63,1.97-1.63
			c0.28,0,0.59,0.04,0.82,0.12l-0.17,0.71c-0.13-0.05-0.32-0.09-0.6-0.09c-0.56,0-0.93,0.36-0.92,0.86c0,0.56,0.42,0.86,0.94,0.86
			c0.25,0,0.45-0.04,0.61-0.1L59.82,102.43z"/>
		<path d="M61.9,101.52c0.29,0.13,0.73,0.26,1.19,0.26c0.49,0,0.75-0.18,0.75-0.46c0-0.26-0.23-0.41-0.8-0.6
			c-0.79-0.24-1.3-0.63-1.3-1.25c0-0.72,0.68-1.27,1.8-1.27c0.54,0,0.93,0.1,1.21,0.21l-0.24,0.77c-0.19-0.08-0.53-0.2-0.99-0.2
			s-0.69,0.19-0.69,0.41c0,0.27,0.27,0.39,0.88,0.6c0.84,0.28,1.23,0.66,1.23,1.26c0,0.71-0.61,1.32-1.92,1.32
			c-0.54,0-1.08-0.13-1.35-0.26L61.9,101.52z"/>
		<path d="M66.51,101.28c0.03,0.4,0.47,0.58,0.97,0.58c0.37,0,0.66-0.04,0.95-0.13l0.14,0.65c-0.35,0.13-0.78,0.19-1.25,0.19
			c-1.17,0-1.84-0.61-1.84-1.57c0-0.78,0.54-1.64,1.74-1.64c1.11,0,1.54,0.77,1.54,1.53c0,0.16-0.02,0.31-0.03,0.38H66.51z
			 M67.78,100.63c0-0.23-0.11-0.62-0.61-0.62c-0.45,0-0.63,0.36-0.66,0.62H67.78z"/>
		<path d="M69.41,100.42c0-0.38-0.01-0.71-0.03-0.98h0.9l0.05,0.41h0.02c0.15-0.19,0.45-0.48,1.04-0.48c0.44,0,0.8,0.2,0.95,0.52
			h0.01c0.13-0.16,0.28-0.28,0.44-0.37c0.19-0.1,0.4-0.15,0.66-0.15c0.66,0,1.16,0.41,1.16,1.33v1.81h-1.04v-1.67
			c0-0.45-0.16-0.7-0.51-0.7c-0.25,0-0.42,0.15-0.49,0.33c-0.03,0.07-0.04,0.17-0.04,0.24v1.79h-1.04v-1.72
			c0-0.39-0.15-0.65-0.49-0.65c-0.28,0-0.44,0.19-0.5,0.34c-0.03,0.08-0.04,0.16-0.04,0.24v1.79h-1.04V100.42z"/>
		<path d="M76.58,98.59c0,0.26-0.23,0.48-0.58,0.48c-0.34,0-0.57-0.21-0.56-0.48c-0.01-0.28,0.22-0.48,0.56-0.48
			C76.35,98.11,76.57,98.31,76.58,98.59z M75.47,102.51v-3.07h1.07v3.07H75.47z"/>
		<path d="M79.99,102.43c-0.19,0.08-0.55,0.14-0.96,0.14c-1.11,0-1.83-0.61-1.83-1.57c0-0.9,0.69-1.63,1.97-1.63
			c0.28,0,0.59,0.04,0.82,0.12l-0.17,0.71c-0.13-0.05-0.32-0.09-0.6-0.09c-0.56,0-0.93,0.36-0.92,0.86c0,0.56,0.42,0.86,0.94,0.86
			c0.25,0,0.45-0.04,0.61-0.1L79.99,102.43z"/>
		<path d="M83.91,100.94c0,1.12-0.9,1.64-1.82,1.64c-1.01,0-1.78-0.59-1.78-1.58c0-0.99,0.73-1.63,1.84-1.63
			C83.2,99.37,83.91,100.02,83.91,100.94z M81.41,100.97c0,0.53,0.25,0.92,0.7,0.92c0.42,0,0.68-0.37,0.68-0.92
			c0-0.46-0.2-0.92-0.68-0.92C81.6,100.05,81.41,100.52,81.41,100.97z"/>
		<path d="M84.57,100.42c0-0.38-0.01-0.71-0.03-0.98h0.93l0.05,0.42h0.02c0.14-0.19,0.49-0.49,1.07-0.49c0.7,0,1.23,0.41,1.23,1.32
			v1.82h-1.07v-1.7c0-0.39-0.15-0.66-0.54-0.66c-0.3,0-0.47,0.18-0.54,0.36c-0.03,0.06-0.04,0.15-0.04,0.24v1.77h-1.07V100.42z"/>
		<path d="M92.04,98.06v3.54c0,0.34,0.01,0.71,0.03,0.92h-0.95l-0.05-0.45h-0.01c-0.22,0.34-0.63,0.52-1.08,0.52
			c-0.82,0-1.47-0.62-1.47-1.57c-0.01-1.04,0.72-1.63,1.54-1.63c0.42,0,0.75,0.13,0.91,0.35h0.01v-1.66H92.04z M90.97,100.74
			c0-0.05-0.01-0.12-0.01-0.17c-0.06-0.26-0.3-0.47-0.63-0.47c-0.49,0-0.74,0.39-0.74,0.87c0,0.52,0.29,0.85,0.73,0.85
			c0.31,0,0.56-0.19,0.62-0.46c0.02-0.07,0.03-0.14,0.03-0.22V100.74z"/>
		<path d="M96.15,101.52c0,0.4,0.01,0.73,0.03,0.98h-0.93l-0.05-0.43h-0.02c-0.13,0.19-0.46,0.5-1.08,0.5
			c-0.7,0-1.21-0.39-1.21-1.34v-1.8h1.08v1.65c0,0.45,0.16,0.72,0.54,0.72c0.3,0,0.47-0.18,0.54-0.33c0.03-0.06,0.03-0.13,0.03-0.21
			v-1.83h1.08V101.52z"/>
		<path d="M99.59,102.43c-0.19,0.08-0.55,0.14-0.96,0.14c-1.11,0-1.83-0.61-1.83-1.57c0-0.9,0.69-1.63,1.97-1.63
			c0.28,0,0.59,0.04,0.82,0.12l-0.17,0.71c-0.13-0.05-0.32-0.09-0.6-0.09c-0.56,0-0.93,0.36-0.92,0.86c0,0.56,0.42,0.86,0.94,0.86
			c0.25,0,0.45-0.04,0.61-0.1L99.59,102.43z"/>
		<path d="M101.49,98.61v0.83h0.77v0.7h-0.77v1.11c0,0.37,0.1,0.54,0.42,0.54c0.15,0,0.21-0.01,0.32-0.02l0.01,0.72
			c-0.14,0.05-0.39,0.09-0.7,0.09c-0.35,0-0.63-0.11-0.8-0.27c-0.2-0.18-0.3-0.48-0.3-0.91v-1.26h-0.46v-0.7h0.46v-0.58
			L101.49,98.61z"/>
		<path d="M106.25,100.94c0,1.12-0.9,1.64-1.82,1.64c-1.01,0-1.78-0.59-1.78-1.58c0-0.99,0.73-1.63,1.84-1.63
			C105.55,99.37,106.25,100.02,106.25,100.94z M103.75,100.97c0,0.53,0.25,0.92,0.7,0.92c0.42,0,0.68-0.37,0.68-0.92
			c0-0.46-0.2-0.92-0.68-0.92C103.94,100.05,103.75,100.52,103.75,100.97z"/>
		<path d="M106.91,100.45c0-0.45-0.01-0.75-0.03-1.01h0.92l0.03,0.56h0.03c0.18-0.45,0.6-0.63,0.93-0.63c0.1,0,0.15,0,0.23,0.01v0.9
			c-0.08-0.02-0.17-0.03-0.29-0.03c-0.39,0-0.66,0.19-0.73,0.48c-0.01,0.06-0.02,0.14-0.02,0.21v1.56h-1.07V100.45z"/>
		<path class="st32" d="M23.07,105.8h1.08v3.43h1.89v0.8h-2.97V105.8z"/>
		<path class="st32" d="M27.87,106.8h-0.01l-0.87,0.37l-0.18-0.72l1.21-0.5h0.89v4.08h-1.04V106.8z"/>
		<path class="st32" d="M30.42,110.03v-0.58l0.59-0.48c1-0.8,1.49-1.25,1.5-1.73c0-0.33-0.23-0.6-0.75-0.6
			c-0.39,0-0.74,0.18-0.98,0.34l-0.3-0.68c0.35-0.23,0.88-0.42,1.5-0.42c1.04,0,1.61,0.54,1.61,1.28c0,0.68-0.56,1.23-1.22,1.76
			l-0.42,0.31v0.01h1.73v0.78H30.42z"/>
		<path d="M37.51,108.06v0.64h-1.85v-0.64H37.51z"/>
		<path d="M40.68,105.8v2.43c0,0.73,0.31,1.1,0.86,1.1c0.56,0,0.87-0.35,0.87-1.1v-2.43h1.07v2.37c0,1.3-0.74,1.93-1.98,1.93
			c-1.2,0-1.9-0.59-1.9-1.94v-2.36H40.68z"/>
		<path d="M44.42,105.86c0.28-0.05,0.85-0.09,1.39-0.09c0.66,0,1.06,0.06,1.4,0.24c0.33,0.16,0.57,0.45,0.57,0.83
			c0,0.38-0.25,0.73-0.78,0.9v0.01c0.54,0.13,0.94,0.5,0.94,1.04c0,0.38-0.2,0.68-0.49,0.9c-0.35,0.24-0.92,0.38-1.87,0.38
			c-0.53,0-0.92-0.03-1.16-0.06V105.86z M45.48,107.48h0.35c0.56,0,0.87-0.21,0.87-0.52c0-0.32-0.27-0.49-0.76-0.49
			c-0.23,0-0.37,0.01-0.46,0.03V107.48z M45.48,109.35c0.1,0.01,0.23,0.01,0.42,0.01c0.49,0,0.92-0.17,0.92-0.61
			c0-0.43-0.43-0.6-0.97-0.6h-0.37V109.35z"/>
		<path d="M48.71,109.05c0.29,0.13,0.73,0.26,1.19,0.26c0.49,0,0.75-0.18,0.75-0.46c0-0.26-0.23-0.41-0.8-0.6
			c-0.79-0.24-1.3-0.63-1.3-1.25c0-0.72,0.68-1.27,1.8-1.27c0.54,0,0.93,0.1,1.21,0.21l-0.24,0.77c-0.19-0.08-0.53-0.2-0.99-0.2
			s-0.69,0.19-0.69,0.41c0,0.27,0.27,0.39,0.88,0.6c0.84,0.28,1.23,0.66,1.23,1.26c0,0.71-0.61,1.32-1.92,1.32
			c-0.54,0-1.08-0.13-1.35-0.26L48.71,109.05z"/>
		<path class="st32" d="M23.07,113.33h1.08v3.43h1.89v0.8h-2.97V113.33z"/>
		<path class="st32" d="M27.87,114.32h-0.01l-0.87,0.37l-0.18-0.72l1.21-0.5h0.89v4.08h-1.04V114.32z"/>
		<path class="st32" d="M30.61,116.62c0.19,0.09,0.63,0.25,1.07,0.25c0.56,0,0.84-0.24,0.84-0.55c0-0.4-0.45-0.58-0.92-0.58h-0.44
			v-0.68h0.42c0.36-0.01,0.82-0.13,0.82-0.47c0-0.24-0.23-0.43-0.68-0.43c-0.37,0-0.77,0.14-0.96,0.24l-0.22-0.69
			c0.27-0.16,0.82-0.31,1.42-0.31c0.98,0,1.52,0.46,1.52,1.02c0,0.43-0.28,0.77-0.84,0.95v0.01c0.55,0.09,0.99,0.46,0.99,0.99
			c0,0.72-0.71,1.25-1.88,1.25c-0.59,0-1.09-0.14-1.36-0.29L30.61,116.62z"/>
		<path d="M37.51,115.59v0.64h-1.85v-0.64H37.51z"/>
		<path d="M43.58,117.36c-0.33,0.1-0.96,0.24-1.59,0.24c-0.87,0-1.49-0.19-1.93-0.57c-0.44-0.36-0.68-0.92-0.67-1.54
			c0.01-1.4,1.16-2.21,2.71-2.21c0.61,0,1.09,0.11,1.32,0.21l-0.23,0.77c-0.26-0.1-0.59-0.18-1.11-0.18c-0.9,0-1.57,0.45-1.57,1.37
			c0,0.87,0.61,1.39,1.49,1.39c0.25,0,0.44-0.03,0.53-0.06v-0.88h-0.73v-0.75h1.77V117.36z"/>
		<path d="M44.42,113.38c0.33-0.05,0.8-0.09,1.45-0.09c0.66,0,1.14,0.11,1.45,0.34c0.3,0.21,0.51,0.56,0.51,0.98
			c0,0.41-0.15,0.77-0.44,1c-0.37,0.31-0.91,0.45-1.54,0.45c-0.14,0-0.27-0.01-0.37-0.02v1.51h-1.07V113.38z M45.48,115.3
			c0.09,0.02,0.2,0.03,0.36,0.03c0.57,0,0.92-0.26,0.92-0.69c0-0.39-0.3-0.62-0.84-0.62c-0.22,0-0.37,0.02-0.44,0.04V115.3z"/>
		<path d="M52,117.44c-0.2,0.09-0.64,0.19-1.22,0.19c-1.64,0-2.49-0.92-2.49-2.12c0-1.44,1.16-2.25,2.6-2.25
			c0.56,0,0.98,0.1,1.17,0.19l-0.22,0.76c-0.22-0.08-0.52-0.16-0.9-0.16c-0.85,0-1.52,0.46-1.52,1.4c0,0.85,0.56,1.38,1.52,1.38
			c0.32,0,0.68-0.06,0.9-0.14L52,117.44z"/>
		<path d="M58.1,117.36c-0.33,0.1-0.96,0.24-1.59,0.24c-0.87,0-1.49-0.19-1.93-0.57c-0.44-0.36-0.68-0.92-0.67-1.54
			c0.01-1.4,1.16-2.21,2.71-2.21c0.61,0,1.09,0.11,1.32,0.21l-0.23,0.77c-0.26-0.1-0.59-0.18-1.11-0.18c-0.9,0-1.57,0.45-1.57,1.37
			c0,0.87,0.61,1.39,1.49,1.39c0.25,0,0.44-0.03,0.53-0.06v-0.88h-0.73v-0.75h1.77V117.36z"/>
		<path d="M58.92,113.1h1.07v4.45h-1.07V113.1z"/>
		<path d="M64.26,115.99c0,1.12-0.9,1.64-1.82,1.64c-1.01,0-1.78-0.59-1.78-1.58c0-0.99,0.73-1.63,1.84-1.63
			C63.56,114.42,64.26,115.07,64.26,115.99z M61.77,116.02c0,0.53,0.25,0.92,0.7,0.92c0.42,0,0.68-0.37,0.68-0.92
			c0-0.46-0.2-0.92-0.68-0.92C61.96,115.1,61.77,115.57,61.77,116.02z"/>
		<path d="M64.92,113.1h1.07v1.75h0.01c0.2-0.26,0.56-0.43,1.04-0.43c0.82,0,1.43,0.61,1.42,1.55c0,1.1-0.79,1.66-1.58,1.66
			c-0.4,0-0.79-0.13-1.04-0.5h-0.01l-0.04,0.43h-0.91c0.01-0.2,0.03-0.57,0.03-0.92V113.1z M65.99,116.25
			c0,0.06,0.01,0.12,0.02,0.17c0.07,0.26,0.32,0.45,0.63,0.45c0.46,0,0.74-0.31,0.74-0.87c0-0.48-0.24-0.85-0.74-0.85
			c-0.29,0-0.56,0.2-0.63,0.47c-0.01,0.06-0.02,0.11-0.02,0.18V116.25z"/>
		<path d="M72.01,116.81c0,0.29,0.01,0.58,0.05,0.75H71.1l-0.06-0.31h-0.02c-0.23,0.24-0.58,0.38-0.99,0.38
			c-0.7,0-1.11-0.45-1.11-0.94c0-0.8,0.8-1.18,2.02-1.17v-0.04c0-0.16-0.1-0.4-0.63-0.4c-0.35,0-0.73,0.11-0.95,0.23l-0.2-0.61
			c0.24-0.12,0.71-0.27,1.34-0.27c1.15,0,1.52,0.6,1.52,1.32V116.81z M70.97,116.11c-0.56-0.01-1,0.11-1,0.48
			c0,0.24,0.18,0.36,0.42,0.36c0.27,0,0.49-0.16,0.56-0.35c0.01-0.05,0.02-0.11,0.02-0.16V116.11z"/>
		<path d="M72.86,113.1h1.07v4.45h-1.07V113.1z"/>
		<path d="M76.9,114.13h-1.28v-0.8h3.65v0.8h-1.3v3.43H76.9V114.13z"/>
		<path d="M80.06,116.33c0.03,0.4,0.47,0.58,0.97,0.58c0.37,0,0.66-0.04,0.95-0.13l0.14,0.65c-0.35,0.13-0.78,0.19-1.25,0.19
			c-1.17,0-1.84-0.61-1.84-1.57c0-0.78,0.54-1.64,1.74-1.64c1.11,0,1.54,0.77,1.54,1.53c0,0.16-0.02,0.31-0.03,0.38H80.06z
			 M81.32,115.67c0-0.23-0.11-0.62-0.61-0.62c-0.45,0-0.63,0.36-0.66,0.62H81.32z"/>
		<path d="M85.54,117.48c-0.19,0.08-0.55,0.14-0.96,0.14c-1.11,0-1.83-0.61-1.83-1.57c0-0.9,0.69-1.63,1.97-1.63
			c0.28,0,0.59,0.04,0.82,0.12l-0.17,0.71c-0.13-0.05-0.32-0.09-0.6-0.09c-0.56,0-0.93,0.36-0.92,0.86c0,0.56,0.42,0.86,0.94,0.86
			c0.25,0,0.45-0.04,0.61-0.1L85.54,117.48z"/>
		<path d="M86.13,113.1h1.07v1.75h0.01c0.11-0.13,0.25-0.24,0.42-0.31c0.16-0.08,0.36-0.12,0.56-0.12c0.68,0,1.21,0.42,1.21,1.34
			v1.79h-1.07v-1.69c0-0.4-0.15-0.68-0.56-0.68c-0.28,0-0.46,0.16-0.54,0.33c-0.03,0.06-0.04,0.14-0.04,0.21v1.82h-1.07V113.1z"/>
		<path d="M90.26,115.47c0-0.38-0.01-0.71-0.03-0.98h0.93l0.05,0.42h0.02c0.14-0.19,0.49-0.49,1.07-0.49c0.7,0,1.23,0.41,1.23,1.32
			v1.82h-1.07v-1.7c0-0.39-0.15-0.66-0.54-0.66c-0.3,0-0.47,0.18-0.54,0.36c-0.03,0.06-0.04,0.15-0.04,0.24v1.77h-1.07V115.47z"/>
		<path d="M97.8,115.99c0,1.12-0.9,1.64-1.82,1.64c-1.01,0-1.78-0.59-1.78-1.58c0-0.99,0.73-1.63,1.84-1.63
			C97.09,114.42,97.8,115.07,97.8,115.99z M95.3,116.02c0,0.53,0.25,0.92,0.7,0.92c0.42,0,0.68-0.37,0.68-0.92
			c0-0.46-0.2-0.92-0.68-0.92C95.49,115.1,95.3,115.57,95.3,116.02z"/>
		<path d="M98.46,113.1h1.07v4.45h-1.07V113.1z"/>
		<path d="M103.8,115.99c0,1.12-0.9,1.64-1.82,1.64c-1.01,0-1.78-0.59-1.78-1.58c0-0.99,0.73-1.63,1.84-1.63
			C103.1,114.42,103.8,115.07,103.8,115.99z M101.3,116.02c0,0.53,0.25,0.92,0.7,0.92c0.42,0,0.68-0.37,0.68-0.92
			c0-0.46-0.2-0.92-0.68-0.92C101.49,115.1,101.3,115.57,101.3,116.02z"/>
		<path d="M107.75,117.11c0,0.59-0.13,1.07-0.52,1.38c-0.38,0.29-0.9,0.38-1.4,0.38c-0.45,0-0.93-0.08-1.24-0.24l0.21-0.72
			c0.22,0.11,0.6,0.23,1,0.23c0.51,0,0.9-0.24,0.9-0.81v-0.2h-0.01c-0.2,0.26-0.54,0.4-0.93,0.4c-0.85,0-1.46-0.61-1.46-1.5
			c0-0.98,0.72-1.61,1.57-1.61c0.47,0,0.77,0.18,0.94,0.43h0.01l0.04-0.36h0.93c-0.01,0.19-0.03,0.45-0.03,0.91V117.11z
			 M106.68,115.74c0-0.06-0.01-0.13-0.02-0.18c-0.08-0.25-0.28-0.42-0.58-0.42c-0.39,0-0.7,0.31-0.7,0.87c0,0.46,0.25,0.82,0.7,0.82
			c0.27,0,0.49-0.16,0.56-0.39c0.03-0.07,0.03-0.17,0.03-0.25V115.74z"/>
		<path d="M109.41,114.49l0.52,1.51c0.06,0.18,0.13,0.41,0.17,0.57h0.02c0.05-0.16,0.11-0.4,0.16-0.57l0.42-1.51h1.15l-0.8,2.02
			c-0.49,1.22-0.82,1.71-1.21,2.01c-0.37,0.29-0.77,0.39-1.04,0.42l-0.23-0.81c0.13-0.02,0.3-0.08,0.47-0.16
			c0.16-0.08,0.34-0.23,0.44-0.38c0.03-0.04,0.06-0.09,0.06-0.14c0-0.03-0.01-0.08-0.05-0.16l-1.26-2.8H109.41z"/>
		<path d="M117.24,117.44c-0.2,0.09-0.64,0.19-1.22,0.19c-1.64,0-2.49-0.92-2.49-2.12c0-1.44,1.16-2.25,2.6-2.25
			c0.56,0,0.98,0.1,1.17,0.19l-0.22,0.76c-0.22-0.08-0.52-0.16-0.9-0.16c-0.85,0-1.52,0.46-1.52,1.4c0,0.85,0.56,1.38,1.52,1.38
			c0.32,0,0.68-0.06,0.9-0.14L117.24,117.44z"/>
		<path d="M118.6,116.33c0.03,0.4,0.47,0.58,0.97,0.58c0.37,0,0.66-0.04,0.95-0.13l0.14,0.65c-0.35,0.13-0.78,0.19-1.25,0.19
			c-1.17,0-1.84-0.61-1.84-1.57c0-0.78,0.54-1.64,1.74-1.64c1.11,0,1.54,0.77,1.54,1.53c0,0.16-0.02,0.31-0.03,0.38H118.6z
			 M119.86,115.67c0-0.23-0.11-0.62-0.61-0.62c-0.45,0-0.63,0.36-0.66,0.62H119.86z"/>
		<path d="M121.49,115.47c0-0.38-0.01-0.71-0.03-0.98h0.93l0.05,0.42h0.02c0.14-0.19,0.49-0.49,1.07-0.49c0.7,0,1.23,0.41,1.23,1.32
			v1.82h-1.07v-1.7c0-0.39-0.15-0.66-0.54-0.66c-0.3,0-0.47,0.18-0.54,0.36c-0.03,0.06-0.04,0.15-0.04,0.24v1.77h-1.07V115.47z"/>
		<path d="M126.78,113.65v0.83h0.77v0.7h-0.77v1.11c0,0.37,0.1,0.54,0.42,0.54c0.15,0,0.21-0.01,0.32-0.02l0.01,0.72
			c-0.14,0.05-0.39,0.09-0.7,0.09c-0.35,0-0.63-0.11-0.8-0.27c-0.2-0.18-0.3-0.48-0.3-0.91v-1.26h-0.46v-0.7h0.46v-0.58
			L126.78,113.65z"/>
		<path d="M128.96,116.33c0.03,0.4,0.47,0.58,0.97,0.58c0.37,0,0.66-0.04,0.95-0.13l0.14,0.65c-0.35,0.13-0.78,0.19-1.25,0.19
			c-1.17,0-1.84-0.61-1.84-1.57c0-0.78,0.54-1.64,1.74-1.64c1.11,0,1.54,0.77,1.54,1.53c0,0.16-0.02,0.31-0.03,0.38H128.96z
			 M130.22,115.67c0-0.23-0.11-0.62-0.61-0.62c-0.45,0-0.63,0.36-0.66,0.62H130.22z"/>
		<path d="M131.85,115.5c0-0.45-0.01-0.75-0.03-1.01h0.92l0.03,0.56h0.03c0.18-0.45,0.6-0.63,0.93-0.63c0.1,0,0.15,0,0.23,0.01v0.9
			c-0.08-0.02-0.17-0.03-0.29-0.03c-0.39,0-0.66,0.19-0.73,0.48c-0.01,0.06-0.02,0.14-0.02,0.21v1.56h-1.07V115.5z"/>
		<path class="st32" d="M23.07,120.85h1.08v3.43h1.89v0.8h-2.97V120.85z"/>
		<path class="st32" d="M27.87,121.85h-0.01l-0.87,0.37l-0.18-0.72l1.21-0.5h0.89v4.08h-1.04V121.85z"/>
		<path class="st32" d="M32.31,125.08v-0.97h-2.03v-0.62l1.74-2.48h1.31v2.39h0.55v0.71h-0.55v0.97H32.31z M32.31,123.39v-0.9
			c0-0.24,0.01-0.5,0.04-0.76h-0.03c-0.15,0.26-0.27,0.5-0.42,0.76l-0.61,0.89v0.01H32.31z"/>
		<path d="M37.51,123.11v0.64h-1.85v-0.64H37.51z"/>
		<path d="M43.1,124.96c-0.2,0.09-0.64,0.19-1.22,0.19c-1.64,0-2.49-0.92-2.49-2.12c0-1.44,1.16-2.25,2.6-2.25
			c0.56,0,0.98,0.1,1.17,0.19l-0.22,0.76c-0.22-0.08-0.52-0.16-0.9-0.16c-0.85,0-1.52,0.46-1.52,1.4c0,0.85,0.56,1.38,1.52,1.38
			c0.32,0,0.68-0.06,0.9-0.14L43.1,124.96z"/>
		<path d="M46.57,124.33c0,0.29,0.01,0.58,0.05,0.75h-0.97l-0.06-0.31h-0.02c-0.23,0.24-0.58,0.38-0.99,0.38
			c-0.7,0-1.11-0.45-1.11-0.94c0-0.8,0.8-1.18,2.02-1.17v-0.04c0-0.16-0.1-0.4-0.63-0.4c-0.35,0-0.73,0.11-0.95,0.23l-0.2-0.61
			c0.24-0.12,0.71-0.27,1.34-0.27c1.15,0,1.52,0.6,1.52,1.32V124.33z M45.53,123.63c-0.56-0.01-1,0.11-1,0.48
			c0,0.24,0.18,0.36,0.42,0.36c0.27,0,0.49-0.16,0.56-0.35c0.01-0.05,0.02-0.11,0.02-0.16V123.63z"/>
		<path d="M47.42,123.04c0-0.4-0.01-0.75-0.03-1.03h0.93l0.05,0.43h0.01c0.25-0.33,0.65-0.5,1.15-0.5c0.75,0,1.43,0.58,1.43,1.56
			c0,1.12-0.8,1.64-1.57,1.64c-0.42,0-0.74-0.15-0.9-0.35h-0.01v1.52h-1.07V123.04z M48.49,123.76c0,0.08,0.01,0.14,0.02,0.2
			c0.07,0.26,0.32,0.45,0.63,0.45c0.47,0,0.74-0.35,0.74-0.87c0-0.49-0.25-0.86-0.73-0.86c-0.3,0-0.57,0.2-0.64,0.48
			c-0.01,0.05-0.02,0.11-0.02,0.17V123.76z"/>
		<path d="M54.92,124.63c0,0.59-0.13,1.07-0.52,1.38c-0.38,0.29-0.9,0.38-1.4,0.38c-0.45,0-0.93-0.08-1.24-0.24l0.21-0.72
			c0.22,0.11,0.6,0.23,1,0.23c0.51,0,0.9-0.24,0.9-0.81v-0.2h-0.01c-0.2,0.26-0.54,0.4-0.93,0.4c-0.85,0-1.46-0.61-1.46-1.5
			c0-0.98,0.72-1.61,1.57-1.61c0.47,0,0.77,0.18,0.94,0.43h0.01l0.04-0.36h0.93c-0.01,0.19-0.03,0.45-0.03,0.91V124.63z
			 M53.85,123.26c0-0.06-0.01-0.13-0.02-0.18c-0.08-0.25-0.28-0.42-0.58-0.42c-0.39,0-0.7,0.31-0.7,0.87c0,0.46,0.25,0.82,0.7,0.82
			c0.27,0,0.49-0.16,0.56-0.39c0.03-0.07,0.03-0.17,0.03-0.25V123.26z"/>
		<path d="M56.6,123.85c0.03,0.4,0.47,0.58,0.97,0.58c0.37,0,0.66-0.04,0.95-0.13l0.14,0.65c-0.35,0.13-0.78,0.19-1.25,0.19
			c-1.17,0-1.84-0.61-1.84-1.57c0-0.78,0.54-1.64,1.74-1.64c1.11,0,1.54,0.77,1.54,1.53c0,0.16-0.02,0.31-0.03,0.38H56.6z
			 M57.86,123.2c0-0.23-0.11-0.62-0.61-0.62c-0.45,0-0.63,0.36-0.66,0.62H57.86z"/>
		<path d="M59.5,122.99c0-0.38-0.01-0.71-0.03-0.98h0.9l0.05,0.41h0.02c0.15-0.19,0.45-0.48,1.04-0.48c0.44,0,0.8,0.2,0.95,0.52
			h0.01c0.13-0.16,0.28-0.28,0.44-0.37c0.19-0.1,0.4-0.15,0.66-0.15c0.66,0,1.16,0.41,1.16,1.33v1.81h-1.04v-1.67
			c0-0.45-0.16-0.7-0.51-0.7c-0.25,0-0.42,0.15-0.49,0.33c-0.03,0.07-0.04,0.17-0.04,0.24v1.79h-1.04v-1.72
			c0-0.39-0.15-0.65-0.49-0.65c-0.28,0-0.44,0.19-0.5,0.34c-0.03,0.08-0.04,0.16-0.04,0.24v1.79H59.5V122.99z"/>
		<path d="M66.66,121.16c0,0.26-0.23,0.48-0.58,0.48c-0.34,0-0.57-0.21-0.56-0.48c-0.01-0.28,0.22-0.48,0.56-0.48
			C66.44,120.67,66.66,120.88,66.66,121.16z M65.56,125.08v-3.07h1.07v3.07H65.56z"/>
		<path d="M67.49,122.99c0-0.38-0.01-0.71-0.03-0.98h0.93l0.05,0.42h0.02c0.14-0.19,0.49-0.49,1.07-0.49c0.7,0,1.23,0.41,1.23,1.32
			v1.82h-1.07v-1.7c0-0.39-0.15-0.66-0.54-0.66c-0.3,0-0.47,0.18-0.54,0.36c-0.03,0.06-0.04,0.15-0.04,0.24v1.77h-1.07V122.99z"/>
		<path d="M72.72,121.16c0,0.26-0.23,0.48-0.58,0.48c-0.34,0-0.57-0.21-0.56-0.48c-0.01-0.28,0.22-0.48,0.56-0.48
			C72.5,120.67,72.72,120.88,72.72,121.16z M71.62,125.08v-3.07h1.07v3.07H71.62z"/>
	</g>
</g>
</svg>
