<?xml version="1.0" encoding="utf-8"?>
<!-- Generator: Adobe Illustrator 23.0.1, SVG Export Plug-In . SVG Version: 6.00 Build 0)  -->
<svg version="1.1" id="Logo" xmlns="http://www.w3.org/2000/svg" xmlns:xlink="http://www.w3.org/1999/xlink" x="0px" y="0px"
	 viewBox="0 0 54.81 53.62" style="enable-background:new 0 0 54.81 53.62;" xml:space="preserve">
<style type="text/css">
	.st0{fill:#231F20;}
	.st1{fill:#F78F28;}
	.st2{fill:url(#SVGID_1_);}
	.st3{fill:none;stroke:#CE5E28;stroke-width:1.5;stroke-miterlimit:10;}
	.st4{fill:none;stroke:#CE5E28;stroke-width:2;stroke-miterlimit:10;}
</style>
<g>
	<path class="st3" d="M27.4,8.01c6.12,0,6.85,0.02,9.26,0.13c2.24,0.1,3.45,0.48,4.26,0.79c1.07,0.42,1.83,0.91,2.64,1.71
		c0.8,0.8,1.3,1.57,1.71,2.64c0.31,0.81,0.69,2.02,0.79,4.26c0.11,2.42,0.13,3.14,0.13,9.26s-0.02,6.85-0.13,9.26
		c-0.1,2.24-0.48,3.45-0.79,4.26c-0.42,1.07-0.91,1.83-1.71,2.64c-0.8,0.8-1.57,1.3-2.64,1.71c-0.81,0.31-2.02,0.69-4.26,0.79
		c-2.42,0.11-3.14,0.13-9.26,0.13c-6.12,0-6.85-0.02-9.26-0.13c-2.24-0.1-3.45-0.48-4.26-0.79c-1.07-0.42-1.83-0.91-2.64-1.71
		c-0.8-0.8-1.3-1.57-1.71-2.64c-0.31-0.81-0.69-2.02-0.79-4.26c-0.11-2.42-0.13-3.14-0.13-9.26s0.02-6.85,0.13-9.26
		c0.1-2.24,0.48-3.45,0.79-4.26c0.42-1.07,0.91-1.83,1.71-2.64c0.8-0.8,1.57-1.3,2.64-1.71c0.81-0.31,2.02-0.69,4.26-0.79
		C20.56,8.04,21.28,8.01,27.4,8.01"/>
	<path class="st4" d="M27.4,3.88c-6.23,0-7.01,0.03-9.45,0.14c-2.44,0.11-4.11,0.5-5.56,1.07C10.88,5.67,9.6,6.46,8.33,7.73
		c-1.27,1.27-2.06,2.55-2.64,4.06c-0.57,1.46-0.95,3.12-1.07,5.56c-0.11,2.45-0.14,3.23-0.14,9.45c0,6.23,0.03,7.01,0.14,9.45
		c0.11,2.44,0.5,4.11,1.07,5.56c0.59,1.51,1.37,2.79,2.64,4.06c1.27,1.27,2.55,2.06,4.06,2.64c1.46,0.57,3.12,0.95,5.56,1.07
		c2.45,0.11,3.23,0.14,9.45,0.14c6.23,0,7.01-0.03,9.45-0.14c2.44-0.11,4.11-0.5,5.56-1.07c1.51-0.59,2.79-1.37,4.06-2.64
		c1.27-1.27,2.06-2.55,2.64-4.06c0.57-1.46,0.95-3.12,1.07-5.56c0.11-2.45,0.14-3.23,0.14-9.45s-0.03-7.01-0.14-9.45
		c-0.11-2.44-0.5-4.11-1.07-5.56c-0.59-1.51-1.37-2.79-2.64-4.06c-1.27-1.27-2.55-2.06-4.06-2.64c-1.46-0.57-3.12-0.95-5.56-1.07
		C34.41,3.91,33.63,3.88,27.4,3.88L27.4,3.88z"/>
	<circle class="st3" cx="27.4" cy="26.81" r="11.77"/>
	<circle class="st3" cx="27.4" cy="26.81" r="7.64"/>
	<circle class="st3" cx="39.64" cy="14.57" r="2.75"/>
</g>
</svg>
