<?xml version="1.0" encoding="utf-8"?>
<!-- Generator: Adobe Illustrator 23.0.1, SVG Export Plug-In . SVG Version: 6.00 Build 0)  -->
<svg version="1.1" id="Logo" xmlns="http://www.w3.org/2000/svg" xmlns:xlink="http://www.w3.org/1999/xlink" x="0px" y="0px"
	 viewBox="0 0 214.47 79.66" style="enable-background:new 0 0 214.47 79.66;" xml:space="preserve">
<style type="text/css">
	.st0{fill:#231F20;}
	.st1{fill:#F78F28;}
	.st2{fill:url(#SVGID_1_);}
</style>
<g>
	<path class="st0" d="M73.21,59.12c-0.25,0.22-0.57,0.38-0.94,0.5c-0.37,0.11-0.76,0.17-1.16,0.17c-0.96,0-1.71-0.26-2.24-0.78
		c-0.53-0.52-0.8-1.26-0.8-2.22V48h1.74v2.1h2.75v1.43h-2.75v5.19c0,0.52,0.13,0.92,0.39,1.19c0.26,0.28,0.63,0.42,1.11,0.42
		c0.53,0,0.98-0.15,1.36-0.45L73.21,59.12z"/>
	<path class="st0" d="M85.51,53.89v5.79h-1.65v-1.27c-0.58,0.87-1.65,1.37-3.15,1.37c-2.17,0-3.54-1.16-3.54-2.82
		c0-1.54,0.99-2.8,3.85-2.8h2.75v-0.34c0-1.46-0.85-2.31-2.57-2.31c-1.14,0-2.3,0.4-3.04,1.03l-0.72-1.3
		c0.99-0.8,2.42-1.23,3.96-1.23C84.03,50.01,85.51,51.27,85.51,53.89z M83.77,56.75v-1.34H81.1c-1.72,0-2.21,0.67-2.21,1.48
		c0,0.96,0.8,1.55,2.12,1.55C82.31,58.45,83.34,57.85,83.77,56.75z"/>
	<path class="st0" d="M95.51,50.01v1.68c-0.14-0.02-0.27-0.02-0.4-0.02c-1.86,0-3.02,1.14-3.02,3.24v4.77h-1.74V50.1h1.66v1.61
		C92.64,50.58,93.83,50.01,95.51,50.01z"/>
	<path class="st0" d="M108.96,50.1v8.28c0,3.38-1.72,4.92-4.97,4.92c-1.75,0-3.53-0.49-4.57-1.43l0.83-1.34
		c0.89,0.76,2.28,1.25,3.69,1.25c2.26,0,3.29-1.05,3.29-3.22V57.8c-0.83,0.99-2.08,1.48-3.45,1.48c-2.77,0-4.86-1.88-4.86-4.65
		c0-2.77,2.1-4.63,4.86-4.63c1.43,0,2.73,0.52,3.54,1.57V50.1H108.96z M107.26,54.63c0-1.86-1.37-3.11-3.29-3.11
		c-1.93,0-3.31,1.25-3.31,3.11c0,1.84,1.37,3.13,3.31,3.13C105.88,57.76,107.26,56.48,107.26,54.63z"/>
	<path class="st0" d="M114.33,47.13c0-0.63,0.51-1.14,1.18-1.14c0.67,0,1.17,0.49,1.17,1.1c0,0.65-0.49,1.16-1.17,1.16
		C114.84,48.25,114.33,47.76,114.33,47.13z M114.64,50.1h1.74v9.58h-1.74V50.1z"/>
	<path class="st0" d="M138.56,54.89c0,2.95-2.04,4.9-4.85,4.9c-1.36,0-2.55-0.52-3.34-1.55v4.95h-1.74V50.1h1.66v1.52
		c0.78-1.07,2.01-1.61,3.42-1.61C136.51,50.01,138.56,51.96,138.56,54.89z M136.8,54.89c0-2.02-1.39-3.36-3.24-3.36
		c-1.83,0-3.22,1.34-3.22,3.36c0,2.04,1.39,3.38,3.22,3.38C135.41,58.27,136.8,56.93,136.8,54.89z"/>
	<path class="st0" d="M148.04,50.01v1.68c-0.14-0.02-0.27-0.02-0.4-0.02c-1.86,0-3.02,1.14-3.02,3.24v4.77h-1.74V50.1h1.66v1.61
		C145.17,50.58,146.36,50.01,148.04,50.01z"/>
	<path class="st0" d="M160.12,53.89v5.79h-1.65v-1.27c-0.58,0.87-1.65,1.37-3.15,1.37c-2.17,0-3.54-1.16-3.54-2.82
		c0-1.54,0.99-2.8,3.85-2.8h2.75v-0.34c0-1.46-0.85-2.31-2.57-2.31c-1.14,0-2.3,0.4-3.04,1.03l-0.72-1.3
		c0.99-0.8,2.42-1.23,3.96-1.23C158.64,50.01,160.12,51.27,160.12,53.89z M158.38,56.75v-1.34h-2.68c-1.72,0-2.21,0.67-2.21,1.48
		c0,0.96,0.8,1.55,2.12,1.55C156.92,58.45,157.95,57.85,158.38,56.75z"/>
	<path class="st0" d="M164.14,54.89c0-2.86,2.12-4.88,5.06-4.88c1.72,0,3.15,0.71,3.9,2.04l-1.32,0.85
		c-0.61-0.94-1.55-1.37-2.6-1.37c-1.88,0-3.29,1.32-3.29,3.36c0,2.08,1.41,3.38,3.29,3.38c1.05,0,1.99-0.43,2.6-1.37l1.32,0.83
		c-0.76,1.34-2.19,2.06-3.9,2.06C166.25,59.79,164.14,57.74,164.14,54.89z"/>
	<path class="st0" d="M186.31,50.1l-4.65,10.54c-0.85,2.02-1.95,2.66-3.42,2.66c-0.92,0-1.86-0.31-2.46-0.89l0.74-1.3
		c0.47,0.45,1.07,0.7,1.72,0.7c0.83,0,1.36-0.38,1.83-1.48l0.31-0.67l-4.23-9.56h1.81l3.34,7.67l3.31-7.67H186.31z"/>
	<g>
		<path class="st0" d="M98.77,41.5h-1.94V36.4c-2.51-0.28-3.76-1.55-3.76-3.82v-9.08h1.94v9.08c0,1.48,0.92,2.21,2.77,2.21
			c1.84,0,2.77-0.74,2.77-2.21v-9.08h1.94v9.08c0,2.27-1.24,3.54-3.71,3.82V41.5z"/>
		<path class="st0" d="M108.98,41.5h-1.94V23.51h0.83l0.69,1.8c0.89-1.48,2.11-2.21,3.68-2.21c2.71,0,4.07,1.29,4.07,3.87V41.5
			h-1.94V26.97c0-0.7-0.15-1.25-0.46-1.63c-0.3-0.39-0.86-0.58-1.67-0.58c-0.81,0-1.56,0.31-2.24,0.94
			c-0.68,0.63-1.02,1.24-1.02,1.83V41.5z"/>
		<path class="st0" d="M123.51,41.5h-1.94V23.51h1.94V41.5z"/>
		<path class="st0" d="M135.83,38.04v-1.52h1.94v1.52c0,1.24-0.38,2.19-1.13,2.86c-0.76,0.67-1.89,1.01-3.4,1.01
			c-1.51,0-2.66-0.34-3.43-1.01c-0.77-0.67-1.16-1.63-1.16-2.86V26.97c0-1.24,0.38-2.19,1.13-2.86c0.76-0.67,1.89-1.01,3.4-1.01
			c1.51,0,2.66,0.34,3.43,1.01c0.77,0.67,1.16,1.63,1.16,2.86v6.09h-7.2v4.98c0,1.48,0.88,2.21,2.63,2.21
			C134.95,40.25,135.83,39.51,135.83,38.04z M130.57,26.97v4.43h5.26v-4.43c0-1.48-0.88-2.21-2.63-2.21
			C131.45,24.75,130.57,25.49,130.57,26.97z"/>
		<path class="st0" d="M144.82,41.5h-1.94V23.51h0.83l0.8,2.05c0.59-1.64,1.53-2.46,2.82-2.46c2.2,0,3.29,1.2,3.29,3.6v1.8h-1.85
			v-1.91c0-1.22-0.51-1.83-1.52-1.83c-0.61,0-1.17,0.35-1.67,1.05c-0.51,0.7-0.76,1.72-0.76,3.04V41.5z"/>
		<path class="st0" d="M162.75,38.04c0,2.58-1.56,3.87-4.68,3.87c-3.12,0-4.68-1.29-4.68-3.87v-2.35h1.94v2.46
			c0,0.66,0.23,1.18,0.69,1.55c0.46,0.37,1.14,0.55,2.05,0.55c0.9,0,1.59-0.18,2.05-0.55c0.46-0.37,0.69-0.87,0.69-1.51
			c0-0.64-0.07-1.14-0.21-1.52c-0.14-0.38-0.42-0.78-0.84-1.2l-4.87-4.76c-0.57-0.57-0.96-1.13-1.18-1.67
			c-0.21-0.54-0.32-1.23-0.32-2.06c0-1.24,0.38-2.19,1.15-2.86s1.92-1.01,3.47-1.01c2.97,0,4.46,1.29,4.46,3.87v2.35h-1.94v-2.46
			c0-0.66-0.22-1.18-0.65-1.55c-0.43-0.37-1.08-0.55-1.95-0.55c-0.87,0-1.52,0.18-1.95,0.55c-0.43,0.37-0.65,0.88-0.65,1.52
			c0,0.65,0.06,1.15,0.19,1.52c0.13,0.37,0.42,0.76,0.86,1.16l4.95,4.76c0.53,0.59,0.9,1.16,1.11,1.7
			C162.65,36.52,162.75,37.21,162.75,38.04z"/>
		<path class="st0" d="M169.7,41.5h-1.94V23.51h1.94v7.64l4.82-7.64h2.16l-4.9,7.75l5.23,10.24h-2.13l-4.26-8.38l-0.91,1.47V41.5z"
			/>
		<path class="st0" d="M182.26,41.5h-1.94V23.51h1.94V41.5z"/>
		<path class="st0" d="M194.58,38.04v-1.52h1.94v1.52c0,1.24-0.38,2.19-1.13,2.86c-0.76,0.67-1.89,1.01-3.4,1.01
			c-1.51,0-2.66-0.34-3.43-1.01c-0.77-0.67-1.16-1.63-1.16-2.86V26.97c0-1.24,0.38-2.19,1.13-2.86c0.76-0.67,1.89-1.01,3.4-1.01
			c1.51,0,2.66,0.34,3.43,1.01s1.16,1.63,1.16,2.86v6.09h-7.2v4.98c0,1.48,0.88,2.21,2.63,2.21
			C193.7,40.25,194.58,39.51,194.58,38.04z M189.32,26.97v4.43h5.26v-4.43c0-1.48-0.88-2.21-2.63-2.21
			C190.2,24.75,189.32,25.49,189.32,26.97z"/>
		<rect x="142.88" y="23.51" class="st0" width="1.67" height="2.44"/>
		<rect x="107.05" y="23.51" class="st0" width="1.5" height="2.44"/>
		<g>
			<g>
				<path class="st1" d="M62.44,41.5H60.5V23.51h1.94V41.5z"/>
				<path class="st1" d="M69.91,41.5h-1.94V23.51h0.83l0.69,1.8c0.89-1.48,2.11-2.21,3.68-2.21c2.71,0,4.07,1.29,4.07,3.87V41.5
					h-1.94V26.97c0-0.7-0.15-1.25-0.46-1.63c-0.3-0.39-0.86-0.58-1.67-0.58c-0.81,0-1.56,0.31-2.24,0.94
					c-0.68,0.63-1.02,1.24-1.02,1.83V41.5z"/>
				<path class="st1" d="M81.12,25.17v-1.66h9.05v1.66l-7.44,14.67h7.31v1.66H80.7v-1.66l7.44-14.67H81.12z M88.51,33.09h-6.15V31.5
					h6.15V33.09z"/>
			</g>
			<rect x="67.97" y="23.51" class="st1" width="1.49" height="3.31"/>
		</g>
	</g>
	<path d="M47.18,39.81c0.2,1.11,0.22,2.27,0.05,3.44c-0.77,6.23-6.2,11.25-13.15,12.3l0.51,2.05c1.3,0.16,2.59,0.16,3.84,0.01
		l0.7-2.8c0.56-0.11,1.11-0.26,1.65-0.44l2.01,2.07c1.18-0.51,2.3-1.15,3.33-1.92l-0.79-2.77c0.43-0.38,0.83-0.78,1.21-1.21
		l2.77,0.79c0.76-1.01,1.41-2.13,1.92-3.33l-2.07-2.01c0.13-0.4,0.25-0.8,0.35-1.22c0.03-0.14,0.06-0.29,0.09-0.43l2.8-0.7
		c0.16-1.3,0.16-2.59,0.01-3.84l-2.8-0.7c-0.11-0.56-0.26-1.11-0.44-1.65l2.07-2.01c-0.51-1.18-1.15-2.3-1.92-3.33l-2.77,0.79
		c-0.38-0.43-0.78-0.83-1.21-1.21l0.79-2.77c-1.01-0.76-2.13-1.41-3.33-1.92l-2,2.07c-0.4-0.13-0.8-0.25-1.22-0.35
		c-0.14-0.03-0.29-0.06-0.43-0.09l-0.7-2.8c-1.3-0.16-2.59-0.16-3.84-0.01l-0.52,2.09C40.89,28.91,46.24,33.75,47.18,39.81z"/>
	<linearGradient id="SVGID_1_" gradientUnits="userSpaceOnUse" x1="20.515" y1="41.6969" x2="40.0635" y2="41.6969">
		<stop  offset="0" style="stop-color:#F78F27"/>
		<stop  offset="0.5768" style="stop-color:#F78D33"/>
		<stop  offset="0.6061" style="stop-color:#F78D33"/>
		<stop  offset="0.8057" style="stop-color:#F79126;stop-opacity:0.5"/>
		<stop  offset="0.9198" style="stop-color:#F69320;stop-opacity:0.2"/>
		<stop  offset="1" style="stop-color:#F69320;stop-opacity:0"/>
	</linearGradient>
	<path class="st2" d="M23.44,39.07l-2.8,0.7c-0.16,1.3-0.16,2.59-0.01,3.84l2.8,0.7c0.11,0.56,0.26,1.11,0.44,1.65l-2.07,2
		c0.5,1.18,1.15,2.3,1.92,3.33l2.78-0.79c0.37,0.43,0.78,0.83,1.21,1.21l-0.79,2.77c1.01,0.76,2.13,1.41,3.33,1.92l2-2.07
		c0.03,0.01,0.05,0.02,0.08,0.03c2.88-0.16,5.54-1.04,7.74-2.44c-1.87,0.65-3.95,0.8-6.02,0.31c-5.82-1.37-9.43-7.2-8.06-13.02
		c1.37-5.82,7.2-9.43,13.02-8.06c0.33,0.08,0.65,0.17,0.96,0.27c-2.19-1.37-4.83-2.23-7.7-2.37v-0.01c0,0-0.01,0-0.01,0l-2-2.07
		c-1.18,0.51-2.3,1.15-3.33,1.92l0.79,2.77c-0.43,0.38-0.83,0.78-1.21,1.21l-2.77-0.79c-0.76,1.01-1.41,2.13-1.92,3.33l2.07,2.01
		c-0.13,0.4-0.25,0.8-0.35,1.22C23.49,38.79,23.46,38.93,23.44,39.07z"/>
</g>
</svg>
