<?xml version="1.0" encoding="utf-8"?>
<!-- Generator: Adobe Illustrator 23.0.1, SVG Export Plug-In . SVG Version: 6.00 Build 0)  -->
<svg version="1.1" id="Logo" xmlns="http://www.w3.org/2000/svg" xmlns:xlink="http://www.w3.org/1999/xlink" x="0px" y="0px"
	 viewBox="0 0 54.81 53.62" style="enable-background:new 0 0 54.81 53.62;" xml:space="preserve">
<style type="text/css">
	.st0{fill:#231F20;}
	.st1{fill:#F78F28;}
	.st2{fill:url(#SVGID_1_);}
	.st3{fill:none;stroke:#CE5E28;stroke-width:2;stroke-miterlimit:10;}
	.st4{fill:none;stroke:#CE5E28;stroke-width:1.5;stroke-miterlimit:10;}
</style>
<g>
	<circle class="st3" cx="27.61" cy="27.87" r="23.69"/>
	<g>
		<g>
			<path class="st4" d="M29.44,24.64c0.39-0.44,0.71-0.88,1.11-1.26c1.23-1.16,2.68-1.74,4.38-1.73c0.93,0.01,1.85,0.08,2.75,0.34
				c2.06,0.59,3.25,2.01,3.82,4.02c0.43,1.51,0.51,3.05,0.51,4.6c0.01,3.27-0.01,6.55,0,9.82c0,0.31-0.09,0.39-0.39,0.38
				c-1.69-0.01-3.37-0.01-5.06,0c-0.3,0-0.36-0.09-0.36-0.37c0.01-3.11,0.01-6.23,0-9.34c0-0.78-0.05-1.56-0.27-2.32
				c-0.4-1.4-1.4-2.11-2.87-2.03c-2,0.11-3.04,1.1-3.29,3.13c-0.06,0.49-0.09,0.97-0.09,1.46c0,3.03,0,6.06,0.01,9.09
				c0,0.3-0.07,0.39-0.38,0.39c-1.7-0.02-3.4-0.01-5.09,0c-0.27,0-0.35-0.07-0.35-0.35c0.01-6,0.01-11.99,0-17.99
				c0-0.3,0.1-0.37,0.38-0.36c1.61,0.01,3.23,0.01,4.84,0c0.3,0,0.37,0.09,0.37,0.37C29.43,23.2,29.44,23.92,29.44,24.64z"/>
			<path class="st4" d="M20.2,31.49c0,2.97,0,5.93,0.01,8.9c0,0.33-0.08,0.43-0.42,0.43c-1.69-0.02-3.37-0.01-5.06,0
				c-0.27,0-0.35-0.07-0.35-0.34c0.01-6.01,0.01-12.01,0-18.02c0-0.25,0.06-0.34,0.32-0.34c1.71,0.01,3.42,0.01,5.13,0
				c0.33,0,0.37,0.12,0.37,0.41C20.2,25.51,20.2,28.5,20.2,31.49z"/>
			<path class="st4" d="M20.67,16.16c0,1.86-1.51,3.38-3.37,3.38c-1.83,0-3.36-1.52-3.36-3.35c-0.01-1.85,1.52-3.38,3.37-3.38
				C19.15,12.82,20.67,14.33,20.67,16.16z"/>
		</g>
	</g>
</g>
</svg>
